M48
; DRILL file {KiCad 9.0.8} date 2026-09-28T22:04:00-0400
; FORMAT={-:-/ absolute / metric / decimal}
; #@! TF.CreationDate,2026-09-28T22:04:00-04:00
; #@! TF.GenerationSoftware,Kicad,Pcbnew,9.0.8
; #@! TF.FileFunction,MixedPlating,1,2
FMAT,2
METRIC
; #@! TA.AperFunction,Plated,PTH,ViaDrill
T1C0.200
; #@! TA.AperFunction,Plated,PTH,ComponentDrill
T2C1.000
; #@! TA.AperFunction,NonPlated,NPTH,ComponentDrill
T3C2.200
%
G90
G05
T1
X89.625Y-101.36
X90.106Y-104.762
X90.272Y-117.016
X90.589Y-103.756
X91.0Y-104.5
X91.446Y-101.648
X91.591Y-103.202
X91.971Y-121.507
X91.984Y-100.708
X91.984Y-102.744
X92.428Y-104.426
X92.722Y-129.058
X92.741Y-127.633
X92.899Y-104.832
X93.467Y-100.503
X93.55Y-110.391
X93.589Y-101.31
X93.862Y-104.99
X94.0Y-108.0
X94.45Y-125.624
X94.5Y-104.978
X94.5Y-130.0
X94.734Y-102.618
X94.75Y-122.901
X94.831Y-134.569
X94.998Y-101.386
X95.452Y-143.452
X95.523Y-112.084
X95.551Y-110.438
X95.907Y-101.379
X96.0Y-104.979
X96.554Y-105.283
X96.554Y-114.05
X96.678Y-101.383
X96.952Y-101.981
X97.03Y-98.014
X97.03Y-99.012
X97.151Y-102.623
X97.45Y-119.285
X97.5Y-104.995
X97.541Y-98.639
X97.885Y-102.448
X97.956Y-115.611
X98.022Y-99.012
X98.5Y-102.623
X98.5Y-169.0
X98.6Y-101.382
X99.0Y-99.01
X99.0Y-104.985
X99.218Y-115.076
X99.5Y-102.622
X99.52Y-101.38
X100.0Y-104.983
X100.108Y-99.006
X100.5Y-101.377
X100.5Y-102.59
X101.0Y-105.041
X101.102Y-98.996
X101.5Y-105.838
X101.652Y-101.378
X102.018Y-105.29
X102.355Y-98.402
X102.457Y-99.007
X102.47Y-106.736
X102.941Y-106.199
X103.099Y-98.996
X103.429Y-105.142
X103.5Y-101.427
X103.794Y-109.843
X104.0Y-99.016
X104.047Y-105.121
X104.619Y-105.521
X104.78Y-99.014
X105.0Y-104.985
X105.593Y-99.015
X108.062Y-124.183
X108.53Y-136.239
X108.985Y-101.245
X108.985Y-151.165
X110.635Y-101.288
X111.694Y-101.68
X112.162Y-103.261
X113.343Y-108.572
X113.351Y-106.538
X113.809Y-108.164
X114.261Y-107.616
X115.005Y-110.884
X115.102Y-101.081
X115.46Y-102.078
T2
X91.0Y-113.0
X91.0Y-115.54
X91.0Y-118.08
X91.0Y-120.62
X91.0Y-123.16
X91.0Y-125.7
X91.0Y-128.24
X91.0Y-130.78
X91.0Y-133.32
X91.0Y-135.86
X91.0Y-138.4
X91.0Y-140.94
X91.0Y-143.48
X91.0Y-146.02
X91.0Y-148.56
X91.0Y-151.1
X91.0Y-153.64
X91.0Y-156.18
X91.0Y-158.72
X91.0Y-161.26
X91.0Y-163.8
X91.0Y-166.34
X91.0Y-168.88
X91.0Y-171.42
X91.0Y-173.96
X114.0Y-113.0
X114.0Y-115.54
X114.0Y-118.08
X114.0Y-120.62
X114.0Y-123.16
X114.0Y-125.7
X114.0Y-128.24
X114.0Y-130.78
X114.0Y-133.32
X114.0Y-135.86
X114.0Y-138.4
X114.0Y-140.94
X114.0Y-143.48
X114.0Y-146.02
X114.0Y-148.56
X114.0Y-151.1
X114.0Y-153.64
X114.0Y-156.18
X114.0Y-158.72
X114.0Y-161.26
X114.0Y-163.8
X114.0Y-166.34
X114.0Y-168.88
X114.0Y-171.42
X114.0Y-173.96
T3
X100.0Y-132.0
X100.0Y-177.46
M30
