%TF.GenerationSoftware,KiCad,Pcbnew,9.0.8*%
%TF.CreationDate,2026-09-28T22:04:00-04:00*%
%TF.ProjectId,pmgr_breakout_j21,706d6772-5f62-4726-9561-6b6f75745f6a,rev?*%
%TF.SameCoordinates,Original*%
%TF.FileFunction,Soldermask,Bot*%
%TF.FilePolarity,Negative*%
%FSLAX46Y46*%
G04 Gerber Fmt 4.6, Leading zero omitted, Abs format (unit mm)*
G04 Created by KiCad (PCBNEW 9.0.8) date 2026-09-28 22:04:00*
%MOMM*%
%LPD*%
G01*
G04 APERTURE LIST*
%ADD10R,1.700000X1.700000*%
%ADD11C,1.700000*%
%ADD12C,2.200000*%
%ADD13O,1.700000X1.700000*%
%ADD14R,0.300000X1.600000*%
G04 APERTURE END LIST*
D10*
%TO.C,J5*%
X91000000Y-113000000D03*
D11*
X91000000Y-115540000D03*
X91000000Y-118080000D03*
X91000000Y-120620000D03*
X91000000Y-123160000D03*
X91000000Y-125700000D03*
X91000000Y-128240000D03*
X91000000Y-130780000D03*
X91000000Y-133320000D03*
X91000000Y-135860000D03*
X91000000Y-138400000D03*
X91000000Y-140940000D03*
X91000000Y-143480000D03*
X91000000Y-146020000D03*
X91000000Y-148560000D03*
X91000000Y-151100000D03*
X91000000Y-153640000D03*
X91000000Y-156180000D03*
X91000000Y-158720000D03*
X91000000Y-161260000D03*
X91000000Y-163800000D03*
X91000000Y-166340000D03*
X91000000Y-168880000D03*
X91000000Y-171420000D03*
X91000000Y-173960000D03*
%TD*%
D12*
%TO.C,H2*%
X100000000Y-177460000D03*
%TD*%
D13*
%TO.C,J6*%
X114000000Y-113000000D03*
D11*
X114000000Y-115540000D03*
X114000000Y-118080000D03*
X114000000Y-120620000D03*
X114000000Y-123160000D03*
X114000000Y-125700000D03*
X114000000Y-128240000D03*
X114000000Y-130780000D03*
X114000000Y-133320000D03*
X114000000Y-135860000D03*
X114000000Y-138400000D03*
X114000000Y-140940000D03*
X114000000Y-143480000D03*
X114000000Y-146020000D03*
X114000000Y-148560000D03*
X114000000Y-151100000D03*
X114000000Y-153640000D03*
X114000000Y-156180000D03*
X114000000Y-158720000D03*
X114000000Y-161260000D03*
X114000000Y-163800000D03*
X114000000Y-166340000D03*
X114000000Y-168880000D03*
X114000000Y-171420000D03*
X114000000Y-173960000D03*
%TD*%
D12*
%TO.C,H1*%
X100000000Y-132000000D03*
%TD*%
D14*
%TO.C,J1*%
X94000000Y-103800000D03*
X94500000Y-103800000D03*
X95000000Y-103800000D03*
X95500000Y-103800000D03*
X96000000Y-103800000D03*
X96500000Y-103800000D03*
X97000000Y-103800000D03*
X97500000Y-103800000D03*
X98000000Y-103800000D03*
X98500000Y-103800000D03*
X99000000Y-103800000D03*
X99500000Y-103800000D03*
X100000000Y-103800000D03*
X100500000Y-103800000D03*
X101000000Y-103800000D03*
X101500000Y-103800000D03*
X102000000Y-103800000D03*
X102500000Y-103800000D03*
X103000000Y-103800000D03*
X103500000Y-103800000D03*
X104000000Y-103800000D03*
X104500000Y-103800000D03*
X105000000Y-103800000D03*
X105500000Y-103800000D03*
X106000000Y-103800000D03*
X94000000Y-100200000D03*
X94500000Y-100200000D03*
X95000000Y-100200000D03*
X95500000Y-100200000D03*
X96000000Y-100200000D03*
X96500000Y-100200000D03*
X97000000Y-100200000D03*
X97500000Y-100200000D03*
X98000000Y-100200000D03*
X98500000Y-100200000D03*
X99000000Y-100200000D03*
X99500000Y-100200000D03*
X100000000Y-100200000D03*
X100500000Y-100200000D03*
X101000000Y-100200000D03*
X101500000Y-100200000D03*
X102000000Y-100200000D03*
X102500000Y-100200000D03*
X103000000Y-100200000D03*
X103500000Y-100200000D03*
X104000000Y-100200000D03*
X104500000Y-100200000D03*
X105000000Y-100200000D03*
X105500000Y-100200000D03*
X106000000Y-100200000D03*
%TD*%
M02*
