%TF.GenerationSoftware,KiCad,Pcbnew,9.0.8*%
%TF.CreationDate,2026-09-28T22:04:00-04:00*%
%TF.ProjectId,pmgr_breakout_j21,706d6772-5f62-4726-9561-6b6f75745f6a,rev?*%
%TF.SameCoordinates,Original*%
%TF.FileFunction,Copper,L1,Top*%
%TF.FilePolarity,Positive*%
%FSLAX46Y46*%
G04 Gerber Fmt 4.6, Leading zero omitted, Abs format (unit mm)*
G04 Created by KiCad (PCBNEW 9.0.8) date 2026-09-28 22:04:00*
%MOMM*%
%LPD*%
G01*
G04 APERTURE LIST*
%TA.AperFunction,ComponentPad*%
%ADD10R,1.700000X1.700000*%
%TD*%
%TA.AperFunction,ComponentPad*%
%ADD11C,1.700000*%
%TD*%
%TA.AperFunction,SMDPad,CuDef*%
%ADD12R,0.300000X1.600000*%
%TD*%
%TA.AperFunction,ComponentPad*%
%ADD13O,1.700000X1.700000*%
%TD*%
%TA.AperFunction,ViaPad*%
%ADD14C,0.450000*%
%TD*%
%TA.AperFunction,Conductor*%
%ADD15C,0.150000*%
%TD*%
G04 APERTURE END LIST*
D10*
%TO.P,J5,1*%
%TO.N,+5V*%
X91000000Y-113000000D03*
D11*
%TO.P,J5,2*%
%TO.N,GND*%
X91000000Y-115540000D03*
%TO.P,J5,3*%
%TO.N,SIXTYHZ*%
X91000000Y-118080000D03*
%TO.P,J5,4*%
%TO.N,RESET_N*%
X91000000Y-120620000D03*
%TO.P,J5,5*%
%TO.N,SYS_RST_N*%
X91000000Y-123160000D03*
%TO.P,J5,6*%
%TO.N,SOUND_OFF*%
X91000000Y-125700000D03*
%TO.P,J5,7*%
%TO.N,ONESEC_N*%
X91000000Y-128240000D03*
%TO.P,J5,8*%
%TO.N,PMINT_N*%
X91000000Y-130780000D03*
%TO.P,J5,9*%
%TO.N,PMACK_N*%
X91000000Y-133320000D03*
%TO.P,J5,10*%
%TO.N,VIAD4*%
X91000000Y-135860000D03*
%TO.P,J5,11*%
%TO.N,PMREQ_N*%
X91000000Y-138400000D03*
%TO.P,J5,12*%
%TO.N,VIAD0*%
X91000000Y-140940000D03*
%TO.P,J5,13*%
%TO.N,VIAD5*%
X91000000Y-143480000D03*
%TO.P,J5,14*%
%TO.N,VIAD6*%
X91000000Y-146020000D03*
%TO.P,J5,15*%
%TO.N,PMGR_ADB*%
X91000000Y-148560000D03*
%TO.P,J5,16*%
%TO.N,MODEM_AB*%
X91000000Y-151100000D03*
%TO.P,J5,17*%
%TO.N,RING_DETECT*%
X91000000Y-153640000D03*
%TO.P,J5,18*%
%TO.N,MODEM_INS_N*%
X91000000Y-156180000D03*
%TO.P,J5,19*%
%TO.N,FDB*%
X91000000Y-158720000D03*
%TO.P,J5,20*%
%TO.N,PMGCLK_F*%
X91000000Y-161260000D03*
%TO.P,J5,21*%
%TO.N,N/C*%
X91000000Y-163800000D03*
%TO.P,J5,22*%
%TO.N,KBD_RST_N*%
X91000000Y-166340000D03*
%TO.P,J5,23*%
%TO.N,VIAD1*%
X91000000Y-168880000D03*
%TO.P,J5,24*%
%TO.N,VIAD2*%
X91000000Y-171420000D03*
%TO.P,J5,25*%
%TO.N,VIAD3*%
X91000000Y-173960000D03*
%TD*%
D12*
%TO.P,J2,1*%
%TO.N,PMINT_N*%
X94000000Y-103800000D03*
%TO.P,J2,2*%
%TO.N,ONESEC_N*%
X94500000Y-103800000D03*
%TO.P,J2,3*%
%TO.N,SOUND_OFF*%
X95000000Y-103800000D03*
%TO.P,J2,4*%
%TO.N,VIA_TEST*%
X95500000Y-103800000D03*
%TO.P,J2,5*%
%TO.N,SYS_RST_N*%
X96000000Y-103800000D03*
%TO.P,J2,6*%
%TO.N,RESET_N*%
X96500000Y-103800000D03*
%TO.P,J2,7*%
%TO.N,SIXTYHZ*%
X97000000Y-103800000D03*
%TO.P,J2,8*%
%TO.N,PMGR_RESET_N*%
X97500000Y-103800000D03*
%TO.P,J2,9*%
%TO.N,PMGCLK_F*%
X98000000Y-103800000D03*
%TO.P,J2,10*%
%TO.N,MODEM_INS_N*%
X98500000Y-103800000D03*
%TO.P,J2,11*%
%TO.N,DISP_BLANK_N*%
X99000000Y-103800000D03*
%TO.P,J2,12*%
%TO.N,FDB*%
X99500000Y-103800000D03*
%TO.P,J2,13*%
%TO.N,PMGR_ADB*%
X100000000Y-103800000D03*
%TO.P,J2,14*%
%TO.N,MODEM_AB*%
X100500000Y-103800000D03*
%TO.P,J2,15*%
%TO.N,RING_DETECT*%
X101000000Y-103800000D03*
%TO.P,J2,16*%
%TO.N,MINUS5_EN*%
X101500000Y-103800000D03*
%TO.P,J2,17*%
%TO.N,SYS_PWR_N*%
X102000000Y-103800000D03*
%TO.P,J2,18*%
%TO.N,AKD*%
X102500000Y-103800000D03*
%TO.P,J2,19*%
%TO.N,STOP_CLK*%
X103000000Y-103800000D03*
%TO.P,J2,20*%
%TO.N,CHRG_ON_N*%
X103500000Y-103800000D03*
%TO.P,J2,21*%
%TO.N,KBD_RST_N*%
X104000000Y-103800000D03*
%TO.P,J2,22*%
%TO.N,HICHG*%
X104500000Y-103800000D03*
%TO.P,J2,23*%
%TO.N,GND*%
X105000000Y-103800000D03*
%TO.P,J2,24*%
X105500000Y-103800000D03*
%TO.P,J2,25*%
X106000000Y-103800000D03*
%TO.P,J2,26*%
%TO.N,VIAD4*%
X94000000Y-100200000D03*
%TO.P,J2,27*%
%TO.N,VIAD3*%
X94500000Y-100200000D03*
%TO.P,J2,28*%
%TO.N,VIAD2*%
X95000000Y-100200000D03*
%TO.P,J2,29*%
%TO.N,VIAD1*%
X95500000Y-100200000D03*
%TO.P,J2,30*%
%TO.N,VIAD0*%
X96000000Y-100200000D03*
%TO.P,J2,31*%
%TO.N,PMREQ_N*%
X96500000Y-100200000D03*
%TO.P,J2,32*%
%TO.N,PMACK_N*%
X97000000Y-100200000D03*
%TO.P,J2,33*%
%TO.N,VIAD5*%
X97500000Y-100200000D03*
%TO.P,J2,34*%
%TO.N,VIAD6*%
X98000000Y-100200000D03*
%TO.P,J2,35*%
%TO.N,VIAD7*%
X98500000Y-100200000D03*
%TO.P,J2,36*%
%TO.N,PMGR_PWM*%
X99000000Y-100200000D03*
%TO.P,J2,37*%
%TO.N,PMGR_IN0*%
X99500000Y-100200000D03*
%TO.P,J2,38*%
%TO.N,AD_FILTER*%
X100000000Y-100200000D03*
%TO.P,J2,39*%
%TO.N,SOUND_LATCH*%
X100500000Y-100200000D03*
%TO.P,J2,40*%
%TO.N,OFF_HOOK*%
X101000000Y-100200000D03*
%TO.P,J2,41*%
%TO.N,IWM_CNTRL*%
X101500000Y-100200000D03*
%TO.P,J2,42*%
%TO.N,SCC_CNTRL*%
X102000000Y-100200000D03*
%TO.P,J2,43*%
%TO.N,HD_PWR_N*%
X102500000Y-100200000D03*
%TO.P,J2,44*%
%TO.N,MODEM_PWR_N*%
X103000000Y-100200000D03*
%TO.P,J2,45*%
%TO.N,SERIAL_PWR_N*%
X103500000Y-100200000D03*
%TO.P,J2,46*%
%TO.N,SOUND_PWR_N*%
X104000000Y-100200000D03*
%TO.P,J2,47*%
%TO.N,+5V*%
X104500000Y-100200000D03*
%TO.P,J2,48*%
X105000000Y-100200000D03*
%TO.P,J2,49*%
%TO.N,GND*%
X105500000Y-100200000D03*
%TO.P,J2,50*%
%TO.N,N/C*%
X106000000Y-100200000D03*
%TD*%
D13*
%TO.P,J6,1*%
%TO.N,+5V*%
X114000000Y-113000000D03*
D11*
%TO.P,J6,2*%
%TO.N,GND*%
X114000000Y-115540000D03*
%TO.P,J6,3*%
%TO.N,VIA_TEST*%
X114000000Y-118080000D03*
%TO.P,J6,4*%
%TO.N,CHRG_ON_N*%
X114000000Y-120620000D03*
%TO.P,J6,5*%
%TO.N,STOP_CLK*%
X114000000Y-123160000D03*
%TO.P,J6,6*%
%TO.N,AKD*%
X114000000Y-125700000D03*
%TO.P,J6,7*%
%TO.N,N/C*%
X114000000Y-128240000D03*
%TO.P,J6,8*%
%TO.N,SYS_PWR_N*%
X114000000Y-130780000D03*
%TO.P,J6,9*%
%TO.N,MINUS5_EN*%
X114000000Y-133320000D03*
%TO.P,J6,10*%
%TO.N,SOUND_PWR_N*%
X114000000Y-135860000D03*
%TO.P,J6,11*%
%TO.N,SERIAL_PWR_N*%
X114000000Y-138400000D03*
%TO.P,J6,12*%
%TO.N,MODEM_PWR_N*%
X114000000Y-140940000D03*
%TO.P,J6,13*%
%TO.N,IWM_CNTRL*%
X114000000Y-143480000D03*
%TO.P,J6,14*%
%TO.N,SCC_CNTRL*%
X114000000Y-146020000D03*
%TO.P,J6,15*%
%TO.N,HD_PWR_N*%
X114000000Y-148560000D03*
%TO.P,J6,16*%
%TO.N,DISP_BLANK_N*%
X114000000Y-151100000D03*
%TO.P,J6,17*%
%TO.N,N/C*%
X114000000Y-153640000D03*
%TO.P,J6,18*%
%TO.N,OFF_HOOK*%
X114000000Y-156180000D03*
%TO.P,J6,19*%
%TO.N,SOUND_LATCH*%
X114000000Y-158720000D03*
%TO.P,J6,20*%
%TO.N,AD_FILTER*%
X114000000Y-161260000D03*
%TO.P,J6,21*%
%TO.N,PMGR_PWM*%
X114000000Y-163800000D03*
%TO.P,J6,22*%
%TO.N,HICHG*%
X114000000Y-166340000D03*
%TO.P,J6,23*%
%TO.N,PMGR_RESET_N*%
X114000000Y-168880000D03*
%TO.P,J6,24*%
%TO.N,PMGR_IN0*%
X114000000Y-171420000D03*
%TO.P,J6,25*%
%TO.N,VIAD7*%
X114000000Y-173960000D03*
%TD*%
D14*
%TO.N,+5V*%
X104780000Y-99014100D03*
X89624900Y-101360000D03*
X114261000Y-107616000D03*
X115102000Y-101081000D03*
X90106356Y-104761767D03*
%TO.N,AD_FILTER*%
X100108000Y-99006100D03*
X112162000Y-103261000D03*
%TO.N,AKD*%
X102470000Y-106736000D03*
%TO.N,CHRG_ON_N*%
X103429000Y-105142000D03*
%TO.N,DISP_BLANK_N*%
X99000000Y-104985000D03*
%TO.N,FDB*%
X99500000Y-102622000D03*
X99218500Y-115076000D03*
%TO.N,GND*%
X97450000Y-119285000D03*
X103794000Y-109843000D03*
X105593000Y-99015200D03*
X105000000Y-104985000D03*
X91971200Y-121507000D03*
%TO.N,HD_PWR_N*%
X113351000Y-106538000D03*
X102457000Y-99007200D03*
%TO.N,HICHG*%
X104619000Y-105521000D03*
%TO.N,IWM_CNTRL*%
X115005000Y-110884000D03*
X101652000Y-101378000D03*
%TO.N,KBD_RST_N*%
X104047000Y-105121000D03*
%TO.N,MINUS5_EN*%
X101500000Y-105838000D03*
%TO.N,MODEM_AB*%
X100500000Y-102590000D03*
%TO.N,MODEM_INS_N*%
X97955700Y-115611000D03*
X98500000Y-102623000D03*
%TO.N,MODEM_PWR_N*%
X108062000Y-124183000D03*
X103099000Y-98996400D03*
%TO.N,OFF_HOOK*%
X108985000Y-101245000D03*
X108985000Y-151165000D03*
X101102000Y-98996400D03*
%TO.N,ONESEC_N*%
X94500000Y-104978000D03*
X94450000Y-125624000D03*
%TO.N,PMACK_N*%
X91984000Y-100708000D03*
X97029900Y-99011800D03*
X97029900Y-98014000D03*
X91984000Y-102744000D03*
X92428300Y-104426000D03*
%TO.N,PMGCLK_F*%
X97885400Y-102448000D03*
X95452100Y-143452000D03*
%TO.N,PMGR_ADB*%
X100000000Y-104983000D03*
%TO.N,PMGR_IN0*%
X110635000Y-101288000D03*
X99519900Y-101380000D03*
%TO.N,PMGR_PWM*%
X99000000Y-99010100D03*
X111694000Y-101680000D03*
%TO.N,PMGR_RESET_N*%
X97500000Y-104995000D03*
%TO.N,PMINT_N*%
X92722500Y-129058000D03*
X93861600Y-104990000D03*
%TO.N,PMREQ_N*%
X90589300Y-103756000D03*
X96678400Y-101383000D03*
X95522900Y-112084000D03*
X94831300Y-134569000D03*
%TO.N,RESET_N*%
X96553700Y-105283000D03*
X96553700Y-114050000D03*
%TO.N,RING_DETECT*%
X101000000Y-105041000D03*
%TO.N,SCC_CNTRL*%
X108530000Y-136239000D03*
X102355000Y-98402500D03*
%TO.N,SERIAL_PWR_N*%
X113343000Y-108572000D03*
X103500000Y-101427000D03*
%TO.N,SIXTYHZ*%
X97150700Y-102623000D03*
%TO.N,SOUND_LATCH*%
X100500000Y-101377000D03*
%TO.N,SOUND_OFF*%
X94750000Y-122901000D03*
X94734100Y-102618000D03*
%TO.N,SOUND_PWR_N*%
X104000000Y-99016400D03*
X113809000Y-108164000D03*
%TO.N,STOP_CLK*%
X102941000Y-106199000D03*
%TO.N,SYS_PWR_N*%
X102018000Y-105290000D03*
%TO.N,SYS_RST_N*%
X90272000Y-117016000D03*
X96000000Y-104979000D03*
%TO.N,VIAD0*%
X91591500Y-103202000D03*
X91446100Y-101648000D03*
X93550000Y-110391494D03*
%TO.N,VIAD1*%
X95551100Y-110438000D03*
X95906900Y-101379000D03*
%TO.N,VIAD2*%
X94997800Y-101386000D03*
%TO.N,VIAD3*%
X91000000Y-104500000D03*
X93589100Y-101310000D03*
X98500000Y-169000000D03*
X94000000Y-108000000D03*
X94500000Y-130000000D03*
%TO.N,VIAD4*%
X92741400Y-127633000D03*
X93467400Y-100503000D03*
X92898900Y-104832000D03*
%TO.N,VIAD5*%
X97541100Y-98639200D03*
%TO.N,VIAD6*%
X98022300Y-99012500D03*
%TO.N,VIAD7*%
X98600000Y-101382000D03*
X115460000Y-102078000D03*
%TO.N,VIA_TEST*%
X96951600Y-101981000D03*
%TD*%
D15*
%TO.N,+5V*%
X104500000Y-100200000D02*
X104500000Y-99173300D01*
X89624900Y-101360000D02*
X89624900Y-104280311D01*
X114000000Y-111923000D02*
X114000000Y-113000000D01*
X104500000Y-99173300D02*
X105000000Y-99173300D01*
X114261000Y-111662000D02*
X114000000Y-111923000D01*
X114261000Y-101922000D02*
X115102000Y-101081000D01*
X104780000Y-99014100D02*
X104780000Y-99173300D01*
X89624900Y-104280311D02*
X90106356Y-104761767D01*
X105000000Y-99173300D02*
X105000000Y-100200000D01*
X114261000Y-107616000D02*
X114261000Y-101922000D01*
X114261000Y-107616000D02*
X114261000Y-111662000D01*
%TO.N,AD_FILTER*%
X114000000Y-161260000D02*
X111996000Y-159256000D01*
X111996000Y-103428000D02*
X112162000Y-103261000D01*
X111996000Y-159256000D02*
X111996000Y-103428000D01*
X100000000Y-99173300D02*
X100108000Y-99065800D01*
X100108000Y-99065800D02*
X100108000Y-99006100D01*
X100000000Y-100200000D02*
X100000000Y-99173300D01*
%TO.N,AKD*%
X102500000Y-103800000D02*
X102500000Y-104827000D01*
X102470000Y-104857000D02*
X102470000Y-106736000D01*
X102500000Y-104827000D02*
X102470000Y-104857000D01*
%TO.N,CHRG_ON_N*%
X103500000Y-105071000D02*
X103429000Y-105142000D01*
X103500000Y-103800000D02*
X103500000Y-105071000D01*
%TO.N,DISP_BLANK_N*%
X99000000Y-103800000D02*
X99000000Y-104985000D01*
%TO.N,FDB*%
X97300000Y-121844755D02*
X97000000Y-121544755D01*
X97000000Y-121544755D02*
X97000000Y-117294012D01*
X91000000Y-158720000D02*
X97300000Y-152420000D01*
X97300000Y-152420000D02*
X97300000Y-121844755D01*
X97000000Y-117294012D02*
X99218500Y-115076000D01*
X99500000Y-103800000D02*
X99500000Y-102622000D01*
%TO.N,GND*%
X105500000Y-103800000D02*
X105500000Y-102773000D01*
X106000000Y-103800000D02*
X106000000Y-102773000D01*
X105000000Y-102773000D02*
X105000000Y-103800000D01*
X92088500Y-116628000D02*
X91000000Y-115540000D01*
X105500000Y-102773000D02*
X105000000Y-102773000D01*
X97450000Y-119231000D02*
X97450000Y-119285000D01*
X105000000Y-103800000D02*
X105000000Y-104985000D01*
X92088500Y-121390000D02*
X92088500Y-116628000D01*
X106000000Y-102773000D02*
X105500000Y-102773000D01*
X91971200Y-121507000D02*
X92088500Y-121390000D01*
X105593000Y-99079900D02*
X105593000Y-99015200D01*
X103794000Y-109843000D02*
X103794000Y-112887000D01*
X105500000Y-100200000D02*
X105500000Y-99173300D01*
X103794000Y-112887000D02*
X97450000Y-119231000D01*
X105500000Y-100200000D02*
X105500000Y-102773000D01*
X105500000Y-99173300D02*
X105593000Y-99079900D01*
%TO.N,HD_PWR_N*%
X102500000Y-100200000D02*
X102500000Y-99173300D01*
X114000000Y-148560000D02*
X112297000Y-146857000D01*
X112297000Y-146857000D02*
X112297000Y-107592000D01*
X112297000Y-107592000D02*
X113351000Y-106538000D01*
X102500000Y-99049900D02*
X102457000Y-99007200D01*
X102500000Y-100200000D02*
X102500000Y-99049900D01*
%TO.N,HICHG*%
X104619000Y-156959000D02*
X104619000Y-105521000D01*
X104500000Y-105402000D02*
X104500000Y-103800000D01*
X104619000Y-105521000D02*
X104500000Y-105402000D01*
X114000000Y-166340000D02*
X104619000Y-156959000D01*
%TO.N,IWM_CNTRL*%
X114000000Y-143480000D02*
X115102000Y-142378000D01*
X115102000Y-110981000D02*
X115005000Y-110884000D01*
X115102000Y-142378000D02*
X115102000Y-110981000D01*
X101500000Y-101227000D02*
X101652000Y-101378000D01*
X101500000Y-100200000D02*
X101500000Y-101227000D01*
%TO.N,KBD_RST_N*%
X91000000Y-166340000D02*
X104246000Y-153094000D01*
X104047000Y-109458000D02*
X104047000Y-105121000D01*
X104000000Y-105074000D02*
X104000000Y-103800000D01*
X104047000Y-105121000D02*
X104000000Y-105074000D01*
X104246000Y-153094000D02*
X104246000Y-109656000D01*
X104246000Y-109656000D02*
X104047000Y-109458000D01*
%TO.N,MINUS5_EN*%
X101500000Y-103800000D02*
X101500000Y-105838000D01*
%TO.N,MODEM_AB*%
X96400000Y-145700000D02*
X96400000Y-122217547D01*
X96910800Y-115635000D02*
X96910800Y-115208000D01*
X100500000Y-103800000D02*
X100500000Y-102590000D01*
X100500000Y-111619000D02*
X100500000Y-103800000D01*
X96100000Y-121917547D02*
X96100000Y-116444963D01*
X96400000Y-122217547D02*
X96100000Y-121917547D01*
X96910800Y-115208000D02*
X100500000Y-111619000D01*
X96100000Y-116444963D02*
X96910800Y-115635000D01*
X91000000Y-151100000D02*
X96400000Y-145700000D01*
%TO.N,MODEM_INS_N*%
X91000000Y-156180000D02*
X97000000Y-150180000D01*
X97000000Y-121969019D02*
X96700000Y-121669019D01*
X96700000Y-116866318D02*
X97955700Y-115611000D01*
X96700000Y-121669019D02*
X96700000Y-116866318D01*
X97000000Y-150180000D02*
X97000000Y-121969019D01*
X98500000Y-103800000D02*
X98500000Y-102623000D01*
%TO.N,MODEM_PWR_N*%
X103000000Y-100200000D02*
X103000000Y-99173300D01*
X108062000Y-100840000D02*
X108062000Y-124183000D01*
X103542000Y-98552500D02*
X105775000Y-98552500D01*
X103000000Y-99173300D02*
X103099000Y-99074700D01*
X103099000Y-99074700D02*
X103099000Y-98996400D01*
X103099000Y-98996400D02*
X103542000Y-98552500D01*
X105775000Y-98552500D02*
X108062000Y-100840000D01*
%TO.N,OFF_HOOK*%
X101102000Y-99071700D02*
X101102000Y-98996400D01*
X108985000Y-151165000D02*
X108985000Y-101245000D01*
X101000000Y-99173300D02*
X101102000Y-99071700D01*
X101000000Y-100200000D02*
X101000000Y-99173300D01*
%TO.N,ONESEC_N*%
X94300000Y-115124264D02*
X94300000Y-125474000D01*
X94500000Y-104978000D02*
X94500000Y-114924264D01*
X94500000Y-114924264D02*
X94300000Y-115124264D01*
X94500000Y-104978000D02*
X94500000Y-103800000D01*
X94300000Y-125474000D02*
X94450000Y-125624000D01*
%TO.N,PMACK_N*%
X89923300Y-132243000D02*
X89923300Y-127754000D01*
X97029900Y-99143400D02*
X97029900Y-99011800D01*
X91260300Y-126970000D02*
X92428300Y-125802000D01*
X97029900Y-98014000D02*
X97029900Y-99011800D01*
X97000000Y-100200000D02*
X97000000Y-99173300D01*
X91984000Y-100708000D02*
X91984000Y-102744000D01*
X91000000Y-133320000D02*
X89923300Y-132243000D01*
X92428300Y-125802000D02*
X92428300Y-104426000D01*
X90707600Y-126970000D02*
X91260300Y-126970000D01*
X89923300Y-127754000D02*
X90707600Y-126970000D01*
X97000000Y-99173300D02*
X97029900Y-99143400D01*
%TO.N,PMGCLK_F*%
X95800000Y-122466075D02*
X95500000Y-122166075D01*
X98000000Y-103800000D02*
X98000000Y-102563000D01*
X95800000Y-123335925D02*
X95800000Y-122466075D01*
X96307400Y-115385000D02*
X96307400Y-114958000D01*
X95604300Y-143300000D02*
X95604300Y-123531625D01*
X95452100Y-143452000D02*
X95604300Y-143300000D01*
X95500000Y-116191567D02*
X96307400Y-115385000D01*
X95604300Y-123531625D02*
X95800000Y-123335925D01*
X95500000Y-122166075D02*
X95500000Y-116191567D01*
X96307400Y-114958000D02*
X98000000Y-113265000D01*
X98000000Y-113265000D02*
X98000000Y-103800000D01*
X98000000Y-102563000D02*
X97885400Y-102448000D01*
%TO.N,PMGR_ADB*%
X100000000Y-103800000D02*
X100000000Y-104983000D01*
X100000000Y-111692000D02*
X100000000Y-104983000D01*
X96100000Y-143460000D02*
X96100000Y-122341811D01*
X96609100Y-115510000D02*
X96609100Y-115083000D01*
X91000000Y-148560000D02*
X96100000Y-143460000D01*
X95800000Y-116319193D02*
X96609100Y-115510000D01*
X95800000Y-122041811D02*
X95800000Y-116319193D01*
X96100000Y-122341811D02*
X95800000Y-122041811D01*
X96609100Y-115083000D02*
X100000000Y-111692000D01*
%TO.N,PMGR_IN0*%
X115085000Y-170335000D02*
X115085000Y-165881000D01*
X99500000Y-101360000D02*
X99519900Y-101380000D01*
X114000000Y-171420000D02*
X115085000Y-170335000D01*
X114274000Y-165070000D02*
X113742000Y-165070000D01*
X110635000Y-161963000D02*
X110635000Y-101288000D01*
X115085000Y-165881000D02*
X114274000Y-165070000D01*
X113742000Y-165070000D02*
X110635000Y-161963000D01*
X99500000Y-100200000D02*
X99500000Y-101360000D01*
%TO.N,PMGR_PWM*%
X99000000Y-100200000D02*
X99000000Y-99010100D01*
X114000000Y-163800000D02*
X111694000Y-161494000D01*
X111694000Y-161494000D02*
X111694000Y-101680000D01*
%TO.N,PMGR_RESET_N*%
X97500000Y-103800000D02*
X97500000Y-104995000D01*
%TO.N,PMINT_N*%
X94000000Y-104827000D02*
X93861600Y-104965000D01*
X93193100Y-105658000D02*
X93861600Y-104990000D01*
X94000000Y-103800000D02*
X94000000Y-104827000D01*
X92722500Y-129058000D02*
X93193100Y-128587000D01*
X93861600Y-104965000D02*
X93861600Y-104990000D01*
X93100000Y-110205097D02*
X93193100Y-110111997D01*
X93100000Y-110577891D02*
X93100000Y-110205097D01*
X93193100Y-110111997D02*
X93193100Y-105658000D01*
X93193100Y-128587000D02*
X93193100Y-110670991D01*
X93193100Y-110670991D02*
X93100000Y-110577891D01*
%TO.N,PMREQ_N*%
X95522900Y-115316000D02*
X95522900Y-112084000D01*
X96500000Y-100713000D02*
X96500000Y-101227000D01*
X96500000Y-100200000D02*
X96500000Y-101227000D01*
X90589300Y-101038000D02*
X90589300Y-103756000D01*
X96500000Y-101227000D02*
X96522400Y-101227000D01*
X96500000Y-100200000D02*
X96500000Y-99118500D01*
X95200000Y-122714603D02*
X94900000Y-122414603D01*
X95000900Y-134399000D02*
X95000900Y-123286497D01*
X95000900Y-123286497D02*
X95200000Y-123087397D01*
X95200000Y-123087397D02*
X95200000Y-122714603D01*
X96522400Y-101227000D02*
X96678400Y-101383000D01*
X96500000Y-99118500D02*
X96222000Y-98840500D01*
X94900000Y-122414603D02*
X94900000Y-115938179D01*
X94831300Y-134569000D02*
X95000900Y-134399000D01*
X94900000Y-115938179D02*
X95522900Y-115316000D01*
X96222000Y-98840500D02*
X92786300Y-98840500D01*
X92786300Y-98840500D02*
X90589300Y-101038000D01*
%TO.N,RESET_N*%
X96500000Y-103800000D02*
X96500000Y-104827000D01*
X96553700Y-105283000D02*
X96553700Y-114050000D01*
X96500000Y-104827000D02*
X96553700Y-104880000D01*
X96553700Y-104880000D02*
X96553700Y-105283000D01*
%TO.N,RING_DETECT*%
X91000000Y-153640000D02*
X96700000Y-147940000D01*
X96400000Y-121793283D02*
X96400000Y-116572593D01*
X97212500Y-115760000D02*
X97212500Y-115715000D01*
X101000000Y-103800000D02*
X101000000Y-105041000D01*
X96700000Y-147940000D02*
X96700000Y-122093283D01*
X97212500Y-115715000D02*
X101000000Y-111928000D01*
X96400000Y-116572593D02*
X97212500Y-115760000D01*
X96700000Y-122093283D02*
X96400000Y-121793283D01*
X101000000Y-111928000D02*
X101000000Y-105041000D01*
%TO.N,SCC_CNTRL*%
X102524000Y-98232800D02*
X102355000Y-98402500D01*
X102000000Y-98757100D02*
X102355000Y-98402500D01*
X105882000Y-98232800D02*
X102524000Y-98232800D01*
X108530000Y-100880000D02*
X105882000Y-98232800D01*
X102000000Y-100200000D02*
X102000000Y-98757100D01*
X108530000Y-136239000D02*
X108530000Y-100880000D01*
%TO.N,SERIAL_PWR_N*%
X112599000Y-136999000D02*
X112599000Y-109316000D01*
X103500000Y-101427000D02*
X103500000Y-100200000D01*
X112599000Y-109316000D02*
X113343000Y-108572000D01*
X114000000Y-138400000D02*
X112599000Y-136999000D01*
%TO.N,SIXTYHZ*%
X97000000Y-103800000D02*
X97000000Y-102773000D01*
X97000000Y-102773000D02*
X97150700Y-102623000D01*
%TO.N,SOUND_LATCH*%
X100500000Y-100200000D02*
X100500000Y-101377000D01*
X100500000Y-100200000D02*
X100500000Y-101227000D01*
%TO.N,SOUND_OFF*%
X94889600Y-102773000D02*
X94734100Y-102618000D01*
X95000000Y-103800000D02*
X95000000Y-114848528D01*
X95000000Y-103800000D02*
X95000000Y-102773000D01*
X94600000Y-122751000D02*
X94750000Y-122901000D01*
X95000000Y-114848528D02*
X94600000Y-115248528D01*
X95000000Y-102773000D02*
X94889600Y-102773000D01*
X94600000Y-115248528D02*
X94600000Y-122751000D01*
%TO.N,SOUND_PWR_N*%
X104000000Y-100200000D02*
X104000000Y-99173300D01*
X113809000Y-111317000D02*
X112901000Y-112225000D01*
X112901000Y-134761000D02*
X114000000Y-135860000D01*
X112901000Y-112225000D02*
X112901000Y-134761000D01*
X104000000Y-100200000D02*
X104000000Y-99016400D01*
X113809000Y-108164000D02*
X113809000Y-111317000D01*
%TO.N,STOP_CLK*%
X102941000Y-104886000D02*
X102941000Y-106199000D01*
X103000000Y-103800000D02*
X103000000Y-104827000D01*
X103000000Y-104827000D02*
X102941000Y-104886000D01*
%TO.N,SYS_PWR_N*%
X102018000Y-104845000D02*
X102018000Y-105290000D01*
X102000000Y-103800000D02*
X102000000Y-104827000D01*
X102000000Y-104827000D02*
X102018000Y-104845000D01*
%TO.N,SYS_RST_N*%
X89923300Y-122083000D02*
X89923300Y-117364000D01*
X96000000Y-103800000D02*
X96000000Y-104979000D01*
X89923300Y-117364000D02*
X90272000Y-117016000D01*
X91000000Y-123160000D02*
X89923300Y-122083000D01*
%TO.N,VIAD0*%
X92880200Y-99173300D02*
X91532300Y-100521000D01*
X96000000Y-100200000D02*
X96000000Y-99173300D01*
X91532300Y-101648000D02*
X91532300Y-103143000D01*
X91532300Y-100521000D02*
X91532300Y-101648000D01*
X93550000Y-138390000D02*
X93550000Y-110391494D01*
X91000000Y-140940000D02*
X93550000Y-138390000D01*
X91532300Y-101648000D02*
X91446100Y-101648000D01*
X91532300Y-103143000D02*
X91591500Y-103202000D01*
X96000000Y-99173300D02*
X92880200Y-99173300D01*
%TO.N,VIAD1*%
X93928900Y-136710000D02*
X95302600Y-135336000D01*
X95754600Y-101227000D02*
X95906900Y-101379000D01*
X93928900Y-144617000D02*
X93928900Y-136710000D01*
X91000000Y-168880000D02*
X89923300Y-167803300D01*
X95974600Y-115291000D02*
X95974600Y-110861000D01*
X95500000Y-100200000D02*
X95500000Y-101227000D01*
X95302600Y-135336000D02*
X95302600Y-123409061D01*
X89923300Y-167803300D02*
X89923300Y-148088000D01*
X91255600Y-147290000D02*
X93928900Y-144617000D01*
X95500000Y-101227000D02*
X95754600Y-101227000D01*
X95200000Y-116065784D02*
X95974600Y-115291000D01*
X95200000Y-122290339D02*
X95200000Y-116065784D01*
X95500000Y-123211661D02*
X95500000Y-122590339D01*
X95500000Y-122590339D02*
X95200000Y-122290339D01*
X90721400Y-147290000D02*
X91255600Y-147290000D01*
X95302600Y-123409061D02*
X95500000Y-123211661D01*
X89923300Y-148088000D02*
X90721400Y-147290000D01*
X95974600Y-110861000D02*
X95551100Y-110438000D01*
%TO.N,VIAD2*%
X89567800Y-106623000D02*
X89567800Y-169988000D01*
X94997800Y-101386000D02*
X94805000Y-101386000D01*
X95000000Y-101384000D02*
X94997800Y-101386000D01*
X94805000Y-101386000D02*
X89567800Y-106623000D01*
X95000000Y-100200000D02*
X95000000Y-101384000D01*
X89567800Y-169988000D02*
X91000000Y-171420000D01*
%TO.N,VIAD3*%
X94000000Y-108000000D02*
X94000000Y-129500000D01*
X98500000Y-169000000D02*
X95960000Y-169000000D01*
X95960000Y-169000000D02*
X91000000Y-173960000D01*
X94500000Y-100200000D02*
X94500000Y-101227000D01*
X93700500Y-101422000D02*
X93589100Y-101310000D01*
X94500000Y-101227000D02*
X93895400Y-101227000D01*
X93700500Y-101422000D02*
X93662100Y-101460000D01*
X94000000Y-129500000D02*
X94500000Y-130000000D01*
X93662100Y-101460000D02*
X93662100Y-101837900D01*
X93662100Y-101837900D02*
X91000000Y-104500000D01*
X93895400Y-101227000D02*
X93700500Y-101422000D01*
%TO.N,VIAD4*%
X92741400Y-104990000D02*
X92898900Y-104832000D01*
X92741400Y-127633000D02*
X92741400Y-104990000D01*
X94000000Y-100200000D02*
X93770000Y-100200000D01*
X93770000Y-100200000D02*
X93467400Y-100503000D01*
%TO.N,VIAD5*%
X97500000Y-98680300D02*
X97541100Y-98639200D01*
X97500000Y-100200000D02*
X97500000Y-98680300D01*
%TO.N,VIAD6*%
X98000000Y-100200000D02*
X98000000Y-99173300D01*
X98022300Y-99151000D02*
X98022300Y-99012500D01*
X98000000Y-99173300D02*
X98022300Y-99151000D01*
%TO.N,VIAD7*%
X98500000Y-101227000D02*
X98600000Y-101327000D01*
X98600000Y-101327000D02*
X98600000Y-101382000D01*
X115460000Y-102078000D02*
X115460000Y-172500000D01*
X98500000Y-100200000D02*
X98500000Y-101227000D01*
X115460000Y-172500000D02*
X114000000Y-173960000D01*
%TO.N,VIA_TEST*%
X96951600Y-101981000D02*
X96292100Y-101981000D01*
X96292100Y-101981000D02*
X95500000Y-102773000D01*
X95500000Y-102773000D02*
X95500000Y-103800000D01*
%TD*%
%TA.AperFunction,Conductor*%
%TO.N,GND*%
G36*
X103738742Y-105533482D02*
G01*
X103769336Y-105586469D01*
X103771500Y-105607055D01*
X103771500Y-109403560D01*
X103771363Y-109403894D01*
X103771500Y-109458100D01*
X103771500Y-109512800D01*
X103771635Y-109513481D01*
X103771639Y-109513492D01*
X103771640Y-109513494D01*
X103792597Y-109563734D01*
X103813443Y-109614058D01*
X103813696Y-109614311D01*
X103813836Y-109614646D01*
X103852652Y-109653267D01*
X103890942Y-109691557D01*
X103891270Y-109691693D01*
X103898353Y-109698740D01*
X103898354Y-109698741D01*
X103941325Y-109741494D01*
X103969241Y-109795939D01*
X103970500Y-109811675D01*
X103970500Y-152938876D01*
X103951593Y-152997067D01*
X103941504Y-153008880D01*
X91575292Y-165375091D01*
X91520775Y-165402868D01*
X91467403Y-165396551D01*
X91306420Y-165329870D01*
X91103467Y-165289500D01*
X91103465Y-165289500D01*
X90896535Y-165289500D01*
X90896532Y-165289500D01*
X90693581Y-165329869D01*
X90502402Y-165409058D01*
X90352801Y-165509018D01*
X90293913Y-165525626D01*
X90236509Y-165504448D01*
X90202517Y-165453574D01*
X90198800Y-165426702D01*
X90198800Y-164713297D01*
X90217707Y-164655106D01*
X90267207Y-164619142D01*
X90328393Y-164619142D01*
X90352798Y-164630979D01*
X90502402Y-164730941D01*
X90693580Y-164810130D01*
X90896535Y-164850500D01*
X90896536Y-164850500D01*
X91103464Y-164850500D01*
X91103465Y-164850500D01*
X91306420Y-164810130D01*
X91497598Y-164730941D01*
X91669655Y-164615977D01*
X91815977Y-164469655D01*
X91930941Y-164297598D01*
X92010130Y-164106420D01*
X92050500Y-163903465D01*
X92050500Y-163696535D01*
X92010130Y-163493580D01*
X91930941Y-163302402D01*
X91815977Y-163130345D01*
X91669655Y-162984023D01*
X91669651Y-162984020D01*
X91497597Y-162869058D01*
X91306418Y-162789869D01*
X91103467Y-162749500D01*
X91103465Y-162749500D01*
X90896535Y-162749500D01*
X90896532Y-162749500D01*
X90693581Y-162789869D01*
X90502402Y-162869058D01*
X90352801Y-162969018D01*
X90293913Y-162985626D01*
X90236509Y-162964448D01*
X90202517Y-162913574D01*
X90198800Y-162886702D01*
X90198800Y-162173297D01*
X90217707Y-162115106D01*
X90267207Y-162079142D01*
X90328393Y-162079142D01*
X90352798Y-162090979D01*
X90502402Y-162190941D01*
X90693580Y-162270130D01*
X90896535Y-162310500D01*
X90896536Y-162310500D01*
X91103464Y-162310500D01*
X91103465Y-162310500D01*
X91306420Y-162270130D01*
X91497598Y-162190941D01*
X91669655Y-162075977D01*
X91815977Y-161929655D01*
X91930941Y-161757598D01*
X92010130Y-161566420D01*
X92050500Y-161363465D01*
X92050500Y-161156535D01*
X92010130Y-160953580D01*
X91930941Y-160762402D01*
X91815977Y-160590345D01*
X91669655Y-160444023D01*
X91669651Y-160444020D01*
X91497597Y-160329058D01*
X91306418Y-160249869D01*
X91103467Y-160209500D01*
X91103465Y-160209500D01*
X90896535Y-160209500D01*
X90896532Y-160209500D01*
X90693581Y-160249869D01*
X90502402Y-160329058D01*
X90352801Y-160429018D01*
X90293913Y-160445626D01*
X90236509Y-160424448D01*
X90202517Y-160373574D01*
X90198800Y-160346702D01*
X90198800Y-159633297D01*
X90217707Y-159575106D01*
X90267207Y-159539142D01*
X90328393Y-159539142D01*
X90352798Y-159550979D01*
X90502402Y-159650941D01*
X90693580Y-159730130D01*
X90896535Y-159770500D01*
X90896536Y-159770500D01*
X91103464Y-159770500D01*
X91103465Y-159770500D01*
X91306420Y-159730130D01*
X91497598Y-159650941D01*
X91669655Y-159535977D01*
X91815977Y-159389655D01*
X91930941Y-159217598D01*
X92010130Y-159026420D01*
X92050500Y-158823465D01*
X92050500Y-158616535D01*
X92010130Y-158413580D01*
X91943446Y-158252593D01*
X91938646Y-158191599D01*
X91964905Y-158144708D01*
X97533557Y-152576059D01*
X97545841Y-152546400D01*
X97575500Y-152474800D01*
X97575500Y-131901579D01*
X98749500Y-131901579D01*
X98749500Y-132098420D01*
X98780289Y-132292821D01*
X98841116Y-132480025D01*
X98927897Y-132650345D01*
X98930476Y-132655405D01*
X99046172Y-132814646D01*
X99185354Y-132953828D01*
X99344595Y-133069524D01*
X99519975Y-133158884D01*
X99707174Y-133219709D01*
X99707175Y-133219709D01*
X99707178Y-133219710D01*
X99901580Y-133250500D01*
X99901583Y-133250500D01*
X100098420Y-133250500D01*
X100292821Y-133219710D01*
X100292822Y-133219709D01*
X100292826Y-133219709D01*
X100480025Y-133158884D01*
X100655405Y-133069524D01*
X100814646Y-132953828D01*
X100953828Y-132814646D01*
X101069524Y-132655405D01*
X101158884Y-132480025D01*
X101219709Y-132292826D01*
X101219710Y-132292821D01*
X101250500Y-132098420D01*
X101250500Y-131901579D01*
X101219710Y-131707178D01*
X101215200Y-131693297D01*
X101158884Y-131519975D01*
X101069524Y-131344595D01*
X100953828Y-131185354D01*
X100814646Y-131046172D01*
X100655405Y-130930476D01*
X100655404Y-130930475D01*
X100655402Y-130930474D01*
X100480025Y-130841116D01*
X100292821Y-130780289D01*
X100098420Y-130749500D01*
X100098417Y-130749500D01*
X99901583Y-130749500D01*
X99901580Y-130749500D01*
X99707178Y-130780289D01*
X99519974Y-130841116D01*
X99344597Y-130930474D01*
X99185355Y-131046171D01*
X99046171Y-131185355D01*
X98930474Y-131344597D01*
X98841116Y-131519974D01*
X98780289Y-131707178D01*
X98749500Y-131901579D01*
X97575500Y-131901579D01*
X97575500Y-121789955D01*
X97538576Y-121700813D01*
X97533557Y-121688696D01*
X97474991Y-121630130D01*
X97304496Y-121459634D01*
X97276719Y-121405118D01*
X97275500Y-121389631D01*
X97275500Y-117449159D01*
X97294407Y-117390968D01*
X97304504Y-117379148D01*
X97405913Y-117277762D01*
X98289384Y-116394485D01*
X99153570Y-115530489D01*
X99208090Y-115502717D01*
X99223566Y-115501500D01*
X99274516Y-115501500D01*
X99274518Y-115501500D01*
X99382737Y-115472503D01*
X99382739Y-115472501D01*
X99382741Y-115472501D01*
X99437636Y-115440807D01*
X99479763Y-115416485D01*
X99558985Y-115337263D01*
X99615003Y-115240237D01*
X99644000Y-115132018D01*
X99644000Y-115019982D01*
X99615003Y-114911763D01*
X99615001Y-114911760D01*
X99615001Y-114911758D01*
X99558986Y-114814739D01*
X99558985Y-114814737D01*
X99479763Y-114735515D01*
X99479760Y-114735513D01*
X99382740Y-114679498D01*
X99382742Y-114679498D01*
X99340751Y-114668247D01*
X99274518Y-114650500D01*
X99162482Y-114650500D01*
X99096248Y-114668247D01*
X99054258Y-114679498D01*
X98957239Y-114735513D01*
X98878013Y-114814739D01*
X98821998Y-114911758D01*
X98793000Y-115019983D01*
X98793000Y-115070818D01*
X98774093Y-115129009D01*
X98763996Y-115140829D01*
X98482150Y-115422613D01*
X98427630Y-115450385D01*
X98367199Y-115440807D01*
X98326419Y-115402104D01*
X98296185Y-115349737D01*
X98216963Y-115270515D01*
X98216960Y-115270513D01*
X98216956Y-115270509D01*
X98211817Y-115266566D01*
X98213384Y-115264522D01*
X98179810Y-115227223D01*
X98173423Y-115166372D01*
X98200258Y-115116961D01*
X98254187Y-115063039D01*
X101156050Y-112161559D01*
X101156058Y-112161557D01*
X101188076Y-112129538D01*
X101230433Y-112087186D01*
X101232933Y-112084904D01*
X101233534Y-112084086D01*
X101233547Y-112084074D01*
X101233550Y-112084065D01*
X101233553Y-112084061D01*
X101233557Y-112084058D01*
X101233558Y-112084053D01*
X101233660Y-112083916D01*
X101234340Y-112082166D01*
X101254265Y-112034064D01*
X101275496Y-111982818D01*
X101275496Y-111982814D01*
X101275500Y-111982805D01*
X101275500Y-111919763D01*
X101275503Y-111873218D01*
X101275500Y-111873210D01*
X101275500Y-106347374D01*
X101294407Y-106289183D01*
X101343907Y-106253219D01*
X101400122Y-106251748D01*
X101443982Y-106263500D01*
X101443983Y-106263500D01*
X101556016Y-106263500D01*
X101556018Y-106263500D01*
X101664237Y-106234503D01*
X101664239Y-106234501D01*
X101664241Y-106234501D01*
X101724500Y-106199710D01*
X101761263Y-106178485D01*
X101840485Y-106099263D01*
X101896503Y-106002237D01*
X101925500Y-105894018D01*
X101925500Y-105814500D01*
X101929868Y-105801054D01*
X101929418Y-105786924D01*
X101939087Y-105772682D01*
X101944407Y-105756309D01*
X101955845Y-105747998D01*
X101963786Y-105736303D01*
X101979222Y-105731013D01*
X101993907Y-105720345D01*
X102021345Y-105715550D01*
X102022913Y-105715500D01*
X102074018Y-105715500D01*
X102080921Y-105713650D01*
X102092345Y-105713286D01*
X102111283Y-105718778D01*
X102130976Y-105719810D01*
X102139980Y-105727101D01*
X102151109Y-105730329D01*
X102163202Y-105745904D01*
X102178527Y-105758314D01*
X102182037Y-105770164D01*
X102188632Y-105778658D01*
X102189123Y-105794087D01*
X102194500Y-105812236D01*
X102194500Y-106368744D01*
X102175593Y-106426935D01*
X102165504Y-106438747D01*
X102129514Y-106474737D01*
X102073498Y-106571758D01*
X102067534Y-106594016D01*
X102044500Y-106679982D01*
X102044500Y-106792018D01*
X102067669Y-106878485D01*
X102073498Y-106900241D01*
X102129513Y-106997260D01*
X102129515Y-106997263D01*
X102208737Y-107076485D01*
X102241079Y-107095157D01*
X102305759Y-107132501D01*
X102305757Y-107132501D01*
X102305761Y-107132502D01*
X102305763Y-107132503D01*
X102413982Y-107161500D01*
X102413984Y-107161500D01*
X102526016Y-107161500D01*
X102526018Y-107161500D01*
X102634237Y-107132503D01*
X102634239Y-107132501D01*
X102634241Y-107132501D01*
X102663064Y-107115859D01*
X102731263Y-107076485D01*
X102810485Y-106997263D01*
X102866503Y-106900237D01*
X102895500Y-106792018D01*
X102895500Y-106723500D01*
X102914407Y-106665309D01*
X102963907Y-106629345D01*
X102994500Y-106624500D01*
X102997016Y-106624500D01*
X102997018Y-106624500D01*
X103105237Y-106595503D01*
X103105239Y-106595501D01*
X103105241Y-106595501D01*
X103146356Y-106571763D01*
X103202263Y-106539485D01*
X103281485Y-106460263D01*
X103337503Y-106363237D01*
X103366500Y-106255018D01*
X103366500Y-106142982D01*
X103337503Y-106034763D01*
X103337501Y-106034760D01*
X103337501Y-106034758D01*
X103281485Y-105937737D01*
X103245496Y-105901747D01*
X103241870Y-105894630D01*
X103235407Y-105889935D01*
X103228242Y-105867883D01*
X103217719Y-105847230D01*
X103216500Y-105831744D01*
X103216500Y-105654589D01*
X103235407Y-105596398D01*
X103284907Y-105560434D01*
X103341121Y-105558963D01*
X103372982Y-105567500D01*
X103372983Y-105567500D01*
X103485016Y-105567500D01*
X103485018Y-105567500D01*
X103593237Y-105538503D01*
X103622999Y-105521319D01*
X103682846Y-105508597D01*
X103738742Y-105533482D01*
G37*
%TD.AperFunction*%
%TA.AperFunction,Conductor*%
G36*
X115758691Y-94219407D02*
G01*
X115794655Y-94268907D01*
X115799500Y-94299500D01*
X115799500Y-101611211D01*
X115780593Y-101669402D01*
X115731093Y-101705366D01*
X115669907Y-101705366D01*
X115651002Y-101696948D01*
X115624242Y-101681499D01*
X115624242Y-101681498D01*
X115582251Y-101670247D01*
X115516018Y-101652500D01*
X115403982Y-101652500D01*
X115337748Y-101670247D01*
X115295758Y-101681498D01*
X115198739Y-101737513D01*
X115119513Y-101816739D01*
X115063498Y-101913758D01*
X115056129Y-101941260D01*
X115034500Y-102021982D01*
X115034500Y-102134018D01*
X115058560Y-102223813D01*
X115063498Y-102242241D01*
X115113439Y-102328739D01*
X115119515Y-102339263D01*
X115155505Y-102375253D01*
X115183281Y-102429768D01*
X115184500Y-102445255D01*
X115184500Y-110362567D01*
X115165593Y-110420758D01*
X115116093Y-110456722D01*
X115067628Y-110457993D01*
X115067450Y-110459347D01*
X115061018Y-110458500D01*
X114948982Y-110458500D01*
X114892583Y-110473612D01*
X114840758Y-110487498D01*
X114743739Y-110543513D01*
X114743737Y-110543514D01*
X114743737Y-110543515D01*
X114705501Y-110581750D01*
X114650987Y-110609526D01*
X114590555Y-110599955D01*
X114547290Y-110556690D01*
X114536500Y-110511745D01*
X114536500Y-107983255D01*
X114555407Y-107925064D01*
X114565490Y-107913257D01*
X114601485Y-107877263D01*
X114657503Y-107780237D01*
X114686500Y-107672018D01*
X114686500Y-107559982D01*
X114657503Y-107451763D01*
X114657501Y-107451760D01*
X114657501Y-107451758D01*
X114601485Y-107354737D01*
X114565496Y-107318747D01*
X114537719Y-107264230D01*
X114536500Y-107248744D01*
X114536500Y-102077123D01*
X114555407Y-102018932D01*
X114565497Y-102007119D01*
X115037121Y-101535496D01*
X115091637Y-101507719D01*
X115107124Y-101506500D01*
X115158016Y-101506500D01*
X115158018Y-101506500D01*
X115266237Y-101477503D01*
X115266239Y-101477501D01*
X115266241Y-101477501D01*
X115332893Y-101439019D01*
X115363263Y-101421485D01*
X115442485Y-101342263D01*
X115493155Y-101254500D01*
X115498501Y-101245241D01*
X115498501Y-101245239D01*
X115498503Y-101245237D01*
X115527500Y-101137018D01*
X115527500Y-101024982D01*
X115498503Y-100916763D01*
X115498501Y-100916760D01*
X115498501Y-100916758D01*
X115446898Y-100827380D01*
X115442485Y-100819737D01*
X115363263Y-100740515D01*
X115334558Y-100723942D01*
X115266240Y-100684498D01*
X115266242Y-100684498D01*
X115201821Y-100667237D01*
X115158018Y-100655500D01*
X115045982Y-100655500D01*
X115002179Y-100667237D01*
X114937758Y-100684498D01*
X114840739Y-100740513D01*
X114761513Y-100819739D01*
X114705498Y-100916758D01*
X114697257Y-100947515D01*
X114677903Y-101019748D01*
X114676500Y-101024983D01*
X114676500Y-101075876D01*
X114657593Y-101134067D01*
X114647504Y-101145880D01*
X114104942Y-101688443D01*
X114104941Y-101688442D01*
X114027446Y-101765938D01*
X114027444Y-101765940D01*
X114027443Y-101765942D01*
X114011013Y-101805608D01*
X113985500Y-101867200D01*
X113985500Y-107248744D01*
X113966593Y-107306935D01*
X113956504Y-107318747D01*
X113920514Y-107354737D01*
X113864498Y-107451758D01*
X113835500Y-107559983D01*
X113835500Y-107640815D01*
X113816593Y-107699006D01*
X113767093Y-107734970D01*
X113759230Y-107736750D01*
X113759250Y-107736821D01*
X113752984Y-107738500D01*
X113752982Y-107738500D01*
X113691394Y-107755002D01*
X113644758Y-107767498D01*
X113547739Y-107823513D01*
X113468513Y-107902739D01*
X113412498Y-107999758D01*
X113412497Y-107999763D01*
X113392839Y-108073124D01*
X113359517Y-108124437D01*
X113302396Y-108146364D01*
X113297214Y-108146500D01*
X113286982Y-108146500D01*
X113220786Y-108164237D01*
X113178758Y-108175498D01*
X113081739Y-108231513D01*
X113002513Y-108310739D01*
X112946498Y-108407758D01*
X112917500Y-108515983D01*
X112917500Y-108566877D01*
X112898593Y-108625068D01*
X112888504Y-108636881D01*
X112741504Y-108783881D01*
X112686987Y-108811658D01*
X112626555Y-108802087D01*
X112583290Y-108758822D01*
X112572500Y-108713877D01*
X112572500Y-107747123D01*
X112591407Y-107688932D01*
X112601496Y-107677119D01*
X113286120Y-106992496D01*
X113340637Y-106964719D01*
X113356124Y-106963500D01*
X113407016Y-106963500D01*
X113407018Y-106963500D01*
X113515237Y-106934503D01*
X113515239Y-106934501D01*
X113515241Y-106934501D01*
X113544064Y-106917859D01*
X113612263Y-106878485D01*
X113691485Y-106799263D01*
X113747503Y-106702237D01*
X113776500Y-106594018D01*
X113776500Y-106481982D01*
X113747503Y-106373763D01*
X113747501Y-106373760D01*
X113747501Y-106373758D01*
X113691486Y-106276739D01*
X113691485Y-106276737D01*
X113612263Y-106197515D01*
X113612260Y-106197513D01*
X113515240Y-106141498D01*
X113515242Y-106141498D01*
X113473251Y-106130247D01*
X113407018Y-106112500D01*
X113294982Y-106112500D01*
X113228748Y-106130247D01*
X113186758Y-106141498D01*
X113089739Y-106197513D01*
X113010513Y-106276739D01*
X112954498Y-106373758D01*
X112943561Y-106414577D01*
X112927442Y-106474737D01*
X112925500Y-106481983D01*
X112925500Y-106532876D01*
X112906593Y-106591067D01*
X112896504Y-106602880D01*
X112440504Y-107058880D01*
X112385987Y-107086657D01*
X112325555Y-107077086D01*
X112282290Y-107033821D01*
X112271500Y-106988876D01*
X112271500Y-103746262D01*
X112290407Y-103688071D01*
X112321000Y-103660525D01*
X112326231Y-103657504D01*
X112326237Y-103657503D01*
X112423263Y-103601485D01*
X112502485Y-103522263D01*
X112545976Y-103446935D01*
X112558501Y-103425241D01*
X112558501Y-103425239D01*
X112558503Y-103425237D01*
X112587500Y-103317018D01*
X112587500Y-103204982D01*
X112558503Y-103096763D01*
X112558501Y-103096760D01*
X112558501Y-103096758D01*
X112502486Y-102999739D01*
X112502485Y-102999737D01*
X112423263Y-102920515D01*
X112413233Y-102914724D01*
X112326240Y-102864498D01*
X112326242Y-102864498D01*
X112284251Y-102853247D01*
X112218018Y-102835500D01*
X112105982Y-102835500D01*
X112094121Y-102838677D01*
X112033021Y-102835475D01*
X111985471Y-102796970D01*
X111969500Y-102743051D01*
X111969500Y-102047255D01*
X111988407Y-101989064D01*
X111998490Y-101977257D01*
X112034485Y-101941263D01*
X112080460Y-101861632D01*
X112090501Y-101844241D01*
X112090501Y-101844239D01*
X112090503Y-101844237D01*
X112119500Y-101736018D01*
X112119500Y-101623982D01*
X112090503Y-101515763D01*
X112090501Y-101515760D01*
X112090501Y-101515758D01*
X112036072Y-101421486D01*
X112034485Y-101418737D01*
X111955263Y-101339515D01*
X111955260Y-101339513D01*
X111858240Y-101283498D01*
X111858242Y-101283498D01*
X111803786Y-101268907D01*
X111750018Y-101254500D01*
X111637982Y-101254500D01*
X111584214Y-101268907D01*
X111529758Y-101283498D01*
X111432739Y-101339513D01*
X111353513Y-101418739D01*
X111297498Y-101515758D01*
X111288521Y-101549263D01*
X111268500Y-101623982D01*
X111268500Y-101736018D01*
X111290129Y-101816739D01*
X111297498Y-101844241D01*
X111353513Y-101941260D01*
X111353515Y-101941263D01*
X111389505Y-101977253D01*
X111417281Y-102031768D01*
X111418500Y-102047255D01*
X111418500Y-161548800D01*
X111460443Y-161650058D01*
X112645475Y-162835091D01*
X113035091Y-163224707D01*
X113062868Y-163279224D01*
X113056551Y-163332596D01*
X112989870Y-163493578D01*
X112989870Y-163493580D01*
X112953887Y-163674479D01*
X112923990Y-163727863D01*
X112868425Y-163753479D01*
X112808415Y-163741542D01*
X112786785Y-163725169D01*
X110939496Y-161877880D01*
X110911719Y-161823363D01*
X110910500Y-161807876D01*
X110910500Y-101655255D01*
X110929407Y-101597064D01*
X110939490Y-101585257D01*
X110975485Y-101549263D01*
X111031503Y-101452237D01*
X111060500Y-101344018D01*
X111060500Y-101231982D01*
X111031503Y-101123763D01*
X111031501Y-101123760D01*
X111031501Y-101123758D01*
X110975486Y-101026739D01*
X110975485Y-101026737D01*
X110896263Y-100947515D01*
X110896260Y-100947513D01*
X110799240Y-100891498D01*
X110799242Y-100891498D01*
X110757251Y-100880247D01*
X110691018Y-100862500D01*
X110578982Y-100862500D01*
X110512748Y-100880247D01*
X110470758Y-100891498D01*
X110373739Y-100947513D01*
X110294513Y-101026739D01*
X110238498Y-101123758D01*
X110232926Y-101144554D01*
X110209500Y-101231982D01*
X110209500Y-101344018D01*
X110228792Y-101416016D01*
X110238498Y-101452241D01*
X110293416Y-101547360D01*
X110294515Y-101549263D01*
X110330505Y-101585253D01*
X110358281Y-101639768D01*
X110359500Y-101655255D01*
X110359500Y-162017799D01*
X110375570Y-162056596D01*
X110380371Y-162117593D01*
X110348401Y-162169762D01*
X110291873Y-162193177D01*
X110232379Y-162178893D01*
X110214102Y-162164486D01*
X104923496Y-156873880D01*
X104895719Y-156819363D01*
X104894500Y-156803876D01*
X104894500Y-105888255D01*
X104913407Y-105830064D01*
X104923490Y-105818257D01*
X104959485Y-105782263D01*
X105015503Y-105685237D01*
X105044500Y-105577018D01*
X105044500Y-105464982D01*
X105015503Y-105356763D01*
X105015501Y-105356760D01*
X105015501Y-105356758D01*
X104959486Y-105259739D01*
X104959485Y-105259737D01*
X104880263Y-105180515D01*
X104861762Y-105169833D01*
X104824999Y-105148608D01*
X104811152Y-105133229D01*
X104794407Y-105121063D01*
X104791137Y-105110999D01*
X104784059Y-105103138D01*
X104775500Y-105062872D01*
X104775500Y-104949000D01*
X104794407Y-104890809D01*
X104843907Y-104854845D01*
X104845388Y-104854610D01*
X104850000Y-104849999D01*
X104850000Y-104629687D01*
X104850477Y-104619978D01*
X104850500Y-104619744D01*
X104850500Y-103950001D01*
X105150000Y-103950001D01*
X105150000Y-104849999D01*
X105150001Y-104850000D01*
X105174623Y-104850000D01*
X105174624Y-104849999D01*
X105230685Y-104838848D01*
X105269315Y-104838848D01*
X105325375Y-104849999D01*
X105325377Y-104850000D01*
X105349999Y-104850000D01*
X105350000Y-104849999D01*
X105350000Y-103950001D01*
X105650000Y-103950001D01*
X105650000Y-104849999D01*
X105650001Y-104850000D01*
X105674623Y-104850000D01*
X105674624Y-104849999D01*
X105730685Y-104838848D01*
X105769315Y-104838848D01*
X105825375Y-104849999D01*
X105825377Y-104850000D01*
X105849999Y-104850000D01*
X105850000Y-104849999D01*
X105850000Y-103950001D01*
X106150000Y-103950001D01*
X106150000Y-104849999D01*
X106150001Y-104850000D01*
X106174623Y-104850000D01*
X106174624Y-104849999D01*
X106247546Y-104835493D01*
X106247548Y-104835492D01*
X106330237Y-104780241D01*
X106330241Y-104780237D01*
X106385492Y-104697548D01*
X106385493Y-104697546D01*
X106399999Y-104624624D01*
X106400000Y-104624622D01*
X106400000Y-103950001D01*
X106399999Y-103950000D01*
X106150001Y-103950000D01*
X106150000Y-103950001D01*
X105850000Y-103950001D01*
X105849999Y-103950000D01*
X105650001Y-103950000D01*
X105650000Y-103950001D01*
X105350000Y-103950001D01*
X105349999Y-103950000D01*
X105150001Y-103950000D01*
X105150000Y-103950001D01*
X104850500Y-103950001D01*
X104850500Y-102980252D01*
X104850476Y-102980009D01*
X104850000Y-102970310D01*
X104850000Y-102750001D01*
X105150000Y-102750001D01*
X105150000Y-103649999D01*
X105150001Y-103650000D01*
X105349999Y-103650000D01*
X105350000Y-103649999D01*
X105350000Y-102750001D01*
X105650000Y-102750001D01*
X105650000Y-103649999D01*
X105650001Y-103650000D01*
X105849999Y-103650000D01*
X105850000Y-103649999D01*
X105850000Y-102750001D01*
X106150000Y-102750001D01*
X106150000Y-103649999D01*
X106150001Y-103650000D01*
X106399999Y-103650000D01*
X106400000Y-103649999D01*
X106400000Y-102975377D01*
X106399999Y-102975375D01*
X106385493Y-102902453D01*
X106385492Y-102902451D01*
X106330241Y-102819762D01*
X106330237Y-102819758D01*
X106247548Y-102764507D01*
X106247546Y-102764506D01*
X106174624Y-102750000D01*
X106150001Y-102750000D01*
X106150000Y-102750001D01*
X105850000Y-102750001D01*
X105849999Y-102750000D01*
X105825372Y-102750000D01*
X105769314Y-102761151D01*
X105730686Y-102761151D01*
X105674627Y-102750000D01*
X105650001Y-102750000D01*
X105650000Y-102750001D01*
X105350000Y-102750001D01*
X105349999Y-102750000D01*
X105325372Y-102750000D01*
X105269314Y-102761151D01*
X105230686Y-102761151D01*
X105174627Y-102750000D01*
X105150001Y-102750000D01*
X105150000Y-102750001D01*
X104850000Y-102750001D01*
X104849999Y-102750000D01*
X104825373Y-102750000D01*
X104752456Y-102764504D01*
X104725051Y-102782816D01*
X104670050Y-102799500D01*
X104330248Y-102799500D01*
X104269314Y-102811621D01*
X104230686Y-102811621D01*
X104169751Y-102799500D01*
X104169748Y-102799500D01*
X103830252Y-102799500D01*
X103830248Y-102799500D01*
X103769314Y-102811621D01*
X103730686Y-102811621D01*
X103669751Y-102799500D01*
X103669748Y-102799500D01*
X103330252Y-102799500D01*
X103330248Y-102799500D01*
X103269314Y-102811621D01*
X103230686Y-102811621D01*
X103169751Y-102799500D01*
X103169748Y-102799500D01*
X102830252Y-102799500D01*
X102830248Y-102799500D01*
X102769314Y-102811621D01*
X102730686Y-102811621D01*
X102669751Y-102799500D01*
X102669748Y-102799500D01*
X102330252Y-102799500D01*
X102330248Y-102799500D01*
X102269314Y-102811621D01*
X102230686Y-102811621D01*
X102169751Y-102799500D01*
X102169748Y-102799500D01*
X101830252Y-102799500D01*
X101830248Y-102799500D01*
X101769314Y-102811621D01*
X101730686Y-102811621D01*
X101669751Y-102799500D01*
X101669748Y-102799500D01*
X101330252Y-102799500D01*
X101330248Y-102799500D01*
X101269314Y-102811621D01*
X101230686Y-102811621D01*
X101169751Y-102799500D01*
X101169748Y-102799500D01*
X101013394Y-102799500D01*
X100955203Y-102780593D01*
X100919239Y-102731093D01*
X100917767Y-102674878D01*
X100919099Y-102669907D01*
X100925500Y-102646018D01*
X100925500Y-102533982D01*
X100896503Y-102425763D01*
X100896501Y-102425759D01*
X100896501Y-102425758D01*
X100840486Y-102328739D01*
X100840485Y-102328737D01*
X100761263Y-102249515D01*
X100759493Y-102248493D01*
X100664240Y-102193498D01*
X100664242Y-102193498D01*
X100622251Y-102182247D01*
X100556018Y-102164500D01*
X100443982Y-102164500D01*
X100377748Y-102182247D01*
X100335758Y-102193498D01*
X100238739Y-102249513D01*
X100159513Y-102328739D01*
X100103498Y-102425759D01*
X100103497Y-102425761D01*
X100091338Y-102471138D01*
X100058014Y-102522451D01*
X100000892Y-102544377D01*
X99941791Y-102528541D01*
X99903287Y-102480990D01*
X99900090Y-102471152D01*
X99896503Y-102457763D01*
X99896501Y-102457760D01*
X99896501Y-102457758D01*
X99848806Y-102375150D01*
X99840485Y-102360737D01*
X99761263Y-102281515D01*
X99754335Y-102277515D01*
X99664240Y-102225498D01*
X99664242Y-102225498D01*
X99622251Y-102214247D01*
X99556018Y-102196500D01*
X99443982Y-102196500D01*
X99377748Y-102214247D01*
X99335758Y-102225498D01*
X99238739Y-102281513D01*
X99159513Y-102360739D01*
X99103498Y-102457758D01*
X99103497Y-102457763D01*
X99096806Y-102482737D01*
X99095493Y-102487636D01*
X99062169Y-102538951D01*
X99005047Y-102560877D01*
X98945947Y-102545041D01*
X98907441Y-102497491D01*
X98904239Y-102487636D01*
X98896503Y-102458763D01*
X98896501Y-102458760D01*
X98896501Y-102458758D01*
X98840486Y-102361739D01*
X98840485Y-102361737D01*
X98761263Y-102282515D01*
X98759531Y-102281515D01*
X98664240Y-102226498D01*
X98664242Y-102226498D01*
X98622251Y-102215247D01*
X98556018Y-102197500D01*
X98443982Y-102197500D01*
X98423400Y-102203015D01*
X98333824Y-102227016D01*
X98272723Y-102223813D01*
X98229661Y-102191658D01*
X98225887Y-102186740D01*
X98225886Y-102186739D01*
X98225885Y-102186737D01*
X98146663Y-102107515D01*
X98146660Y-102107513D01*
X98049640Y-102051498D01*
X98049642Y-102051498D01*
X97995600Y-102037018D01*
X97941418Y-102022500D01*
X97829382Y-102022500D01*
X97775200Y-102037018D01*
X97721158Y-102051498D01*
X97624139Y-102107513D01*
X97544913Y-102186739D01*
X97532896Y-102207553D01*
X97487426Y-102248493D01*
X97426575Y-102254887D01*
X97373588Y-102224293D01*
X97348703Y-102168397D01*
X97351533Y-102132434D01*
X97377100Y-102037018D01*
X97377100Y-101924982D01*
X97348103Y-101816763D01*
X97348101Y-101816760D01*
X97348101Y-101816758D01*
X97300406Y-101734150D01*
X97292085Y-101719737D01*
X97212863Y-101640515D01*
X97179518Y-101621263D01*
X97137527Y-101597019D01*
X97096587Y-101551549D01*
X97090192Y-101490699D01*
X97091396Y-101485682D01*
X97103900Y-101439018D01*
X97103900Y-101326982D01*
X97102414Y-101321436D01*
X97103398Y-101302640D01*
X97099726Y-101284177D01*
X97104960Y-101272821D01*
X97105615Y-101260335D01*
X97117459Y-101245707D01*
X97125341Y-101228611D01*
X97136251Y-101222500D01*
X97144120Y-101212784D01*
X97178723Y-101198714D01*
X97228231Y-101188867D01*
X97228232Y-101188865D01*
X97230685Y-101188378D01*
X97269315Y-101188379D01*
X97330241Y-101200498D01*
X97330246Y-101200498D01*
X97330252Y-101200500D01*
X97330253Y-101200500D01*
X97669747Y-101200500D01*
X97669748Y-101200500D01*
X97678727Y-101198714D01*
X97730685Y-101188379D01*
X97769315Y-101188379D01*
X97830241Y-101200498D01*
X97830246Y-101200498D01*
X97830252Y-101200500D01*
X97830253Y-101200500D01*
X98079104Y-101200500D01*
X98137295Y-101219407D01*
X98173259Y-101268907D01*
X98174581Y-101319449D01*
X98175347Y-101319550D01*
X98174710Y-101324383D01*
X98174730Y-101325122D01*
X98174500Y-101325982D01*
X98174500Y-101438018D01*
X98191778Y-101502500D01*
X98203498Y-101546241D01*
X98258360Y-101641263D01*
X98259515Y-101643263D01*
X98338737Y-101722485D01*
X98338739Y-101722486D01*
X98435759Y-101778501D01*
X98435757Y-101778501D01*
X98435761Y-101778502D01*
X98435763Y-101778503D01*
X98543982Y-101807500D01*
X98543984Y-101807500D01*
X98656016Y-101807500D01*
X98656018Y-101807500D01*
X98764237Y-101778503D01*
X98764239Y-101778501D01*
X98764241Y-101778501D01*
X98818034Y-101747443D01*
X98861263Y-101722485D01*
X98940485Y-101643263D01*
X98974792Y-101583840D01*
X99020260Y-101542902D01*
X99081110Y-101536506D01*
X99134098Y-101567099D01*
X99146263Y-101583843D01*
X99178983Y-101640515D01*
X99179415Y-101641263D01*
X99258637Y-101720485D01*
X99285541Y-101736018D01*
X99355659Y-101776501D01*
X99355657Y-101776501D01*
X99355661Y-101776502D01*
X99355663Y-101776503D01*
X99463882Y-101805500D01*
X99463884Y-101805500D01*
X99575916Y-101805500D01*
X99575918Y-101805500D01*
X99684137Y-101776503D01*
X99684139Y-101776501D01*
X99684141Y-101776501D01*
X99734470Y-101747443D01*
X99781163Y-101720485D01*
X99860385Y-101641263D01*
X99916403Y-101544237D01*
X99916404Y-101544231D01*
X99918885Y-101538245D01*
X99921705Y-101539413D01*
X99948121Y-101498622D01*
X100005214Y-101476621D01*
X100064335Y-101492381D01*
X100101986Y-101537590D01*
X100103498Y-101541240D01*
X100144499Y-101612255D01*
X100159515Y-101638263D01*
X100238737Y-101717485D01*
X100254327Y-101726486D01*
X100335759Y-101773501D01*
X100335757Y-101773501D01*
X100335761Y-101773502D01*
X100335763Y-101773503D01*
X100443982Y-101802500D01*
X100443984Y-101802500D01*
X100556016Y-101802500D01*
X100556018Y-101802500D01*
X100664237Y-101773503D01*
X100664239Y-101773501D01*
X100664241Y-101773501D01*
X100709379Y-101747440D01*
X100761263Y-101717485D01*
X100840485Y-101638263D01*
X100889915Y-101552648D01*
X100896501Y-101541241D01*
X100896501Y-101541239D01*
X100896503Y-101541237D01*
X100925500Y-101433018D01*
X100925500Y-101320982D01*
X100925499Y-101320981D01*
X100924653Y-101314550D01*
X100927181Y-101314217D01*
X100928081Y-101297038D01*
X100928081Y-101268907D01*
X100929668Y-101266721D01*
X100929810Y-101264024D01*
X100947511Y-101242163D01*
X100964045Y-101219407D01*
X100966614Y-101218572D01*
X100968314Y-101216473D01*
X101022236Y-101200500D01*
X101127073Y-101200500D01*
X101185264Y-101219407D01*
X101221228Y-101268907D01*
X101224101Y-101279839D01*
X101224532Y-101281966D01*
X101224609Y-101282350D01*
X101225704Y-101287866D01*
X101226753Y-101320060D01*
X101226500Y-101321982D01*
X101226500Y-101434018D01*
X101244343Y-101500610D01*
X101255498Y-101542241D01*
X101311513Y-101639260D01*
X101311515Y-101639263D01*
X101390737Y-101718485D01*
X101404595Y-101726486D01*
X101487759Y-101774501D01*
X101487757Y-101774501D01*
X101487761Y-101774502D01*
X101487763Y-101774503D01*
X101595982Y-101803500D01*
X101595984Y-101803500D01*
X101708016Y-101803500D01*
X101708018Y-101803500D01*
X101816237Y-101774503D01*
X101816239Y-101774501D01*
X101816241Y-101774501D01*
X101863111Y-101747440D01*
X101913263Y-101718485D01*
X101992485Y-101639263D01*
X102044447Y-101549263D01*
X102048501Y-101542241D01*
X102048501Y-101542239D01*
X102048503Y-101542237D01*
X102077500Y-101434018D01*
X102077500Y-101321982D01*
X102077499Y-101321981D01*
X102076653Y-101315550D01*
X102078858Y-101315259D01*
X102081542Y-101264025D01*
X102120046Y-101216474D01*
X102156010Y-101202142D01*
X102164912Y-101200500D01*
X102169748Y-101200500D01*
X102228231Y-101188867D01*
X102228326Y-101188803D01*
X102232042Y-101188118D01*
X102234011Y-101188379D01*
X102269315Y-101188379D01*
X102330241Y-101200498D01*
X102330246Y-101200498D01*
X102330252Y-101200500D01*
X102330253Y-101200500D01*
X102669747Y-101200500D01*
X102669748Y-101200500D01*
X102678727Y-101198714D01*
X102730685Y-101188379D01*
X102769315Y-101188379D01*
X102830241Y-101200498D01*
X102830246Y-101200498D01*
X102830252Y-101200500D01*
X102991161Y-101200500D01*
X103049352Y-101219407D01*
X103085316Y-101268907D01*
X103086788Y-101325122D01*
X103082196Y-101342260D01*
X103074500Y-101370982D01*
X103074500Y-101483018D01*
X103099937Y-101577951D01*
X103103498Y-101591241D01*
X103159513Y-101688260D01*
X103159515Y-101688263D01*
X103238737Y-101767485D01*
X103264749Y-101782503D01*
X103335759Y-101823501D01*
X103335757Y-101823501D01*
X103335761Y-101823502D01*
X103335763Y-101823503D01*
X103443982Y-101852500D01*
X103443984Y-101852500D01*
X103556016Y-101852500D01*
X103556018Y-101852500D01*
X103664237Y-101823503D01*
X103664239Y-101823501D01*
X103664241Y-101823501D01*
X103700615Y-101802500D01*
X103761263Y-101767485D01*
X103840485Y-101688263D01*
X103893165Y-101597019D01*
X103896501Y-101591241D01*
X103896501Y-101591239D01*
X103896503Y-101591237D01*
X103925500Y-101483018D01*
X103925500Y-101370982D01*
X103913212Y-101325122D01*
X103916415Y-101264021D01*
X103954920Y-101216471D01*
X104008839Y-101200500D01*
X104169747Y-101200500D01*
X104169748Y-101200500D01*
X104178727Y-101198714D01*
X104230685Y-101188379D01*
X104269315Y-101188379D01*
X104330241Y-101200498D01*
X104330246Y-101200498D01*
X104330252Y-101200500D01*
X104330253Y-101200500D01*
X104669747Y-101200500D01*
X104669748Y-101200500D01*
X104678727Y-101198714D01*
X104730685Y-101188379D01*
X104769315Y-101188379D01*
X104830241Y-101200498D01*
X104830246Y-101200498D01*
X104830252Y-101200500D01*
X104830253Y-101200500D01*
X105170050Y-101200500D01*
X105225052Y-101217185D01*
X105252452Y-101235493D01*
X105325375Y-101249999D01*
X105325377Y-101250000D01*
X105349999Y-101250000D01*
X105350000Y-101249999D01*
X105350000Y-101029687D01*
X105351146Y-101026157D01*
X105350979Y-101024613D01*
X105350500Y-101024613D01*
X105350500Y-101020190D01*
X105350477Y-101019978D01*
X105350500Y-101019744D01*
X105350500Y-99380252D01*
X105350476Y-99380009D01*
X105350500Y-99379899D01*
X105350500Y-99375389D01*
X105350804Y-99375389D01*
X105350000Y-99370310D01*
X105350000Y-99150001D01*
X105347737Y-99147738D01*
X105331973Y-99142616D01*
X105308433Y-99138525D01*
X105303833Y-99133473D01*
X105296506Y-99131093D01*
X105265822Y-99094616D01*
X105264442Y-99091804D01*
X105233557Y-99017242D01*
X105222351Y-99006036D01*
X105215107Y-98991275D01*
X105212988Y-98976464D01*
X105206200Y-98963138D01*
X105205829Y-98960582D01*
X105205500Y-98958086D01*
X105205500Y-98958082D01*
X105204871Y-98955735D01*
X105204037Y-98952621D01*
X105207240Y-98891520D01*
X105245746Y-98843971D01*
X105299664Y-98828000D01*
X105619854Y-98828000D01*
X105627457Y-98830470D01*
X105635352Y-98829221D01*
X105655999Y-98839744D01*
X105678045Y-98846907D01*
X105689862Y-98857002D01*
X105828596Y-98995766D01*
X105856368Y-99050285D01*
X105846790Y-99110716D01*
X105803521Y-99153976D01*
X105743087Y-99163540D01*
X105739271Y-99162859D01*
X105674626Y-99150000D01*
X105650001Y-99150000D01*
X105650000Y-99150001D01*
X105650000Y-99370310D01*
X105649524Y-99380009D01*
X105649500Y-99380252D01*
X105649500Y-101019744D01*
X105649523Y-101019978D01*
X105650000Y-101029687D01*
X105650000Y-101249999D01*
X105650001Y-101250000D01*
X105674623Y-101250000D01*
X105674624Y-101249999D01*
X105747546Y-101235494D01*
X105774947Y-101217185D01*
X105829949Y-101200500D01*
X106169747Y-101200500D01*
X106169748Y-101200500D01*
X106228231Y-101188867D01*
X106294552Y-101144552D01*
X106338867Y-101078231D01*
X106350500Y-101019748D01*
X106350500Y-99756826D01*
X106369407Y-99698635D01*
X106418907Y-99662671D01*
X106480093Y-99662671D01*
X106519508Y-99686828D01*
X107757511Y-100925102D01*
X107785283Y-100979621D01*
X107786500Y-100995097D01*
X107786500Y-123815744D01*
X107767593Y-123873935D01*
X107757504Y-123885747D01*
X107721514Y-123921737D01*
X107665498Y-124018758D01*
X107665497Y-124018763D01*
X107636500Y-124126982D01*
X107636500Y-124239018D01*
X107662072Y-124334455D01*
X107665498Y-124347241D01*
X107721513Y-124444260D01*
X107721515Y-124444263D01*
X107800737Y-124523485D01*
X107800739Y-124523486D01*
X107897759Y-124579501D01*
X107897757Y-124579501D01*
X107897761Y-124579502D01*
X107897763Y-124579503D01*
X108005982Y-124608500D01*
X108005984Y-124608500D01*
X108118017Y-124608500D01*
X108118018Y-124608500D01*
X108129874Y-124605323D01*
X108190974Y-124608522D01*
X108238526Y-124647025D01*
X108254500Y-124700948D01*
X108254500Y-135871744D01*
X108235593Y-135929935D01*
X108225504Y-135941747D01*
X108189514Y-135977737D01*
X108133498Y-136074758D01*
X108133497Y-136074763D01*
X108104500Y-136182982D01*
X108104500Y-136295018D01*
X108121268Y-136357597D01*
X108133498Y-136403241D01*
X108189513Y-136500260D01*
X108189515Y-136500263D01*
X108268737Y-136579485D01*
X108268739Y-136579486D01*
X108365759Y-136635501D01*
X108365757Y-136635501D01*
X108365761Y-136635502D01*
X108365763Y-136635503D01*
X108473982Y-136664500D01*
X108473984Y-136664500D01*
X108586017Y-136664500D01*
X108586018Y-136664500D01*
X108586018Y-136664499D01*
X108592450Y-136663653D01*
X108592655Y-136665213D01*
X108645975Y-136668006D01*
X108693526Y-136706509D01*
X108709500Y-136760432D01*
X108709500Y-150797744D01*
X108690593Y-150855935D01*
X108680504Y-150867747D01*
X108644514Y-150903737D01*
X108588498Y-151000758D01*
X108588497Y-151000763D01*
X108559500Y-151108982D01*
X108559500Y-151221018D01*
X108585072Y-151316455D01*
X108588498Y-151329241D01*
X108633901Y-151407879D01*
X108644515Y-151426263D01*
X108723737Y-151505485D01*
X108723739Y-151505486D01*
X108820759Y-151561501D01*
X108820757Y-151561501D01*
X108820761Y-151561502D01*
X108820763Y-151561503D01*
X108928982Y-151590500D01*
X108928984Y-151590500D01*
X109041016Y-151590500D01*
X109041018Y-151590500D01*
X109149237Y-151561503D01*
X109149239Y-151561501D01*
X109149241Y-151561501D01*
X109178064Y-151544859D01*
X109246263Y-151505485D01*
X109325485Y-151426263D01*
X109381503Y-151329237D01*
X109410500Y-151221018D01*
X109410500Y-151108982D01*
X109381503Y-151000763D01*
X109381501Y-151000760D01*
X109381501Y-151000758D01*
X109325485Y-150903737D01*
X109289496Y-150867747D01*
X109261719Y-150813230D01*
X109260500Y-150797744D01*
X109260500Y-101612255D01*
X109279407Y-101554064D01*
X109289490Y-101542257D01*
X109325485Y-101506263D01*
X109381503Y-101409237D01*
X109410500Y-101301018D01*
X109410500Y-101188982D01*
X109381503Y-101080763D01*
X109381501Y-101080760D01*
X109381501Y-101080758D01*
X109325486Y-100983739D01*
X109325485Y-100983737D01*
X109246263Y-100904515D01*
X109246260Y-100904513D01*
X109149240Y-100848498D01*
X109149242Y-100848498D01*
X109107251Y-100837247D01*
X109041018Y-100819500D01*
X108928982Y-100819500D01*
X108928979Y-100819500D01*
X108899570Y-100827380D01*
X108890297Y-100826893D01*
X108881717Y-100830448D01*
X108860380Y-100825325D01*
X108838468Y-100824177D01*
X108831251Y-100818332D01*
X108822222Y-100816165D01*
X108807971Y-100799479D01*
X108790919Y-100785670D01*
X108782488Y-100769645D01*
X108763557Y-100723942D01*
X108763556Y-100723941D01*
X108763554Y-100723936D01*
X108763533Y-100723905D01*
X108720544Y-100680929D01*
X108720534Y-100680919D01*
X108686058Y-100646443D01*
X108686040Y-100646435D01*
X106074416Y-98035601D01*
X106074410Y-98035589D01*
X106074408Y-98035592D01*
X106038057Y-97999242D01*
X106038020Y-97999217D01*
X105987107Y-97978137D01*
X105987107Y-97978134D01*
X105987093Y-97978132D01*
X105965979Y-97969386D01*
X105936796Y-97957298D01*
X105936762Y-97957291D01*
X105885191Y-97957299D01*
X105885182Y-97957300D01*
X102578503Y-97957300D01*
X102578231Y-97957188D01*
X102523916Y-97957300D01*
X102469194Y-97957300D01*
X102468885Y-97957362D01*
X102468638Y-97957410D01*
X102439895Y-97969386D01*
X102401822Y-97977000D01*
X102298982Y-97977000D01*
X102232748Y-97994747D01*
X102190758Y-98005998D01*
X102093739Y-98062013D01*
X102014513Y-98141239D01*
X101958498Y-98238258D01*
X101948584Y-98275260D01*
X101931171Y-98340248D01*
X101929500Y-98346483D01*
X101929500Y-98397084D01*
X101927022Y-98404709D01*
X101928272Y-98412628D01*
X101917748Y-98433251D01*
X101910593Y-98455275D01*
X101900463Y-98467128D01*
X101850792Y-98516741D01*
X101850510Y-98516974D01*
X101805610Y-98561874D01*
X101766531Y-98600910D01*
X101766447Y-98601032D01*
X101748423Y-98644544D01*
X101745172Y-98652391D01*
X101724532Y-98702145D01*
X101724531Y-98702222D01*
X101724500Y-98702300D01*
X101724500Y-98758712D01*
X101724470Y-98811745D01*
X101724500Y-98811817D01*
X101724500Y-98926297D01*
X101705593Y-98984488D01*
X101656093Y-99020452D01*
X101594907Y-99020452D01*
X101545407Y-98984488D01*
X101530200Y-98946376D01*
X101529179Y-98946650D01*
X101527500Y-98940383D01*
X101527500Y-98940382D01*
X101498503Y-98832163D01*
X101498501Y-98832159D01*
X101498501Y-98832158D01*
X101442486Y-98735139D01*
X101442485Y-98735137D01*
X101363263Y-98655915D01*
X101363260Y-98655913D01*
X101266240Y-98599898D01*
X101266242Y-98599898D01*
X101203855Y-98583182D01*
X101158018Y-98570900D01*
X101045982Y-98570900D01*
X101000145Y-98583182D01*
X100937758Y-98599898D01*
X100840739Y-98655913D01*
X100761513Y-98735139D01*
X100705498Y-98832159D01*
X100705496Y-98832163D01*
X100699326Y-98855191D01*
X100666002Y-98906505D01*
X100608880Y-98928431D01*
X100549780Y-98912595D01*
X100511275Y-98865044D01*
X100508073Y-98855188D01*
X100506646Y-98849863D01*
X100504503Y-98841863D01*
X100504502Y-98841862D01*
X100504502Y-98841860D01*
X100504501Y-98841859D01*
X100451776Y-98750537D01*
X100448485Y-98744837D01*
X100369263Y-98665615D01*
X100355341Y-98657577D01*
X100272240Y-98609598D01*
X100272242Y-98609598D01*
X100230251Y-98598347D01*
X100164018Y-98580600D01*
X100051982Y-98580600D01*
X99985748Y-98598347D01*
X99943758Y-98609598D01*
X99846739Y-98665613D01*
X99767513Y-98744839D01*
X99711498Y-98841858D01*
X99682500Y-98950083D01*
X99682500Y-99062117D01*
X99685919Y-99074878D01*
X99684447Y-99102958D01*
X99684447Y-99131093D01*
X99682857Y-99133280D01*
X99682716Y-99135980D01*
X99665020Y-99157831D01*
X99648483Y-99180593D01*
X99645910Y-99181428D01*
X99644210Y-99183529D01*
X99590292Y-99199500D01*
X99518780Y-99199500D01*
X99460589Y-99180593D01*
X99424625Y-99131093D01*
X99423153Y-99074880D01*
X99425499Y-99066122D01*
X99425500Y-99066117D01*
X99425500Y-98954083D01*
X99425500Y-98954082D01*
X99396503Y-98845863D01*
X99396501Y-98845860D01*
X99396501Y-98845858D01*
X99340486Y-98748839D01*
X99340485Y-98748837D01*
X99261263Y-98669615D01*
X99261260Y-98669613D01*
X99164240Y-98613598D01*
X99164242Y-98613598D01*
X99113111Y-98599898D01*
X99056018Y-98584600D01*
X98943982Y-98584600D01*
X98886889Y-98599898D01*
X98835758Y-98613598D01*
X98738739Y-98669613D01*
X98659513Y-98748839D01*
X98603493Y-98845867D01*
X98602112Y-98849202D01*
X98600434Y-98851165D01*
X98600252Y-98851482D01*
X98600193Y-98851448D01*
X98562371Y-98895724D01*
X98502875Y-98910002D01*
X98446349Y-98886582D01*
X98422434Y-98853658D01*
X98422048Y-98853882D01*
X98419922Y-98850201D01*
X98419184Y-98849184D01*
X98418804Y-98848267D01*
X98418803Y-98848263D01*
X98418800Y-98848258D01*
X98418799Y-98848255D01*
X98362786Y-98751239D01*
X98362785Y-98751237D01*
X98283563Y-98672015D01*
X98283560Y-98672013D01*
X98186540Y-98615998D01*
X98186542Y-98615998D01*
X98144551Y-98604747D01*
X98078318Y-98587000D01*
X98078316Y-98587000D01*
X98043588Y-98587000D01*
X97985397Y-98568093D01*
X97949433Y-98518593D01*
X97947967Y-98513642D01*
X97937603Y-98474963D01*
X97933079Y-98467128D01*
X97897042Y-98404709D01*
X97881585Y-98377937D01*
X97802363Y-98298715D01*
X97802360Y-98298713D01*
X97705340Y-98242698D01*
X97705342Y-98242698D01*
X97663351Y-98231447D01*
X97597118Y-98213700D01*
X97545920Y-98213700D01*
X97487729Y-98194793D01*
X97451765Y-98145293D01*
X97450293Y-98089078D01*
X97450587Y-98087980D01*
X97455400Y-98070018D01*
X97455400Y-97957982D01*
X97426403Y-97849763D01*
X97426401Y-97849760D01*
X97426401Y-97849758D01*
X97370386Y-97752739D01*
X97370385Y-97752737D01*
X97291163Y-97673515D01*
X97291160Y-97673513D01*
X97194140Y-97617498D01*
X97194142Y-97617498D01*
X97152151Y-97606247D01*
X97085918Y-97588500D01*
X96973882Y-97588500D01*
X96907648Y-97606247D01*
X96865658Y-97617498D01*
X96768639Y-97673513D01*
X96689413Y-97752739D01*
X96633398Y-97849758D01*
X96633397Y-97849763D01*
X96604400Y-97957982D01*
X96604400Y-98070018D01*
X96624570Y-98145293D01*
X96633398Y-98178241D01*
X96689413Y-98275260D01*
X96689415Y-98275263D01*
X96725405Y-98311253D01*
X96753181Y-98365768D01*
X96754400Y-98381255D01*
X96754400Y-98644544D01*
X96752317Y-98650952D01*
X96753538Y-98657577D01*
X96743678Y-98677541D01*
X96735493Y-98702735D01*
X96727135Y-98712772D01*
X96726259Y-98713692D01*
X96689415Y-98750537D01*
X96686632Y-98755356D01*
X96678518Y-98763888D01*
X96661426Y-98773143D01*
X96646971Y-98786136D01*
X96635158Y-98787367D01*
X96624714Y-98793023D01*
X96605446Y-98790464D01*
X96586115Y-98792479D01*
X96574958Y-98786415D01*
X96564062Y-98784968D01*
X96553081Y-98774524D01*
X96536780Y-98765664D01*
X96378057Y-98606942D01*
X96363494Y-98600910D01*
X96363493Y-98600910D01*
X96276800Y-98565000D01*
X96276799Y-98565000D01*
X92841083Y-98565000D01*
X92841069Y-98564994D01*
X92790484Y-98565000D01*
X92731500Y-98565000D01*
X92731487Y-98565000D01*
X92731470Y-98565006D01*
X92731469Y-98565007D01*
X92712368Y-98572920D01*
X92680947Y-98585938D01*
X92680841Y-98585982D01*
X92680734Y-98586027D01*
X92630242Y-98606943D01*
X92630232Y-98606952D01*
X92630215Y-98606960D01*
X92629593Y-98607581D01*
X92629592Y-98607582D01*
X92586310Y-98650872D01*
X92586305Y-98650879D01*
X92552743Y-98684442D01*
X92552738Y-98684451D01*
X92546539Y-98690652D01*
X92546539Y-98690653D01*
X90390859Y-100846825D01*
X90390852Y-100846831D01*
X90355740Y-100881944D01*
X90355724Y-100881967D01*
X90334252Y-100933822D01*
X90334179Y-100934001D01*
X90313800Y-100983200D01*
X90313800Y-100983216D01*
X90313794Y-100983231D01*
X90313794Y-100983487D01*
X90313794Y-100983488D01*
X90313800Y-101029980D01*
X90313800Y-103388744D01*
X90294893Y-103446935D01*
X90284804Y-103458747D01*
X90248814Y-103494737D01*
X90192798Y-103591758D01*
X90177193Y-103649999D01*
X90163800Y-103699982D01*
X90163800Y-103812018D01*
X90163801Y-103812020D01*
X90192798Y-103920241D01*
X90248813Y-104017260D01*
X90248815Y-104017263D01*
X90328037Y-104096485D01*
X90328039Y-104096486D01*
X90425059Y-104152501D01*
X90425057Y-104152501D01*
X90425061Y-104152502D01*
X90425063Y-104152503D01*
X90533282Y-104181500D01*
X90533290Y-104181500D01*
X90534403Y-104181647D01*
X90535134Y-104181995D01*
X90539550Y-104183179D01*
X90539330Y-104183996D01*
X90589631Y-104207983D01*
X90618831Y-104261751D01*
X90615932Y-104309495D01*
X90612666Y-104319880D01*
X90603497Y-104335763D01*
X90579414Y-104425640D01*
X90578773Y-104427681D01*
X90562192Y-104450965D01*
X90546633Y-104474925D01*
X90544566Y-104475718D01*
X90543283Y-104477521D01*
X90516180Y-104486613D01*
X90489511Y-104496851D01*
X90487374Y-104496278D01*
X90485275Y-104496983D01*
X90458006Y-104488409D01*
X90430411Y-104481015D01*
X90427822Y-104478918D01*
X90426907Y-104478631D01*
X90426066Y-104477497D01*
X90414332Y-104467995D01*
X90367619Y-104421282D01*
X90367616Y-104421280D01*
X90270596Y-104365265D01*
X90270598Y-104365265D01*
X90228607Y-104354014D01*
X90162374Y-104336267D01*
X90162372Y-104336267D01*
X90111480Y-104336267D01*
X90053289Y-104317360D01*
X90041476Y-104307271D01*
X89929396Y-104195191D01*
X89901619Y-104140674D01*
X89900400Y-104125187D01*
X89900400Y-101727255D01*
X89919307Y-101669064D01*
X89929390Y-101657257D01*
X89965385Y-101621263D01*
X90012641Y-101539413D01*
X90021401Y-101524241D01*
X90021401Y-101524239D01*
X90021403Y-101524237D01*
X90050400Y-101416018D01*
X90050400Y-101303982D01*
X90021403Y-101195763D01*
X90021401Y-101195760D01*
X90021401Y-101195758D01*
X89965386Y-101098739D01*
X89965385Y-101098737D01*
X89886163Y-101019515D01*
X89881918Y-101017064D01*
X89789140Y-100963498D01*
X89789142Y-100963498D01*
X89747151Y-100952247D01*
X89680918Y-100934500D01*
X89568882Y-100934500D01*
X89502648Y-100952247D01*
X89460658Y-100963498D01*
X89363636Y-101019515D01*
X89359763Y-101022487D01*
X89302086Y-101042908D01*
X89243421Y-101025528D01*
X89206177Y-100976984D01*
X89200500Y-100943942D01*
X89200500Y-94299500D01*
X89219407Y-94241309D01*
X89268907Y-94205345D01*
X89299500Y-94200500D01*
X115700500Y-94200500D01*
X115758691Y-94219407D01*
G37*
%TD.AperFunction*%
%TA.AperFunction,Conductor*%
G36*
X112440503Y-147390118D02*
G01*
X112794404Y-147744020D01*
X113035091Y-147984707D01*
X113062868Y-148039224D01*
X113056551Y-148092596D01*
X112989870Y-148253578D01*
X112989870Y-148253580D01*
X112949500Y-148456532D01*
X112949500Y-148663467D01*
X112989869Y-148866418D01*
X113069058Y-149057597D01*
X113069059Y-149057598D01*
X113184023Y-149229655D01*
X113330345Y-149375977D01*
X113502402Y-149490941D01*
X113693580Y-149570130D01*
X113896535Y-149610500D01*
X113896536Y-149610500D01*
X114103464Y-149610500D01*
X114103465Y-149610500D01*
X114306420Y-149570130D01*
X114497598Y-149490941D01*
X114669655Y-149375977D01*
X114815977Y-149229655D01*
X114930941Y-149057598D01*
X114994036Y-148905271D01*
X115033773Y-148858748D01*
X115093267Y-148844464D01*
X115149795Y-148867879D01*
X115181765Y-148920048D01*
X115184500Y-148943159D01*
X115184500Y-150716840D01*
X115165593Y-150775031D01*
X115116093Y-150810995D01*
X115054907Y-150810995D01*
X115005407Y-150775031D01*
X114994036Y-150754726D01*
X114930941Y-150602402D01*
X114815979Y-150430348D01*
X114815977Y-150430345D01*
X114669655Y-150284023D01*
X114669651Y-150284020D01*
X114497597Y-150169058D01*
X114306418Y-150089869D01*
X114103467Y-150049500D01*
X114103465Y-150049500D01*
X113896535Y-150049500D01*
X113896532Y-150049500D01*
X113693581Y-150089869D01*
X113502402Y-150169058D01*
X113330348Y-150284020D01*
X113184020Y-150430348D01*
X113069058Y-150602402D01*
X112989869Y-150793581D01*
X112949500Y-150996532D01*
X112949500Y-151203467D01*
X112989869Y-151406418D01*
X113069058Y-151597597D01*
X113069059Y-151597598D01*
X113184023Y-151769655D01*
X113330345Y-151915977D01*
X113502402Y-152030941D01*
X113693580Y-152110130D01*
X113896535Y-152150500D01*
X113896536Y-152150500D01*
X114103464Y-152150500D01*
X114103465Y-152150500D01*
X114306420Y-152110130D01*
X114497598Y-152030941D01*
X114669655Y-151915977D01*
X114815977Y-151769655D01*
X114930941Y-151597598D01*
X114994036Y-151445271D01*
X115033773Y-151398748D01*
X115093267Y-151384464D01*
X115149795Y-151407879D01*
X115181765Y-151460048D01*
X115184500Y-151483159D01*
X115184500Y-153256840D01*
X115165593Y-153315031D01*
X115116093Y-153350995D01*
X115054907Y-153350995D01*
X115005407Y-153315031D01*
X114994036Y-153294726D01*
X114930941Y-153142402D01*
X114815979Y-152970348D01*
X114815977Y-152970345D01*
X114669655Y-152824023D01*
X114669651Y-152824020D01*
X114497597Y-152709058D01*
X114306418Y-152629869D01*
X114103467Y-152589500D01*
X114103465Y-152589500D01*
X113896535Y-152589500D01*
X113896532Y-152589500D01*
X113693581Y-152629869D01*
X113502402Y-152709058D01*
X113330348Y-152824020D01*
X113184020Y-152970348D01*
X113069058Y-153142402D01*
X112989869Y-153333581D01*
X112949500Y-153536532D01*
X112949500Y-153743467D01*
X112989869Y-153946418D01*
X113069058Y-154137597D01*
X113069059Y-154137598D01*
X113184023Y-154309655D01*
X113330345Y-154455977D01*
X113502402Y-154570941D01*
X113693580Y-154650130D01*
X113896535Y-154690500D01*
X113896536Y-154690500D01*
X114103464Y-154690500D01*
X114103465Y-154690500D01*
X114306420Y-154650130D01*
X114497598Y-154570941D01*
X114669655Y-154455977D01*
X114815977Y-154309655D01*
X114930941Y-154137598D01*
X114994036Y-153985271D01*
X115033773Y-153938748D01*
X115093267Y-153924464D01*
X115149795Y-153947879D01*
X115181765Y-154000048D01*
X115184500Y-154023159D01*
X115184500Y-155796840D01*
X115165593Y-155855031D01*
X115116093Y-155890995D01*
X115054907Y-155890995D01*
X115005407Y-155855031D01*
X114994036Y-155834726D01*
X114930941Y-155682402D01*
X114815979Y-155510348D01*
X114815977Y-155510345D01*
X114669655Y-155364023D01*
X114669651Y-155364020D01*
X114497597Y-155249058D01*
X114306418Y-155169869D01*
X114103467Y-155129500D01*
X114103465Y-155129500D01*
X113896535Y-155129500D01*
X113896532Y-155129500D01*
X113693581Y-155169869D01*
X113502402Y-155249058D01*
X113330348Y-155364020D01*
X113184020Y-155510348D01*
X113069058Y-155682402D01*
X112989869Y-155873581D01*
X112949500Y-156076532D01*
X112949500Y-156283467D01*
X112989869Y-156486418D01*
X113069058Y-156677597D01*
X113180835Y-156844884D01*
X113184023Y-156849655D01*
X113330345Y-156995977D01*
X113502402Y-157110941D01*
X113693580Y-157190130D01*
X113896535Y-157230500D01*
X113896536Y-157230500D01*
X114103464Y-157230500D01*
X114103465Y-157230500D01*
X114306420Y-157190130D01*
X114497598Y-157110941D01*
X114669655Y-156995977D01*
X114815977Y-156849655D01*
X114930941Y-156677598D01*
X114994036Y-156525271D01*
X115033773Y-156478748D01*
X115093267Y-156464464D01*
X115149795Y-156487879D01*
X115181765Y-156540048D01*
X115184500Y-156563159D01*
X115184500Y-158336840D01*
X115165593Y-158395031D01*
X115116093Y-158430995D01*
X115054907Y-158430995D01*
X115005407Y-158395031D01*
X114994036Y-158374726D01*
X114930941Y-158222402D01*
X114815979Y-158050348D01*
X114815977Y-158050345D01*
X114669655Y-157904023D01*
X114669651Y-157904020D01*
X114497597Y-157789058D01*
X114306418Y-157709869D01*
X114103467Y-157669500D01*
X114103465Y-157669500D01*
X113896535Y-157669500D01*
X113896532Y-157669500D01*
X113693581Y-157709869D01*
X113502402Y-157789058D01*
X113330348Y-157904020D01*
X113184020Y-158050348D01*
X113069058Y-158222402D01*
X112989869Y-158413581D01*
X112949500Y-158616532D01*
X112949500Y-158823467D01*
X112989869Y-159026418D01*
X113069058Y-159217597D01*
X113069059Y-159217598D01*
X113184023Y-159389655D01*
X113330345Y-159535977D01*
X113502402Y-159650941D01*
X113693580Y-159730130D01*
X113896535Y-159770500D01*
X113896536Y-159770500D01*
X114103464Y-159770500D01*
X114103465Y-159770500D01*
X114306420Y-159730130D01*
X114497598Y-159650941D01*
X114669655Y-159535977D01*
X114815977Y-159389655D01*
X114930941Y-159217598D01*
X114994036Y-159065271D01*
X115033773Y-159018748D01*
X115093267Y-159004464D01*
X115149795Y-159027879D01*
X115181765Y-159080048D01*
X115184500Y-159103159D01*
X115184500Y-160876840D01*
X115165593Y-160935031D01*
X115116093Y-160970995D01*
X115054907Y-160970995D01*
X115005407Y-160935031D01*
X114994036Y-160914726D01*
X114930941Y-160762402D01*
X114815979Y-160590348D01*
X114815977Y-160590345D01*
X114669655Y-160444023D01*
X114669651Y-160444020D01*
X114497597Y-160329058D01*
X114306418Y-160249869D01*
X114103467Y-160209500D01*
X114103465Y-160209500D01*
X113896535Y-160209500D01*
X113896532Y-160209500D01*
X113693581Y-160249869D01*
X113584405Y-160295092D01*
X113532596Y-160316552D01*
X113471600Y-160321353D01*
X113424707Y-160295092D01*
X112300496Y-159170881D01*
X112272719Y-159116364D01*
X112271500Y-159100877D01*
X112271500Y-147460123D01*
X112290407Y-147401932D01*
X112339907Y-147365968D01*
X112401093Y-147365968D01*
X112440503Y-147390118D01*
G37*
%TD.AperFunction*%
%TA.AperFunction,Conductor*%
G36*
X112741504Y-137531120D02*
G01*
X113035091Y-137824708D01*
X113062868Y-137879224D01*
X113056551Y-137932596D01*
X112989870Y-138093578D01*
X112989870Y-138093580D01*
X112949500Y-138296532D01*
X112949500Y-138503467D01*
X112989869Y-138706418D01*
X113069058Y-138897597D01*
X113173500Y-139053906D01*
X113184023Y-139069655D01*
X113330345Y-139215977D01*
X113502402Y-139330941D01*
X113693580Y-139410130D01*
X113896535Y-139450500D01*
X113896536Y-139450500D01*
X114103464Y-139450500D01*
X114103465Y-139450500D01*
X114306420Y-139410130D01*
X114497598Y-139330941D01*
X114669655Y-139215977D01*
X114669657Y-139215974D01*
X114672499Y-139214076D01*
X114731387Y-139197468D01*
X114788790Y-139218646D01*
X114822783Y-139269519D01*
X114826500Y-139296392D01*
X114826500Y-140043607D01*
X114807593Y-140101798D01*
X114758093Y-140137762D01*
X114696907Y-140137762D01*
X114672499Y-140125923D01*
X114497597Y-140009058D01*
X114306418Y-139929869D01*
X114103467Y-139889500D01*
X114103465Y-139889500D01*
X113896535Y-139889500D01*
X113896532Y-139889500D01*
X113693581Y-139929869D01*
X113502402Y-140009058D01*
X113330348Y-140124020D01*
X113184020Y-140270348D01*
X113069058Y-140442402D01*
X112989869Y-140633581D01*
X112949500Y-140836532D01*
X112949500Y-141043467D01*
X112989869Y-141246418D01*
X113069058Y-141437597D01*
X113069059Y-141437598D01*
X113184023Y-141609655D01*
X113330345Y-141755977D01*
X113502402Y-141870941D01*
X113693580Y-141950130D01*
X113896535Y-141990500D01*
X113896536Y-141990500D01*
X114103464Y-141990500D01*
X114103465Y-141990500D01*
X114306420Y-141950130D01*
X114497598Y-141870941D01*
X114669655Y-141755977D01*
X114669657Y-141755974D01*
X114672499Y-141754076D01*
X114731387Y-141737468D01*
X114788790Y-141758646D01*
X114822783Y-141809519D01*
X114826500Y-141836392D01*
X114826500Y-142222876D01*
X114807593Y-142281067D01*
X114797503Y-142292880D01*
X114575291Y-142515091D01*
X114520775Y-142542868D01*
X114467403Y-142536551D01*
X114306420Y-142469870D01*
X114103467Y-142429500D01*
X114103465Y-142429500D01*
X113896535Y-142429500D01*
X113896532Y-142429500D01*
X113693581Y-142469869D01*
X113502402Y-142549058D01*
X113330348Y-142664020D01*
X113184020Y-142810348D01*
X113069058Y-142982402D01*
X112989869Y-143173581D01*
X112949500Y-143376532D01*
X112949500Y-143583467D01*
X112989869Y-143786418D01*
X113069058Y-143977597D01*
X113069059Y-143977598D01*
X113184023Y-144149655D01*
X113330345Y-144295977D01*
X113502402Y-144410941D01*
X113693580Y-144490130D01*
X113896535Y-144530500D01*
X113896536Y-144530500D01*
X114103464Y-144530500D01*
X114103465Y-144530500D01*
X114306420Y-144490130D01*
X114497598Y-144410941D01*
X114669655Y-144295977D01*
X114815977Y-144149655D01*
X114930941Y-143977598D01*
X114994036Y-143825271D01*
X115033773Y-143778748D01*
X115093267Y-143764464D01*
X115149795Y-143787879D01*
X115181765Y-143840048D01*
X115184500Y-143863159D01*
X115184500Y-145636840D01*
X115165593Y-145695031D01*
X115116093Y-145730995D01*
X115054907Y-145730995D01*
X115005407Y-145695031D01*
X114994036Y-145674726D01*
X114930941Y-145522402D01*
X114815979Y-145350348D01*
X114815977Y-145350345D01*
X114669655Y-145204023D01*
X114497598Y-145089059D01*
X114497599Y-145089059D01*
X114497597Y-145089058D01*
X114306418Y-145009869D01*
X114103467Y-144969500D01*
X114103465Y-144969500D01*
X113896535Y-144969500D01*
X113896532Y-144969500D01*
X113693581Y-145009869D01*
X113502402Y-145089058D01*
X113330348Y-145204020D01*
X113184020Y-145350348D01*
X113069058Y-145522402D01*
X112989869Y-145713581D01*
X112949500Y-145916532D01*
X112949500Y-146123467D01*
X112989869Y-146326418D01*
X113069058Y-146517597D01*
X113069059Y-146517598D01*
X113184023Y-146689655D01*
X113330345Y-146835977D01*
X113502402Y-146950941D01*
X113693580Y-147030130D01*
X113896535Y-147070500D01*
X113896536Y-147070500D01*
X114103464Y-147070500D01*
X114103465Y-147070500D01*
X114306420Y-147030130D01*
X114497598Y-146950941D01*
X114669655Y-146835977D01*
X114815977Y-146689655D01*
X114930941Y-146517598D01*
X114994036Y-146365271D01*
X115033773Y-146318748D01*
X115093267Y-146304464D01*
X115149795Y-146327879D01*
X115181765Y-146380048D01*
X115184500Y-146403159D01*
X115184500Y-148176840D01*
X115165593Y-148235031D01*
X115116093Y-148270995D01*
X115054907Y-148270995D01*
X115005407Y-148235031D01*
X114994036Y-148214726D01*
X114930941Y-148062402D01*
X114815979Y-147890348D01*
X114815977Y-147890345D01*
X114669655Y-147744023D01*
X114497598Y-147629059D01*
X114497599Y-147629059D01*
X114497597Y-147629058D01*
X114306418Y-147549869D01*
X114103467Y-147509500D01*
X114103465Y-147509500D01*
X113896535Y-147509500D01*
X113896532Y-147509500D01*
X113693580Y-147549870D01*
X113693578Y-147549870D01*
X113532596Y-147616551D01*
X113471600Y-147621352D01*
X113424707Y-147595091D01*
X112601496Y-146771880D01*
X112573719Y-146717363D01*
X112572500Y-146701876D01*
X112572500Y-137601123D01*
X112591407Y-137542932D01*
X112640907Y-137506968D01*
X112702093Y-137506968D01*
X112741504Y-137531120D01*
G37*
%TD.AperFunction*%
%TA.AperFunction,Conductor*%
G36*
X92411845Y-126304812D02*
G01*
X92455110Y-126348077D01*
X92465900Y-126393022D01*
X92465900Y-127265744D01*
X92446993Y-127323935D01*
X92436904Y-127335747D01*
X92400914Y-127371737D01*
X92344898Y-127468758D01*
X92344897Y-127468763D01*
X92315900Y-127576982D01*
X92315900Y-127689018D01*
X92330204Y-127742402D01*
X92344898Y-127797241D01*
X92400913Y-127894260D01*
X92400915Y-127894263D01*
X92480137Y-127973485D01*
X92480139Y-127973486D01*
X92577159Y-128029501D01*
X92577157Y-128029501D01*
X92577161Y-128029502D01*
X92577163Y-128029503D01*
X92685382Y-128058500D01*
X92685384Y-128058500D01*
X92797417Y-128058500D01*
X92797418Y-128058500D01*
X92797418Y-128058499D01*
X92803850Y-128057653D01*
X92804196Y-128060281D01*
X92854057Y-128062883D01*
X92901616Y-128101377D01*
X92917600Y-128155316D01*
X92917600Y-128431969D01*
X92915138Y-128439545D01*
X92916388Y-128447414D01*
X92905862Y-128468093D01*
X92898693Y-128490160D01*
X92888635Y-128501941D01*
X92787188Y-128603474D01*
X92732685Y-128631274D01*
X92717156Y-128632500D01*
X92666482Y-128632500D01*
X92600248Y-128650247D01*
X92558258Y-128661498D01*
X92461239Y-128717513D01*
X92382013Y-128796739D01*
X92325998Y-128893758D01*
X92325582Y-128895312D01*
X92297000Y-129001982D01*
X92297000Y-129114018D01*
X92322572Y-129209455D01*
X92325998Y-129222241D01*
X92382013Y-129319260D01*
X92382015Y-129319263D01*
X92461237Y-129398485D01*
X92461239Y-129398486D01*
X92558259Y-129454501D01*
X92558257Y-129454501D01*
X92558261Y-129454502D01*
X92558263Y-129454503D01*
X92666482Y-129483500D01*
X92666484Y-129483500D01*
X92778516Y-129483500D01*
X92778518Y-129483500D01*
X92886737Y-129454503D01*
X92886739Y-129454501D01*
X92886741Y-129454501D01*
X92915564Y-129437859D01*
X92983763Y-129398485D01*
X93062985Y-129319263D01*
X93089764Y-129272881D01*
X93135233Y-129231940D01*
X93196084Y-129225544D01*
X93249072Y-129256137D01*
X93273958Y-129312033D01*
X93274500Y-129322381D01*
X93274500Y-138234875D01*
X93255593Y-138293066D01*
X93245504Y-138304879D01*
X91575291Y-139975091D01*
X91520774Y-140002868D01*
X91467401Y-139996551D01*
X91306418Y-139929869D01*
X91103467Y-139889500D01*
X91103465Y-139889500D01*
X90896535Y-139889500D01*
X90896532Y-139889500D01*
X90693581Y-139929869D01*
X90502402Y-140009058D01*
X90330348Y-140124020D01*
X90184020Y-140270348D01*
X90069058Y-140442402D01*
X90033764Y-140527611D01*
X89994027Y-140574136D01*
X89934532Y-140588420D01*
X89878004Y-140565005D01*
X89846035Y-140512836D01*
X89843300Y-140489725D01*
X89843300Y-138850274D01*
X89862207Y-138792083D01*
X89911707Y-138756119D01*
X89972893Y-138756119D01*
X90022393Y-138792083D01*
X90033764Y-138812389D01*
X90069057Y-138897595D01*
X90069058Y-138897597D01*
X90069059Y-138897598D01*
X90184023Y-139069655D01*
X90330345Y-139215977D01*
X90502402Y-139330941D01*
X90693580Y-139410130D01*
X90896535Y-139450500D01*
X90896536Y-139450500D01*
X91103464Y-139450500D01*
X91103465Y-139450500D01*
X91306420Y-139410130D01*
X91497598Y-139330941D01*
X91669655Y-139215977D01*
X91815977Y-139069655D01*
X91930941Y-138897598D01*
X92010130Y-138706420D01*
X92050500Y-138503465D01*
X92050500Y-138296535D01*
X92010130Y-138093580D01*
X91930941Y-137902402D01*
X91815977Y-137730345D01*
X91669655Y-137584023D01*
X91590480Y-137531120D01*
X91497597Y-137469058D01*
X91306418Y-137389869D01*
X91103467Y-137349500D01*
X91103465Y-137349500D01*
X90896535Y-137349500D01*
X90896532Y-137349500D01*
X90693581Y-137389869D01*
X90502402Y-137469058D01*
X90330348Y-137584020D01*
X90184020Y-137730348D01*
X90069058Y-137902402D01*
X90033764Y-137987611D01*
X89994027Y-138034136D01*
X89934532Y-138048420D01*
X89878004Y-138025005D01*
X89846035Y-137972836D01*
X89843300Y-137949725D01*
X89843300Y-136310274D01*
X89862207Y-136252083D01*
X89911707Y-136216119D01*
X89972893Y-136216119D01*
X90022393Y-136252083D01*
X90033764Y-136272389D01*
X90069057Y-136357595D01*
X90069058Y-136357597D01*
X90069059Y-136357598D01*
X90184023Y-136529655D01*
X90330345Y-136675977D01*
X90502402Y-136790941D01*
X90693580Y-136870130D01*
X90896535Y-136910500D01*
X90896536Y-136910500D01*
X91103464Y-136910500D01*
X91103465Y-136910500D01*
X91306420Y-136870130D01*
X91497598Y-136790941D01*
X91669655Y-136675977D01*
X91815977Y-136529655D01*
X91930941Y-136357598D01*
X92010130Y-136166420D01*
X92050500Y-135963465D01*
X92050500Y-135756535D01*
X92010130Y-135553580D01*
X91930941Y-135362402D01*
X91815977Y-135190345D01*
X91669655Y-135044023D01*
X91651874Y-135032142D01*
X91497597Y-134929058D01*
X91306418Y-134849869D01*
X91103467Y-134809500D01*
X91103465Y-134809500D01*
X90896535Y-134809500D01*
X90896532Y-134809500D01*
X90693581Y-134849869D01*
X90502402Y-134929058D01*
X90330348Y-135044020D01*
X90184020Y-135190348D01*
X90069058Y-135362402D01*
X90033764Y-135447611D01*
X89994027Y-135494136D01*
X89934532Y-135508420D01*
X89878004Y-135485005D01*
X89846035Y-135432836D01*
X89843300Y-135409725D01*
X89843300Y-133770274D01*
X89862207Y-133712083D01*
X89911707Y-133676119D01*
X89972893Y-133676119D01*
X90022393Y-133712083D01*
X90033764Y-133732389D01*
X90069057Y-133817595D01*
X90069058Y-133817597D01*
X90069059Y-133817598D01*
X90184023Y-133989655D01*
X90330345Y-134135977D01*
X90502402Y-134250941D01*
X90693580Y-134330130D01*
X90896535Y-134370500D01*
X90896536Y-134370500D01*
X91103464Y-134370500D01*
X91103465Y-134370500D01*
X91306420Y-134330130D01*
X91497598Y-134250941D01*
X91669655Y-134135977D01*
X91815977Y-133989655D01*
X91930941Y-133817598D01*
X92010130Y-133626420D01*
X92050500Y-133423465D01*
X92050500Y-133216535D01*
X92010130Y-133013580D01*
X91930941Y-132822402D01*
X91815977Y-132650345D01*
X91669655Y-132504023D01*
X91669498Y-132503918D01*
X91497597Y-132389058D01*
X91306418Y-132309869D01*
X91103467Y-132269500D01*
X91103465Y-132269500D01*
X90896535Y-132269500D01*
X90896532Y-132269500D01*
X90693581Y-132309869D01*
X90532748Y-132376489D01*
X90471751Y-132381290D01*
X90424851Y-132355020D01*
X90227785Y-132157899D01*
X90200017Y-132103380D01*
X90198800Y-132087907D01*
X90198800Y-131693297D01*
X90217707Y-131635106D01*
X90267207Y-131599142D01*
X90328393Y-131599142D01*
X90352798Y-131610979D01*
X90502402Y-131710941D01*
X90693580Y-131790130D01*
X90896535Y-131830500D01*
X90896536Y-131830500D01*
X91103464Y-131830500D01*
X91103465Y-131830500D01*
X91306420Y-131790130D01*
X91497598Y-131710941D01*
X91669655Y-131595977D01*
X91815977Y-131449655D01*
X91930941Y-131277598D01*
X92010130Y-131086420D01*
X92050500Y-130883465D01*
X92050500Y-130676535D01*
X92010130Y-130473580D01*
X91930941Y-130282402D01*
X91815977Y-130110345D01*
X91669655Y-129964023D01*
X91669498Y-129963918D01*
X91497597Y-129849058D01*
X91306418Y-129769869D01*
X91103467Y-129729500D01*
X91103465Y-129729500D01*
X90896535Y-129729500D01*
X90896532Y-129729500D01*
X90693581Y-129769869D01*
X90502402Y-129849058D01*
X90352801Y-129949018D01*
X90293913Y-129965626D01*
X90236509Y-129944448D01*
X90202517Y-129893574D01*
X90198800Y-129866702D01*
X90198800Y-129153297D01*
X90217707Y-129095106D01*
X90267207Y-129059142D01*
X90328393Y-129059142D01*
X90352798Y-129070979D01*
X90502402Y-129170941D01*
X90693580Y-129250130D01*
X90896535Y-129290500D01*
X90896536Y-129290500D01*
X91103464Y-129290500D01*
X91103465Y-129290500D01*
X91306420Y-129250130D01*
X91497598Y-129170941D01*
X91669655Y-129055977D01*
X91815977Y-128909655D01*
X91930941Y-128737598D01*
X92010130Y-128546420D01*
X92050500Y-128343465D01*
X92050500Y-128136535D01*
X92010130Y-127933580D01*
X91930941Y-127742402D01*
X91815977Y-127570345D01*
X91669655Y-127424023D01*
X91662658Y-127419348D01*
X91546302Y-127341602D01*
X91497598Y-127309059D01*
X91497596Y-127309058D01*
X91497593Y-127309056D01*
X91493627Y-127306936D01*
X91451220Y-127262831D01*
X91442837Y-127202223D01*
X91470291Y-127149623D01*
X91493857Y-127126058D01*
X91493856Y-127126058D01*
X92296897Y-126323017D01*
X92351413Y-126295241D01*
X92411845Y-126304812D01*
G37*
%TD.AperFunction*%
%TA.AperFunction,Conductor*%
G36*
X92118095Y-121004409D02*
G01*
X92150065Y-121056578D01*
X92152800Y-121079689D01*
X92152800Y-122700310D01*
X92133893Y-122758501D01*
X92084393Y-122794465D01*
X92023207Y-122794465D01*
X91973707Y-122758501D01*
X91962336Y-122738196D01*
X91930941Y-122662402D01*
X91815979Y-122490348D01*
X91815977Y-122490345D01*
X91669655Y-122344023D01*
X91669498Y-122343918D01*
X91497597Y-122229058D01*
X91306418Y-122149869D01*
X91103467Y-122109500D01*
X91103465Y-122109500D01*
X90896535Y-122109500D01*
X90896532Y-122109500D01*
X90693581Y-122149869D01*
X90532748Y-122216489D01*
X90471751Y-122221290D01*
X90424851Y-122195020D01*
X90227785Y-121997899D01*
X90200017Y-121943380D01*
X90198800Y-121927907D01*
X90198800Y-121533297D01*
X90217707Y-121475106D01*
X90267207Y-121439142D01*
X90328393Y-121439142D01*
X90352798Y-121450979D01*
X90502402Y-121550941D01*
X90693580Y-121630130D01*
X90896535Y-121670500D01*
X90896536Y-121670500D01*
X91103464Y-121670500D01*
X91103465Y-121670500D01*
X91306420Y-121630130D01*
X91497598Y-121550941D01*
X91669655Y-121435977D01*
X91815977Y-121289655D01*
X91930941Y-121117598D01*
X91962336Y-121041803D01*
X92002072Y-120995278D01*
X92061567Y-120980994D01*
X92118095Y-121004409D01*
G37*
%TD.AperFunction*%
%TA.AperFunction,Conductor*%
G36*
X92118095Y-118464409D02*
G01*
X92150065Y-118516578D01*
X92152800Y-118539689D01*
X92152800Y-120160310D01*
X92133893Y-120218501D01*
X92084393Y-120254465D01*
X92023207Y-120254465D01*
X91973707Y-120218501D01*
X91962336Y-120198196D01*
X91930941Y-120122402D01*
X91815979Y-119950348D01*
X91815977Y-119950345D01*
X91669655Y-119804023D01*
X91669498Y-119803918D01*
X91497597Y-119689058D01*
X91306418Y-119609869D01*
X91103467Y-119569500D01*
X91103465Y-119569500D01*
X90896535Y-119569500D01*
X90896532Y-119569500D01*
X90693581Y-119609869D01*
X90502402Y-119689058D01*
X90352801Y-119789018D01*
X90293913Y-119805626D01*
X90236509Y-119784448D01*
X90202517Y-119733574D01*
X90198800Y-119706702D01*
X90198800Y-118993297D01*
X90217707Y-118935106D01*
X90267207Y-118899142D01*
X90328393Y-118899142D01*
X90352798Y-118910979D01*
X90502402Y-119010941D01*
X90693580Y-119090130D01*
X90896535Y-119130500D01*
X90896536Y-119130500D01*
X91103464Y-119130500D01*
X91103465Y-119130500D01*
X91306420Y-119090130D01*
X91497598Y-119010941D01*
X91669655Y-118895977D01*
X91815977Y-118749655D01*
X91930941Y-118577598D01*
X91962336Y-118501803D01*
X92002072Y-118455278D01*
X92061567Y-118440994D01*
X92118095Y-118464409D01*
G37*
%TD.AperFunction*%
%TA.AperFunction,Conductor*%
G36*
X91936290Y-116122736D02*
G01*
X91940800Y-116116530D01*
X91940804Y-116116523D01*
X91965590Y-116067879D01*
X92008854Y-116024615D01*
X92069286Y-116015043D01*
X92123803Y-116042820D01*
X92151581Y-116097336D01*
X92152800Y-116112824D01*
X92152800Y-117620310D01*
X92133893Y-117678501D01*
X92084393Y-117714465D01*
X92023207Y-117714465D01*
X91973707Y-117678501D01*
X91962336Y-117658196D01*
X91930941Y-117582402D01*
X91815977Y-117410345D01*
X91669655Y-117264023D01*
X91669498Y-117263918D01*
X91497597Y-117149058D01*
X91306418Y-117069869D01*
X91103467Y-117029500D01*
X91103465Y-117029500D01*
X90896535Y-117029500D01*
X90896530Y-117029500D01*
X90815166Y-117045684D01*
X90754405Y-117038492D01*
X90709475Y-116996959D01*
X90699269Y-116966225D01*
X90699179Y-116966250D01*
X90698769Y-116964721D01*
X90697699Y-116961498D01*
X90697500Y-116959989D01*
X90697500Y-116959982D01*
X90668503Y-116851763D01*
X90668501Y-116851760D01*
X90668501Y-116851758D01*
X90610646Y-116751551D01*
X90597924Y-116691703D01*
X90622810Y-116635807D01*
X90675798Y-116605214D01*
X90726978Y-116607897D01*
X90742421Y-116612915D01*
X90913425Y-116640000D01*
X91086575Y-116640000D01*
X91257579Y-116612915D01*
X91422248Y-116559411D01*
X91576523Y-116480804D01*
X91576530Y-116480800D01*
X91582736Y-116476290D01*
X91129408Y-116022962D01*
X91192993Y-116005925D01*
X91307007Y-115940099D01*
X91400099Y-115847007D01*
X91465925Y-115732993D01*
X91482962Y-115669408D01*
X91936290Y-116122736D01*
G37*
%TD.AperFunction*%
%TA.AperFunction,Conductor*%
G36*
X92115089Y-113996282D02*
G01*
X92149083Y-114047155D01*
X92152800Y-114074029D01*
X92152800Y-114967175D01*
X92133893Y-115025366D01*
X92084393Y-115061330D01*
X92023207Y-115061330D01*
X91973707Y-115025366D01*
X91965590Y-115012120D01*
X91940804Y-114963475D01*
X91940800Y-114963469D01*
X91936290Y-114957262D01*
X91936289Y-114957262D01*
X91482962Y-115410589D01*
X91465925Y-115347007D01*
X91400099Y-115232993D01*
X91307007Y-115139901D01*
X91192993Y-115074075D01*
X91129407Y-115057036D01*
X91582736Y-114603708D01*
X91576524Y-114599196D01*
X91422248Y-114520588D01*
X91257579Y-114467084D01*
X91086575Y-114440000D01*
X90913425Y-114440000D01*
X90742420Y-114467084D01*
X90577751Y-114520588D01*
X90423478Y-114599194D01*
X90417262Y-114603708D01*
X90870591Y-115057037D01*
X90807007Y-115074075D01*
X90692993Y-115139901D01*
X90599901Y-115232993D01*
X90534075Y-115347007D01*
X90517037Y-115410591D01*
X90063708Y-114957262D01*
X90059194Y-114963478D01*
X90030510Y-115019774D01*
X89987245Y-115063039D01*
X89926813Y-115072610D01*
X89872296Y-115044832D01*
X89844519Y-114990316D01*
X89843300Y-114974829D01*
X89843300Y-114071411D01*
X89862207Y-114013220D01*
X89911707Y-113977256D01*
X89972893Y-113977256D01*
X89995870Y-113991336D01*
X89997341Y-113989135D01*
X90005448Y-113994552D01*
X90071769Y-114038867D01*
X90113436Y-114047155D01*
X90130241Y-114050498D01*
X90130246Y-114050498D01*
X90130252Y-114050500D01*
X90130253Y-114050500D01*
X91869747Y-114050500D01*
X91869748Y-114050500D01*
X91928231Y-114038867D01*
X91994552Y-113994552D01*
X91994553Y-113994549D01*
X91998797Y-113991714D01*
X92057685Y-113975105D01*
X92115089Y-113996282D01*
G37*
%TD.AperFunction*%
%TA.AperFunction,Conductor*%
G36*
X91998987Y-104630382D02*
G01*
X92018268Y-104628823D01*
X92028487Y-104635054D01*
X92040313Y-104636928D01*
X92056052Y-104651864D01*
X92070507Y-104660679D01*
X92076500Y-104667665D01*
X92087815Y-104687263D01*
X92126479Y-104725927D01*
X92128941Y-104728797D01*
X92139325Y-104753714D01*
X92151581Y-104777768D01*
X92150966Y-104781647D01*
X92152478Y-104785274D01*
X92152800Y-104793255D01*
X92152800Y-111925970D01*
X92133893Y-111984161D01*
X92084393Y-112020125D01*
X92023207Y-112020125D01*
X91998798Y-112008285D01*
X91928233Y-111961134D01*
X91928231Y-111961133D01*
X91928228Y-111961132D01*
X91928227Y-111961132D01*
X91869758Y-111949501D01*
X91869748Y-111949500D01*
X90130252Y-111949500D01*
X90130251Y-111949500D01*
X90130241Y-111949501D01*
X90071772Y-111961132D01*
X90071766Y-111961134D01*
X89997341Y-112010865D01*
X89995023Y-112007397D01*
X89957787Y-112026370D01*
X89897355Y-112016799D01*
X89854090Y-111973534D01*
X89843300Y-111928589D01*
X89843300Y-106778126D01*
X89862207Y-106719935D01*
X89872298Y-106708121D01*
X89986407Y-106594016D01*
X91925366Y-104655130D01*
X91942599Y-104646350D01*
X91957282Y-104633755D01*
X91969215Y-104632789D01*
X91979881Y-104627356D01*
X91998987Y-104630382D01*
G37*
%TD.AperFunction*%
%TD*%
%TA.AperFunction,NonConductor*%
G36*
X98506660Y-104809192D02*
G01*
X98533831Y-104816474D01*
X98535529Y-104818572D01*
X98538099Y-104819407D01*
X98554639Y-104842172D01*
X98572334Y-104864026D01*
X98572475Y-104866721D01*
X98574063Y-104868907D01*
X98575533Y-104925123D01*
X98574500Y-104928982D01*
X98574500Y-105041018D01*
X98590908Y-105102253D01*
X98603498Y-105149241D01*
X98658360Y-105244263D01*
X98659515Y-105246263D01*
X98738737Y-105325485D01*
X98738739Y-105325486D01*
X98835759Y-105381501D01*
X98835757Y-105381501D01*
X98835761Y-105381502D01*
X98835763Y-105381503D01*
X98943982Y-105410500D01*
X98943984Y-105410500D01*
X99056016Y-105410500D01*
X99056018Y-105410500D01*
X99164237Y-105381503D01*
X99164239Y-105381501D01*
X99164241Y-105381501D01*
X99207088Y-105356763D01*
X99261263Y-105325485D01*
X99340485Y-105246263D01*
X99396503Y-105149237D01*
X99404641Y-105118863D01*
X99437962Y-105067550D01*
X99495083Y-105045622D01*
X99554184Y-105061456D01*
X99592690Y-105109005D01*
X99595893Y-105118861D01*
X99603497Y-105147237D01*
X99603498Y-105147240D01*
X99659513Y-105244260D01*
X99659515Y-105244263D01*
X99695505Y-105280253D01*
X99723281Y-105334768D01*
X99724500Y-105350255D01*
X99724500Y-111536878D01*
X99705593Y-111595069D01*
X99695505Y-111606881D01*
X98444505Y-112857918D01*
X98389988Y-112885696D01*
X98329556Y-112876125D01*
X98286291Y-112832861D01*
X98275500Y-112787915D01*
X98275500Y-104899500D01*
X98294407Y-104841309D01*
X98343907Y-104805345D01*
X98374500Y-104800500D01*
X98479908Y-104800500D01*
X98506660Y-104809192D01*
G37*
%TD.AperFunction*%
%TA.AperFunction,NonConductor*%
G36*
X90534075Y-115732993D02*
G01*
X90599901Y-115847007D01*
X90692993Y-115940099D01*
X90807007Y-116005925D01*
X90870589Y-116022962D01*
X90417262Y-116476288D01*
X90417848Y-116483732D01*
X90403565Y-116543227D01*
X90357039Y-116582964D01*
X90319153Y-116590500D01*
X90215982Y-116590500D01*
X90151055Y-116607897D01*
X90107758Y-116619498D01*
X90010735Y-116675515D01*
X90005587Y-116679466D01*
X90004431Y-116677960D01*
X89957787Y-116701726D01*
X89897355Y-116692155D01*
X89854090Y-116648890D01*
X89843300Y-116603945D01*
X89843300Y-116105169D01*
X89862207Y-116046978D01*
X89911707Y-116011014D01*
X89972893Y-116011014D01*
X90022393Y-116046978D01*
X90030510Y-116060224D01*
X90059196Y-116116524D01*
X90063708Y-116122735D01*
X90517036Y-115669406D01*
X90534075Y-115732993D01*
G37*
%TD.AperFunction*%
%TA.AperFunction,NonConductor*%
G36*
X93599345Y-138827013D02*
G01*
X93642610Y-138870278D01*
X93653400Y-138915223D01*
X93653400Y-144461863D01*
X93634493Y-144520054D01*
X93624400Y-144531871D01*
X92212834Y-145943278D01*
X92158316Y-145971052D01*
X92097884Y-145961477D01*
X92054622Y-145918210D01*
X92045736Y-145892584D01*
X92010130Y-145713581D01*
X92002446Y-145695031D01*
X91930941Y-145522402D01*
X91815977Y-145350345D01*
X91669655Y-145204023D01*
X91497598Y-145089059D01*
X91497599Y-145089059D01*
X91497597Y-145089058D01*
X91306418Y-145009869D01*
X91103467Y-144969500D01*
X91103465Y-144969500D01*
X90896535Y-144969500D01*
X90896532Y-144969500D01*
X90693581Y-145009869D01*
X90502402Y-145089058D01*
X90330348Y-145204020D01*
X90184020Y-145350348D01*
X90069058Y-145522402D01*
X90033764Y-145607611D01*
X89994027Y-145654136D01*
X89934532Y-145668420D01*
X89878004Y-145645005D01*
X89846035Y-145592836D01*
X89843300Y-145569725D01*
X89843300Y-143930274D01*
X89862207Y-143872083D01*
X89911707Y-143836119D01*
X89972893Y-143836119D01*
X90022393Y-143872083D01*
X90033764Y-143892389D01*
X90069057Y-143977595D01*
X90069058Y-143977597D01*
X90069059Y-143977598D01*
X90184023Y-144149655D01*
X90330345Y-144295977D01*
X90502402Y-144410941D01*
X90693580Y-144490130D01*
X90896535Y-144530500D01*
X90896536Y-144530500D01*
X91103464Y-144530500D01*
X91103465Y-144530500D01*
X91306420Y-144490130D01*
X91497598Y-144410941D01*
X91669655Y-144295977D01*
X91815977Y-144149655D01*
X91930941Y-143977598D01*
X92010130Y-143786420D01*
X92050500Y-143583465D01*
X92050500Y-143376535D01*
X92010130Y-143173580D01*
X91930941Y-142982402D01*
X91815977Y-142810345D01*
X91669655Y-142664023D01*
X91497598Y-142549059D01*
X91497599Y-142549059D01*
X91497597Y-142549058D01*
X91306418Y-142469869D01*
X91103467Y-142429500D01*
X91103465Y-142429500D01*
X90896535Y-142429500D01*
X90896532Y-142429500D01*
X90693581Y-142469869D01*
X90502402Y-142549058D01*
X90330348Y-142664020D01*
X90184020Y-142810348D01*
X90069058Y-142982402D01*
X90033764Y-143067611D01*
X89994027Y-143114136D01*
X89934532Y-143128420D01*
X89878004Y-143105005D01*
X89846035Y-143052836D01*
X89843300Y-143029725D01*
X89843300Y-141390274D01*
X89862207Y-141332083D01*
X89911707Y-141296119D01*
X89972893Y-141296119D01*
X90022393Y-141332083D01*
X90033764Y-141352389D01*
X90069057Y-141437595D01*
X90069058Y-141437597D01*
X90069059Y-141437598D01*
X90184023Y-141609655D01*
X90330345Y-141755977D01*
X90502402Y-141870941D01*
X90693580Y-141950130D01*
X90896535Y-141990500D01*
X90896536Y-141990500D01*
X91103464Y-141990500D01*
X91103465Y-141990500D01*
X91306420Y-141950130D01*
X91497598Y-141870941D01*
X91669655Y-141755977D01*
X91815977Y-141609655D01*
X91930941Y-141437598D01*
X92010130Y-141246420D01*
X92050500Y-141043465D01*
X92050500Y-140836535D01*
X92010130Y-140633580D01*
X91943448Y-140472596D01*
X91938647Y-140411599D01*
X91964906Y-140364708D01*
X93484396Y-138845219D01*
X93538913Y-138817442D01*
X93599345Y-138827013D01*
G37*
%TD.AperFunction*%
%TA.AperFunction,NonConductor*%
G36*
X104289445Y-153536912D02*
G01*
X104332710Y-153580177D01*
X104343500Y-153625122D01*
X104343500Y-157013800D01*
X104375882Y-157091977D01*
X104383735Y-157110934D01*
X104383736Y-157110938D01*
X104385440Y-157115053D01*
X104385442Y-157115055D01*
X104385443Y-157115058D01*
X110944863Y-163674479D01*
X113035091Y-165764707D01*
X113062868Y-165819224D01*
X113056551Y-165872596D01*
X112989870Y-166033578D01*
X112989870Y-166033580D01*
X112949500Y-166236532D01*
X112949500Y-166443467D01*
X112989869Y-166646418D01*
X113069058Y-166837597D01*
X113069059Y-166837598D01*
X113184023Y-167009655D01*
X113330345Y-167155977D01*
X113502402Y-167270941D01*
X113693580Y-167350130D01*
X113896535Y-167390500D01*
X113896536Y-167390500D01*
X114103464Y-167390500D01*
X114103465Y-167390500D01*
X114306420Y-167350130D01*
X114497598Y-167270941D01*
X114655500Y-167165434D01*
X114714387Y-167148827D01*
X114771790Y-167170005D01*
X114805783Y-167220878D01*
X114809500Y-167247751D01*
X114809500Y-167972248D01*
X114790593Y-168030439D01*
X114741093Y-168066403D01*
X114679907Y-168066403D01*
X114655499Y-168054564D01*
X114497597Y-167949058D01*
X114306418Y-167869869D01*
X114103467Y-167829500D01*
X114103465Y-167829500D01*
X113896535Y-167829500D01*
X113896532Y-167829500D01*
X113693581Y-167869869D01*
X113502402Y-167949058D01*
X113330348Y-168064020D01*
X113184020Y-168210348D01*
X113069058Y-168382402D01*
X112989869Y-168573581D01*
X112949500Y-168776532D01*
X112949500Y-168983467D01*
X112989869Y-169186418D01*
X113069058Y-169377597D01*
X113101066Y-169425500D01*
X113184023Y-169549655D01*
X113330345Y-169695977D01*
X113502402Y-169810941D01*
X113693580Y-169890130D01*
X113896535Y-169930500D01*
X113896536Y-169930500D01*
X114103464Y-169930500D01*
X114103465Y-169930500D01*
X114306420Y-169890130D01*
X114497598Y-169810941D01*
X114655500Y-169705434D01*
X114714387Y-169688827D01*
X114771790Y-169710005D01*
X114805783Y-169760878D01*
X114809500Y-169787751D01*
X114809500Y-170179876D01*
X114790593Y-170238067D01*
X114780503Y-170249880D01*
X114575291Y-170455091D01*
X114520775Y-170482868D01*
X114467403Y-170476551D01*
X114306420Y-170409870D01*
X114103467Y-170369500D01*
X114103465Y-170369500D01*
X113896535Y-170369500D01*
X113896532Y-170369500D01*
X113693581Y-170409869D01*
X113502402Y-170489058D01*
X113330348Y-170604020D01*
X113184020Y-170750348D01*
X113069058Y-170922402D01*
X112989869Y-171113581D01*
X112949500Y-171316532D01*
X112949500Y-171523467D01*
X112989869Y-171726418D01*
X113069058Y-171917597D01*
X113069059Y-171917598D01*
X113184023Y-172089655D01*
X113330345Y-172235977D01*
X113502402Y-172350941D01*
X113693580Y-172430130D01*
X113896535Y-172470500D01*
X113896536Y-172470500D01*
X114103464Y-172470500D01*
X114103465Y-172470500D01*
X114306420Y-172430130D01*
X114497598Y-172350941D01*
X114669655Y-172235977D01*
X114815977Y-172089655D01*
X114930941Y-171917598D01*
X114994036Y-171765271D01*
X115033773Y-171718748D01*
X115093267Y-171704464D01*
X115149795Y-171727879D01*
X115181765Y-171780048D01*
X115184500Y-171803159D01*
X115184500Y-172344875D01*
X115165593Y-172403066D01*
X115155504Y-172414879D01*
X114575291Y-172995091D01*
X114520774Y-173022868D01*
X114467401Y-173016551D01*
X114306418Y-172949869D01*
X114103467Y-172909500D01*
X114103465Y-172909500D01*
X113896535Y-172909500D01*
X113896532Y-172909500D01*
X113693581Y-172949869D01*
X113502402Y-173029058D01*
X113330348Y-173144020D01*
X113184020Y-173290348D01*
X113069058Y-173462402D01*
X112989869Y-173653581D01*
X112949500Y-173856532D01*
X112949500Y-174063467D01*
X112989869Y-174266418D01*
X113069058Y-174457597D01*
X113069059Y-174457598D01*
X113184023Y-174629655D01*
X113330345Y-174775977D01*
X113502402Y-174890941D01*
X113693580Y-174970130D01*
X113896535Y-175010500D01*
X113896536Y-175010500D01*
X114103464Y-175010500D01*
X114103465Y-175010500D01*
X114306420Y-174970130D01*
X114497598Y-174890941D01*
X114669655Y-174775977D01*
X114815977Y-174629655D01*
X114930941Y-174457598D01*
X115010130Y-174266420D01*
X115050500Y-174063465D01*
X115050500Y-173856535D01*
X115010130Y-173653580D01*
X114943448Y-173492596D01*
X114938647Y-173431599D01*
X114964906Y-173384708D01*
X115630497Y-172719118D01*
X115685013Y-172691342D01*
X115745445Y-172700913D01*
X115788710Y-172744178D01*
X115799500Y-172789123D01*
X115799500Y-181700500D01*
X115780593Y-181758691D01*
X115731093Y-181794655D01*
X115700500Y-181799500D01*
X89299500Y-181799500D01*
X89241309Y-181780593D01*
X89205345Y-181731093D01*
X89200500Y-181700500D01*
X89200500Y-177361579D01*
X98749500Y-177361579D01*
X98749500Y-177558420D01*
X98780289Y-177752821D01*
X98780291Y-177752826D01*
X98841116Y-177940025D01*
X98930476Y-178115405D01*
X99046172Y-178274646D01*
X99185354Y-178413828D01*
X99344595Y-178529524D01*
X99519975Y-178618884D01*
X99707174Y-178679709D01*
X99707175Y-178679709D01*
X99707178Y-178679710D01*
X99901580Y-178710500D01*
X99901583Y-178710500D01*
X100098420Y-178710500D01*
X100292821Y-178679710D01*
X100292822Y-178679709D01*
X100292826Y-178679709D01*
X100480025Y-178618884D01*
X100655405Y-178529524D01*
X100814646Y-178413828D01*
X100953828Y-178274646D01*
X101069524Y-178115405D01*
X101158884Y-177940025D01*
X101219709Y-177752826D01*
X101250500Y-177558417D01*
X101250500Y-177361583D01*
X101250500Y-177361579D01*
X101219710Y-177167178D01*
X101219709Y-177167174D01*
X101158884Y-176979975D01*
X101069524Y-176804595D01*
X100953828Y-176645354D01*
X100814646Y-176506172D01*
X100655405Y-176390476D01*
X100655404Y-176390475D01*
X100655402Y-176390474D01*
X100480025Y-176301116D01*
X100292821Y-176240289D01*
X100098420Y-176209500D01*
X100098417Y-176209500D01*
X99901583Y-176209500D01*
X99901580Y-176209500D01*
X99707178Y-176240289D01*
X99519974Y-176301116D01*
X99344597Y-176390474D01*
X99185355Y-176506171D01*
X99046171Y-176645355D01*
X98930474Y-176804597D01*
X98841116Y-176979974D01*
X98780289Y-177167178D01*
X98749500Y-177361579D01*
X89200500Y-177361579D01*
X89200500Y-173856532D01*
X89949500Y-173856532D01*
X89949500Y-174063467D01*
X89989869Y-174266418D01*
X90069058Y-174457597D01*
X90069059Y-174457598D01*
X90184023Y-174629655D01*
X90330345Y-174775977D01*
X90502402Y-174890941D01*
X90693580Y-174970130D01*
X90896535Y-175010500D01*
X90896536Y-175010500D01*
X91103464Y-175010500D01*
X91103465Y-175010500D01*
X91306420Y-174970130D01*
X91497598Y-174890941D01*
X91669655Y-174775977D01*
X91815977Y-174629655D01*
X91930941Y-174457598D01*
X92010130Y-174266420D01*
X92050500Y-174063465D01*
X92050500Y-173856535D01*
X92010130Y-173653580D01*
X91943446Y-173492593D01*
X91938646Y-173431599D01*
X91964905Y-173384708D01*
X96045120Y-169304496D01*
X96099637Y-169276719D01*
X96115124Y-169275500D01*
X98132744Y-169275500D01*
X98190935Y-169294407D01*
X98202747Y-169304496D01*
X98238737Y-169340485D01*
X98335759Y-169396501D01*
X98335757Y-169396501D01*
X98335761Y-169396502D01*
X98335763Y-169396503D01*
X98443982Y-169425500D01*
X98443984Y-169425500D01*
X98556016Y-169425500D01*
X98556018Y-169425500D01*
X98664237Y-169396503D01*
X98664239Y-169396501D01*
X98664241Y-169396501D01*
X98696987Y-169377595D01*
X98761263Y-169340485D01*
X98840485Y-169261263D01*
X98896503Y-169164237D01*
X98925500Y-169056018D01*
X98925500Y-168943982D01*
X98896503Y-168835763D01*
X98896501Y-168835760D01*
X98896501Y-168835758D01*
X98840486Y-168738739D01*
X98840485Y-168738737D01*
X98761263Y-168659515D01*
X98761260Y-168659513D01*
X98664240Y-168603498D01*
X98664242Y-168603498D01*
X98622251Y-168592247D01*
X98556018Y-168574500D01*
X98443982Y-168574500D01*
X98377748Y-168592247D01*
X98335758Y-168603498D01*
X98238737Y-168659514D01*
X98202747Y-168695504D01*
X98148230Y-168723281D01*
X98132744Y-168724500D01*
X95905199Y-168724500D01*
X95833599Y-168754157D01*
X95833599Y-168754158D01*
X95803941Y-168766443D01*
X91575292Y-172995091D01*
X91520775Y-173022868D01*
X91467403Y-173016551D01*
X91306420Y-172949870D01*
X91103467Y-172909500D01*
X91103465Y-172909500D01*
X90896535Y-172909500D01*
X90896532Y-172909500D01*
X90693581Y-172949869D01*
X90502402Y-173029058D01*
X90330348Y-173144020D01*
X90184020Y-173290348D01*
X90069058Y-173462402D01*
X89989869Y-173653581D01*
X89949500Y-173856532D01*
X89200500Y-173856532D01*
X89200500Y-170249323D01*
X89207662Y-170227278D01*
X89211287Y-170204384D01*
X89216937Y-170198732D01*
X89219407Y-170191132D01*
X89238160Y-170177506D01*
X89254549Y-170161116D01*
X89262441Y-170159865D01*
X89268907Y-170155168D01*
X89292089Y-170155168D01*
X89314981Y-170151541D01*
X89322100Y-170155168D01*
X89330093Y-170155168D01*
X89369499Y-170179315D01*
X89377178Y-170186993D01*
X89377181Y-170186998D01*
X89377182Y-170186998D01*
X89419218Y-170229033D01*
X89419248Y-170229057D01*
X90035055Y-170844778D01*
X90062836Y-170899292D01*
X90056520Y-170952671D01*
X89989870Y-171113578D01*
X89989870Y-171113580D01*
X89949500Y-171316532D01*
X89949500Y-171523467D01*
X89989869Y-171726418D01*
X90069058Y-171917597D01*
X90069059Y-171917598D01*
X90184023Y-172089655D01*
X90330345Y-172235977D01*
X90502402Y-172350941D01*
X90693580Y-172430130D01*
X90896535Y-172470500D01*
X90896536Y-172470500D01*
X91103464Y-172470500D01*
X91103465Y-172470500D01*
X91306420Y-172430130D01*
X91497598Y-172350941D01*
X91669655Y-172235977D01*
X91815977Y-172089655D01*
X91930941Y-171917598D01*
X92010130Y-171726420D01*
X92050500Y-171523465D01*
X92050500Y-171316535D01*
X92010130Y-171113580D01*
X91930941Y-170922402D01*
X91815977Y-170750345D01*
X91669655Y-170604023D01*
X91497598Y-170489059D01*
X91497599Y-170489059D01*
X91497597Y-170489058D01*
X91306418Y-170409869D01*
X91103467Y-170369500D01*
X91103465Y-170369500D01*
X90896535Y-170369500D01*
X90896532Y-170369500D01*
X90693581Y-170409869D01*
X90532521Y-170476583D01*
X90471524Y-170481384D01*
X90424636Y-170455127D01*
X89872301Y-169902869D01*
X89844520Y-169848355D01*
X89843300Y-169832861D01*
X89843300Y-169330274D01*
X89862207Y-169272083D01*
X89911707Y-169236119D01*
X89972893Y-169236119D01*
X90022393Y-169272083D01*
X90033764Y-169292389D01*
X90069057Y-169377595D01*
X90069058Y-169377597D01*
X90069059Y-169377598D01*
X90184023Y-169549655D01*
X90330345Y-169695977D01*
X90502402Y-169810941D01*
X90693580Y-169890130D01*
X90896535Y-169930500D01*
X90896536Y-169930500D01*
X91103464Y-169930500D01*
X91103465Y-169930500D01*
X91306420Y-169890130D01*
X91497598Y-169810941D01*
X91669655Y-169695977D01*
X91815977Y-169549655D01*
X91930941Y-169377598D01*
X92010130Y-169186420D01*
X92050500Y-168983465D01*
X92050500Y-168776535D01*
X92010130Y-168573580D01*
X91930941Y-168382402D01*
X91815977Y-168210345D01*
X91669655Y-168064023D01*
X91619393Y-168030439D01*
X91497597Y-167949058D01*
X91306418Y-167869869D01*
X91103467Y-167829500D01*
X91103465Y-167829500D01*
X90896535Y-167829500D01*
X90896532Y-167829500D01*
X90693580Y-167869870D01*
X90693578Y-167869870D01*
X90532596Y-167936551D01*
X90471600Y-167941352D01*
X90424707Y-167915091D01*
X90227796Y-167718180D01*
X90200019Y-167663663D01*
X90198800Y-167648176D01*
X90198800Y-167253297D01*
X90217707Y-167195106D01*
X90267207Y-167159142D01*
X90328393Y-167159142D01*
X90352798Y-167170979D01*
X90502402Y-167270941D01*
X90693580Y-167350130D01*
X90896535Y-167390500D01*
X90896536Y-167390500D01*
X91103464Y-167390500D01*
X91103465Y-167390500D01*
X91306420Y-167350130D01*
X91497598Y-167270941D01*
X91669655Y-167155977D01*
X91815977Y-167009655D01*
X91930941Y-166837598D01*
X92010130Y-166646420D01*
X92050500Y-166443465D01*
X92050500Y-166236535D01*
X92010130Y-166033580D01*
X91943446Y-165872593D01*
X91938646Y-165811599D01*
X91964905Y-165764708D01*
X104174498Y-153555116D01*
X104229013Y-153527341D01*
X104289445Y-153536912D01*
G37*
%TD.AperFunction*%
M02*
