%TF.GenerationSoftware,KiCad,Pcbnew,9.0.8*%
%TF.CreationDate,2026-09-28T22:04:00-04:00*%
%TF.ProjectId,pmgr_breakout_j21,706d6772-5f62-4726-9561-6b6f75745f6a,rev?*%
%TF.SameCoordinates,Original*%
%TF.FileFunction,Copper,L2,Bot*%
%TF.FilePolarity,Positive*%
%FSLAX46Y46*%
G04 Gerber Fmt 4.6, Leading zero omitted, Abs format (unit mm)*
G04 Created by KiCad (PCBNEW 9.0.8) date 2026-09-28 22:04:00*
%MOMM*%
%LPD*%
G01*
G04 APERTURE LIST*
%TA.AperFunction,ComponentPad*%
%ADD10R,1.700000X1.700000*%
%TD*%
%TA.AperFunction,ComponentPad*%
%ADD11C,1.700000*%
%TD*%
%TA.AperFunction,ComponentPad*%
%ADD12O,1.700000X1.700000*%
%TD*%
%TA.AperFunction,SMDPad,CuDef*%
%ADD13R,0.300000X1.600000*%
%TD*%
%TA.AperFunction,ViaPad*%
%ADD14C,0.450000*%
%TD*%
%TA.AperFunction,Conductor*%
%ADD15C,0.150000*%
%TD*%
G04 APERTURE END LIST*
D10*
%TO.P,J5,1*%
%TO.N,+5V*%
X91000000Y-113000000D03*
D11*
%TO.P,J5,2*%
%TO.N,GND*%
X91000000Y-115540000D03*
%TO.P,J5,3*%
%TO.N,SIXTYHZ*%
X91000000Y-118080000D03*
%TO.P,J5,4*%
%TO.N,RESET_N*%
X91000000Y-120620000D03*
%TO.P,J5,5*%
%TO.N,SYS_RST_N*%
X91000000Y-123160000D03*
%TO.P,J5,6*%
%TO.N,SOUND_OFF*%
X91000000Y-125700000D03*
%TO.P,J5,7*%
%TO.N,ONESEC_N*%
X91000000Y-128240000D03*
%TO.P,J5,8*%
%TO.N,PMINT_N*%
X91000000Y-130780000D03*
%TO.P,J5,9*%
%TO.N,PMACK_N*%
X91000000Y-133320000D03*
%TO.P,J5,10*%
%TO.N,VIAD4*%
X91000000Y-135860000D03*
%TO.P,J5,11*%
%TO.N,PMREQ_N*%
X91000000Y-138400000D03*
%TO.P,J5,12*%
%TO.N,VIAD0*%
X91000000Y-140940000D03*
%TO.P,J5,13*%
%TO.N,VIAD5*%
X91000000Y-143480000D03*
%TO.P,J5,14*%
%TO.N,VIAD6*%
X91000000Y-146020000D03*
%TO.P,J5,15*%
%TO.N,PMGR_ADB*%
X91000000Y-148560000D03*
%TO.P,J5,16*%
%TO.N,MODEM_AB*%
X91000000Y-151100000D03*
%TO.P,J5,17*%
%TO.N,RING_DETECT*%
X91000000Y-153640000D03*
%TO.P,J5,18*%
%TO.N,MODEM_INS_N*%
X91000000Y-156180000D03*
%TO.P,J5,19*%
%TO.N,FDB*%
X91000000Y-158720000D03*
%TO.P,J5,20*%
%TO.N,PMGCLK_F*%
X91000000Y-161260000D03*
%TO.P,J5,21*%
%TO.N,N/C*%
X91000000Y-163800000D03*
%TO.P,J5,22*%
%TO.N,KBD_RST_N*%
X91000000Y-166340000D03*
%TO.P,J5,23*%
%TO.N,VIAD1*%
X91000000Y-168880000D03*
%TO.P,J5,24*%
%TO.N,VIAD2*%
X91000000Y-171420000D03*
%TO.P,J5,25*%
%TO.N,VIAD3*%
X91000000Y-173960000D03*
%TD*%
D12*
%TO.P,J6,1*%
%TO.N,+5V*%
X114000000Y-113000000D03*
D11*
%TO.P,J6,2*%
%TO.N,GND*%
X114000000Y-115540000D03*
%TO.P,J6,3*%
%TO.N,VIA_TEST*%
X114000000Y-118080000D03*
%TO.P,J6,4*%
%TO.N,CHRG_ON_N*%
X114000000Y-120620000D03*
%TO.P,J6,5*%
%TO.N,STOP_CLK*%
X114000000Y-123160000D03*
%TO.P,J6,6*%
%TO.N,AKD*%
X114000000Y-125700000D03*
%TO.P,J6,7*%
%TO.N,N/C*%
X114000000Y-128240000D03*
%TO.P,J6,8*%
%TO.N,SYS_PWR_N*%
X114000000Y-130780000D03*
%TO.P,J6,9*%
%TO.N,MINUS5_EN*%
X114000000Y-133320000D03*
%TO.P,J6,10*%
%TO.N,SOUND_PWR_N*%
X114000000Y-135860000D03*
%TO.P,J6,11*%
%TO.N,SERIAL_PWR_N*%
X114000000Y-138400000D03*
%TO.P,J6,12*%
%TO.N,MODEM_PWR_N*%
X114000000Y-140940000D03*
%TO.P,J6,13*%
%TO.N,IWM_CNTRL*%
X114000000Y-143480000D03*
%TO.P,J6,14*%
%TO.N,SCC_CNTRL*%
X114000000Y-146020000D03*
%TO.P,J6,15*%
%TO.N,HD_PWR_N*%
X114000000Y-148560000D03*
%TO.P,J6,16*%
%TO.N,DISP_BLANK_N*%
X114000000Y-151100000D03*
%TO.P,J6,17*%
%TO.N,N/C*%
X114000000Y-153640000D03*
%TO.P,J6,18*%
%TO.N,OFF_HOOK*%
X114000000Y-156180000D03*
%TO.P,J6,19*%
%TO.N,SOUND_LATCH*%
X114000000Y-158720000D03*
%TO.P,J6,20*%
%TO.N,AD_FILTER*%
X114000000Y-161260000D03*
%TO.P,J6,21*%
%TO.N,PMGR_PWM*%
X114000000Y-163800000D03*
%TO.P,J6,22*%
%TO.N,HICHG*%
X114000000Y-166340000D03*
%TO.P,J6,23*%
%TO.N,PMGR_RESET_N*%
X114000000Y-168880000D03*
%TO.P,J6,24*%
%TO.N,PMGR_IN0*%
X114000000Y-171420000D03*
%TO.P,J6,25*%
%TO.N,VIAD7*%
X114000000Y-173960000D03*
%TD*%
D13*
%TO.P,J1,1*%
%TO.N,PMINT_N*%
X94000000Y-103800000D03*
%TO.P,J1,2*%
%TO.N,ONESEC_N*%
X94500000Y-103800000D03*
%TO.P,J1,3*%
%TO.N,SOUND_OFF*%
X95000000Y-103800000D03*
%TO.P,J1,4*%
%TO.N,VIA_TEST*%
X95500000Y-103800000D03*
%TO.P,J1,5*%
%TO.N,SYS_RST_N*%
X96000000Y-103800000D03*
%TO.P,J1,6*%
%TO.N,RESET_N*%
X96500000Y-103800000D03*
%TO.P,J1,7*%
%TO.N,SIXTYHZ*%
X97000000Y-103800000D03*
%TO.P,J1,8*%
%TO.N,PMGR_RESET_N*%
X97500000Y-103800000D03*
%TO.P,J1,9*%
%TO.N,PMGCLK_F*%
X98000000Y-103800000D03*
%TO.P,J1,10*%
%TO.N,MODEM_INS_N*%
X98500000Y-103800000D03*
%TO.P,J1,11*%
%TO.N,DISP_BLANK_N*%
X99000000Y-103800000D03*
%TO.P,J1,12*%
%TO.N,FDB*%
X99500000Y-103800000D03*
%TO.P,J1,13*%
%TO.N,PMGR_ADB*%
X100000000Y-103800000D03*
%TO.P,J1,14*%
%TO.N,MODEM_AB*%
X100500000Y-103800000D03*
%TO.P,J1,15*%
%TO.N,RING_DETECT*%
X101000000Y-103800000D03*
%TO.P,J1,16*%
%TO.N,MINUS5_EN*%
X101500000Y-103800000D03*
%TO.P,J1,17*%
%TO.N,SYS_PWR_N*%
X102000000Y-103800000D03*
%TO.P,J1,18*%
%TO.N,AKD*%
X102500000Y-103800000D03*
%TO.P,J1,19*%
%TO.N,STOP_CLK*%
X103000000Y-103800000D03*
%TO.P,J1,20*%
%TO.N,CHRG_ON_N*%
X103500000Y-103800000D03*
%TO.P,J1,21*%
%TO.N,KBD_RST_N*%
X104000000Y-103800000D03*
%TO.P,J1,22*%
%TO.N,HICHG*%
X104500000Y-103800000D03*
%TO.P,J1,23*%
%TO.N,GND*%
X105000000Y-103800000D03*
%TO.P,J1,24*%
X105500000Y-103800000D03*
%TO.P,J1,25*%
X106000000Y-103800000D03*
%TO.P,J1,26*%
%TO.N,VIAD4*%
X94000000Y-100200000D03*
%TO.P,J1,27*%
%TO.N,VIAD3*%
X94500000Y-100200000D03*
%TO.P,J1,28*%
%TO.N,VIAD2*%
X95000000Y-100200000D03*
%TO.P,J1,29*%
%TO.N,VIAD1*%
X95500000Y-100200000D03*
%TO.P,J1,30*%
%TO.N,VIAD0*%
X96000000Y-100200000D03*
%TO.P,J1,31*%
%TO.N,PMREQ_N*%
X96500000Y-100200000D03*
%TO.P,J1,32*%
%TO.N,PMACK_N*%
X97000000Y-100200000D03*
%TO.P,J1,33*%
%TO.N,VIAD5*%
X97500000Y-100200000D03*
%TO.P,J1,34*%
%TO.N,VIAD6*%
X98000000Y-100200000D03*
%TO.P,J1,35*%
%TO.N,VIAD7*%
X98500000Y-100200000D03*
%TO.P,J1,36*%
%TO.N,PMGR_PWM*%
X99000000Y-100200000D03*
%TO.P,J1,37*%
%TO.N,PMGR_IN0*%
X99500000Y-100200000D03*
%TO.P,J1,38*%
%TO.N,AD_FILTER*%
X100000000Y-100200000D03*
%TO.P,J1,39*%
%TO.N,SOUND_LATCH*%
X100500000Y-100200000D03*
%TO.P,J1,40*%
%TO.N,OFF_HOOK*%
X101000000Y-100200000D03*
%TO.P,J1,41*%
%TO.N,IWM_CNTRL*%
X101500000Y-100200000D03*
%TO.P,J1,42*%
%TO.N,SCC_CNTRL*%
X102000000Y-100200000D03*
%TO.P,J1,43*%
%TO.N,HD_PWR_N*%
X102500000Y-100200000D03*
%TO.P,J1,44*%
%TO.N,MODEM_PWR_N*%
X103000000Y-100200000D03*
%TO.P,J1,45*%
%TO.N,SERIAL_PWR_N*%
X103500000Y-100200000D03*
%TO.P,J1,46*%
%TO.N,SOUND_PWR_N*%
X104000000Y-100200000D03*
%TO.P,J1,47*%
%TO.N,+5V*%
X104500000Y-100200000D03*
%TO.P,J1,48*%
X105000000Y-100200000D03*
%TO.P,J1,49*%
%TO.N,GND*%
X105500000Y-100200000D03*
%TO.P,J1,50*%
%TO.N,N/C*%
X106000000Y-100200000D03*
%TD*%
D14*
%TO.N,+5V*%
X104780000Y-99014100D03*
X89624900Y-101360000D03*
X114261000Y-107616000D03*
X115102000Y-101081000D03*
X90106356Y-104761767D03*
%TO.N,AD_FILTER*%
X100108000Y-99006100D03*
X112162000Y-103261000D03*
%TO.N,AKD*%
X102470000Y-106736000D03*
%TO.N,CHRG_ON_N*%
X103429000Y-105142000D03*
%TO.N,DISP_BLANK_N*%
X99000000Y-104985000D03*
%TO.N,FDB*%
X99500000Y-102622000D03*
X99218500Y-115076000D03*
%TO.N,GND*%
X97450000Y-119285000D03*
X103794000Y-109843000D03*
X105593000Y-99015200D03*
X105000000Y-104985000D03*
X91971200Y-121507000D03*
%TO.N,HD_PWR_N*%
X113351000Y-106538000D03*
X102457000Y-99007200D03*
%TO.N,HICHG*%
X104619000Y-105521000D03*
%TO.N,IWM_CNTRL*%
X115005000Y-110884000D03*
X101652000Y-101378000D03*
%TO.N,KBD_RST_N*%
X104047000Y-105121000D03*
%TO.N,MINUS5_EN*%
X101500000Y-105838000D03*
%TO.N,MODEM_AB*%
X100500000Y-102590000D03*
%TO.N,MODEM_INS_N*%
X97955700Y-115611000D03*
X98500000Y-102623000D03*
%TO.N,MODEM_PWR_N*%
X108062000Y-124183000D03*
X103099000Y-98996400D03*
%TO.N,OFF_HOOK*%
X108985000Y-101245000D03*
X108985000Y-151165000D03*
X101102000Y-98996400D03*
%TO.N,ONESEC_N*%
X94500000Y-104978000D03*
X94450000Y-125624000D03*
%TO.N,PMACK_N*%
X91984000Y-100708000D03*
X97029900Y-99011800D03*
X97029900Y-98014000D03*
X91984000Y-102744000D03*
X92428300Y-104426000D03*
%TO.N,PMGCLK_F*%
X97885400Y-102448000D03*
X95452100Y-143452000D03*
%TO.N,PMGR_ADB*%
X100000000Y-104983000D03*
%TO.N,PMGR_IN0*%
X110635000Y-101288000D03*
X99519900Y-101380000D03*
%TO.N,PMGR_PWM*%
X99000000Y-99010100D03*
X111694000Y-101680000D03*
%TO.N,PMGR_RESET_N*%
X97500000Y-104995000D03*
%TO.N,PMINT_N*%
X92722500Y-129058000D03*
X93861600Y-104990000D03*
%TO.N,PMREQ_N*%
X90589300Y-103756000D03*
X96678400Y-101383000D03*
X95522900Y-112084000D03*
X94831300Y-134569000D03*
%TO.N,RESET_N*%
X96553700Y-105283000D03*
X96553700Y-114050000D03*
%TO.N,RING_DETECT*%
X101000000Y-105041000D03*
%TO.N,SCC_CNTRL*%
X108530000Y-136239000D03*
X102355000Y-98402500D03*
%TO.N,SERIAL_PWR_N*%
X113343000Y-108572000D03*
X103500000Y-101427000D03*
%TO.N,SIXTYHZ*%
X97150700Y-102623000D03*
%TO.N,SOUND_LATCH*%
X100500000Y-101377000D03*
%TO.N,SOUND_OFF*%
X94750000Y-122901000D03*
X94734100Y-102618000D03*
%TO.N,SOUND_PWR_N*%
X104000000Y-99016400D03*
X113809000Y-108164000D03*
%TO.N,STOP_CLK*%
X102941000Y-106199000D03*
%TO.N,SYS_PWR_N*%
X102018000Y-105290000D03*
%TO.N,SYS_RST_N*%
X90272000Y-117016000D03*
X96000000Y-104979000D03*
%TO.N,VIAD0*%
X91591500Y-103202000D03*
X91446100Y-101648000D03*
X93550000Y-110391494D03*
%TO.N,VIAD1*%
X95551100Y-110438000D03*
X95906900Y-101379000D03*
%TO.N,VIAD2*%
X94997800Y-101386000D03*
%TO.N,VIAD3*%
X91000000Y-104500000D03*
X93589100Y-101310000D03*
X98500000Y-169000000D03*
X94000000Y-108000000D03*
X94500000Y-130000000D03*
%TO.N,VIAD4*%
X92741400Y-127633000D03*
X93467400Y-100503000D03*
X92898900Y-104832000D03*
%TO.N,VIAD5*%
X97541100Y-98639200D03*
%TO.N,VIAD6*%
X98022300Y-99012500D03*
%TO.N,VIAD7*%
X98600000Y-101382000D03*
X115460000Y-102078000D03*
%TO.N,VIA_TEST*%
X96951600Y-101981000D03*
%TD*%
D15*
%TO.N,+5V*%
X105000000Y-101227000D02*
X107394000Y-101227000D01*
X94749300Y-96009800D02*
X89624900Y-101134000D01*
X104500000Y-100200000D02*
X104500000Y-101227000D01*
X104500000Y-99173300D02*
X104621000Y-99173300D01*
X113783000Y-107616000D02*
X114261000Y-107616000D01*
X91000000Y-111923000D02*
X90269800Y-111193000D01*
X104621000Y-99173300D02*
X104780000Y-99014100D01*
X89624900Y-101134000D02*
X89624900Y-101360000D01*
X90269800Y-111193000D02*
X90269800Y-104925211D01*
X104500000Y-101227000D02*
X105000000Y-101227000D01*
X90269800Y-104925211D02*
X90106356Y-104761767D01*
X105000000Y-101227000D02*
X105000000Y-100200000D01*
X91000000Y-113000000D02*
X91000000Y-111923000D01*
X115102000Y-101081000D02*
X110031000Y-96009800D01*
X107394000Y-101227000D02*
X113783000Y-107616000D01*
X104500000Y-100200000D02*
X104500000Y-99173300D01*
X110031000Y-96009800D02*
X94749300Y-96009800D01*
%TO.N,AD_FILTER*%
X106117000Y-97216600D02*
X110183000Y-101283000D01*
X100108000Y-99006100D02*
X100000000Y-99113600D01*
X110183000Y-101283000D02*
X110183000Y-101556000D01*
X100108000Y-98793400D02*
X101684000Y-97216600D01*
X100000000Y-100200000D02*
X100000000Y-99173300D01*
X101684000Y-97216600D02*
X106117000Y-97216600D01*
X110183000Y-101556000D02*
X111889000Y-103261000D01*
X111889000Y-103261000D02*
X112162000Y-103261000D01*
X100108000Y-99006100D02*
X100108000Y-98793400D01*
X100000000Y-99113600D02*
X100000000Y-99173300D01*
X100000000Y-99113600D02*
X100000000Y-100200000D01*
%TO.N,AKD*%
X114000000Y-125700000D02*
X102489000Y-114189000D01*
X102500000Y-104827000D02*
X102500000Y-103800000D01*
X102489000Y-106736000D02*
X102489000Y-104838000D01*
X102489000Y-104838000D02*
X102500000Y-104827000D01*
X102489000Y-114189000D02*
X102489000Y-106736000D01*
X102489000Y-106736000D02*
X102470000Y-106736000D01*
%TO.N,CHRG_ON_N*%
X103342000Y-110030000D02*
X113932000Y-120620000D01*
X103342000Y-109656000D02*
X103342000Y-110030000D01*
X113932000Y-120620000D02*
X114000000Y-120620000D01*
X103429000Y-109569000D02*
X103342000Y-109656000D01*
X103429000Y-105142000D02*
X103429000Y-109569000D01*
X103500000Y-103800000D02*
X103500000Y-105071000D01*
X103500000Y-105071000D02*
X103429000Y-105142000D01*
%TO.N,DISP_BLANK_N*%
X98766800Y-105218000D02*
X98766800Y-127492000D01*
X112535000Y-141260000D02*
X112535000Y-149635000D01*
X112535000Y-149635000D02*
X114000000Y-151100000D01*
X98766800Y-127492000D02*
X112535000Y-141260000D01*
X99000000Y-104985000D02*
X99000000Y-103800000D01*
X99000000Y-104985000D02*
X98766800Y-105218000D01*
%TO.N,FDB*%
X99500000Y-103800000D02*
X99500000Y-102622000D01*
X99500000Y-114794000D02*
X99500000Y-103800000D01*
X99218500Y-115076000D02*
X99500000Y-114794000D01*
%TO.N,GND*%
X106000000Y-109843000D02*
X103794000Y-109843000D01*
X111697000Y-115540000D02*
X114000000Y-115540000D01*
X106000000Y-109843000D02*
X111697000Y-115540000D01*
X106000000Y-104827000D02*
X105500000Y-104827000D01*
X91971200Y-121507000D02*
X94193300Y-119285000D01*
X105000000Y-103800000D02*
X105000000Y-104827000D01*
X105500000Y-103800000D02*
X105500000Y-104827000D01*
X106000000Y-103800000D02*
X106000000Y-104827000D01*
X105593000Y-99015200D02*
X105500000Y-99108600D01*
X94193300Y-119285000D02*
X97450000Y-119285000D01*
X106000000Y-104827000D02*
X106000000Y-109843000D01*
X105500000Y-99108600D02*
X105500000Y-100200000D01*
X105500000Y-104827000D02*
X105000000Y-104827000D01*
X105000000Y-104827000D02*
X105000000Y-104985000D01*
%TO.N,HD_PWR_N*%
X102500000Y-99007200D02*
X102500000Y-100200000D01*
X102882000Y-98536200D02*
X105756000Y-98536200D01*
X108532000Y-101719000D02*
X113351000Y-106538000D01*
X108532000Y-101312000D02*
X108532000Y-101719000D01*
X105756000Y-98536200D02*
X108532000Y-101312000D01*
X102500000Y-98917800D02*
X102882000Y-98536200D01*
X102500000Y-99007200D02*
X102500000Y-98917800D01*
X102457000Y-99007200D02*
X102500000Y-99007200D01*
%TO.N,HICHG*%
X104500000Y-103800000D02*
X104500000Y-105402000D01*
X104500000Y-105402000D02*
X104619000Y-105521000D01*
%TO.N,IWM_CNTRL*%
X115005000Y-110884000D02*
X106515000Y-102394000D01*
X102668000Y-102394000D02*
X101652000Y-101378000D01*
X106515000Y-102394000D02*
X102668000Y-102394000D01*
X101652000Y-101378000D02*
X101500000Y-101227000D01*
X101500000Y-101227000D02*
X101500000Y-100200000D01*
%TO.N,KBD_RST_N*%
X104047000Y-105121000D02*
X104000000Y-105074000D01*
X104000000Y-105074000D02*
X104000000Y-103800000D01*
%TO.N,MINUS5_EN*%
X114000000Y-133320000D02*
X101500000Y-120820000D01*
X101500000Y-120820000D02*
X101500000Y-105838000D01*
X101500000Y-103800000D02*
X101500000Y-105838000D01*
%TO.N,MODEM_AB*%
X100500000Y-102590000D02*
X100500000Y-103800000D01*
%TO.N,MODEM_INS_N*%
X98500000Y-103800000D02*
X98500000Y-104908000D01*
X97955700Y-105452000D02*
X97955700Y-115611000D01*
X98500000Y-104908000D02*
X97955700Y-105452000D01*
X98500000Y-103800000D02*
X98500000Y-102623000D01*
%TO.N,MODEM_PWR_N*%
X114415000Y-129616000D02*
X113496000Y-129616000D01*
X113496000Y-129616000D02*
X108062000Y-124183000D01*
X115081000Y-130283000D02*
X114415000Y-129616000D01*
X103000000Y-100200000D02*
X103000000Y-99095000D01*
X115081000Y-139859000D02*
X115081000Y-130283000D01*
X114000000Y-140940000D02*
X115081000Y-139859000D01*
X103000000Y-99095000D02*
X103099000Y-98996400D01*
%TO.N,OFF_HOOK*%
X101000000Y-99098000D02*
X101102000Y-98996400D01*
X101000000Y-100200000D02*
X101000000Y-99098000D01*
X105654000Y-97914200D02*
X108985000Y-101245000D01*
X102184000Y-97914200D02*
X105654000Y-97914200D01*
X101102000Y-98996400D02*
X102184000Y-97914200D01*
X114000000Y-156180000D02*
X108985000Y-151165000D01*
%TO.N,ONESEC_N*%
X94500000Y-103800000D02*
X94500000Y-104978000D01*
X93616000Y-125624000D02*
X94450000Y-125624000D01*
X91000000Y-128240000D02*
X93616000Y-125624000D01*
%TO.N,PMACK_N*%
X92428300Y-104426000D02*
X92428300Y-103188000D01*
X91984000Y-100055000D02*
X91984000Y-100708000D01*
X97029900Y-98014000D02*
X94025200Y-98014000D01*
X97000000Y-100200000D02*
X97000000Y-99041700D01*
X97000000Y-99041700D02*
X97029900Y-99011800D01*
X94025200Y-98014000D02*
X91984000Y-100055000D01*
X92428300Y-103188000D02*
X91984000Y-102744000D01*
%TO.N,PMGCLK_F*%
X95452100Y-156808000D02*
X95452100Y-143452000D01*
X91000000Y-161260000D02*
X95452100Y-156808000D01*
X98000000Y-102563000D02*
X98000000Y-103800000D01*
X97885400Y-102448000D02*
X98000000Y-102563000D01*
%TO.N,PMGR_ADB*%
X100000000Y-104983000D02*
X100000000Y-103800000D01*
%TO.N,PMGR_IN0*%
X99500000Y-101360000D02*
X99500000Y-100200000D01*
X101538000Y-96914900D02*
X106262000Y-96914900D01*
X99519900Y-101380000D02*
X99500000Y-101360000D01*
X99500000Y-100200000D02*
X99500000Y-98953200D01*
X99500000Y-98953200D02*
X101538000Y-96914900D01*
X106262000Y-96914900D02*
X110635000Y-101288000D01*
%TO.N,PMGR_PWM*%
X99000000Y-99010100D02*
X101397000Y-96613200D01*
X101397000Y-96613200D02*
X106627000Y-96613200D01*
X99000000Y-100200000D02*
X99000000Y-99010100D01*
X106627000Y-96613200D02*
X111694000Y-101680000D01*
%TO.N,PMGR_RESET_N*%
X97500000Y-118698603D02*
X97500000Y-104995000D01*
X98800000Y-153680000D02*
X98800000Y-133875736D01*
X97900000Y-119098603D02*
X97500000Y-118698603D01*
X97900000Y-132975736D02*
X97900000Y-119098603D01*
X97500000Y-103800000D02*
X97500000Y-104995000D01*
X98800000Y-133875736D02*
X97900000Y-132975736D01*
X114000000Y-168880000D02*
X98800000Y-153680000D01*
%TO.N,PMINT_N*%
X93861600Y-104965000D02*
X93861600Y-104990000D01*
X91000000Y-130780000D02*
X92722500Y-129058000D01*
X94000000Y-103800000D02*
X94000000Y-104827000D01*
X94000000Y-104827000D02*
X93861600Y-104965000D01*
%TO.N,PMREQ_N*%
X90589300Y-103756000D02*
X90550000Y-103795300D01*
X92300000Y-110124264D02*
X92300000Y-109930723D01*
X92300000Y-109930723D02*
X92800000Y-110430694D01*
X94453400Y-112084000D02*
X95522900Y-112084000D01*
X92800000Y-110702155D02*
X93239339Y-111141494D01*
X90550000Y-103795300D02*
X90550000Y-104686397D01*
X96500000Y-100200000D02*
X96500000Y-101227000D01*
X90700000Y-104836397D02*
X90700000Y-109124264D01*
X93239339Y-111141494D02*
X93510840Y-111141494D01*
X92124264Y-110300000D02*
X92300000Y-110124264D01*
X96500000Y-101227000D02*
X96522400Y-101227000D01*
X91875736Y-110300000D02*
X92124264Y-110300000D01*
X91000000Y-138400000D02*
X94831300Y-134569000D01*
X90700000Y-109124264D02*
X91875736Y-110300000D01*
X96522400Y-101227000D02*
X96678400Y-101383000D01*
X92800000Y-110430694D02*
X92800000Y-110702155D01*
X90550000Y-104686397D02*
X90700000Y-104836397D01*
X93510840Y-111141494D02*
X94453400Y-112084000D01*
%TO.N,RESET_N*%
X91000000Y-120620000D02*
X96553700Y-115066000D01*
X96553700Y-104880000D02*
X96500000Y-104827000D01*
X96500000Y-104827000D02*
X96500000Y-103800000D01*
X96553700Y-115066000D02*
X96553700Y-114050000D01*
X96553700Y-105283000D02*
X96553700Y-104880000D01*
%TO.N,RING_DETECT*%
X101000000Y-105041000D02*
X101000000Y-103800000D01*
%TO.N,SCC_CNTRL*%
X112866000Y-140576000D02*
X108530000Y-136239000D01*
X102355000Y-98402500D02*
X102000000Y-98757100D01*
X102000000Y-98757100D02*
X102000000Y-100200000D01*
X114000000Y-146020000D02*
X112866000Y-144886000D01*
X112866000Y-144886000D02*
X112866000Y-140576000D01*
%TO.N,SERIAL_PWR_N*%
X103500000Y-101227000D02*
X103600000Y-101327000D01*
X103600000Y-101327000D02*
X104103000Y-101830000D01*
X104103000Y-101830000D02*
X106601000Y-101830000D01*
X106601000Y-101830000D02*
X113343000Y-108572000D01*
X103500000Y-101427000D02*
X103600000Y-101327000D01*
X103500000Y-100200000D02*
X103500000Y-101227000D01*
%TO.N,SIXTYHZ*%
X97005400Y-104832000D02*
X97005400Y-112075000D01*
X97000000Y-104827000D02*
X97005400Y-104832000D01*
X97000000Y-103800000D02*
X97000000Y-104827000D01*
X97000000Y-103800000D02*
X97000000Y-102773000D01*
X97005400Y-112075000D02*
X91000000Y-118080000D01*
X97000000Y-102773000D02*
X97150700Y-102623000D01*
%TO.N,SOUND_LATCH*%
X115475000Y-157245000D02*
X114000000Y-158720000D01*
X100608000Y-98809300D02*
X101819000Y-97599000D01*
X106033000Y-97599000D02*
X109447000Y-101013000D01*
X100500000Y-100200000D02*
X100500000Y-101377000D01*
X115475000Y-107960000D02*
X115475000Y-157245000D01*
X100608000Y-100092000D02*
X100608000Y-98809300D01*
X101819000Y-97599000D02*
X106033000Y-97599000D01*
X109447000Y-101013000D02*
X109447000Y-101932000D01*
X100500000Y-100200000D02*
X100608000Y-100092000D01*
X109447000Y-101932000D02*
X115475000Y-107960000D01*
%TO.N,SOUND_OFF*%
X91000000Y-125700000D02*
X93799000Y-122901000D01*
X93799000Y-122901000D02*
X94750000Y-122901000D01*
X94889600Y-102773000D02*
X94734100Y-102618000D01*
X95000000Y-103800000D02*
X95000000Y-102773000D01*
X95000000Y-102773000D02*
X94889600Y-102773000D01*
%TO.N,SOUND_PWR_N*%
X104000000Y-100200000D02*
X104000000Y-101227000D01*
X104000000Y-101227000D02*
X104302000Y-101528000D01*
X104302000Y-101528000D02*
X107174000Y-101528000D01*
X104000000Y-100200000D02*
X104000000Y-99016400D01*
X107174000Y-101528000D02*
X113809000Y-108164000D01*
%TO.N,STOP_CLK*%
X103000000Y-104827000D02*
X102941000Y-104886000D01*
X102941000Y-112101000D02*
X114000000Y-123160000D01*
X102941000Y-104886000D02*
X102941000Y-106199000D01*
X102941000Y-106199000D02*
X102941000Y-112101000D01*
X103000000Y-103800000D02*
X103000000Y-104827000D01*
%TO.N,SYS_PWR_N*%
X102018000Y-105290000D02*
X102018000Y-118798000D01*
X102018000Y-118798000D02*
X114000000Y-130780000D01*
X102000000Y-103800000D02*
X102000000Y-105272000D01*
X102000000Y-105272000D02*
X102018000Y-105290000D01*
%TO.N,SYS_RST_N*%
X96002800Y-112243000D02*
X96002800Y-104982000D01*
X96002800Y-104982000D02*
X96000000Y-104979000D01*
X91251400Y-116995000D02*
X96002800Y-112243000D01*
X96000000Y-103800000D02*
X96000000Y-104979000D01*
X90293000Y-116995000D02*
X91251400Y-116995000D01*
X90272000Y-117016000D02*
X90293000Y-116995000D01*
%TO.N,VIAD0*%
X92485200Y-100900000D02*
X91737300Y-101648000D01*
X96000000Y-100200000D02*
X96000000Y-99173300D01*
X93761006Y-110391494D02*
X93550000Y-110391494D01*
X95645200Y-98818500D02*
X93647400Y-98818500D01*
X93647400Y-98818500D02*
X92485200Y-99980700D01*
X91737300Y-101648000D02*
X91446100Y-101648000D01*
X94750000Y-107613605D02*
X94750000Y-109402500D01*
X96000000Y-99173300D02*
X95645200Y-98818500D01*
X91591500Y-103202000D02*
X91628700Y-103240000D01*
X91750000Y-104189339D02*
X91750000Y-104613605D01*
X94750000Y-109402500D02*
X93761006Y-110391494D01*
X91628700Y-103240000D02*
X91628700Y-104068039D01*
X92485200Y-99980700D02*
X92485200Y-100900000D01*
X91628700Y-104068039D02*
X91750000Y-104189339D01*
X91750000Y-104613605D02*
X94750000Y-107613605D01*
%TO.N,VIAD1*%
X94450000Y-107813603D02*
X91450000Y-104813603D01*
X93995007Y-110811000D02*
X93964513Y-110841494D01*
X91450000Y-104813603D02*
X91450000Y-104313603D01*
X95754600Y-101227000D02*
X95906900Y-101379000D01*
X93100000Y-110304122D02*
X92300000Y-109504157D01*
X95500000Y-99250000D02*
X95500000Y-100200000D01*
X91137200Y-102675000D02*
X92786900Y-101025000D01*
X93731000Y-99173300D02*
X95423300Y-99173300D01*
X95500000Y-101227000D02*
X95754600Y-101227000D01*
X92300000Y-109504157D02*
X93132240Y-109504157D01*
X95500000Y-100200000D02*
X95500000Y-101227000D01*
X91319800Y-103643000D02*
X91137200Y-103461000D01*
X91137200Y-103461000D02*
X91137200Y-102675000D01*
X93363603Y-110841494D02*
X93100000Y-110577891D01*
X93100000Y-110577891D02*
X93100000Y-110304122D01*
X92786900Y-101025000D02*
X92786900Y-100117000D01*
X95423300Y-99173300D02*
X95500000Y-99250000D01*
X94450000Y-108186397D02*
X94450000Y-107813603D01*
X91319800Y-104183403D02*
X91319800Y-103643000D01*
X95551100Y-110438000D02*
X95177500Y-110811000D01*
X91450000Y-104313603D02*
X91319800Y-104183403D01*
X95177500Y-110811000D02*
X93995007Y-110811000D01*
X92786900Y-100117000D02*
X93731000Y-99173300D01*
X93964513Y-110841494D02*
X93363603Y-110841494D01*
X93132240Y-109504157D02*
X94450000Y-108186397D01*
%TO.N,VIAD2*%
X95000000Y-101384000D02*
X94997800Y-101386000D01*
X95000000Y-100200000D02*
X95000000Y-101384000D01*
%TO.N,VIAD3*%
X93672700Y-101227000D02*
X93589100Y-101310000D01*
X94500000Y-101227000D02*
X93672700Y-101227000D01*
X91000000Y-104500000D02*
X91000000Y-105500000D01*
X94500000Y-100200000D02*
X94500000Y-101227000D01*
X91000000Y-105500000D02*
X93500000Y-108000000D01*
X98500000Y-134000000D02*
X98500000Y-169000000D01*
X93500000Y-108000000D02*
X94000000Y-108000000D01*
X94500000Y-130000000D02*
X98500000Y-134000000D01*
%TO.N,VIAD4*%
X93088600Y-104643000D02*
X93088600Y-100881000D01*
X92898900Y-104832000D02*
X93088600Y-104643000D01*
X93088600Y-100881000D02*
X93467400Y-100503000D01*
X93175600Y-128067000D02*
X92741400Y-127633000D01*
X93697400Y-100503000D02*
X93467400Y-100503000D01*
X94000000Y-100200000D02*
X93697400Y-100503000D01*
X91000000Y-135860000D02*
X93175600Y-133684000D01*
X93175600Y-133684000D02*
X93175600Y-128067000D01*
%TO.N,VIAD5*%
X97541100Y-97804900D02*
X97275400Y-97539200D01*
X97500000Y-99173300D02*
X97500100Y-99173300D01*
X89813400Y-103893000D02*
X89656356Y-104050044D01*
X90528300Y-101084000D02*
X90528300Y-103178000D01*
X90528300Y-103178000D02*
X89813400Y-103893000D01*
X89656356Y-104050044D02*
X89656356Y-142136356D01*
X97500000Y-100200000D02*
X97500000Y-99173300D01*
X89656356Y-142136356D02*
X91000000Y-143480000D01*
X97500100Y-99173300D02*
X97500100Y-98680200D01*
X97541100Y-98639200D02*
X97541100Y-97804900D01*
X97275400Y-97539200D02*
X94073300Y-97539200D01*
X94073300Y-97539200D02*
X90528300Y-101084000D01*
X97500100Y-98680200D02*
X97541100Y-98639200D01*
%TO.N,VIAD6*%
X98022300Y-99012500D02*
X98022300Y-97859400D01*
X89356356Y-103881444D02*
X89356356Y-144376356D01*
X97400400Y-97237500D02*
X93948300Y-97237500D01*
X90076800Y-103161000D02*
X89356356Y-103881444D01*
X90076800Y-101109000D02*
X90076800Y-103161000D01*
X89356356Y-144376356D02*
X91000000Y-146020000D01*
X98022300Y-97859400D02*
X97400400Y-97237500D01*
X98000000Y-99034800D02*
X98022300Y-99012500D01*
X98000000Y-100200000D02*
X98000000Y-99034800D01*
X93948300Y-97237500D02*
X90076800Y-101109000D01*
%TO.N,VIAD7*%
X109693000Y-96311500D02*
X115460000Y-102078000D01*
X98500000Y-98842800D02*
X101031000Y-96311500D01*
X98500000Y-100200000D02*
X98500000Y-101282000D01*
X98500000Y-100200000D02*
X98500000Y-98842800D01*
X101031000Y-96311500D02*
X109693000Y-96311500D01*
X98500000Y-101282000D02*
X98600000Y-101382000D01*
%TO.N,VIA_TEST*%
X95500000Y-103800000D02*
X95500000Y-102773000D01*
X96292100Y-101981000D02*
X96951600Y-101981000D01*
X113736000Y-114270000D02*
X107191000Y-107724000D01*
X100530000Y-101981000D02*
X96951600Y-101981000D01*
X115124000Y-116956000D02*
X115124000Y-115133000D01*
X95500000Y-102773000D02*
X96292100Y-101981000D01*
X107191000Y-103709000D02*
X106178000Y-102696000D01*
X114261000Y-114270000D02*
X113736000Y-114270000D01*
X106178000Y-102696000D02*
X101246000Y-102696000D01*
X114000000Y-118080000D02*
X115124000Y-116956000D01*
X107191000Y-107724000D02*
X107191000Y-103709000D01*
X115124000Y-115133000D02*
X114261000Y-114270000D01*
X101246000Y-102696000D02*
X100530000Y-101981000D01*
%TD*%
%TA.AperFunction,Conductor*%
%TO.N,GND*%
G36*
X97170448Y-112396303D02*
G01*
X97213711Y-112439569D01*
X97224500Y-112484511D01*
X97224500Y-118753403D01*
X97253371Y-118823103D01*
X97266443Y-118854661D01*
X97595505Y-119183723D01*
X97623281Y-119238238D01*
X97624500Y-119253725D01*
X97624500Y-132495876D01*
X97605593Y-132554067D01*
X97556093Y-132590031D01*
X97494907Y-132590031D01*
X97455496Y-132565880D01*
X94954496Y-130064880D01*
X94926719Y-130010363D01*
X94925500Y-129994876D01*
X94925500Y-129943983D01*
X94925500Y-129943982D01*
X94896503Y-129835763D01*
X94896501Y-129835760D01*
X94896501Y-129835758D01*
X94840486Y-129738739D01*
X94840485Y-129738737D01*
X94761263Y-129659515D01*
X94761260Y-129659513D01*
X94664240Y-129603498D01*
X94664242Y-129603498D01*
X94622251Y-129592247D01*
X94556018Y-129574500D01*
X94443982Y-129574500D01*
X94377748Y-129592247D01*
X94335758Y-129603498D01*
X94238739Y-129659513D01*
X94159513Y-129738739D01*
X94103498Y-129835758D01*
X94099934Y-129849059D01*
X94074500Y-129943982D01*
X94074500Y-130056018D01*
X94076875Y-130064880D01*
X94103498Y-130164241D01*
X94159513Y-130261260D01*
X94159515Y-130261263D01*
X94238737Y-130340485D01*
X94238739Y-130340486D01*
X94335759Y-130396501D01*
X94335757Y-130396501D01*
X94335761Y-130396502D01*
X94335763Y-130396503D01*
X94443982Y-130425500D01*
X94494877Y-130425500D01*
X94553068Y-130444407D01*
X94564881Y-130454496D01*
X98195504Y-134085119D01*
X98223281Y-134139636D01*
X98224500Y-134155123D01*
X98224500Y-168632744D01*
X98205593Y-168690935D01*
X98195504Y-168702747D01*
X98159514Y-168738737D01*
X98103498Y-168835758D01*
X98103497Y-168835763D01*
X98074500Y-168943982D01*
X98074500Y-169056018D01*
X98100072Y-169151455D01*
X98103498Y-169164241D01*
X98159513Y-169261260D01*
X98159515Y-169261263D01*
X98238737Y-169340485D01*
X98238739Y-169340486D01*
X98335759Y-169396501D01*
X98335757Y-169396501D01*
X98335761Y-169396502D01*
X98335763Y-169396503D01*
X98443982Y-169425500D01*
X98443984Y-169425500D01*
X98556016Y-169425500D01*
X98556018Y-169425500D01*
X98664237Y-169396503D01*
X98664239Y-169396501D01*
X98664241Y-169396501D01*
X98696983Y-169377597D01*
X98761263Y-169340485D01*
X98840485Y-169261263D01*
X98896503Y-169164237D01*
X98925500Y-169056018D01*
X98925500Y-168943982D01*
X98896503Y-168835763D01*
X98896501Y-168835760D01*
X98896501Y-168835758D01*
X98840485Y-168738737D01*
X98804496Y-168702747D01*
X98776719Y-168648230D01*
X98775500Y-168632744D01*
X98775500Y-154284123D01*
X98794407Y-154225932D01*
X98843907Y-154189968D01*
X98905093Y-154189968D01*
X98944504Y-154214119D01*
X113035091Y-168304707D01*
X113062868Y-168359224D01*
X113056551Y-168412596D01*
X112989870Y-168573578D01*
X112989870Y-168573580D01*
X112949500Y-168776532D01*
X112949500Y-168983467D01*
X112989869Y-169186418D01*
X113069058Y-169377597D01*
X113101066Y-169425500D01*
X113184023Y-169549655D01*
X113330345Y-169695977D01*
X113502402Y-169810941D01*
X113693580Y-169890130D01*
X113896535Y-169930500D01*
X113896536Y-169930500D01*
X114103464Y-169930500D01*
X114103465Y-169930500D01*
X114306420Y-169890130D01*
X114497598Y-169810941D01*
X114669655Y-169695977D01*
X114815977Y-169549655D01*
X114930941Y-169377598D01*
X115010130Y-169186420D01*
X115050500Y-168983465D01*
X115050500Y-168776535D01*
X115010130Y-168573580D01*
X114930941Y-168382402D01*
X114815977Y-168210345D01*
X114669655Y-168064023D01*
X114497598Y-167949059D01*
X114497599Y-167949059D01*
X114497597Y-167949058D01*
X114306418Y-167869869D01*
X114103467Y-167829500D01*
X114103465Y-167829500D01*
X113896535Y-167829500D01*
X113896532Y-167829500D01*
X113693580Y-167869870D01*
X113693578Y-167869870D01*
X113532596Y-167936551D01*
X113471600Y-167941352D01*
X113424707Y-167915091D01*
X111746148Y-166236532D01*
X112949500Y-166236532D01*
X112949500Y-166443467D01*
X112989869Y-166646418D01*
X113069058Y-166837597D01*
X113069059Y-166837598D01*
X113184023Y-167009655D01*
X113330345Y-167155977D01*
X113502402Y-167270941D01*
X113693580Y-167350130D01*
X113896535Y-167390500D01*
X113896536Y-167390500D01*
X114103464Y-167390500D01*
X114103465Y-167390500D01*
X114306420Y-167350130D01*
X114497598Y-167270941D01*
X114669655Y-167155977D01*
X114815977Y-167009655D01*
X114930941Y-166837598D01*
X115010130Y-166646420D01*
X115050500Y-166443465D01*
X115050500Y-166236535D01*
X115010130Y-166033580D01*
X114930941Y-165842402D01*
X114815977Y-165670345D01*
X114669655Y-165524023D01*
X114497598Y-165409059D01*
X114497599Y-165409059D01*
X114497597Y-165409058D01*
X114306418Y-165329869D01*
X114103467Y-165289500D01*
X114103465Y-165289500D01*
X113896535Y-165289500D01*
X113896532Y-165289500D01*
X113693581Y-165329869D01*
X113502402Y-165409058D01*
X113330348Y-165524020D01*
X113184020Y-165670348D01*
X113069058Y-165842402D01*
X112989869Y-166033581D01*
X112949500Y-166236532D01*
X111746148Y-166236532D01*
X109206148Y-163696532D01*
X112949500Y-163696532D01*
X112949500Y-163903467D01*
X112989869Y-164106418D01*
X113069058Y-164297597D01*
X113069059Y-164297598D01*
X113184023Y-164469655D01*
X113330345Y-164615977D01*
X113502402Y-164730941D01*
X113693580Y-164810130D01*
X113896535Y-164850500D01*
X113896536Y-164850500D01*
X114103464Y-164850500D01*
X114103465Y-164850500D01*
X114306420Y-164810130D01*
X114497598Y-164730941D01*
X114669655Y-164615977D01*
X114815977Y-164469655D01*
X114930941Y-164297598D01*
X115010130Y-164106420D01*
X115050500Y-163903465D01*
X115050500Y-163696535D01*
X115010130Y-163493580D01*
X114930941Y-163302402D01*
X114815977Y-163130345D01*
X114669655Y-162984023D01*
X114497598Y-162869059D01*
X114497599Y-162869059D01*
X114497597Y-162869058D01*
X114306418Y-162789869D01*
X114103467Y-162749500D01*
X114103465Y-162749500D01*
X113896535Y-162749500D01*
X113896532Y-162749500D01*
X113693581Y-162789869D01*
X113502402Y-162869058D01*
X113330348Y-162984020D01*
X113184020Y-163130348D01*
X113069058Y-163302402D01*
X112989869Y-163493581D01*
X112949500Y-163696532D01*
X109206148Y-163696532D01*
X106666148Y-161156532D01*
X112949500Y-161156532D01*
X112949500Y-161363467D01*
X112989869Y-161566418D01*
X113069058Y-161757597D01*
X113069059Y-161757598D01*
X113184023Y-161929655D01*
X113330345Y-162075977D01*
X113502402Y-162190941D01*
X113693580Y-162270130D01*
X113896535Y-162310500D01*
X113896536Y-162310500D01*
X114103464Y-162310500D01*
X114103465Y-162310500D01*
X114306420Y-162270130D01*
X114497598Y-162190941D01*
X114669655Y-162075977D01*
X114815977Y-161929655D01*
X114930941Y-161757598D01*
X115010130Y-161566420D01*
X115050500Y-161363465D01*
X115050500Y-161156535D01*
X115010130Y-160953580D01*
X114930941Y-160762402D01*
X114815977Y-160590345D01*
X114669655Y-160444023D01*
X114497598Y-160329059D01*
X114497599Y-160329059D01*
X114497597Y-160329058D01*
X114306418Y-160249869D01*
X114103467Y-160209500D01*
X114103465Y-160209500D01*
X113896535Y-160209500D01*
X113896532Y-160209500D01*
X113693581Y-160249869D01*
X113502402Y-160329058D01*
X113330348Y-160444020D01*
X113184020Y-160590348D01*
X113069058Y-160762402D01*
X112989869Y-160953581D01*
X112949500Y-161156532D01*
X106666148Y-161156532D01*
X99104496Y-153594880D01*
X99076719Y-153540363D01*
X99075500Y-153524876D01*
X99075500Y-133820936D01*
X99041467Y-133738775D01*
X99041466Y-133738772D01*
X99033558Y-133719679D01*
X99033557Y-133719678D01*
X99033557Y-133719677D01*
X98204496Y-132890616D01*
X98176719Y-132836099D01*
X98175500Y-132820612D01*
X98175500Y-131901579D01*
X98749500Y-131901579D01*
X98749500Y-132098420D01*
X98780289Y-132292821D01*
X98841116Y-132480025D01*
X98927897Y-132650345D01*
X98930476Y-132655405D01*
X99046172Y-132814646D01*
X99185354Y-132953828D01*
X99344595Y-133069524D01*
X99519975Y-133158884D01*
X99707174Y-133219709D01*
X99707175Y-133219709D01*
X99707178Y-133219710D01*
X99901580Y-133250500D01*
X99901583Y-133250500D01*
X100098420Y-133250500D01*
X100292821Y-133219710D01*
X100292822Y-133219709D01*
X100292826Y-133219709D01*
X100480025Y-133158884D01*
X100655405Y-133069524D01*
X100814646Y-132953828D01*
X100953828Y-132814646D01*
X101069524Y-132655405D01*
X101158884Y-132480025D01*
X101219709Y-132292826D01*
X101219710Y-132292821D01*
X101250500Y-132098420D01*
X101250500Y-131901579D01*
X101219710Y-131707178D01*
X101219709Y-131707174D01*
X101158884Y-131519975D01*
X101069524Y-131344595D01*
X100953828Y-131185354D01*
X100814646Y-131046172D01*
X100655405Y-130930476D01*
X100655404Y-130930475D01*
X100655402Y-130930474D01*
X100480025Y-130841116D01*
X100292821Y-130780289D01*
X100098420Y-130749500D01*
X100098417Y-130749500D01*
X99901583Y-130749500D01*
X99901580Y-130749500D01*
X99707178Y-130780289D01*
X99519974Y-130841116D01*
X99344597Y-130930474D01*
X99185355Y-131046171D01*
X99046171Y-131185355D01*
X98930474Y-131344597D01*
X98841116Y-131519974D01*
X98780289Y-131707178D01*
X98749500Y-131901579D01*
X98175500Y-131901579D01*
X98175500Y-119043803D01*
X98133557Y-118942545D01*
X98133557Y-118942544D01*
X98133556Y-118942543D01*
X97804496Y-118613482D01*
X97776719Y-118558966D01*
X97775500Y-118543479D01*
X97775500Y-116132244D01*
X97794407Y-116074053D01*
X97843907Y-116038089D01*
X97893098Y-116036803D01*
X97893250Y-116035653D01*
X97899681Y-116036499D01*
X97899682Y-116036500D01*
X97899683Y-116036500D01*
X98011716Y-116036500D01*
X98011718Y-116036500D01*
X98119937Y-116007503D01*
X98119939Y-116007501D01*
X98119941Y-116007501D01*
X98148764Y-115990859D01*
X98216963Y-115951485D01*
X98296185Y-115872263D01*
X98306565Y-115854284D01*
X98352033Y-115813345D01*
X98412883Y-115806949D01*
X98465871Y-115837542D01*
X98490758Y-115893437D01*
X98491300Y-115903786D01*
X98491300Y-127546800D01*
X98510619Y-127593438D01*
X98533244Y-127648060D01*
X112172328Y-141286946D01*
X112230503Y-141345120D01*
X112258281Y-141399636D01*
X112259500Y-141415124D01*
X112259500Y-149689800D01*
X112301443Y-149791058D01*
X112671738Y-150161353D01*
X113035092Y-150524707D01*
X113062869Y-150579224D01*
X113056552Y-150632597D01*
X112989869Y-150793581D01*
X112949500Y-150996532D01*
X112949500Y-151203467D01*
X112989869Y-151406418D01*
X113069058Y-151597597D01*
X113184020Y-151769651D01*
X113184023Y-151769655D01*
X113330345Y-151915977D01*
X113502402Y-152030941D01*
X113693580Y-152110130D01*
X113896535Y-152150500D01*
X113896536Y-152150500D01*
X114103464Y-152150500D01*
X114103465Y-152150500D01*
X114306420Y-152110130D01*
X114497598Y-152030941D01*
X114669655Y-151915977D01*
X114815977Y-151769655D01*
X114930941Y-151597598D01*
X115009036Y-151409058D01*
X115048773Y-151362535D01*
X115108267Y-151348251D01*
X115164795Y-151371666D01*
X115196765Y-151423835D01*
X115199500Y-151446946D01*
X115199500Y-153293053D01*
X115180593Y-153351244D01*
X115131093Y-153387208D01*
X115069907Y-153387208D01*
X115020407Y-153351244D01*
X115009036Y-153330939D01*
X114930941Y-153142402D01*
X114815979Y-152970348D01*
X114815977Y-152970345D01*
X114669655Y-152824023D01*
X114497598Y-152709059D01*
X114497599Y-152709059D01*
X114497597Y-152709058D01*
X114306418Y-152629869D01*
X114103467Y-152589500D01*
X114103465Y-152589500D01*
X113896535Y-152589500D01*
X113896532Y-152589500D01*
X113693581Y-152629869D01*
X113502402Y-152709058D01*
X113330348Y-152824020D01*
X113184020Y-152970348D01*
X113069058Y-153142402D01*
X112989869Y-153333581D01*
X112949500Y-153536532D01*
X112949500Y-153743467D01*
X112989869Y-153946418D01*
X113069058Y-154137597D01*
X113069059Y-154137598D01*
X113184023Y-154309655D01*
X113330345Y-154455977D01*
X113502402Y-154570941D01*
X113693580Y-154650130D01*
X113896535Y-154690500D01*
X113896536Y-154690500D01*
X114103464Y-154690500D01*
X114103465Y-154690500D01*
X114306420Y-154650130D01*
X114497598Y-154570941D01*
X114669655Y-154455977D01*
X114815977Y-154309655D01*
X114930941Y-154137598D01*
X115009036Y-153949058D01*
X115048773Y-153902535D01*
X115108267Y-153888251D01*
X115164795Y-153911666D01*
X115196765Y-153963835D01*
X115199500Y-153986946D01*
X115199500Y-155833053D01*
X115180593Y-155891244D01*
X115131093Y-155927208D01*
X115069907Y-155927208D01*
X115020407Y-155891244D01*
X115009036Y-155870939D01*
X114930941Y-155682402D01*
X114815979Y-155510348D01*
X114815977Y-155510345D01*
X114669655Y-155364023D01*
X114497598Y-155249059D01*
X114497599Y-155249059D01*
X114497597Y-155249058D01*
X114306418Y-155169869D01*
X114103467Y-155129500D01*
X114103465Y-155129500D01*
X113896535Y-155129500D01*
X113896532Y-155129500D01*
X113693581Y-155169869D01*
X113584405Y-155215092D01*
X113532596Y-155236552D01*
X113471600Y-155241353D01*
X113424707Y-155215092D01*
X109439496Y-151229881D01*
X109411719Y-151175364D01*
X109410500Y-151159877D01*
X109410500Y-151108983D01*
X109410500Y-151108982D01*
X109381503Y-151000763D01*
X109381501Y-151000760D01*
X109381501Y-151000758D01*
X109325486Y-150903739D01*
X109325485Y-150903737D01*
X109246263Y-150824515D01*
X109246260Y-150824513D01*
X109149240Y-150768498D01*
X109149242Y-150768498D01*
X109107251Y-150757247D01*
X109041018Y-150739500D01*
X108928982Y-150739500D01*
X108862748Y-150757247D01*
X108820758Y-150768498D01*
X108723739Y-150824513D01*
X108644513Y-150903739D01*
X108588498Y-151000758D01*
X108588497Y-151000763D01*
X108559500Y-151108982D01*
X108559500Y-151221018D01*
X108561875Y-151229881D01*
X108588498Y-151329241D01*
X108643113Y-151423835D01*
X108644515Y-151426263D01*
X108723737Y-151505485D01*
X108723739Y-151505486D01*
X108820759Y-151561501D01*
X108820757Y-151561501D01*
X108820761Y-151561502D01*
X108820763Y-151561503D01*
X108928982Y-151590500D01*
X108979877Y-151590500D01*
X109038068Y-151609407D01*
X109049881Y-151619496D01*
X113035092Y-155604707D01*
X113062869Y-155659224D01*
X113056552Y-155712597D01*
X112989869Y-155873581D01*
X112949500Y-156076532D01*
X112949500Y-156283467D01*
X112989869Y-156486418D01*
X113069058Y-156677597D01*
X113099314Y-156722878D01*
X113184023Y-156849655D01*
X113330345Y-156995977D01*
X113502402Y-157110941D01*
X113693580Y-157190130D01*
X113896535Y-157230500D01*
X113896536Y-157230500D01*
X114103464Y-157230500D01*
X114103465Y-157230500D01*
X114306420Y-157190130D01*
X114497598Y-157110941D01*
X114669655Y-156995977D01*
X114815977Y-156849655D01*
X114930941Y-156677598D01*
X115009036Y-156489058D01*
X115048773Y-156442535D01*
X115108267Y-156428251D01*
X115164795Y-156451666D01*
X115196765Y-156503835D01*
X115199500Y-156526946D01*
X115199500Y-157089876D01*
X115180593Y-157148067D01*
X115170504Y-157159880D01*
X114575292Y-157755091D01*
X114520775Y-157782868D01*
X114467403Y-157776551D01*
X114306420Y-157709870D01*
X114103467Y-157669500D01*
X114103465Y-157669500D01*
X113896535Y-157669500D01*
X113896532Y-157669500D01*
X113693581Y-157709869D01*
X113502402Y-157789058D01*
X113330348Y-157904020D01*
X113184020Y-158050348D01*
X113069058Y-158222402D01*
X112989869Y-158413581D01*
X112949500Y-158616532D01*
X112949500Y-158823467D01*
X112989869Y-159026418D01*
X113069058Y-159217597D01*
X113069059Y-159217598D01*
X113184023Y-159389655D01*
X113330345Y-159535977D01*
X113502402Y-159650941D01*
X113693580Y-159730130D01*
X113896535Y-159770500D01*
X113896536Y-159770500D01*
X114103464Y-159770500D01*
X114103465Y-159770500D01*
X114306420Y-159730130D01*
X114497598Y-159650941D01*
X114669655Y-159535977D01*
X114815977Y-159389655D01*
X114930941Y-159217598D01*
X115010130Y-159026420D01*
X115050500Y-158823465D01*
X115050500Y-158616535D01*
X115010130Y-158413580D01*
X114943446Y-158252593D01*
X114938646Y-158191599D01*
X114964905Y-158144708D01*
X115630497Y-157479117D01*
X115685013Y-157451341D01*
X115745445Y-157460912D01*
X115788710Y-157504177D01*
X115799500Y-157549122D01*
X115799500Y-181700500D01*
X115780593Y-181758691D01*
X115731093Y-181794655D01*
X115700500Y-181799500D01*
X89299500Y-181799500D01*
X89241309Y-181780593D01*
X89205345Y-181731093D01*
X89200500Y-181700500D01*
X89200500Y-177361579D01*
X98749500Y-177361579D01*
X98749500Y-177558420D01*
X98780289Y-177752821D01*
X98780291Y-177752826D01*
X98841116Y-177940025D01*
X98930476Y-178115405D01*
X99046172Y-178274646D01*
X99185354Y-178413828D01*
X99344595Y-178529524D01*
X99519975Y-178618884D01*
X99707174Y-178679709D01*
X99707175Y-178679709D01*
X99707178Y-178679710D01*
X99901580Y-178710500D01*
X99901583Y-178710500D01*
X100098420Y-178710500D01*
X100292821Y-178679710D01*
X100292822Y-178679709D01*
X100292826Y-178679709D01*
X100480025Y-178618884D01*
X100655405Y-178529524D01*
X100814646Y-178413828D01*
X100953828Y-178274646D01*
X101069524Y-178115405D01*
X101158884Y-177940025D01*
X101219709Y-177752826D01*
X101250500Y-177558417D01*
X101250500Y-177361583D01*
X101250500Y-177361579D01*
X101219710Y-177167178D01*
X101219709Y-177167174D01*
X101158884Y-176979975D01*
X101069524Y-176804595D01*
X100953828Y-176645354D01*
X100814646Y-176506172D01*
X100655405Y-176390476D01*
X100655404Y-176390475D01*
X100655402Y-176390474D01*
X100480025Y-176301116D01*
X100292821Y-176240289D01*
X100098420Y-176209500D01*
X100098417Y-176209500D01*
X99901583Y-176209500D01*
X99901580Y-176209500D01*
X99707178Y-176240289D01*
X99519974Y-176301116D01*
X99344597Y-176390474D01*
X99185355Y-176506171D01*
X99046171Y-176645355D01*
X98930474Y-176804597D01*
X98841116Y-176979974D01*
X98780289Y-177167178D01*
X98749500Y-177361579D01*
X89200500Y-177361579D01*
X89200500Y-173856532D01*
X89949500Y-173856532D01*
X89949500Y-174063467D01*
X89989869Y-174266418D01*
X90069058Y-174457597D01*
X90069059Y-174457598D01*
X90184023Y-174629655D01*
X90330345Y-174775977D01*
X90502402Y-174890941D01*
X90693580Y-174970130D01*
X90896535Y-175010500D01*
X90896536Y-175010500D01*
X91103464Y-175010500D01*
X91103465Y-175010500D01*
X91306420Y-174970130D01*
X91497598Y-174890941D01*
X91669655Y-174775977D01*
X91815977Y-174629655D01*
X91930941Y-174457598D01*
X92010130Y-174266420D01*
X92050500Y-174063465D01*
X92050500Y-173856535D01*
X92050499Y-173856532D01*
X112949500Y-173856532D01*
X112949500Y-174063467D01*
X112989869Y-174266418D01*
X113069058Y-174457597D01*
X113069059Y-174457598D01*
X113184023Y-174629655D01*
X113330345Y-174775977D01*
X113502402Y-174890941D01*
X113693580Y-174970130D01*
X113896535Y-175010500D01*
X113896536Y-175010500D01*
X114103464Y-175010500D01*
X114103465Y-175010500D01*
X114306420Y-174970130D01*
X114497598Y-174890941D01*
X114669655Y-174775977D01*
X114815977Y-174629655D01*
X114930941Y-174457598D01*
X115010130Y-174266420D01*
X115050500Y-174063465D01*
X115050500Y-173856535D01*
X115010130Y-173653580D01*
X114930941Y-173462402D01*
X114815977Y-173290345D01*
X114669655Y-173144023D01*
X114497598Y-173029059D01*
X114497599Y-173029059D01*
X114497597Y-173029058D01*
X114306418Y-172949869D01*
X114103467Y-172909500D01*
X114103465Y-172909500D01*
X113896535Y-172909500D01*
X113896532Y-172909500D01*
X113693581Y-172949869D01*
X113502402Y-173029058D01*
X113330348Y-173144020D01*
X113184020Y-173290348D01*
X113069058Y-173462402D01*
X112989869Y-173653581D01*
X112949500Y-173856532D01*
X92050499Y-173856532D01*
X92010130Y-173653580D01*
X91930941Y-173462402D01*
X91815977Y-173290345D01*
X91669655Y-173144023D01*
X91497598Y-173029059D01*
X91497599Y-173029059D01*
X91497597Y-173029058D01*
X91306418Y-172949869D01*
X91103467Y-172909500D01*
X91103465Y-172909500D01*
X90896535Y-172909500D01*
X90896532Y-172909500D01*
X90693581Y-172949869D01*
X90502402Y-173029058D01*
X90330348Y-173144020D01*
X90184020Y-173290348D01*
X90069058Y-173462402D01*
X89989869Y-173653581D01*
X89949500Y-173856532D01*
X89200500Y-173856532D01*
X89200500Y-171316532D01*
X89949500Y-171316532D01*
X89949500Y-171523467D01*
X89989869Y-171726418D01*
X90069058Y-171917597D01*
X90069059Y-171917598D01*
X90184023Y-172089655D01*
X90330345Y-172235977D01*
X90502402Y-172350941D01*
X90693580Y-172430130D01*
X90896535Y-172470500D01*
X90896536Y-172470500D01*
X91103464Y-172470500D01*
X91103465Y-172470500D01*
X91306420Y-172430130D01*
X91497598Y-172350941D01*
X91669655Y-172235977D01*
X91815977Y-172089655D01*
X91930941Y-171917598D01*
X92010130Y-171726420D01*
X92050500Y-171523465D01*
X92050500Y-171316535D01*
X92050499Y-171316532D01*
X112949500Y-171316532D01*
X112949500Y-171523467D01*
X112989869Y-171726418D01*
X113069058Y-171917597D01*
X113069059Y-171917598D01*
X113184023Y-172089655D01*
X113330345Y-172235977D01*
X113502402Y-172350941D01*
X113693580Y-172430130D01*
X113896535Y-172470500D01*
X113896536Y-172470500D01*
X114103464Y-172470500D01*
X114103465Y-172470500D01*
X114306420Y-172430130D01*
X114497598Y-172350941D01*
X114669655Y-172235977D01*
X114815977Y-172089655D01*
X114930941Y-171917598D01*
X115010130Y-171726420D01*
X115050500Y-171523465D01*
X115050500Y-171316535D01*
X115010130Y-171113580D01*
X114930941Y-170922402D01*
X114815977Y-170750345D01*
X114669655Y-170604023D01*
X114497598Y-170489059D01*
X114497599Y-170489059D01*
X114497597Y-170489058D01*
X114306418Y-170409869D01*
X114103467Y-170369500D01*
X114103465Y-170369500D01*
X113896535Y-170369500D01*
X113896532Y-170369500D01*
X113693581Y-170409869D01*
X113502402Y-170489058D01*
X113330348Y-170604020D01*
X113184020Y-170750348D01*
X113069058Y-170922402D01*
X112989869Y-171113581D01*
X112949500Y-171316532D01*
X92050499Y-171316532D01*
X92010130Y-171113580D01*
X91930941Y-170922402D01*
X91815977Y-170750345D01*
X91669655Y-170604023D01*
X91497598Y-170489059D01*
X91497599Y-170489059D01*
X91497597Y-170489058D01*
X91306418Y-170409869D01*
X91103467Y-170369500D01*
X91103465Y-170369500D01*
X90896535Y-170369500D01*
X90896532Y-170369500D01*
X90693581Y-170409869D01*
X90502402Y-170489058D01*
X90330348Y-170604020D01*
X90184020Y-170750348D01*
X90069058Y-170922402D01*
X89989869Y-171113581D01*
X89949500Y-171316532D01*
X89200500Y-171316532D01*
X89200500Y-168776532D01*
X89949500Y-168776532D01*
X89949500Y-168983467D01*
X89989869Y-169186418D01*
X90069058Y-169377597D01*
X90101066Y-169425500D01*
X90184023Y-169549655D01*
X90330345Y-169695977D01*
X90502402Y-169810941D01*
X90693580Y-169890130D01*
X90896535Y-169930500D01*
X90896536Y-169930500D01*
X91103464Y-169930500D01*
X91103465Y-169930500D01*
X91306420Y-169890130D01*
X91497598Y-169810941D01*
X91669655Y-169695977D01*
X91815977Y-169549655D01*
X91930941Y-169377598D01*
X92010130Y-169186420D01*
X92050500Y-168983465D01*
X92050500Y-168776535D01*
X92010130Y-168573580D01*
X91930941Y-168382402D01*
X91815977Y-168210345D01*
X91669655Y-168064023D01*
X91497598Y-167949059D01*
X91497599Y-167949059D01*
X91497597Y-167949058D01*
X91306418Y-167869869D01*
X91103467Y-167829500D01*
X91103465Y-167829500D01*
X90896535Y-167829500D01*
X90896532Y-167829500D01*
X90693581Y-167869869D01*
X90502402Y-167949058D01*
X90330348Y-168064020D01*
X90184020Y-168210348D01*
X90069058Y-168382402D01*
X89989869Y-168573581D01*
X89949500Y-168776532D01*
X89200500Y-168776532D01*
X89200500Y-166236532D01*
X89949500Y-166236532D01*
X89949500Y-166443467D01*
X89989869Y-166646418D01*
X90069058Y-166837597D01*
X90069059Y-166837598D01*
X90184023Y-167009655D01*
X90330345Y-167155977D01*
X90502402Y-167270941D01*
X90693580Y-167350130D01*
X90896535Y-167390500D01*
X90896536Y-167390500D01*
X91103464Y-167390500D01*
X91103465Y-167390500D01*
X91306420Y-167350130D01*
X91497598Y-167270941D01*
X91669655Y-167155977D01*
X91815977Y-167009655D01*
X91930941Y-166837598D01*
X92010130Y-166646420D01*
X92050500Y-166443465D01*
X92050500Y-166236535D01*
X92010130Y-166033580D01*
X91930941Y-165842402D01*
X91815977Y-165670345D01*
X91669655Y-165524023D01*
X91497598Y-165409059D01*
X91497599Y-165409059D01*
X91497597Y-165409058D01*
X91306418Y-165329869D01*
X91103467Y-165289500D01*
X91103465Y-165289500D01*
X90896535Y-165289500D01*
X90896532Y-165289500D01*
X90693581Y-165329869D01*
X90502402Y-165409058D01*
X90330348Y-165524020D01*
X90184020Y-165670348D01*
X90069058Y-165842402D01*
X89989869Y-166033581D01*
X89949500Y-166236532D01*
X89200500Y-166236532D01*
X89200500Y-163696532D01*
X89949500Y-163696532D01*
X89949500Y-163903467D01*
X89989869Y-164106418D01*
X90069058Y-164297597D01*
X90069059Y-164297598D01*
X90184023Y-164469655D01*
X90330345Y-164615977D01*
X90502402Y-164730941D01*
X90693580Y-164810130D01*
X90896535Y-164850500D01*
X90896536Y-164850500D01*
X91103464Y-164850500D01*
X91103465Y-164850500D01*
X91306420Y-164810130D01*
X91497598Y-164730941D01*
X91669655Y-164615977D01*
X91815977Y-164469655D01*
X91930941Y-164297598D01*
X92010130Y-164106420D01*
X92050500Y-163903465D01*
X92050500Y-163696535D01*
X92010130Y-163493580D01*
X91930941Y-163302402D01*
X91815977Y-163130345D01*
X91669655Y-162984023D01*
X91497598Y-162869059D01*
X91497599Y-162869059D01*
X91497597Y-162869058D01*
X91306418Y-162789869D01*
X91103467Y-162749500D01*
X91103465Y-162749500D01*
X90896535Y-162749500D01*
X90896532Y-162749500D01*
X90693581Y-162789869D01*
X90502402Y-162869058D01*
X90330348Y-162984020D01*
X90184020Y-163130348D01*
X90069058Y-163302402D01*
X89989869Y-163493581D01*
X89949500Y-163696532D01*
X89200500Y-163696532D01*
X89200500Y-161156532D01*
X89949500Y-161156532D01*
X89949500Y-161363467D01*
X89989869Y-161566418D01*
X90069058Y-161757597D01*
X90069059Y-161757598D01*
X90184023Y-161929655D01*
X90330345Y-162075977D01*
X90502402Y-162190941D01*
X90693580Y-162270130D01*
X90896535Y-162310500D01*
X90896536Y-162310500D01*
X91103464Y-162310500D01*
X91103465Y-162310500D01*
X91306420Y-162270130D01*
X91497598Y-162190941D01*
X91669655Y-162075977D01*
X91815977Y-161929655D01*
X91930941Y-161757598D01*
X92010130Y-161566420D01*
X92050500Y-161363465D01*
X92050500Y-161156535D01*
X92010130Y-160953580D01*
X91943453Y-160792608D01*
X91938652Y-160731611D01*
X91964914Y-160684718D01*
X92205617Y-160444020D01*
X95608156Y-157041557D01*
X95608158Y-157041557D01*
X95653738Y-156995977D01*
X95674302Y-156975413D01*
X95676667Y-156973709D01*
X95684437Y-156965367D01*
X95685624Y-156964136D01*
X95685656Y-156964058D01*
X95685657Y-156964058D01*
X95727600Y-156862800D01*
X95727600Y-143819255D01*
X95746507Y-143761064D01*
X95756590Y-143749257D01*
X95792585Y-143713263D01*
X95848603Y-143616237D01*
X95877600Y-143508018D01*
X95877600Y-143395982D01*
X95848603Y-143287763D01*
X95848601Y-143287760D01*
X95848601Y-143287758D01*
X95792586Y-143190739D01*
X95792585Y-143190737D01*
X95713363Y-143111515D01*
X95713360Y-143111513D01*
X95616340Y-143055498D01*
X95616342Y-143055498D01*
X95574351Y-143044247D01*
X95508118Y-143026500D01*
X95396082Y-143026500D01*
X95329848Y-143044247D01*
X95287858Y-143055498D01*
X95190839Y-143111513D01*
X95111613Y-143190739D01*
X95055598Y-143287758D01*
X95055597Y-143287763D01*
X95026600Y-143395982D01*
X95026600Y-143508018D01*
X95046815Y-143583463D01*
X95055598Y-143616241D01*
X95111613Y-143713260D01*
X95111615Y-143713263D01*
X95147605Y-143749253D01*
X95175381Y-143803768D01*
X95176600Y-143819255D01*
X95176600Y-156652874D01*
X95157693Y-156711065D01*
X95147603Y-156722878D01*
X91575303Y-160295096D01*
X91520786Y-160322873D01*
X91467415Y-160316556D01*
X91306420Y-160249870D01*
X91103467Y-160209500D01*
X91103465Y-160209500D01*
X90896535Y-160209500D01*
X90896532Y-160209500D01*
X90693581Y-160249869D01*
X90502402Y-160329058D01*
X90330348Y-160444020D01*
X90184020Y-160590348D01*
X90069058Y-160762402D01*
X89989869Y-160953581D01*
X89949500Y-161156532D01*
X89200500Y-161156532D01*
X89200500Y-158616532D01*
X89949500Y-158616532D01*
X89949500Y-158823467D01*
X89989869Y-159026418D01*
X90069058Y-159217597D01*
X90069059Y-159217598D01*
X90184023Y-159389655D01*
X90330345Y-159535977D01*
X90502402Y-159650941D01*
X90693580Y-159730130D01*
X90896535Y-159770500D01*
X90896536Y-159770500D01*
X91103464Y-159770500D01*
X91103465Y-159770500D01*
X91306420Y-159730130D01*
X91497598Y-159650941D01*
X91669655Y-159535977D01*
X91815977Y-159389655D01*
X91930941Y-159217598D01*
X92010130Y-159026420D01*
X92050500Y-158823465D01*
X92050500Y-158616535D01*
X92010130Y-158413580D01*
X91930941Y-158222402D01*
X91815977Y-158050345D01*
X91669655Y-157904023D01*
X91497598Y-157789059D01*
X91497599Y-157789059D01*
X91497597Y-157789058D01*
X91306418Y-157709869D01*
X91103467Y-157669500D01*
X91103465Y-157669500D01*
X90896535Y-157669500D01*
X90896532Y-157669500D01*
X90693581Y-157709869D01*
X90502402Y-157789058D01*
X90330348Y-157904020D01*
X90184020Y-158050348D01*
X90069058Y-158222402D01*
X89989869Y-158413581D01*
X89949500Y-158616532D01*
X89200500Y-158616532D01*
X89200500Y-156076532D01*
X89949500Y-156076532D01*
X89949500Y-156283467D01*
X89989869Y-156486418D01*
X90069058Y-156677597D01*
X90099314Y-156722878D01*
X90184023Y-156849655D01*
X90330345Y-156995977D01*
X90502402Y-157110941D01*
X90693580Y-157190130D01*
X90896535Y-157230500D01*
X90896536Y-157230500D01*
X91103464Y-157230500D01*
X91103465Y-157230500D01*
X91306420Y-157190130D01*
X91497598Y-157110941D01*
X91669655Y-156995977D01*
X91815977Y-156849655D01*
X91930941Y-156677598D01*
X92010130Y-156486420D01*
X92050500Y-156283465D01*
X92050500Y-156076535D01*
X92010130Y-155873580D01*
X91930941Y-155682402D01*
X91815977Y-155510345D01*
X91669655Y-155364023D01*
X91497598Y-155249059D01*
X91497599Y-155249059D01*
X91497597Y-155249058D01*
X91306418Y-155169869D01*
X91103467Y-155129500D01*
X91103465Y-155129500D01*
X90896535Y-155129500D01*
X90896532Y-155129500D01*
X90693581Y-155169869D01*
X90502402Y-155249058D01*
X90330348Y-155364020D01*
X90184020Y-155510348D01*
X90069058Y-155682402D01*
X89989869Y-155873581D01*
X89949500Y-156076532D01*
X89200500Y-156076532D01*
X89200500Y-153536532D01*
X89949500Y-153536532D01*
X89949500Y-153743467D01*
X89989869Y-153946418D01*
X90069058Y-154137597D01*
X90069059Y-154137598D01*
X90184023Y-154309655D01*
X90330345Y-154455977D01*
X90502402Y-154570941D01*
X90693580Y-154650130D01*
X90896535Y-154690500D01*
X90896536Y-154690500D01*
X91103464Y-154690500D01*
X91103465Y-154690500D01*
X91306420Y-154650130D01*
X91497598Y-154570941D01*
X91669655Y-154455977D01*
X91815977Y-154309655D01*
X91930941Y-154137598D01*
X92010130Y-153946420D01*
X92050500Y-153743465D01*
X92050500Y-153536535D01*
X92010130Y-153333580D01*
X91930941Y-153142402D01*
X91815977Y-152970345D01*
X91669655Y-152824023D01*
X91497598Y-152709059D01*
X91497599Y-152709059D01*
X91497597Y-152709058D01*
X91306418Y-152629869D01*
X91103467Y-152589500D01*
X91103465Y-152589500D01*
X90896535Y-152589500D01*
X90896532Y-152589500D01*
X90693581Y-152629869D01*
X90502402Y-152709058D01*
X90330348Y-152824020D01*
X90184020Y-152970348D01*
X90069058Y-153142402D01*
X89989869Y-153333581D01*
X89949500Y-153536532D01*
X89200500Y-153536532D01*
X89200500Y-150996532D01*
X89949500Y-150996532D01*
X89949500Y-151203467D01*
X89989869Y-151406418D01*
X90069058Y-151597597D01*
X90184020Y-151769651D01*
X90184023Y-151769655D01*
X90330345Y-151915977D01*
X90502402Y-152030941D01*
X90693580Y-152110130D01*
X90896535Y-152150500D01*
X90896536Y-152150500D01*
X91103464Y-152150500D01*
X91103465Y-152150500D01*
X91306420Y-152110130D01*
X91497598Y-152030941D01*
X91669655Y-151915977D01*
X91815977Y-151769655D01*
X91930941Y-151597598D01*
X92010130Y-151406420D01*
X92050500Y-151203465D01*
X92050500Y-150996535D01*
X92010130Y-150793580D01*
X91930941Y-150602402D01*
X91815977Y-150430345D01*
X91669655Y-150284023D01*
X91497598Y-150169059D01*
X91497599Y-150169059D01*
X91497597Y-150169058D01*
X91306418Y-150089869D01*
X91103467Y-150049500D01*
X91103465Y-150049500D01*
X90896535Y-150049500D01*
X90896532Y-150049500D01*
X90693581Y-150089869D01*
X90502402Y-150169058D01*
X90330348Y-150284020D01*
X90184020Y-150430348D01*
X90069058Y-150602402D01*
X89989869Y-150793581D01*
X89949500Y-150996532D01*
X89200500Y-150996532D01*
X89200500Y-148456532D01*
X89949500Y-148456532D01*
X89949500Y-148663467D01*
X89989869Y-148866418D01*
X90069058Y-149057597D01*
X90069059Y-149057598D01*
X90184023Y-149229655D01*
X90330345Y-149375977D01*
X90502402Y-149490941D01*
X90693580Y-149570130D01*
X90896535Y-149610500D01*
X90896536Y-149610500D01*
X91103464Y-149610500D01*
X91103465Y-149610500D01*
X91306420Y-149570130D01*
X91497598Y-149490941D01*
X91669655Y-149375977D01*
X91815977Y-149229655D01*
X91930941Y-149057598D01*
X92010130Y-148866420D01*
X92050500Y-148663465D01*
X92050500Y-148456535D01*
X92010130Y-148253580D01*
X91930941Y-148062402D01*
X91815977Y-147890345D01*
X91669655Y-147744023D01*
X91497598Y-147629059D01*
X91497599Y-147629059D01*
X91497597Y-147629058D01*
X91306418Y-147549869D01*
X91103467Y-147509500D01*
X91103465Y-147509500D01*
X90896535Y-147509500D01*
X90896532Y-147509500D01*
X90693581Y-147549869D01*
X90502402Y-147629058D01*
X90330348Y-147744020D01*
X90184020Y-147890348D01*
X90069058Y-148062402D01*
X89989869Y-148253581D01*
X89949500Y-148456532D01*
X89200500Y-148456532D01*
X89200500Y-144849123D01*
X89219407Y-144790932D01*
X89268907Y-144754968D01*
X89330093Y-144754968D01*
X89369503Y-144779118D01*
X89794404Y-145204020D01*
X90035091Y-145444707D01*
X90062868Y-145499224D01*
X90056551Y-145552596D01*
X89989870Y-145713578D01*
X89989870Y-145713580D01*
X89949500Y-145916532D01*
X89949500Y-146123467D01*
X89989869Y-146326418D01*
X90069058Y-146517597D01*
X90069059Y-146517598D01*
X90184023Y-146689655D01*
X90330345Y-146835977D01*
X90502402Y-146950941D01*
X90693580Y-147030130D01*
X90896535Y-147070500D01*
X90896536Y-147070500D01*
X91103464Y-147070500D01*
X91103465Y-147070500D01*
X91306420Y-147030130D01*
X91497598Y-146950941D01*
X91669655Y-146835977D01*
X91815977Y-146689655D01*
X91930941Y-146517598D01*
X92010130Y-146326420D01*
X92050500Y-146123465D01*
X92050500Y-145916535D01*
X92010130Y-145713580D01*
X91930941Y-145522402D01*
X91815977Y-145350345D01*
X91669655Y-145204023D01*
X91497598Y-145089059D01*
X91497599Y-145089059D01*
X91497597Y-145089058D01*
X91306418Y-145009869D01*
X91103467Y-144969500D01*
X91103465Y-144969500D01*
X90896535Y-144969500D01*
X90896532Y-144969500D01*
X90693580Y-145009870D01*
X90693578Y-145009870D01*
X90532596Y-145076551D01*
X90471600Y-145081352D01*
X90424707Y-145055091D01*
X89660852Y-144291236D01*
X89633075Y-144236719D01*
X89631856Y-144221232D01*
X89631856Y-142740478D01*
X89650763Y-142682287D01*
X89700263Y-142646323D01*
X89761449Y-142646323D01*
X89800859Y-142670474D01*
X89940729Y-142810345D01*
X90035091Y-142904707D01*
X90062868Y-142959223D01*
X90056551Y-143012595D01*
X89989870Y-143173578D01*
X89989870Y-143173580D01*
X89949500Y-143376532D01*
X89949500Y-143583467D01*
X89989869Y-143786418D01*
X90069058Y-143977597D01*
X90184020Y-144149651D01*
X90184023Y-144149655D01*
X90330345Y-144295977D01*
X90502402Y-144410941D01*
X90693580Y-144490130D01*
X90896535Y-144530500D01*
X90896536Y-144530500D01*
X91103464Y-144530500D01*
X91103465Y-144530500D01*
X91306420Y-144490130D01*
X91497598Y-144410941D01*
X91669655Y-144295977D01*
X91815977Y-144149655D01*
X91930941Y-143977598D01*
X92010130Y-143786420D01*
X92050500Y-143583465D01*
X92050500Y-143376535D01*
X92010130Y-143173580D01*
X91930941Y-142982402D01*
X91815977Y-142810345D01*
X91669655Y-142664023D01*
X91643165Y-142646323D01*
X91497597Y-142549058D01*
X91306418Y-142469869D01*
X91103467Y-142429500D01*
X91103465Y-142429500D01*
X90896535Y-142429500D01*
X90896532Y-142429500D01*
X90693580Y-142469870D01*
X90693578Y-142469870D01*
X90532596Y-142536551D01*
X90471600Y-142541352D01*
X90424707Y-142515091D01*
X89960852Y-142051236D01*
X89933075Y-141996719D01*
X89931856Y-141981232D01*
X89931856Y-141558619D01*
X89950763Y-141500428D01*
X90000263Y-141464464D01*
X90061449Y-141464464D01*
X90110949Y-141500428D01*
X90113168Y-141503612D01*
X90184023Y-141609655D01*
X90330345Y-141755977D01*
X90502402Y-141870941D01*
X90693580Y-141950130D01*
X90896535Y-141990500D01*
X90896536Y-141990500D01*
X91103464Y-141990500D01*
X91103465Y-141990500D01*
X91306420Y-141950130D01*
X91497598Y-141870941D01*
X91669655Y-141755977D01*
X91815977Y-141609655D01*
X91930941Y-141437598D01*
X92010130Y-141246420D01*
X92050500Y-141043465D01*
X92050500Y-140836535D01*
X92010130Y-140633580D01*
X91930941Y-140442402D01*
X91815977Y-140270345D01*
X91669655Y-140124023D01*
X91497598Y-140009059D01*
X91497599Y-140009059D01*
X91497597Y-140009058D01*
X91306418Y-139929869D01*
X91103467Y-139889500D01*
X91103465Y-139889500D01*
X90896535Y-139889500D01*
X90896532Y-139889500D01*
X90693581Y-139929869D01*
X90502402Y-140009058D01*
X90330348Y-140124020D01*
X90184020Y-140270348D01*
X90113172Y-140376381D01*
X90065122Y-140414261D01*
X90003983Y-140416663D01*
X89953110Y-140382670D01*
X89931932Y-140325267D01*
X89931856Y-140321380D01*
X89931856Y-139018619D01*
X89950763Y-138960428D01*
X90000263Y-138924464D01*
X90061449Y-138924464D01*
X90110949Y-138960428D01*
X90113168Y-138963612D01*
X90184023Y-139069655D01*
X90330345Y-139215977D01*
X90502402Y-139330941D01*
X90693580Y-139410130D01*
X90896535Y-139450500D01*
X90896536Y-139450500D01*
X91103464Y-139450500D01*
X91103465Y-139450500D01*
X91306420Y-139410130D01*
X91497598Y-139330941D01*
X91669655Y-139215977D01*
X91815977Y-139069655D01*
X91930941Y-138897598D01*
X92010130Y-138706420D01*
X92050500Y-138503465D01*
X92050500Y-138296535D01*
X92010130Y-138093580D01*
X91943465Y-137932637D01*
X91938664Y-137871640D01*
X91964926Y-137824747D01*
X94544611Y-135245267D01*
X94766402Y-135023494D01*
X94820920Y-134995718D01*
X94836403Y-134994500D01*
X94887316Y-134994500D01*
X94887318Y-134994500D01*
X94995537Y-134965503D01*
X94995539Y-134965501D01*
X94995541Y-134965501D01*
X95024364Y-134948859D01*
X95092563Y-134909485D01*
X95171785Y-134830263D01*
X95227803Y-134733237D01*
X95256800Y-134625018D01*
X95256800Y-134512982D01*
X95227803Y-134404763D01*
X95227801Y-134404760D01*
X95227801Y-134404758D01*
X95171786Y-134307739D01*
X95171785Y-134307737D01*
X95092563Y-134228515D01*
X95092560Y-134228513D01*
X94995540Y-134172498D01*
X94995542Y-134172498D01*
X94953551Y-134161247D01*
X94887318Y-134143500D01*
X94775282Y-134143500D01*
X94709048Y-134161247D01*
X94667058Y-134172498D01*
X94570039Y-134228513D01*
X94490813Y-134307739D01*
X94434798Y-134404758D01*
X94405800Y-134512983D01*
X94405800Y-134563855D01*
X94386893Y-134622046D01*
X94376801Y-134633861D01*
X91575332Y-137435111D01*
X91520814Y-137462887D01*
X91467445Y-137456569D01*
X91306418Y-137389869D01*
X91103467Y-137349500D01*
X91103465Y-137349500D01*
X90896535Y-137349500D01*
X90896532Y-137349500D01*
X90693581Y-137389869D01*
X90502402Y-137469058D01*
X90330348Y-137584020D01*
X90184020Y-137730348D01*
X90113172Y-137836381D01*
X90065122Y-137874261D01*
X90003983Y-137876663D01*
X89953110Y-137842670D01*
X89931932Y-137785267D01*
X89931856Y-137781380D01*
X89931856Y-136478619D01*
X89950763Y-136420428D01*
X90000263Y-136384464D01*
X90061449Y-136384464D01*
X90110949Y-136420428D01*
X90113168Y-136423612D01*
X90184023Y-136529655D01*
X90330345Y-136675977D01*
X90502402Y-136790941D01*
X90693580Y-136870130D01*
X90896535Y-136910500D01*
X90896536Y-136910500D01*
X91103464Y-136910500D01*
X91103465Y-136910500D01*
X91306420Y-136870130D01*
X91497598Y-136790941D01*
X91669655Y-136675977D01*
X91815977Y-136529655D01*
X91930941Y-136357598D01*
X92010130Y-136166420D01*
X92050500Y-135963465D01*
X92050500Y-135756535D01*
X92010130Y-135553580D01*
X91943405Y-135392494D01*
X91938605Y-135331499D01*
X91964859Y-135284614D01*
X93376518Y-133872696D01*
X93407617Y-133841597D01*
X93409117Y-133840167D01*
X93409170Y-133840038D01*
X93409172Y-133840037D01*
X93431839Y-133785297D01*
X93431839Y-133785296D01*
X93431841Y-133785296D01*
X93431841Y-133785289D01*
X93451100Y-133738800D01*
X93451100Y-133738795D01*
X93451101Y-133738793D01*
X93451105Y-133738775D01*
X93451100Y-133688956D01*
X93451100Y-128121765D01*
X93451112Y-128121737D01*
X93451100Y-128069128D01*
X93451100Y-128012200D01*
X93451098Y-128012195D01*
X93451087Y-128012141D01*
X93451087Y-128012136D01*
X93430198Y-127961739D01*
X93425851Y-127951244D01*
X93409156Y-127910938D01*
X93409126Y-127910893D01*
X93369940Y-127871725D01*
X93369925Y-127871710D01*
X93331658Y-127833443D01*
X93331628Y-127833430D01*
X93324794Y-127826599D01*
X93195912Y-127697775D01*
X93168122Y-127643265D01*
X93166900Y-127627756D01*
X93166900Y-127576983D01*
X93165122Y-127570348D01*
X93137903Y-127468763D01*
X93137901Y-127468760D01*
X93137901Y-127468758D01*
X93081886Y-127371739D01*
X93081885Y-127371737D01*
X93002663Y-127292515D01*
X92972484Y-127275091D01*
X92905640Y-127236498D01*
X92905642Y-127236498D01*
X92863651Y-127225247D01*
X92797418Y-127207500D01*
X92685382Y-127207500D01*
X92685381Y-127207500D01*
X92685374Y-127207501D01*
X92682627Y-127208237D01*
X92680595Y-127208130D01*
X92678950Y-127208347D01*
X92678909Y-127208041D01*
X92621526Y-127205029D01*
X92573980Y-127166518D01*
X92558150Y-127107416D01*
X92580083Y-127050297D01*
X92586997Y-127042617D01*
X93701120Y-125928496D01*
X93755637Y-125900719D01*
X93771124Y-125899500D01*
X94082744Y-125899500D01*
X94140935Y-125918407D01*
X94152747Y-125928496D01*
X94188737Y-125964485D01*
X94285759Y-126020501D01*
X94285757Y-126020501D01*
X94285761Y-126020502D01*
X94285763Y-126020503D01*
X94393982Y-126049500D01*
X94393984Y-126049500D01*
X94506016Y-126049500D01*
X94506018Y-126049500D01*
X94614237Y-126020503D01*
X94614239Y-126020501D01*
X94614241Y-126020501D01*
X94643064Y-126003859D01*
X94711263Y-125964485D01*
X94790485Y-125885263D01*
X94846503Y-125788237D01*
X94875500Y-125680018D01*
X94875500Y-125567982D01*
X94846503Y-125459763D01*
X94846501Y-125459760D01*
X94846501Y-125459758D01*
X94790486Y-125362739D01*
X94790485Y-125362737D01*
X94711263Y-125283515D01*
X94711260Y-125283513D01*
X94614240Y-125227498D01*
X94614242Y-125227498D01*
X94572251Y-125216247D01*
X94506018Y-125198500D01*
X94393982Y-125198500D01*
X94327748Y-125216247D01*
X94285758Y-125227498D01*
X94188737Y-125283514D01*
X94152747Y-125319504D01*
X94098230Y-125347281D01*
X94082744Y-125348500D01*
X93561198Y-125348500D01*
X93459944Y-125390440D01*
X91575291Y-127275091D01*
X91520774Y-127302868D01*
X91467401Y-127296551D01*
X91306418Y-127229869D01*
X91103467Y-127189500D01*
X91103465Y-127189500D01*
X90896535Y-127189500D01*
X90896532Y-127189500D01*
X90693581Y-127229869D01*
X90502402Y-127309058D01*
X90330348Y-127424020D01*
X90184020Y-127570348D01*
X90113172Y-127676381D01*
X90065122Y-127714261D01*
X90003983Y-127716663D01*
X89953110Y-127682670D01*
X89931932Y-127625267D01*
X89931856Y-127621380D01*
X89931856Y-126318619D01*
X89950763Y-126260428D01*
X90000263Y-126224464D01*
X90061449Y-126224464D01*
X90110949Y-126260428D01*
X90113168Y-126263612D01*
X90184023Y-126369655D01*
X90330345Y-126515977D01*
X90502402Y-126630941D01*
X90693580Y-126710130D01*
X90896535Y-126750500D01*
X90896536Y-126750500D01*
X91103464Y-126750500D01*
X91103465Y-126750500D01*
X91306420Y-126710130D01*
X91497598Y-126630941D01*
X91669655Y-126515977D01*
X91815977Y-126369655D01*
X91930941Y-126197598D01*
X92010130Y-126006420D01*
X92050500Y-125803465D01*
X92050500Y-125596535D01*
X92010130Y-125393580D01*
X91943448Y-125232596D01*
X91938647Y-125171599D01*
X91964906Y-125124708D01*
X93884120Y-123205496D01*
X93938637Y-123177719D01*
X93954124Y-123176500D01*
X94382744Y-123176500D01*
X94440935Y-123195407D01*
X94452747Y-123205496D01*
X94488737Y-123241485D01*
X94585759Y-123297501D01*
X94585757Y-123297501D01*
X94585761Y-123297502D01*
X94585763Y-123297503D01*
X94693982Y-123326500D01*
X94693984Y-123326500D01*
X94806016Y-123326500D01*
X94806018Y-123326500D01*
X94914237Y-123297503D01*
X94914239Y-123297501D01*
X94914241Y-123297501D01*
X94973189Y-123263467D01*
X95011263Y-123241485D01*
X95090485Y-123162263D01*
X95146503Y-123065237D01*
X95175500Y-122957018D01*
X95175500Y-122844982D01*
X95146503Y-122736763D01*
X95146501Y-122736760D01*
X95146501Y-122736758D01*
X95090486Y-122639739D01*
X95090485Y-122639737D01*
X95011263Y-122560515D01*
X94984853Y-122545267D01*
X94914240Y-122504498D01*
X94914242Y-122504498D01*
X94861432Y-122490348D01*
X94806018Y-122475500D01*
X94693982Y-122475500D01*
X94638568Y-122490348D01*
X94585758Y-122504498D01*
X94488737Y-122560514D01*
X94452747Y-122596504D01*
X94398230Y-122624281D01*
X94382744Y-122625500D01*
X93744198Y-122625500D01*
X93642944Y-122667440D01*
X91575291Y-124735091D01*
X91520774Y-124762868D01*
X91467401Y-124756551D01*
X91306418Y-124689869D01*
X91103467Y-124649500D01*
X91103465Y-124649500D01*
X90896535Y-124649500D01*
X90896532Y-124649500D01*
X90693581Y-124689869D01*
X90502402Y-124769058D01*
X90330348Y-124884020D01*
X90184020Y-125030348D01*
X90113172Y-125136381D01*
X90065122Y-125174261D01*
X90003983Y-125176663D01*
X89953110Y-125142670D01*
X89931932Y-125085267D01*
X89931856Y-125081380D01*
X89931856Y-123778619D01*
X89950763Y-123720428D01*
X90000263Y-123684464D01*
X90061449Y-123684464D01*
X90110949Y-123720428D01*
X90113172Y-123723618D01*
X90155186Y-123786498D01*
X90184023Y-123829655D01*
X90330345Y-123975977D01*
X90502402Y-124090941D01*
X90693580Y-124170130D01*
X90896535Y-124210500D01*
X90896536Y-124210500D01*
X91103464Y-124210500D01*
X91103465Y-124210500D01*
X91306420Y-124170130D01*
X91497598Y-124090941D01*
X91669655Y-123975977D01*
X91815977Y-123829655D01*
X91930941Y-123657598D01*
X92010130Y-123466420D01*
X92050500Y-123263465D01*
X92050500Y-123056535D01*
X92010130Y-122853580D01*
X91930941Y-122662402D01*
X91815977Y-122490345D01*
X91669655Y-122344023D01*
X91497598Y-122229059D01*
X91497599Y-122229059D01*
X91497597Y-122229058D01*
X91306418Y-122149869D01*
X91103467Y-122109500D01*
X91103465Y-122109500D01*
X90896535Y-122109500D01*
X90896532Y-122109500D01*
X90693581Y-122149869D01*
X90502402Y-122229058D01*
X90330348Y-122344020D01*
X90184020Y-122490348D01*
X90113172Y-122596381D01*
X90065122Y-122634261D01*
X90003983Y-122636663D01*
X89953110Y-122602670D01*
X89931932Y-122545267D01*
X89931856Y-122541380D01*
X89931856Y-121238619D01*
X89950763Y-121180428D01*
X90000263Y-121144464D01*
X90061449Y-121144464D01*
X90110949Y-121180428D01*
X90113168Y-121183612D01*
X90184023Y-121289655D01*
X90330345Y-121435977D01*
X90502402Y-121550941D01*
X90693580Y-121630130D01*
X90896535Y-121670500D01*
X90896536Y-121670500D01*
X91103464Y-121670500D01*
X91103465Y-121670500D01*
X91306420Y-121630130D01*
X91497598Y-121550941D01*
X91669655Y-121435977D01*
X91815977Y-121289655D01*
X91930941Y-121117598D01*
X92010130Y-120926420D01*
X92050500Y-120723465D01*
X92050500Y-120516535D01*
X92010130Y-120313580D01*
X91943434Y-120152564D01*
X91938634Y-120091569D01*
X91964892Y-120044680D01*
X96777049Y-115232266D01*
X96783400Y-115225915D01*
X96786992Y-115222700D01*
X96787259Y-115222053D01*
X96787262Y-115222052D01*
X96811153Y-115164366D01*
X96811153Y-115164365D01*
X96811154Y-115164365D01*
X96811154Y-115164362D01*
X96827880Y-115123986D01*
X96829136Y-115121234D01*
X96829200Y-115120939D01*
X96829200Y-115120795D01*
X96829201Y-115120793D01*
X96829200Y-115069500D01*
X96829200Y-114417255D01*
X96848107Y-114359064D01*
X96858190Y-114347257D01*
X96894185Y-114311263D01*
X96950203Y-114214237D01*
X96979200Y-114106018D01*
X96979200Y-113993982D01*
X96950203Y-113885763D01*
X96950201Y-113885760D01*
X96950201Y-113885758D01*
X96894186Y-113788739D01*
X96894185Y-113788737D01*
X96814963Y-113709515D01*
X96814960Y-113709513D01*
X96717940Y-113653498D01*
X96717942Y-113653498D01*
X96675951Y-113642247D01*
X96609718Y-113624500D01*
X96497682Y-113624500D01*
X96431448Y-113642247D01*
X96389458Y-113653498D01*
X96292439Y-113709513D01*
X96213213Y-113788739D01*
X96157198Y-113885758D01*
X96157197Y-113885763D01*
X96128200Y-113993982D01*
X96128200Y-114106018D01*
X96153772Y-114201455D01*
X96157198Y-114214241D01*
X96213213Y-114311260D01*
X96213215Y-114311263D01*
X96249205Y-114347253D01*
X96276981Y-114401768D01*
X96278200Y-114417255D01*
X96278200Y-114910882D01*
X96259293Y-114969073D01*
X96249205Y-114980884D01*
X91575263Y-119655077D01*
X91520748Y-119682856D01*
X91467372Y-119676539D01*
X91306418Y-119609869D01*
X91103467Y-119569500D01*
X91103465Y-119569500D01*
X90896535Y-119569500D01*
X90896532Y-119569500D01*
X90693581Y-119609869D01*
X90502402Y-119689058D01*
X90330348Y-119804020D01*
X90184020Y-119950348D01*
X90113172Y-120056381D01*
X90065122Y-120094261D01*
X90003983Y-120096663D01*
X89953110Y-120062670D01*
X89931932Y-120005267D01*
X89931856Y-120001380D01*
X89931856Y-118698619D01*
X89950763Y-118640428D01*
X90000263Y-118604464D01*
X90061449Y-118604464D01*
X90110949Y-118640428D01*
X90113172Y-118643618D01*
X90159451Y-118712881D01*
X90184023Y-118749655D01*
X90330345Y-118895977D01*
X90502402Y-119010941D01*
X90693580Y-119090130D01*
X90896535Y-119130500D01*
X90896536Y-119130500D01*
X91103464Y-119130500D01*
X91103465Y-119130500D01*
X91306420Y-119090130D01*
X91497598Y-119010941D01*
X91669655Y-118895977D01*
X91815977Y-118749655D01*
X91930941Y-118577598D01*
X92010130Y-118386420D01*
X92050500Y-118183465D01*
X92050500Y-117976535D01*
X92010130Y-117773580D01*
X91943461Y-117612629D01*
X91938661Y-117551635D01*
X91964923Y-117504743D01*
X97055500Y-112414504D01*
X97110016Y-112386729D01*
X97170448Y-112396303D01*
G37*
%TD.AperFunction*%
%TA.AperFunction,Conductor*%
G36*
X100546140Y-105089452D02*
G01*
X100584650Y-105136998D01*
X100587855Y-105146860D01*
X100595012Y-105173571D01*
X100603498Y-105205241D01*
X100659513Y-105302260D01*
X100659515Y-105302263D01*
X100738737Y-105381485D01*
X100765173Y-105396748D01*
X100835759Y-105437501D01*
X100835757Y-105437501D01*
X100835761Y-105437502D01*
X100835763Y-105437503D01*
X100943982Y-105466500D01*
X100943984Y-105466500D01*
X101051687Y-105466500D01*
X101109878Y-105485407D01*
X101145842Y-105534907D01*
X101145842Y-105596093D01*
X101137423Y-105615000D01*
X101103498Y-105673758D01*
X101100421Y-105685241D01*
X101074500Y-105781982D01*
X101074500Y-105894018D01*
X101100072Y-105989455D01*
X101103498Y-106002241D01*
X101159513Y-106099260D01*
X101159515Y-106099263D01*
X101195505Y-106135253D01*
X101223281Y-106189768D01*
X101224500Y-106205255D01*
X101224500Y-120874800D01*
X101266443Y-120976058D01*
X110105551Y-129815167D01*
X113035091Y-132744707D01*
X113062868Y-132799224D01*
X113056551Y-132852596D01*
X112989870Y-133013578D01*
X112989870Y-133013580D01*
X112949500Y-133216532D01*
X112949500Y-133423467D01*
X112989869Y-133626418D01*
X113069058Y-133817597D01*
X113105879Y-133872704D01*
X113184023Y-133989655D01*
X113330345Y-134135977D01*
X113502402Y-134250941D01*
X113693580Y-134330130D01*
X113896535Y-134370500D01*
X113896536Y-134370500D01*
X114103464Y-134370500D01*
X114103465Y-134370500D01*
X114306420Y-134330130D01*
X114497598Y-134250941D01*
X114651499Y-134148107D01*
X114710387Y-134131500D01*
X114767790Y-134152678D01*
X114801783Y-134203552D01*
X114805500Y-134230424D01*
X114805500Y-134949575D01*
X114786593Y-135007766D01*
X114737093Y-135043730D01*
X114675907Y-135043730D01*
X114651499Y-135031891D01*
X114497597Y-134929058D01*
X114306418Y-134849869D01*
X114103467Y-134809500D01*
X114103465Y-134809500D01*
X113896535Y-134809500D01*
X113896532Y-134809500D01*
X113693581Y-134849869D01*
X113502402Y-134929058D01*
X113330348Y-135044020D01*
X113184020Y-135190348D01*
X113069058Y-135362402D01*
X112989869Y-135553581D01*
X112949500Y-135756532D01*
X112949500Y-135963467D01*
X112989869Y-136166418D01*
X113069058Y-136357597D01*
X113111040Y-136420428D01*
X113184023Y-136529655D01*
X113330345Y-136675977D01*
X113502402Y-136790941D01*
X113693580Y-136870130D01*
X113896535Y-136910500D01*
X113896536Y-136910500D01*
X114103464Y-136910500D01*
X114103465Y-136910500D01*
X114306420Y-136870130D01*
X114497598Y-136790941D01*
X114651499Y-136688107D01*
X114710387Y-136671500D01*
X114767790Y-136692678D01*
X114801783Y-136743552D01*
X114805500Y-136770424D01*
X114805500Y-137489575D01*
X114786593Y-137547766D01*
X114737093Y-137583730D01*
X114675907Y-137583730D01*
X114651499Y-137571891D01*
X114497597Y-137469058D01*
X114306418Y-137389869D01*
X114103467Y-137349500D01*
X114103465Y-137349500D01*
X113896535Y-137349500D01*
X113896532Y-137349500D01*
X113693581Y-137389869D01*
X113502402Y-137469058D01*
X113330348Y-137584020D01*
X113184020Y-137730348D01*
X113069058Y-137902402D01*
X112989869Y-138093581D01*
X112949500Y-138296532D01*
X112949500Y-138503467D01*
X112989869Y-138706418D01*
X113069058Y-138897597D01*
X113069059Y-138897598D01*
X113184023Y-139069655D01*
X113330345Y-139215977D01*
X113502402Y-139330941D01*
X113693580Y-139410130D01*
X113896535Y-139450500D01*
X113896536Y-139450500D01*
X114103464Y-139450500D01*
X114103465Y-139450500D01*
X114306420Y-139410130D01*
X114497598Y-139330941D01*
X114651499Y-139228107D01*
X114710387Y-139211500D01*
X114767790Y-139232678D01*
X114801783Y-139283552D01*
X114805500Y-139310424D01*
X114805500Y-139703877D01*
X114786593Y-139762068D01*
X114776503Y-139773881D01*
X114575292Y-139975091D01*
X114520776Y-140002868D01*
X114467404Y-139996551D01*
X114306420Y-139929870D01*
X114103467Y-139889500D01*
X114103465Y-139889500D01*
X113896535Y-139889500D01*
X113896532Y-139889500D01*
X113693581Y-139929869D01*
X113502402Y-140009058D01*
X113330345Y-140124022D01*
X113184024Y-140270342D01*
X113157295Y-140310345D01*
X113109245Y-140348224D01*
X113048106Y-140350626D01*
X113004968Y-140325339D01*
X108984488Y-136303932D01*
X108956717Y-136249412D01*
X108955500Y-136233936D01*
X108955500Y-136182983D01*
X108951062Y-136166420D01*
X108926503Y-136074763D01*
X108926501Y-136074760D01*
X108926501Y-136074758D01*
X108870486Y-135977739D01*
X108870485Y-135977737D01*
X108791263Y-135898515D01*
X108791260Y-135898513D01*
X108694240Y-135842498D01*
X108694242Y-135842498D01*
X108652251Y-135831247D01*
X108586018Y-135813500D01*
X108473982Y-135813500D01*
X108407748Y-135831247D01*
X108365758Y-135842498D01*
X108268739Y-135898513D01*
X108189513Y-135977739D01*
X108133498Y-136074758D01*
X108104500Y-136182983D01*
X108104500Y-136200946D01*
X108085593Y-136259137D01*
X108036093Y-136295101D01*
X107974907Y-136295101D01*
X107935497Y-136270950D01*
X99071297Y-127406878D01*
X99043519Y-127352362D01*
X99042300Y-127336874D01*
X99042300Y-115598316D01*
X99061207Y-115540125D01*
X99110707Y-115504161D01*
X99155742Y-115502987D01*
X99156050Y-115500653D01*
X99162481Y-115501499D01*
X99162482Y-115501500D01*
X99162483Y-115501500D01*
X99274516Y-115501500D01*
X99274518Y-115501500D01*
X99382737Y-115472503D01*
X99382739Y-115472501D01*
X99382741Y-115472501D01*
X99427320Y-115446763D01*
X99479763Y-115416485D01*
X99558985Y-115337263D01*
X99606681Y-115254651D01*
X99615001Y-115240241D01*
X99615001Y-115240239D01*
X99615003Y-115240237D01*
X99644000Y-115132018D01*
X99644000Y-115080661D01*
X99646454Y-115073106D01*
X99645205Y-115065261D01*
X99655729Y-115044559D01*
X99662907Y-115022470D01*
X99672934Y-115010720D01*
X99695377Y-114988237D01*
X99702730Y-114980884D01*
X99733557Y-114950058D01*
X99733557Y-114950056D01*
X99733559Y-114950055D01*
X99733693Y-114949853D01*
X99733696Y-114949851D01*
X99754577Y-114899310D01*
X99754600Y-114899319D01*
X99754611Y-114899227D01*
X99775500Y-114848800D01*
X99775500Y-114848793D01*
X99775548Y-114848554D01*
X99775500Y-114794319D01*
X99775500Y-105492374D01*
X99794407Y-105434183D01*
X99843907Y-105398219D01*
X99900122Y-105396748D01*
X99943982Y-105408500D01*
X99943983Y-105408500D01*
X100056016Y-105408500D01*
X100056018Y-105408500D01*
X100164237Y-105379503D01*
X100164239Y-105379501D01*
X100164241Y-105379501D01*
X100221036Y-105346710D01*
X100261263Y-105323485D01*
X100340485Y-105244263D01*
X100381299Y-105173571D01*
X100396501Y-105147241D01*
X100396501Y-105147239D01*
X100396503Y-105147237D01*
X100396600Y-105146871D01*
X100396749Y-105146643D01*
X100398985Y-105141245D01*
X100399985Y-105141659D01*
X100429919Y-105095555D01*
X100487038Y-105073622D01*
X100546140Y-105089452D01*
G37*
%TD.AperFunction*%
%TA.AperFunction,Conductor*%
G36*
X101944501Y-119114116D02*
G01*
X107520254Y-124689869D01*
X113035092Y-130204707D01*
X113062869Y-130259224D01*
X113056552Y-130312597D01*
X112989869Y-130473581D01*
X112949500Y-130676532D01*
X112949500Y-130883467D01*
X112989869Y-131086418D01*
X113069058Y-131277597D01*
X113113826Y-131344597D01*
X113184023Y-131449655D01*
X113330345Y-131595977D01*
X113502402Y-131710941D01*
X113693580Y-131790130D01*
X113896535Y-131830500D01*
X113896536Y-131830500D01*
X114103464Y-131830500D01*
X114103465Y-131830500D01*
X114306420Y-131790130D01*
X114497598Y-131710941D01*
X114651499Y-131608107D01*
X114710387Y-131591500D01*
X114767790Y-131612678D01*
X114801783Y-131663552D01*
X114805500Y-131690424D01*
X114805500Y-132409575D01*
X114786593Y-132467766D01*
X114737093Y-132503730D01*
X114675907Y-132503730D01*
X114651499Y-132491891D01*
X114497597Y-132389058D01*
X114306418Y-132309869D01*
X114103467Y-132269500D01*
X114103465Y-132269500D01*
X113896535Y-132269500D01*
X113896532Y-132269500D01*
X113693580Y-132309870D01*
X113693578Y-132309870D01*
X113532596Y-132376551D01*
X113471600Y-132381352D01*
X113424707Y-132355091D01*
X101804496Y-120734880D01*
X101776719Y-120680363D01*
X101775500Y-120664876D01*
X101775500Y-119184122D01*
X101794407Y-119125931D01*
X101843907Y-119089967D01*
X101905093Y-119089967D01*
X101944501Y-119114116D01*
G37*
%TD.AperFunction*%
%TA.AperFunction,Conductor*%
G36*
X102462503Y-114552118D02*
G01*
X107860729Y-119950345D01*
X113035091Y-125124707D01*
X113062868Y-125179224D01*
X113056551Y-125232596D01*
X112989870Y-125393578D01*
X112989870Y-125393580D01*
X112949500Y-125596532D01*
X112949500Y-125803467D01*
X112989869Y-126006418D01*
X113069058Y-126197597D01*
X113069059Y-126197598D01*
X113184023Y-126369655D01*
X113330345Y-126515977D01*
X113502402Y-126630941D01*
X113693580Y-126710130D01*
X113896535Y-126750500D01*
X113896536Y-126750500D01*
X114103464Y-126750500D01*
X114103465Y-126750500D01*
X114306420Y-126710130D01*
X114497598Y-126630941D01*
X114669655Y-126515977D01*
X114815977Y-126369655D01*
X114930941Y-126197598D01*
X115009036Y-126009058D01*
X115048773Y-125962535D01*
X115108267Y-125948251D01*
X115164795Y-125971666D01*
X115196765Y-126023835D01*
X115199500Y-126046946D01*
X115199500Y-127893053D01*
X115180593Y-127951244D01*
X115131093Y-127987208D01*
X115069907Y-127987208D01*
X115020407Y-127951244D01*
X115009036Y-127930939D01*
X114930941Y-127742402D01*
X114815979Y-127570348D01*
X114815977Y-127570345D01*
X114669655Y-127424023D01*
X114562406Y-127352362D01*
X114497597Y-127309058D01*
X114306418Y-127229869D01*
X114103467Y-127189500D01*
X114103465Y-127189500D01*
X113896535Y-127189500D01*
X113896532Y-127189500D01*
X113693581Y-127229869D01*
X113502402Y-127309058D01*
X113330348Y-127424020D01*
X113184020Y-127570348D01*
X113069058Y-127742402D01*
X112989869Y-127933581D01*
X112949500Y-128136532D01*
X112949500Y-128343470D01*
X112969404Y-128443534D01*
X112962212Y-128504295D01*
X112920679Y-128549224D01*
X112860669Y-128561161D01*
X112805104Y-128535545D01*
X112802309Y-128532857D01*
X112781114Y-128511666D01*
X110532653Y-126263618D01*
X108516503Y-124247838D01*
X108488720Y-124193324D01*
X108487500Y-124177828D01*
X108487500Y-124126983D01*
X108477843Y-124090941D01*
X108458503Y-124018763D01*
X108458501Y-124018760D01*
X108458501Y-124018758D01*
X108402486Y-123921739D01*
X108402485Y-123921737D01*
X108323263Y-123842515D01*
X108300989Y-123829655D01*
X108226240Y-123786498D01*
X108226242Y-123786498D01*
X108184251Y-123775247D01*
X108118018Y-123757500D01*
X108005982Y-123757500D01*
X107939748Y-123775247D01*
X107897758Y-123786498D01*
X107800739Y-123842513D01*
X107721514Y-123921738D01*
X107716420Y-123930562D01*
X107670949Y-123971503D01*
X107610099Y-123977897D01*
X107560680Y-123951065D01*
X102322496Y-118712881D01*
X102294719Y-118658364D01*
X102293500Y-118642877D01*
X102293500Y-114622123D01*
X102312407Y-114563932D01*
X102361907Y-114527968D01*
X102423093Y-114527968D01*
X102462503Y-114552118D01*
G37*
%TD.AperFunction*%
%TA.AperFunction,Conductor*%
G36*
X102933503Y-112483118D02*
G01*
X108001982Y-117551598D01*
X113035091Y-122584707D01*
X113062868Y-122639224D01*
X113056551Y-122692596D01*
X112989870Y-122853578D01*
X112989870Y-122853580D01*
X112949500Y-123056532D01*
X112949500Y-123263467D01*
X112989869Y-123466418D01*
X113069058Y-123657597D01*
X113184020Y-123829651D01*
X113184023Y-123829655D01*
X113330345Y-123975977D01*
X113502402Y-124090941D01*
X113693580Y-124170130D01*
X113896535Y-124210500D01*
X113896536Y-124210500D01*
X114103464Y-124210500D01*
X114103465Y-124210500D01*
X114306420Y-124170130D01*
X114497598Y-124090941D01*
X114669655Y-123975977D01*
X114815977Y-123829655D01*
X114930941Y-123657598D01*
X115009036Y-123469058D01*
X115048773Y-123422535D01*
X115108267Y-123408251D01*
X115164795Y-123431666D01*
X115196765Y-123483835D01*
X115199500Y-123506946D01*
X115199500Y-125353053D01*
X115180593Y-125411244D01*
X115131093Y-125447208D01*
X115069907Y-125447208D01*
X115020407Y-125411244D01*
X115009036Y-125390939D01*
X114979446Y-125319504D01*
X114930941Y-125202402D01*
X114815977Y-125030345D01*
X114669655Y-124884023D01*
X114497598Y-124769059D01*
X114497599Y-124769059D01*
X114497597Y-124769058D01*
X114306418Y-124689869D01*
X114103467Y-124649500D01*
X114103465Y-124649500D01*
X113896535Y-124649500D01*
X113896532Y-124649500D01*
X113693580Y-124689870D01*
X113693578Y-124689870D01*
X113532596Y-124756551D01*
X113471600Y-124761352D01*
X113424707Y-124735091D01*
X102793496Y-114103880D01*
X102765719Y-114049363D01*
X102764500Y-114033876D01*
X102764500Y-112553123D01*
X102783407Y-112494932D01*
X102832907Y-112458968D01*
X102894093Y-112458968D01*
X102933503Y-112483118D01*
G37*
%TD.AperFunction*%
%TA.AperFunction,Conductor*%
G36*
X103385503Y-110463118D02*
G01*
X108204804Y-115282420D01*
X113015174Y-120092790D01*
X113042951Y-120147307D01*
X113036634Y-120200679D01*
X112989870Y-120313578D01*
X112989870Y-120313580D01*
X112949500Y-120516532D01*
X112949500Y-120723467D01*
X112989869Y-120926418D01*
X113069058Y-121117597D01*
X113069059Y-121117598D01*
X113184023Y-121289655D01*
X113330345Y-121435977D01*
X113502402Y-121550941D01*
X113693580Y-121630130D01*
X113896535Y-121670500D01*
X113896536Y-121670500D01*
X114103464Y-121670500D01*
X114103465Y-121670500D01*
X114306420Y-121630130D01*
X114497598Y-121550941D01*
X114669655Y-121435977D01*
X114815977Y-121289655D01*
X114930941Y-121117598D01*
X115009036Y-120929058D01*
X115048773Y-120882535D01*
X115108267Y-120868251D01*
X115164795Y-120891666D01*
X115196765Y-120943835D01*
X115199500Y-120966946D01*
X115199500Y-122813053D01*
X115180593Y-122871244D01*
X115131093Y-122907208D01*
X115069907Y-122907208D01*
X115020407Y-122871244D01*
X115009036Y-122850939D01*
X114961742Y-122736763D01*
X114930941Y-122662402D01*
X114815977Y-122490345D01*
X114669655Y-122344023D01*
X114497598Y-122229059D01*
X114497599Y-122229059D01*
X114497597Y-122229058D01*
X114306418Y-122149869D01*
X114103467Y-122109500D01*
X114103465Y-122109500D01*
X113896535Y-122109500D01*
X113896532Y-122109500D01*
X113693580Y-122149870D01*
X113693578Y-122149870D01*
X113532596Y-122216551D01*
X113471600Y-122221352D01*
X113424707Y-122195091D01*
X103245496Y-112015880D01*
X103217719Y-111961363D01*
X103216500Y-111945876D01*
X103216500Y-110533123D01*
X103235407Y-110474932D01*
X103284907Y-110438968D01*
X103346093Y-110438968D01*
X103385503Y-110463118D01*
G37*
%TD.AperFunction*%
%TA.AperFunction,Conductor*%
G36*
X90534075Y-115732993D02*
G01*
X90599901Y-115847007D01*
X90692993Y-115940099D01*
X90807007Y-116005925D01*
X90870590Y-116022962D01*
X90417262Y-116476288D01*
X90417848Y-116483732D01*
X90403565Y-116543227D01*
X90357039Y-116582964D01*
X90319153Y-116590500D01*
X90215982Y-116590500D01*
X90132328Y-116612915D01*
X90107759Y-116619498D01*
X90080355Y-116635320D01*
X90020506Y-116648041D01*
X89964611Y-116623153D01*
X89934019Y-116570165D01*
X89931856Y-116549583D01*
X89931856Y-116219457D01*
X89950763Y-116161266D01*
X90000263Y-116125302D01*
X90038625Y-116120762D01*
X90063708Y-116122736D01*
X90517036Y-115669407D01*
X90534075Y-115732993D01*
G37*
%TD.AperFunction*%
%TA.AperFunction,Conductor*%
G36*
X107635504Y-103904119D02*
G01*
X114550504Y-110819119D01*
X114578281Y-110873636D01*
X114579500Y-110889123D01*
X114579500Y-110940018D01*
X114584939Y-110960316D01*
X114608498Y-111048241D01*
X114664513Y-111145260D01*
X114664515Y-111145263D01*
X114743737Y-111224485D01*
X114743739Y-111224486D01*
X114840759Y-111280501D01*
X114840757Y-111280501D01*
X114840761Y-111280502D01*
X114840763Y-111280503D01*
X114948982Y-111309500D01*
X114948984Y-111309500D01*
X115061016Y-111309500D01*
X115061018Y-111309500D01*
X115074878Y-111305786D01*
X115135978Y-111308989D01*
X115183528Y-111347494D01*
X115199500Y-111401413D01*
X115199500Y-112653053D01*
X115180593Y-112711244D01*
X115131093Y-112747208D01*
X115069907Y-112747208D01*
X115020407Y-112711244D01*
X115009036Y-112690939D01*
X114930941Y-112502402D01*
X114815979Y-112330348D01*
X114815977Y-112330345D01*
X114669655Y-112184023D01*
X114589182Y-112130253D01*
X114497597Y-112069058D01*
X114306418Y-111989869D01*
X114103467Y-111949500D01*
X114103465Y-111949500D01*
X113896535Y-111949500D01*
X113896532Y-111949500D01*
X113693581Y-111989869D01*
X113502402Y-112069058D01*
X113330348Y-112184020D01*
X113184020Y-112330348D01*
X113069058Y-112502402D01*
X112989869Y-112693581D01*
X112952920Y-112879338D01*
X112923023Y-112932722D01*
X112867458Y-112958338D01*
X112807448Y-112946401D01*
X112785813Y-112930022D01*
X107495491Y-107638892D01*
X107467718Y-107584374D01*
X107466500Y-107568894D01*
X107466500Y-103974123D01*
X107485407Y-103915932D01*
X107534907Y-103879968D01*
X107596093Y-103879968D01*
X107635504Y-103904119D01*
G37*
%TD.AperFunction*%
%TA.AperFunction,Conductor*%
G36*
X109596076Y-96605907D02*
G01*
X109607882Y-96615990D01*
X115005501Y-102013139D01*
X115033280Y-102067654D01*
X115034500Y-102083145D01*
X115034500Y-102134018D01*
X115044389Y-102170924D01*
X115063498Y-102242241D01*
X115117771Y-102336242D01*
X115119515Y-102339263D01*
X115198737Y-102418485D01*
X115198739Y-102418486D01*
X115295759Y-102474501D01*
X115295757Y-102474501D01*
X115295761Y-102474502D01*
X115295763Y-102474503D01*
X115403982Y-102503500D01*
X115403984Y-102503500D01*
X115516016Y-102503500D01*
X115516018Y-102503500D01*
X115624237Y-102474503D01*
X115624239Y-102474501D01*
X115624241Y-102474501D01*
X115651000Y-102459052D01*
X115710848Y-102446330D01*
X115766744Y-102471216D01*
X115797336Y-102524204D01*
X115799500Y-102544788D01*
X115799500Y-107655876D01*
X115780593Y-107714067D01*
X115731093Y-107750031D01*
X115669907Y-107750031D01*
X115630496Y-107725880D01*
X109751496Y-101846880D01*
X109723719Y-101792363D01*
X109722500Y-101776876D01*
X109722500Y-101661906D01*
X109726161Y-101650635D01*
X109725229Y-101638822D01*
X109735392Y-101622226D01*
X109741407Y-101603715D01*
X109750995Y-101596748D01*
X109757184Y-101586644D01*
X109775159Y-101579192D01*
X109790907Y-101567751D01*
X109802758Y-101567751D01*
X109813705Y-101563213D01*
X109832630Y-101567751D01*
X109852093Y-101567751D01*
X109861680Y-101574716D01*
X109873204Y-101577480D01*
X109885847Y-101592275D01*
X109901593Y-101603715D01*
X109912951Y-101623990D01*
X109924770Y-101652500D01*
X109928100Y-101660532D01*
X109928105Y-101660558D01*
X109928109Y-101660557D01*
X109949442Y-101712057D01*
X109949491Y-101712131D01*
X109973391Y-101736016D01*
X109990410Y-101753025D01*
X110026942Y-101789557D01*
X110026978Y-101789572D01*
X110033854Y-101796444D01*
X111695477Y-103457092D01*
X111695491Y-103457119D01*
X111695498Y-103457113D01*
X111732942Y-103494557D01*
X111733008Y-103494601D01*
X111733010Y-103494603D01*
X111783216Y-103515381D01*
X111818655Y-103530061D01*
X111818656Y-103530062D01*
X111850771Y-103551520D01*
X111900737Y-103601485D01*
X111997759Y-103657501D01*
X111997757Y-103657501D01*
X111997761Y-103657502D01*
X111997763Y-103657503D01*
X112105982Y-103686500D01*
X112105984Y-103686500D01*
X112218016Y-103686500D01*
X112218018Y-103686500D01*
X112326237Y-103657503D01*
X112326239Y-103657501D01*
X112326241Y-103657501D01*
X112355064Y-103640859D01*
X112423263Y-103601485D01*
X112502485Y-103522263D01*
X112558503Y-103425237D01*
X112587500Y-103317018D01*
X112587500Y-103204982D01*
X112558503Y-103096763D01*
X112558501Y-103096760D01*
X112558501Y-103096758D01*
X112502486Y-102999739D01*
X112502485Y-102999737D01*
X112423263Y-102920515D01*
X112423260Y-102920513D01*
X112326240Y-102864498D01*
X112326242Y-102864498D01*
X112283994Y-102853178D01*
X112218018Y-102835500D01*
X112105982Y-102835500D01*
X112051872Y-102849998D01*
X111997761Y-102864497D01*
X111990148Y-102868893D01*
X111930299Y-102881611D01*
X111874404Y-102856722D01*
X111870669Y-102853178D01*
X110828450Y-101811570D01*
X110800656Y-101757062D01*
X110810210Y-101696627D01*
X110848931Y-101655812D01*
X110896263Y-101628485D01*
X110975485Y-101549263D01*
X110983501Y-101535377D01*
X111004399Y-101516559D01*
X111024291Y-101496667D01*
X111026959Y-101496244D01*
X111028968Y-101494436D01*
X111056934Y-101491495D01*
X111084723Y-101487094D01*
X111087131Y-101488321D01*
X111089818Y-101488039D01*
X111139240Y-101514871D01*
X111170608Y-101546237D01*
X111211016Y-101586644D01*
X111239502Y-101615128D01*
X111267281Y-101669644D01*
X111268500Y-101685133D01*
X111268500Y-101736018D01*
X111287405Y-101806573D01*
X111297498Y-101844241D01*
X111353513Y-101941260D01*
X111353515Y-101941263D01*
X111432737Y-102020485D01*
X111432739Y-102020486D01*
X111529759Y-102076501D01*
X111529757Y-102076501D01*
X111529761Y-102076502D01*
X111529763Y-102076503D01*
X111637982Y-102105500D01*
X111637984Y-102105500D01*
X111750016Y-102105500D01*
X111750018Y-102105500D01*
X111858237Y-102076503D01*
X111858239Y-102076501D01*
X111858241Y-102076501D01*
X111887064Y-102059859D01*
X111955263Y-102020485D01*
X112034485Y-101941263D01*
X112084343Y-101854906D01*
X112090501Y-101844241D01*
X112090501Y-101844239D01*
X112090503Y-101844237D01*
X112119500Y-101736018D01*
X112119500Y-101623982D01*
X112090503Y-101515763D01*
X112090501Y-101515760D01*
X112090501Y-101515758D01*
X112038748Y-101426121D01*
X112034485Y-101418737D01*
X111955263Y-101339515D01*
X111955260Y-101339513D01*
X111858240Y-101283498D01*
X111858242Y-101283498D01*
X111803786Y-101268907D01*
X111750018Y-101254500D01*
X111750016Y-101254500D01*
X111699113Y-101254500D01*
X111640922Y-101235593D01*
X111629111Y-101225505D01*
X107159434Y-96756005D01*
X107131655Y-96701489D01*
X107141225Y-96641057D01*
X107184489Y-96597791D01*
X107229436Y-96587000D01*
X109537885Y-96587000D01*
X109596076Y-96605907D01*
G37*
%TD.AperFunction*%
%TD*%
%TA.AperFunction,NonConductor*%
G36*
X105659076Y-98830607D02*
G01*
X105670886Y-98840694D01*
X105825306Y-98995103D01*
X105853086Y-99049619D01*
X105843516Y-99110051D01*
X105800253Y-99153317D01*
X105739821Y-99162891D01*
X105735990Y-99162207D01*
X105674624Y-99150000D01*
X105650001Y-99150000D01*
X105650000Y-99150001D01*
X105650000Y-99370310D01*
X105648854Y-99373835D01*
X105649023Y-99375389D01*
X105649500Y-99375389D01*
X105649500Y-99379787D01*
X105649524Y-99380009D01*
X105649500Y-99380252D01*
X105649500Y-100101000D01*
X105630593Y-100159191D01*
X105581093Y-100195155D01*
X105550500Y-100200000D01*
X105449500Y-100200000D01*
X105391309Y-100181093D01*
X105355345Y-100131593D01*
X105350500Y-100101000D01*
X105350500Y-99380252D01*
X105350476Y-99380009D01*
X105350000Y-99370310D01*
X105350000Y-99150001D01*
X105349999Y-99150000D01*
X105325377Y-99150000D01*
X105325363Y-99150001D01*
X105323806Y-99150311D01*
X105323085Y-99150225D01*
X105320532Y-99150477D01*
X105320476Y-99149916D01*
X105301978Y-99147725D01*
X105280039Y-99149143D01*
X105272224Y-99144202D01*
X105263046Y-99143115D01*
X105246906Y-99128193D01*
X105228324Y-99116444D01*
X105225382Y-99108293D01*
X105218119Y-99101579D01*
X105205706Y-99059593D01*
X105205500Y-99056403D01*
X105205500Y-98958082D01*
X105197133Y-98926857D01*
X105196502Y-98917081D01*
X105201758Y-98896466D01*
X105202871Y-98875222D01*
X105209152Y-98867464D01*
X105211619Y-98857792D01*
X105227988Y-98844204D01*
X105241376Y-98827672D01*
X105251528Y-98824664D01*
X105258699Y-98818713D01*
X105275224Y-98817645D01*
X105295296Y-98811700D01*
X105600885Y-98811700D01*
X105659076Y-98830607D01*
G37*
%TD.AperFunction*%
%TA.AperFunction,NonConductor*%
G36*
X115758691Y-94219407D02*
G01*
X115794655Y-94268907D01*
X115799500Y-94299500D01*
X115799500Y-101611211D01*
X115780593Y-101669402D01*
X115731093Y-101705366D01*
X115669907Y-101705366D01*
X115651002Y-101696948D01*
X115624242Y-101681499D01*
X115624242Y-101681498D01*
X115580001Y-101669644D01*
X115516018Y-101652500D01*
X115516016Y-101652500D01*
X115465102Y-101652500D01*
X115457507Y-101650032D01*
X115449619Y-101651282D01*
X115428962Y-101640757D01*
X115406911Y-101633593D01*
X115395101Y-101623506D01*
X115346601Y-101575010D01*
X115318821Y-101520495D01*
X115328391Y-101460063D01*
X115359522Y-101427265D01*
X115358117Y-101425434D01*
X115363256Y-101421490D01*
X115363258Y-101421487D01*
X115363263Y-101421485D01*
X115442485Y-101342263D01*
X115496614Y-101248509D01*
X115498501Y-101245241D01*
X115498501Y-101245239D01*
X115498503Y-101245237D01*
X115527500Y-101137018D01*
X115527500Y-101024982D01*
X115498503Y-100916763D01*
X115498501Y-100916760D01*
X115498501Y-100916758D01*
X115442486Y-100819739D01*
X115442485Y-100819737D01*
X115363263Y-100740515D01*
X115363260Y-100740513D01*
X115266240Y-100684498D01*
X115266242Y-100684498D01*
X115224251Y-100673247D01*
X115158018Y-100655500D01*
X115158016Y-100655500D01*
X115107133Y-100655500D01*
X115048942Y-100636593D01*
X115037128Y-100626502D01*
X114569835Y-100159191D01*
X113780986Y-99370310D01*
X110278481Y-95867667D01*
X110278481Y-95867666D01*
X110237785Y-95826970D01*
X110187067Y-95776249D01*
X110187064Y-95776247D01*
X110187063Y-95776246D01*
X110187059Y-95776244D01*
X110187058Y-95776243D01*
X110187055Y-95776242D01*
X110187054Y-95776241D01*
X110120556Y-95748695D01*
X110120556Y-95748696D01*
X110120554Y-95748695D01*
X110089036Y-95735640D01*
X110087379Y-95734883D01*
X110085807Y-95734302D01*
X110085802Y-95734300D01*
X110085800Y-95734300D01*
X94749306Y-95734300D01*
X94694506Y-95734299D01*
X94694504Y-95734300D01*
X94694500Y-95734300D01*
X94690176Y-95736090D01*
X94690170Y-95736091D01*
X94655224Y-95750568D01*
X94655220Y-95750570D01*
X94593247Y-95776238D01*
X94593244Y-95776240D01*
X89468842Y-100900443D01*
X89452522Y-100916763D01*
X89452521Y-100916763D01*
X89391346Y-100977936D01*
X89391346Y-100977937D01*
X89391344Y-100977940D01*
X89391343Y-100977942D01*
X89391337Y-100977955D01*
X89391333Y-100977965D01*
X89390960Y-100978866D01*
X89390878Y-100978961D01*
X89390613Y-100979543D01*
X89390455Y-100979471D01*
X89389805Y-100980593D01*
X89389638Y-100980496D01*
X89389636Y-100980501D01*
X89389589Y-100980470D01*
X89351219Y-101025388D01*
X89291722Y-101039665D01*
X89235197Y-101016244D01*
X89203233Y-100964072D01*
X89200500Y-100940971D01*
X89200500Y-94299500D01*
X89219407Y-94241309D01*
X89268907Y-94205345D01*
X89299500Y-94200500D01*
X115700500Y-94200500D01*
X115758691Y-94219407D01*
G37*
%TD.AperFunction*%
%TA.AperFunction,NonConductor*%
G36*
X90714303Y-109528182D02*
G01*
X91719678Y-110533558D01*
X91719679Y-110533558D01*
X91719680Y-110533559D01*
X91820934Y-110575500D01*
X91820936Y-110575500D01*
X92179063Y-110575500D01*
X92179064Y-110575500D01*
X92280322Y-110533557D01*
X92326778Y-110487100D01*
X92340745Y-110479984D01*
X92351830Y-110468898D01*
X92367318Y-110466443D01*
X92381292Y-110459324D01*
X92396777Y-110461776D01*
X92412262Y-110459323D01*
X92426235Y-110466441D01*
X92441724Y-110468895D01*
X92466780Y-110487098D01*
X92475977Y-110496294D01*
X92495500Y-110515816D01*
X92523280Y-110570330D01*
X92524500Y-110585822D01*
X92524500Y-110756954D01*
X92556622Y-110834503D01*
X92556622Y-110834504D01*
X92566441Y-110858210D01*
X92566442Y-110858211D01*
X92566443Y-110858213D01*
X93083280Y-111375051D01*
X93112934Y-111387333D01*
X93112936Y-111387335D01*
X93112937Y-111387335D01*
X93129576Y-111394227D01*
X93184539Y-111416994D01*
X93355723Y-111416994D01*
X93413914Y-111435901D01*
X93425725Y-111445988D01*
X94275231Y-112295447D01*
X94275237Y-112295453D01*
X94277567Y-112297782D01*
X94297342Y-112317557D01*
X94297343Y-112317557D01*
X94297348Y-112317562D01*
X94350080Y-112339402D01*
X94350081Y-112339403D01*
X94350082Y-112339403D01*
X94350084Y-112339404D01*
X94398600Y-112359500D01*
X94398605Y-112359500D01*
X94398606Y-112359500D01*
X94398608Y-112359501D01*
X94435141Y-112359500D01*
X95155644Y-112359500D01*
X95161783Y-112361494D01*
X95168124Y-112360290D01*
X95187859Y-112369967D01*
X95213835Y-112378407D01*
X95223467Y-112386382D01*
X95224591Y-112387439D01*
X95261637Y-112424485D01*
X95267714Y-112427993D01*
X95276083Y-112435864D01*
X95285535Y-112453088D01*
X95298688Y-112467686D01*
X95299910Y-112479280D01*
X95305520Y-112489502D01*
X95303043Y-112508994D01*
X95305103Y-112528534D01*
X95299171Y-112539464D01*
X95297807Y-112550199D01*
X95287257Y-112561416D01*
X95278268Y-112577981D01*
X92269008Y-115587622D01*
X92214493Y-115615403D01*
X92154061Y-115605835D01*
X92110793Y-115562574D01*
X92100000Y-115517623D01*
X92100000Y-115453424D01*
X92072915Y-115282420D01*
X92019411Y-115117751D01*
X91940804Y-114963475D01*
X91940800Y-114963469D01*
X91936290Y-114957262D01*
X91936289Y-114957262D01*
X91482962Y-115410590D01*
X91465925Y-115347007D01*
X91400099Y-115232993D01*
X91307007Y-115139901D01*
X91192993Y-115074075D01*
X91129407Y-115057036D01*
X91582736Y-114603708D01*
X91576524Y-114599196D01*
X91422248Y-114520588D01*
X91257579Y-114467084D01*
X91086575Y-114440000D01*
X90913425Y-114440000D01*
X90742420Y-114467084D01*
X90577751Y-114520588D01*
X90423478Y-114599194D01*
X90417262Y-114603708D01*
X90870591Y-115057037D01*
X90807007Y-115074075D01*
X90692993Y-115139901D01*
X90599901Y-115232993D01*
X90534075Y-115347007D01*
X90517037Y-115410591D01*
X90063707Y-114957261D01*
X90038628Y-114959236D01*
X89979132Y-114944956D01*
X89939394Y-114898432D01*
X89931856Y-114860542D01*
X89931856Y-114129076D01*
X89950763Y-114070885D01*
X90000263Y-114034921D01*
X90061449Y-114034921D01*
X90068745Y-114037613D01*
X90071763Y-114038863D01*
X90071769Y-114038867D01*
X90101424Y-114044765D01*
X90130241Y-114050498D01*
X90130246Y-114050498D01*
X90130252Y-114050500D01*
X90130253Y-114050500D01*
X91869747Y-114050500D01*
X91869748Y-114050500D01*
X91928231Y-114038867D01*
X91994552Y-113994552D01*
X92038867Y-113928231D01*
X92050500Y-113869748D01*
X92050500Y-112130252D01*
X92038867Y-112071769D01*
X91994552Y-112005448D01*
X91994548Y-112005445D01*
X91928233Y-111961134D01*
X91928231Y-111961133D01*
X91928228Y-111961132D01*
X91928227Y-111961132D01*
X91869758Y-111949501D01*
X91869748Y-111949500D01*
X91869747Y-111949500D01*
X91372919Y-111949500D01*
X91367233Y-111947652D01*
X91361371Y-111948824D01*
X91338586Y-111938344D01*
X91314728Y-111930593D01*
X91311213Y-111925755D01*
X91305783Y-111923258D01*
X91293510Y-111901389D01*
X91278764Y-111881093D01*
X91275839Y-111869901D01*
X91275580Y-111868605D01*
X91275493Y-111868164D01*
X91253943Y-111816158D01*
X91253946Y-111816156D01*
X91253937Y-111816145D01*
X91233557Y-111766942D01*
X91233556Y-111766941D01*
X91233554Y-111766935D01*
X91233538Y-111766911D01*
X91189885Y-111723270D01*
X91189876Y-111723261D01*
X91156058Y-111689443D01*
X91156042Y-111689436D01*
X90590996Y-111124545D01*
X90574306Y-111107860D01*
X90546521Y-111053347D01*
X90545300Y-111037847D01*
X90545300Y-109598187D01*
X90564207Y-109539996D01*
X90613707Y-109504032D01*
X90674893Y-109504032D01*
X90714303Y-109528182D01*
G37*
%TD.AperFunction*%
%TA.AperFunction,NonConductor*%
G36*
X106569004Y-103476619D02*
G01*
X106886504Y-103794119D01*
X106914281Y-103848636D01*
X106915500Y-103864123D01*
X106915500Y-107724500D01*
X106915496Y-107778779D01*
X106915500Y-107778788D01*
X106915500Y-107778800D01*
X106917117Y-107782705D01*
X106917118Y-107782709D01*
X106934018Y-107823506D01*
X106934019Y-107823514D01*
X106934021Y-107823514D01*
X106957431Y-107880041D01*
X106957440Y-107880055D01*
X106988283Y-107910898D01*
X106988281Y-107910899D01*
X106988288Y-107910903D01*
X113494142Y-114417751D01*
X113521915Y-114472269D01*
X113512339Y-114532701D01*
X113469080Y-114575958D01*
X113423478Y-114599194D01*
X113417262Y-114603708D01*
X113870591Y-115057037D01*
X113807007Y-115074075D01*
X113692993Y-115139901D01*
X113599901Y-115232993D01*
X113534075Y-115347007D01*
X113517037Y-115410591D01*
X113063708Y-114957262D01*
X113059194Y-114963478D01*
X112980588Y-115117751D01*
X112927084Y-115282420D01*
X112900000Y-115453424D01*
X112900000Y-115626575D01*
X112927084Y-115797579D01*
X112980588Y-115962248D01*
X113059196Y-116116524D01*
X113063708Y-116122735D01*
X113517036Y-115669406D01*
X113534075Y-115732993D01*
X113599901Y-115847007D01*
X113692993Y-115940099D01*
X113807007Y-116005925D01*
X113870589Y-116022962D01*
X113417262Y-116476289D01*
X113417262Y-116476290D01*
X113423469Y-116480800D01*
X113423475Y-116480804D01*
X113577751Y-116559411D01*
X113742420Y-116612915D01*
X113913425Y-116640000D01*
X114086575Y-116640000D01*
X114257579Y-116612915D01*
X114422248Y-116559411D01*
X114576522Y-116480805D01*
X114691309Y-116397408D01*
X114749500Y-116378501D01*
X114807691Y-116397408D01*
X114843655Y-116446908D01*
X114848500Y-116477501D01*
X114848500Y-116800877D01*
X114829593Y-116859068D01*
X114819503Y-116870881D01*
X114575292Y-117115091D01*
X114520776Y-117142868D01*
X114467404Y-117136551D01*
X114306420Y-117069870D01*
X114103467Y-117029500D01*
X114103465Y-117029500D01*
X113896535Y-117029500D01*
X113896532Y-117029500D01*
X113693581Y-117069869D01*
X113502402Y-117149058D01*
X113330348Y-117264020D01*
X113184020Y-117410348D01*
X113069058Y-117582402D01*
X112989869Y-117773581D01*
X112949500Y-117976532D01*
X112949500Y-118183467D01*
X112989869Y-118386418D01*
X113069058Y-118577597D01*
X113184020Y-118749651D01*
X113184023Y-118749655D01*
X113330345Y-118895977D01*
X113502402Y-119010941D01*
X113693580Y-119090130D01*
X113896535Y-119130500D01*
X113896536Y-119130500D01*
X114103464Y-119130500D01*
X114103465Y-119130500D01*
X114306420Y-119090130D01*
X114497598Y-119010941D01*
X114669655Y-118895977D01*
X114815977Y-118749655D01*
X114930941Y-118577598D01*
X115009036Y-118389058D01*
X115048773Y-118342535D01*
X115108267Y-118328251D01*
X115164795Y-118351666D01*
X115196765Y-118403835D01*
X115199500Y-118426946D01*
X115199500Y-120273053D01*
X115180593Y-120331244D01*
X115131093Y-120367208D01*
X115069907Y-120367208D01*
X115020407Y-120331244D01*
X115009036Y-120310939D01*
X114930941Y-120122402D01*
X114815979Y-119950348D01*
X114815977Y-119950345D01*
X114669655Y-119804023D01*
X114669651Y-119804020D01*
X114497597Y-119689058D01*
X114306418Y-119609869D01*
X114103467Y-119569500D01*
X114103465Y-119569500D01*
X113896535Y-119569500D01*
X113896532Y-119569500D01*
X113693581Y-119609869D01*
X113502398Y-119689060D01*
X113498113Y-119691351D01*
X113497506Y-119690216D01*
X113444089Y-119705279D01*
X113386686Y-119684099D01*
X113377976Y-119676360D01*
X103646496Y-109944880D01*
X103642869Y-109937762D01*
X103636407Y-109933067D01*
X103629243Y-109911018D01*
X103618719Y-109890363D01*
X103617500Y-109874876D01*
X103617500Y-109811122D01*
X103636407Y-109752931D01*
X103646494Y-109741121D01*
X103662558Y-109725058D01*
X103704500Y-109623800D01*
X103704500Y-109514200D01*
X103704500Y-105586055D01*
X103723407Y-105527864D01*
X103772907Y-105491900D01*
X103834093Y-105491900D01*
X103852998Y-105500318D01*
X103871017Y-105510721D01*
X103882759Y-105517501D01*
X103882760Y-105517501D01*
X103882763Y-105517503D01*
X103990982Y-105546500D01*
X103990984Y-105546500D01*
X104109357Y-105546500D01*
X104167548Y-105565407D01*
X104203512Y-105614907D01*
X104204980Y-105619865D01*
X104222497Y-105685237D01*
X104222498Y-105685239D01*
X104222499Y-105685242D01*
X104278353Y-105781983D01*
X104278515Y-105782263D01*
X104357737Y-105861485D01*
X104390079Y-105880157D01*
X104454759Y-105917501D01*
X104454757Y-105917501D01*
X104454761Y-105917502D01*
X104454763Y-105917503D01*
X104562982Y-105946500D01*
X104562984Y-105946500D01*
X104675016Y-105946500D01*
X104675018Y-105946500D01*
X104783237Y-105917503D01*
X104783239Y-105917501D01*
X104783241Y-105917501D01*
X104823914Y-105894018D01*
X104880263Y-105861485D01*
X104959485Y-105782263D01*
X105015503Y-105685237D01*
X105044500Y-105577018D01*
X105044500Y-105464982D01*
X105015503Y-105356763D01*
X105015501Y-105356760D01*
X105015501Y-105356758D01*
X104959486Y-105259739D01*
X104959485Y-105259737D01*
X104880263Y-105180515D01*
X104834755Y-105154241D01*
X104824999Y-105148608D01*
X104811152Y-105133229D01*
X104794407Y-105121063D01*
X104791137Y-105110999D01*
X104784059Y-105103138D01*
X104775500Y-105062872D01*
X104775500Y-104949000D01*
X104794407Y-104890809D01*
X104843907Y-104854845D01*
X104845388Y-104854610D01*
X104850000Y-104849999D01*
X104850000Y-104629687D01*
X104850477Y-104619978D01*
X104850500Y-104619744D01*
X104850500Y-103950001D01*
X105150000Y-103950001D01*
X105150000Y-104849999D01*
X105150001Y-104850000D01*
X105174623Y-104850000D01*
X105174624Y-104849999D01*
X105230685Y-104838848D01*
X105269315Y-104838848D01*
X105325375Y-104849999D01*
X105325377Y-104850000D01*
X105349999Y-104850000D01*
X105350000Y-104849999D01*
X105350000Y-103950001D01*
X105650000Y-103950001D01*
X105650000Y-104849999D01*
X105650001Y-104850000D01*
X105674623Y-104850000D01*
X105674624Y-104849999D01*
X105730685Y-104838848D01*
X105769315Y-104838848D01*
X105825375Y-104849999D01*
X105825377Y-104850000D01*
X105849999Y-104850000D01*
X105850000Y-104849999D01*
X105850000Y-103950001D01*
X106150000Y-103950001D01*
X106150000Y-104849999D01*
X106150001Y-104850000D01*
X106174623Y-104850000D01*
X106174624Y-104849999D01*
X106247546Y-104835493D01*
X106247548Y-104835492D01*
X106330237Y-104780241D01*
X106330241Y-104780237D01*
X106385492Y-104697548D01*
X106385493Y-104697546D01*
X106399999Y-104624624D01*
X106400000Y-104624622D01*
X106400000Y-103950001D01*
X106399999Y-103950000D01*
X106150001Y-103950000D01*
X106150000Y-103950001D01*
X105850000Y-103950001D01*
X105849999Y-103950000D01*
X105650001Y-103950000D01*
X105650000Y-103950001D01*
X105350000Y-103950001D01*
X105349999Y-103950000D01*
X105150001Y-103950000D01*
X105150000Y-103950001D01*
X104850500Y-103950001D01*
X104850500Y-103899000D01*
X104869407Y-103840809D01*
X104918907Y-103804845D01*
X104949500Y-103800000D01*
X104999999Y-103800000D01*
X105000000Y-103799999D01*
X105000000Y-103749000D01*
X105018907Y-103690809D01*
X105068407Y-103654845D01*
X105099000Y-103650000D01*
X106399999Y-103650000D01*
X106400000Y-103649999D01*
X106400000Y-103546623D01*
X106418907Y-103488432D01*
X106468407Y-103452468D01*
X106529593Y-103452468D01*
X106569004Y-103476619D01*
G37*
%TD.AperFunction*%
M02*
