%TF.GenerationSoftware,KiCad,Pcbnew,9.0.8*%
%TF.CreationDate,2026-09-30T21:03:40-04:00*%
%TF.ProjectId,pmgr_interposer_v2,706d6772-5f69-46e7-9465-72706f736572,rev?*%
%TF.SameCoordinates,Original*%
%TF.FileFunction,Paste,Top*%
%TF.FilePolarity,Positive*%
%FSLAX46Y46*%
G04 Gerber Fmt 4.6, Leading zero omitted, Abs format (unit mm)*
G04 Created by KiCad (PCBNEW 9.0.8) date 2026-09-30 21:03:40*
%MOMM*%
%LPD*%
G01*
G04 APERTURE LIST*
%ADD10R,0.280000X1.200000*%
G04 APERTURE END LIST*
D10*
%TO.C,J1*%
X94000000Y-98000000D03*
X94000000Y-102000000D03*
X94500000Y-98000000D03*
X94500000Y-102000000D03*
X95000000Y-98000000D03*
X95000000Y-102000000D03*
X95500000Y-98000000D03*
X95500000Y-102000000D03*
X96000000Y-98000000D03*
X96000000Y-102000000D03*
X96500000Y-98000000D03*
X96500000Y-102000000D03*
X97000000Y-98000000D03*
X97000000Y-102000000D03*
X97500000Y-98000000D03*
X97500000Y-102000000D03*
X98000000Y-98000000D03*
X98000000Y-102000000D03*
X98500000Y-98000000D03*
X98500000Y-102000000D03*
X99000000Y-98000000D03*
X99000000Y-102000000D03*
X99500000Y-98000000D03*
X99500000Y-102000000D03*
X100000000Y-98000000D03*
X100000000Y-102000000D03*
X100500000Y-98000000D03*
X100500000Y-102000000D03*
X101000000Y-98000000D03*
X101000000Y-102000000D03*
X101500000Y-98000000D03*
X101500000Y-102000000D03*
X102000000Y-98000000D03*
X102000000Y-102000000D03*
X102500000Y-98000000D03*
X102500000Y-102000000D03*
X103000000Y-98000000D03*
X103000000Y-102000000D03*
X103500000Y-98000000D03*
X103500000Y-102000000D03*
X104000000Y-98000000D03*
X104000000Y-102000000D03*
X104500000Y-98000000D03*
X104500000Y-102000000D03*
X105000000Y-98000000D03*
X105000000Y-102000000D03*
X105500000Y-98000000D03*
X105500000Y-102000000D03*
X106000000Y-98000000D03*
X106000000Y-102000000D03*
%TD*%
M02*
