%TF.GenerationSoftware,KiCad,Pcbnew,9.0.8*%
%TF.CreationDate,2026-09-30T21:29:14-04:00*%
%TF.ProjectId,pmgr_interposer_v2,706d6772-5f69-46e7-9465-72706f736572,rev?*%
%TF.SameCoordinates,Original*%
%TF.FileFunction,Copper,L4,Bot*%
%TF.FilePolarity,Positive*%
%FSLAX46Y46*%
G04 Gerber Fmt 4.6, Leading zero omitted, Abs format (unit mm)*
G04 Created by KiCad (PCBNEW 9.0.8) date 2026-09-30 21:29:14*
%MOMM*%
%LPD*%
G01*
G04 APERTURE LIST*
%TA.AperFunction,CastellatedPad*%
%ADD10C,0.650000*%
%TD*%
%TA.AperFunction,ViaPad*%
%ADD11C,0.450000*%
%TD*%
G04 APERTURE END LIST*
D10*
%TO.P,U1,1*%
%TO.N,VIAD4*%
X91850000Y-94400000D03*
%TO.P,U1,2*%
%TO.N,VIAD3*%
X91850000Y-95200000D03*
%TO.P,U1,3*%
%TO.N,VIAD2*%
X91850000Y-96000000D03*
%TO.P,U1,4*%
%TO.N,VIAD1*%
X91850000Y-96800000D03*
%TO.P,U1,5*%
%TO.N,VIAD0*%
X91850000Y-97600000D03*
%TO.P,U1,6*%
%TO.N,PMREQ_N*%
X91850000Y-98400000D03*
%TO.P,U1,7*%
%TO.N,PMACK_N*%
X91850000Y-99200000D03*
%TO.P,U1,8*%
%TO.N,PMINT_N*%
X91850000Y-100000000D03*
%TO.P,U1,9*%
%TO.N,ONESEC_N*%
X91850000Y-100800000D03*
%TO.P,U1,10*%
%TO.N,SOUND_OFF*%
X91850000Y-101600000D03*
%TO.P,U1,11*%
%TO.N,VIA_TEST*%
X91850000Y-102400000D03*
%TO.P,U1,12*%
%TO.N,SYS_RST_N*%
X91850000Y-103200000D03*
%TO.P,U1,13*%
%TO.N,RESET_N*%
X91850000Y-104000000D03*
%TO.P,U1,14*%
%TO.N,N/C*%
X91850000Y-104800000D03*
%TO.P,U1,15*%
%TO.N,SIXTYHZ*%
X91850000Y-105600000D03*
%TO.P,U1,16*%
%TO.N,N/C*%
X94400000Y-108150000D03*
%TO.P,U1,17*%
%TO.N,GND*%
X95200000Y-108150000D03*
%TO.P,U1,18*%
%TO.N,PMGR_RESET_N*%
X96000000Y-108150000D03*
%TO.P,U1,19*%
%TO.N,PMGCLK_F*%
X96800000Y-108150000D03*
%TO.P,U1,20*%
%TO.N,N/C*%
X97600000Y-108150000D03*
%TO.P,U1,21*%
X98400000Y-108150000D03*
%TO.P,U1,22*%
X99200000Y-108150000D03*
%TO.P,U1,23*%
X100000000Y-108150000D03*
%TO.P,U1,24*%
X100800000Y-108150000D03*
%TO.P,U1,25*%
%TO.N,MODEM_INS_N*%
X101600000Y-108150000D03*
%TO.P,U1,26*%
%TO.N,DISP_BLANK_N*%
X102400000Y-108150000D03*
%TO.P,U1,27*%
%TO.N,FDB*%
X103200000Y-108150000D03*
%TO.P,U1,28*%
%TO.N,PMGR_ADB*%
X104000000Y-108150000D03*
%TO.P,U1,29*%
%TO.N,MODEM_AB*%
X104800000Y-108150000D03*
%TO.P,U1,30*%
%TO.N,RING_DETECT*%
X105600000Y-108150000D03*
%TO.P,U1,31*%
%TO.N,HICHG*%
X108150000Y-105600000D03*
%TO.P,U1,32*%
%TO.N,KBD_RST_N*%
X108150000Y-104800000D03*
%TO.P,U1,33*%
%TO.N,CHRG_ON_N*%
X108150000Y-104000000D03*
%TO.P,U1,34*%
%TO.N,STOP_CLK*%
X108150000Y-103200000D03*
%TO.P,U1,35*%
%TO.N,AKD*%
X108150000Y-102400000D03*
%TO.P,U1,36*%
%TO.N,N/C*%
X108150000Y-101600000D03*
%TO.P,U1,37*%
%TO.N,SYS_PWR_N*%
X108150000Y-100800000D03*
%TO.P,U1,38*%
%TO.N,MINUS5_EN*%
X108150000Y-100000000D03*
%TO.P,U1,39*%
%TO.N,SOUND_PWR_N*%
X108150000Y-99200000D03*
%TO.P,U1,40*%
%TO.N,SERIAL_PWR_N*%
X108150000Y-98400000D03*
%TO.P,U1,41*%
%TO.N,MODEM_PWR_N*%
X108150000Y-97600000D03*
%TO.P,U1,42*%
%TO.N,HD_PWR_N*%
X108150000Y-96800000D03*
%TO.P,U1,43*%
%TO.N,SCC_CNTRL*%
X108150000Y-96000000D03*
%TO.P,U1,44*%
%TO.N,IWM_CNTRL*%
X108150000Y-95200000D03*
%TO.P,U1,45*%
%TO.N,+5V*%
X108150000Y-94400000D03*
%TO.P,U1,46*%
%TO.N,N/C*%
X105600000Y-91850000D03*
%TO.P,U1,47*%
X104800000Y-91850000D03*
%TO.P,U1,48*%
X104000000Y-91850000D03*
%TO.P,U1,49*%
X103200000Y-91850000D03*
%TO.P,U1,50*%
%TO.N,OFF_HOOK*%
X102400000Y-91850000D03*
%TO.P,U1,51*%
%TO.N,SOUND_LATCH*%
X101600000Y-91850000D03*
%TO.P,U1,52*%
%TO.N,AD_FILTER*%
X100800000Y-91850000D03*
%TO.P,U1,53*%
%TO.N,GND*%
X100000000Y-91850000D03*
%TO.P,U1,54*%
%TO.N,PMGR_IN0*%
X99200000Y-91850000D03*
%TO.P,U1,55*%
%TO.N,+5V*%
X98400000Y-91850000D03*
%TO.P,U1,56*%
X97600000Y-91850000D03*
%TO.P,U1,57*%
%TO.N,PMGR_PWM*%
X96800000Y-91850000D03*
%TO.P,U1,58*%
%TO.N,VIAD7*%
X96000000Y-91850000D03*
%TO.P,U1,59*%
%TO.N,VIAD6*%
X95200000Y-91850000D03*
%TO.P,U1,60*%
%TO.N,VIAD5*%
X94400000Y-91850000D03*
%TD*%
D11*
%TO.N,AKD*%
X102556300Y-103026500D03*
%TO.N,CHRG_ON_N*%
X103500000Y-103029600D03*
%TO.N,HICHG*%
X106464000Y-100765600D03*
%TO.N,MINUS5_EN*%
X101306600Y-100616000D03*
%TO.N,SERIAL_PWR_N*%
X103525000Y-99387500D03*
%TO.N,STOP_CLK*%
X104222700Y-103502400D03*
%TO.N,VIAD4*%
X93539900Y-97173300D03*
%TO.N,+5V*%
X104781500Y-99381400D03*
%TO.N,GND*%
X94000000Y-106500000D03*
X107000000Y-93000000D03*
X93000000Y-93000000D03*
X105301200Y-102977200D03*
X105440600Y-99387500D03*
X106500000Y-106500000D03*
%TD*%
M02*
