%TF.GenerationSoftware,KiCad,Pcbnew,9.0.8*%
%TF.CreationDate,2026-09-30T21:27:16-04:00*%
%TF.ProjectId,pmgr_interposer_v2,706d6772-5f69-46e7-9465-72706f736572,rev?*%
%TF.SameCoordinates,Original*%
%TF.FileFunction,Copper,L1,Top*%
%TF.FilePolarity,Positive*%
%FSLAX46Y46*%
G04 Gerber Fmt 4.6, Leading zero omitted, Abs format (unit mm)*
G04 Created by KiCad (PCBNEW 9.0.8) date 2026-09-30 21:27:16*
%MOMM*%
%LPD*%
G01*
G04 APERTURE LIST*
%TA.AperFunction,CastellatedPad*%
%ADD10C,0.650000*%
%TD*%
%TA.AperFunction,SMDPad,CuDef*%
%ADD11R,0.300000X1.600000*%
%TD*%
%TA.AperFunction,ViaPad*%
%ADD12C,0.450000*%
%TD*%
%TA.AperFunction,Conductor*%
%ADD13C,0.150000*%
%TD*%
G04 APERTURE END LIST*
D10*
%TO.P,U1,1*%
%TO.N,VIAD4*%
X91850000Y-94400000D03*
%TO.P,U1,2*%
%TO.N,VIAD3*%
X91850000Y-95200000D03*
%TO.P,U1,3*%
%TO.N,VIAD2*%
X91850000Y-96000000D03*
%TO.P,U1,4*%
%TO.N,VIAD1*%
X91850000Y-96800000D03*
%TO.P,U1,5*%
%TO.N,VIAD0*%
X91850000Y-97600000D03*
%TO.P,U1,6*%
%TO.N,PMREQ_N*%
X91850000Y-98400000D03*
%TO.P,U1,7*%
%TO.N,PMACK_N*%
X91850000Y-99200000D03*
%TO.P,U1,8*%
%TO.N,PMINT_N*%
X91850000Y-100000000D03*
%TO.P,U1,9*%
%TO.N,ONESEC_N*%
X91850000Y-100800000D03*
%TO.P,U1,10*%
%TO.N,SOUND_OFF*%
X91850000Y-101600000D03*
%TO.P,U1,11*%
%TO.N,VIA_TEST*%
X91850000Y-102400000D03*
%TO.P,U1,12*%
%TO.N,SYS_RST_N*%
X91850000Y-103200000D03*
%TO.P,U1,13*%
%TO.N,RESET_N*%
X91850000Y-104000000D03*
%TO.P,U1,14*%
%TO.N,N/C*%
X91850000Y-104800000D03*
%TO.P,U1,15*%
%TO.N,SIXTYHZ*%
X91850000Y-105600000D03*
%TO.P,U1,16*%
%TO.N,N/C*%
X94400000Y-108150000D03*
%TO.P,U1,17*%
%TO.N,GND*%
X95200000Y-108150000D03*
%TO.P,U1,18*%
%TO.N,PMGR_RESET_N*%
X96000000Y-108150000D03*
%TO.P,U1,19*%
%TO.N,PMGCLK_F*%
X96800000Y-108150000D03*
%TO.P,U1,20*%
%TO.N,N/C*%
X97600000Y-108150000D03*
%TO.P,U1,21*%
X98400000Y-108150000D03*
%TO.P,U1,22*%
X99200000Y-108150000D03*
%TO.P,U1,23*%
X100000000Y-108150000D03*
%TO.P,U1,24*%
X100800000Y-108150000D03*
%TO.P,U1,25*%
%TO.N,MODEM_INS_N*%
X101600000Y-108150000D03*
%TO.P,U1,26*%
%TO.N,DISP_BLANK_N*%
X102400000Y-108150000D03*
%TO.P,U1,27*%
%TO.N,FDB*%
X103200000Y-108150000D03*
%TO.P,U1,28*%
%TO.N,PMGR_ADB*%
X104000000Y-108150000D03*
%TO.P,U1,29*%
%TO.N,MODEM_AB*%
X104800000Y-108150000D03*
%TO.P,U1,30*%
%TO.N,RING_DETECT*%
X105600000Y-108150000D03*
%TO.P,U1,31*%
%TO.N,HICHG*%
X108150000Y-105600000D03*
%TO.P,U1,32*%
%TO.N,KBD_RST_N*%
X108150000Y-104800000D03*
%TO.P,U1,33*%
%TO.N,CHRG_ON_N*%
X108150000Y-104000000D03*
%TO.P,U1,34*%
%TO.N,STOP_CLK*%
X108150000Y-103200000D03*
%TO.P,U1,35*%
%TO.N,AKD*%
X108150000Y-102400000D03*
%TO.P,U1,36*%
%TO.N,N/C*%
X108150000Y-101600000D03*
%TO.P,U1,37*%
%TO.N,SYS_PWR_N*%
X108150000Y-100800000D03*
%TO.P,U1,38*%
%TO.N,MINUS5_EN*%
X108150000Y-100000000D03*
%TO.P,U1,39*%
%TO.N,SOUND_PWR_N*%
X108150000Y-99200000D03*
%TO.P,U1,40*%
%TO.N,SERIAL_PWR_N*%
X108150000Y-98400000D03*
%TO.P,U1,41*%
%TO.N,MODEM_PWR_N*%
X108150000Y-97600000D03*
%TO.P,U1,42*%
%TO.N,HD_PWR_N*%
X108150000Y-96800000D03*
%TO.P,U1,43*%
%TO.N,SCC_CNTRL*%
X108150000Y-96000000D03*
%TO.P,U1,44*%
%TO.N,IWM_CNTRL*%
X108150000Y-95200000D03*
%TO.P,U1,45*%
%TO.N,+5V*%
X108150000Y-94400000D03*
%TO.P,U1,46*%
%TO.N,N/C*%
X105600000Y-91850000D03*
%TO.P,U1,47*%
X104800000Y-91850000D03*
%TO.P,U1,48*%
X104000000Y-91850000D03*
%TO.P,U1,49*%
X103200000Y-91850000D03*
%TO.P,U1,50*%
%TO.N,OFF_HOOK*%
X102400000Y-91850000D03*
%TO.P,U1,51*%
%TO.N,SOUND_LATCH*%
X101600000Y-91850000D03*
%TO.P,U1,52*%
%TO.N,AD_FILTER*%
X100800000Y-91850000D03*
%TO.P,U1,53*%
%TO.N,GND*%
X100000000Y-91850000D03*
%TO.P,U1,54*%
%TO.N,PMGR_IN0*%
X99200000Y-91850000D03*
%TO.P,U1,55*%
%TO.N,+5V*%
X98400000Y-91850000D03*
%TO.P,U1,56*%
X97600000Y-91850000D03*
%TO.P,U1,57*%
%TO.N,PMGR_PWM*%
X96800000Y-91850000D03*
%TO.P,U1,58*%
%TO.N,VIAD7*%
X96000000Y-91850000D03*
%TO.P,U1,59*%
%TO.N,VIAD6*%
X95200000Y-91850000D03*
%TO.P,U1,60*%
%TO.N,VIAD5*%
X94400000Y-91850000D03*
%TD*%
D11*
%TO.P,J1,1*%
%TO.N,PMINT_N*%
X94000000Y-101800000D03*
%TO.P,J1,2*%
%TO.N,ONESEC_N*%
X94500000Y-101800000D03*
%TO.P,J1,3*%
%TO.N,SOUND_OFF*%
X95000000Y-101800000D03*
%TO.P,J1,4*%
%TO.N,VIA_TEST*%
X95500000Y-101800000D03*
%TO.P,J1,5*%
%TO.N,SYS_RST_N*%
X96000000Y-101800000D03*
%TO.P,J1,6*%
%TO.N,RESET_N*%
X96500000Y-101800000D03*
%TO.P,J1,7*%
%TO.N,SIXTYHZ*%
X97000000Y-101800000D03*
%TO.P,J1,8*%
%TO.N,PMGR_RESET_N*%
X97500000Y-101800000D03*
%TO.P,J1,9*%
%TO.N,PMGCLK_F*%
X98000000Y-101800000D03*
%TO.P,J1,10*%
%TO.N,MODEM_INS_N*%
X98500000Y-101800000D03*
%TO.P,J1,11*%
%TO.N,DISP_BLANK_N*%
X99000000Y-101800000D03*
%TO.P,J1,12*%
%TO.N,FDB*%
X99500000Y-101800000D03*
%TO.P,J1,13*%
%TO.N,PMGR_ADB*%
X100000000Y-101800000D03*
%TO.P,J1,14*%
%TO.N,MODEM_AB*%
X100500000Y-101800000D03*
%TO.P,J1,15*%
%TO.N,RING_DETECT*%
X101000000Y-101800000D03*
%TO.P,J1,16*%
%TO.N,MINUS5_EN*%
X101500000Y-101800000D03*
%TO.P,J1,17*%
%TO.N,SYS_PWR_N*%
X102000000Y-101800000D03*
%TO.P,J1,18*%
%TO.N,AKD*%
X102500000Y-101800000D03*
%TO.P,J1,19*%
%TO.N,STOP_CLK*%
X103000000Y-101800000D03*
%TO.P,J1,20*%
%TO.N,CHRG_ON_N*%
X103500000Y-101800000D03*
%TO.P,J1,21*%
%TO.N,KBD_RST_N*%
X104000000Y-101800000D03*
%TO.P,J1,22*%
%TO.N,HICHG*%
X104500000Y-101800000D03*
%TO.P,J1,23*%
%TO.N,GND*%
X105000000Y-101800000D03*
%TO.P,J1,24*%
X105500000Y-101800000D03*
%TO.P,J1,25*%
X106000000Y-101800000D03*
%TO.P,J1,26*%
%TO.N,VIAD4*%
X94000000Y-98200000D03*
%TO.P,J1,27*%
%TO.N,VIAD3*%
X94500000Y-98200000D03*
%TO.P,J1,28*%
%TO.N,VIAD2*%
X95000000Y-98200000D03*
%TO.P,J1,29*%
%TO.N,VIAD1*%
X95500000Y-98200000D03*
%TO.P,J1,30*%
%TO.N,VIAD0*%
X96000000Y-98200000D03*
%TO.P,J1,31*%
%TO.N,PMREQ_N*%
X96500000Y-98200000D03*
%TO.P,J1,32*%
%TO.N,PMACK_N*%
X97000000Y-98200000D03*
%TO.P,J1,33*%
%TO.N,VIAD5*%
X97500000Y-98200000D03*
%TO.P,J1,34*%
%TO.N,VIAD6*%
X98000000Y-98200000D03*
%TO.P,J1,35*%
%TO.N,VIAD7*%
X98500000Y-98200000D03*
%TO.P,J1,36*%
%TO.N,PMGR_PWM*%
X99000000Y-98200000D03*
%TO.P,J1,37*%
%TO.N,PMGR_IN0*%
X99500000Y-98200000D03*
%TO.P,J1,38*%
%TO.N,AD_FILTER*%
X100000000Y-98200000D03*
%TO.P,J1,39*%
%TO.N,SOUND_LATCH*%
X100500000Y-98200000D03*
%TO.P,J1,40*%
%TO.N,OFF_HOOK*%
X101000000Y-98200000D03*
%TO.P,J1,41*%
%TO.N,IWM_CNTRL*%
X101500000Y-98200000D03*
%TO.P,J1,42*%
%TO.N,SCC_CNTRL*%
X102000000Y-98200000D03*
%TO.P,J1,43*%
%TO.N,HD_PWR_N*%
X102500000Y-98200000D03*
%TO.P,J1,44*%
%TO.N,MODEM_PWR_N*%
X103000000Y-98200000D03*
%TO.P,J1,45*%
%TO.N,SERIAL_PWR_N*%
X103500000Y-98200000D03*
%TO.P,J1,46*%
%TO.N,SOUND_PWR_N*%
X104000000Y-98200000D03*
%TO.P,J1,47*%
%TO.N,+5V*%
X104500000Y-98200000D03*
%TO.P,J1,48*%
X105000000Y-98200000D03*
%TO.P,J1,49*%
%TO.N,GND*%
X105500000Y-98200000D03*
%TO.P,J1,50*%
%TO.N,N/C*%
X106000000Y-98200000D03*
%TD*%
D12*
%TO.N,AKD*%
X102556300Y-103026500D03*
%TO.N,CHRG_ON_N*%
X103500000Y-103029600D03*
%TO.N,HICHG*%
X106464000Y-100765600D03*
%TO.N,MINUS5_EN*%
X101306600Y-100616000D03*
%TO.N,SERIAL_PWR_N*%
X103525000Y-99387500D03*
%TO.N,STOP_CLK*%
X104222700Y-103502400D03*
%TO.N,VIAD4*%
X93539900Y-97173300D03*
%TO.N,+5V*%
X104781500Y-99381400D03*
%TO.N,GND*%
X94000000Y-106500000D03*
X107000000Y-93000000D03*
X93000000Y-93000000D03*
X105301200Y-102977200D03*
X105440600Y-99387500D03*
X106500000Y-106500000D03*
%TD*%
D13*
%TO.N,AD_FILTER*%
X100000000Y-98200000D02*
X100000000Y-92650000D01*
X100000000Y-92650000D02*
X100800000Y-91850000D01*
%TO.N,AKD*%
X102500000Y-102970200D02*
X102556300Y-103026500D01*
X102500000Y-101800000D02*
X102500000Y-102970200D01*
%TO.N,CHRG_ON_N*%
X103500000Y-103029600D02*
X103500000Y-101800000D01*
%TO.N,DISP_BLANK_N*%
X99000000Y-101800000D02*
X99000000Y-104750000D01*
X99000000Y-104750000D02*
X102400000Y-108150000D01*
%TO.N,FDB*%
X99500000Y-104450000D02*
X103200000Y-108150000D01*
X99500000Y-101800000D02*
X99500000Y-104450000D01*
%TO.N,HD_PWR_N*%
X102500000Y-97173300D02*
X103121800Y-96551500D01*
X107300000Y-96800000D02*
X108150000Y-96800000D01*
X107051500Y-96551500D02*
X107300000Y-96800000D01*
X102500000Y-98200000D02*
X102500000Y-97173300D01*
X103121800Y-96551500D02*
X107051500Y-96551500D01*
%TO.N,HICHG*%
X104500000Y-100773300D02*
X104821600Y-100451700D01*
X104821600Y-100451700D02*
X106150100Y-100451700D01*
X106150100Y-100451700D02*
X106464000Y-100765600D01*
X104500000Y-101800000D02*
X104500000Y-100773300D01*
%TO.N,IWM_CNTRL*%
X101500000Y-98200000D02*
X101500000Y-97173300D01*
X103473300Y-95200000D02*
X108150000Y-95200000D01*
X101500000Y-97173300D02*
X103473300Y-95200000D01*
%TO.N,KBD_RST_N*%
X106159100Y-104800000D02*
X104185800Y-102826700D01*
X104000000Y-101800000D02*
X104000000Y-102826700D01*
X108150000Y-104800000D02*
X106159100Y-104800000D01*
X104185800Y-102826700D02*
X104000000Y-102826700D01*
%TO.N,MINUS5_EN*%
X101500000Y-100773300D02*
X101463900Y-100773300D01*
X101500000Y-101800000D02*
X101500000Y-100773300D01*
X101463900Y-100773300D02*
X101306600Y-100616000D01*
%TO.N,MODEM_AB*%
X100500000Y-101800000D02*
X100500000Y-103850000D01*
X100500000Y-103850000D02*
X104800000Y-108150000D01*
%TO.N,MODEM_INS_N*%
X98500000Y-105050000D02*
X101600000Y-108150000D01*
X98500000Y-101800000D02*
X98500000Y-105050000D01*
%TO.N,MODEM_PWR_N*%
X105125000Y-96871600D02*
X105426600Y-97173200D01*
X105426600Y-97173300D02*
X107723300Y-97173300D01*
X107723300Y-97173300D02*
X108150000Y-97600000D01*
X103000000Y-98200000D02*
X103000000Y-97173300D01*
X103000000Y-97173300D02*
X103301700Y-96871600D01*
X105426600Y-97173200D02*
X105426600Y-97173300D01*
X103301700Y-96871600D02*
X105125000Y-96871600D01*
%TO.N,OFF_HOOK*%
X101000000Y-93250000D02*
X102400000Y-91850000D01*
X101000000Y-98200000D02*
X101000000Y-93250000D01*
%TO.N,ONESEC_N*%
X94500000Y-101800000D02*
X94500000Y-102826700D01*
X92475300Y-101553400D02*
X92475300Y-101425300D01*
X94500000Y-102826700D02*
X93748600Y-102826700D01*
X92475300Y-101425300D02*
X91850000Y-100800000D01*
X93748600Y-102826700D02*
X92475300Y-101553400D01*
%TO.N,PMACK_N*%
X95650000Y-100500000D02*
X93150000Y-100500000D01*
X97000000Y-99150000D02*
X95650000Y-100500000D01*
X93150000Y-100500000D02*
X91850000Y-99200000D01*
X97000000Y-98200000D02*
X97000000Y-99150000D01*
%TO.N,PMGCLK_F*%
X98000000Y-106950000D02*
X96800000Y-108150000D01*
X98000000Y-101800000D02*
X98000000Y-106950000D01*
%TO.N,PMGR_ADB*%
X100000000Y-101800000D02*
X100000000Y-104150000D01*
X100000000Y-104150000D02*
X104000000Y-108150000D01*
%TO.N,PMGR_IN0*%
X99500000Y-94000000D02*
X99500000Y-98200000D01*
X99200000Y-93700000D02*
X99500000Y-94000000D01*
X99200000Y-91850000D02*
X99200000Y-93700000D01*
%TO.N,PMGR_PWM*%
X99000000Y-98200000D02*
X99000000Y-94050000D01*
X99000000Y-94050000D02*
X96800000Y-91850000D01*
%TO.N,PMGR_RESET_N*%
X97500000Y-106650000D02*
X96000000Y-108150000D01*
X97500000Y-101800000D02*
X97500000Y-106650000D01*
%TO.N,PMINT_N*%
X94000000Y-101800000D02*
X93650000Y-101800000D01*
X93650000Y-101800000D02*
X91850000Y-100000000D01*
%TO.N,PMREQ_N*%
X96500000Y-98200000D02*
X96500000Y-99075736D01*
X93348000Y-100131800D02*
X92660900Y-99444700D01*
X96500000Y-99075736D02*
X95443936Y-100131800D01*
X92660900Y-99210900D02*
X91850000Y-98400000D01*
X95443936Y-100131800D02*
X93348000Y-100131800D01*
X92660900Y-99444700D02*
X92660900Y-99210900D01*
%TO.N,RESET_N*%
X91850000Y-104000000D02*
X91883500Y-104033500D01*
X96500000Y-101800000D02*
X96500000Y-102826700D01*
X95293200Y-104033500D02*
X96500000Y-102826700D01*
X91883500Y-104033500D02*
X95293200Y-104033500D01*
%TO.N,RING_DETECT*%
X101000000Y-103550000D02*
X105600000Y-108150000D01*
X101000000Y-101800000D02*
X101000000Y-103550000D01*
%TO.N,SCC_CNTRL*%
X102000000Y-97173300D02*
X103173300Y-96000000D01*
X103173300Y-96000000D02*
X108150000Y-96000000D01*
X102000000Y-98200000D02*
X102000000Y-97173300D01*
%TO.N,SERIAL_PWR_N*%
X103500000Y-99362500D02*
X103525000Y-99387500D01*
X103500000Y-98200000D02*
X103500000Y-99362500D01*
%TO.N,SIXTYHZ*%
X91850000Y-105600000D02*
X94226700Y-105600000D01*
X94226700Y-105600000D02*
X97000000Y-102826700D01*
X97000000Y-101800000D02*
X97000000Y-102826700D01*
%TO.N,SOUND_LATCH*%
X100500000Y-92950000D02*
X101600000Y-91850000D01*
X100500000Y-98200000D02*
X100500000Y-92950000D01*
%TO.N,SOUND_OFF*%
X91850000Y-101600000D02*
X93378400Y-103128400D01*
X93378400Y-103128400D02*
X94625000Y-103128400D01*
X95000000Y-101800000D02*
X95000000Y-102826700D01*
X94625000Y-103128400D02*
X94926600Y-102826800D01*
X94926600Y-102826800D02*
X94926600Y-102826700D01*
X94926600Y-102826700D02*
X95000000Y-102826700D01*
%TO.N,SOUND_PWR_N*%
X107501700Y-99848300D02*
X104561500Y-99848300D01*
X108150000Y-99200000D02*
X107501700Y-99848300D01*
X104561500Y-99848300D02*
X104000000Y-99286800D01*
X104000000Y-99286800D02*
X104000000Y-98200000D01*
%TO.N,STOP_CLK*%
X103008000Y-102834700D02*
X103000000Y-102826700D01*
X103008000Y-103189500D02*
X103008000Y-102834700D01*
X103000000Y-101800000D02*
X103000000Y-102826700D01*
X104222700Y-103502400D02*
X103320900Y-103502400D01*
X103320900Y-103502400D02*
X103008000Y-103189500D01*
%TO.N,SYS_PWR_N*%
X107500000Y-100150000D02*
X102623300Y-100150000D01*
X102623300Y-100150000D02*
X102000000Y-100773300D01*
X102000000Y-101800000D02*
X102000000Y-100773300D01*
X108150000Y-100800000D02*
X107500000Y-100150000D01*
%TO.N,SYS_RST_N*%
X96000000Y-101800000D02*
X96000000Y-102826700D01*
X95926600Y-102826800D02*
X95926600Y-102826700D01*
X95926600Y-102826700D02*
X96000000Y-102826700D01*
X92381800Y-103731800D02*
X95021600Y-103731800D01*
X95021600Y-103731800D02*
X95926600Y-102826800D01*
X91850000Y-103200000D02*
X92381800Y-103731800D01*
%TO.N,VIAD0*%
X96000000Y-98200000D02*
X96000000Y-99151472D01*
X92962600Y-99317500D02*
X92962600Y-98712600D01*
X93475200Y-99830100D02*
X92962600Y-99317500D01*
X92962600Y-98712600D02*
X91850000Y-97600000D01*
X95321372Y-99830100D02*
X93475200Y-99830100D01*
X96000000Y-99151472D02*
X95321372Y-99830100D01*
%TO.N,VIAD1*%
X95500000Y-98200000D02*
X95500000Y-99226700D01*
X93264400Y-98214400D02*
X91850000Y-96800000D01*
X93600200Y-99528400D02*
X93264400Y-99192600D01*
X95426600Y-99226800D02*
X95125000Y-99528400D01*
X95500000Y-99226700D02*
X95426600Y-99226700D01*
X95426600Y-99226700D02*
X95426600Y-99226800D01*
X93264400Y-99192600D02*
X93264400Y-98214400D01*
X95125000Y-99528400D02*
X93600200Y-99528400D01*
%TO.N,VIAD2*%
X93609800Y-98020900D02*
X92832800Y-97243900D01*
X93609800Y-99111300D02*
X93609800Y-98020900D01*
X93725200Y-99226700D02*
X93609800Y-99111300D01*
X95000000Y-99226700D02*
X93725200Y-99226700D01*
X92832800Y-96982800D02*
X91850000Y-96000000D01*
X92832800Y-97243900D02*
X92832800Y-96982800D01*
X95000000Y-98200000D02*
X95000000Y-99226700D01*
%TO.N,VIAD3*%
X94500000Y-98200000D02*
X94500000Y-97173300D01*
X94500000Y-97173300D02*
X92526700Y-95200000D01*
X92526700Y-95200000D02*
X91850000Y-95200000D01*
%TO.N,VIAD4*%
X94000000Y-98200000D02*
X94000000Y-97173300D01*
X94000000Y-97173300D02*
X93539900Y-97173300D01*
%TO.N,VIAD5*%
X97500000Y-98200000D02*
X97500000Y-94950000D01*
X97500000Y-94950000D02*
X94400000Y-91850000D01*
%TO.N,VIAD6*%
X98000000Y-94650000D02*
X95200000Y-91850000D01*
X98000000Y-98200000D02*
X98000000Y-94650000D01*
%TO.N,VIAD7*%
X98500000Y-94350000D02*
X96000000Y-91850000D01*
X98500000Y-98200000D02*
X98500000Y-94350000D01*
%TO.N,VIA_TEST*%
X94896600Y-103430100D02*
X95500000Y-102826700D01*
X92880100Y-103430100D02*
X94896600Y-103430100D01*
X95500000Y-101800000D02*
X95500000Y-102826700D01*
X91850000Y-102400000D02*
X92880100Y-103430100D01*
%TO.N,+5V*%
X104500000Y-97173300D02*
X105000000Y-97173300D01*
X104626800Y-99226700D02*
X104781500Y-99381400D01*
X105000000Y-98200000D02*
X105000000Y-97173300D01*
X104500000Y-98200000D02*
X104500000Y-99226700D01*
X104500000Y-99226700D02*
X104626800Y-99226700D01*
X104500000Y-98200000D02*
X104500000Y-97173300D01*
%TO.N,GND*%
X106000000Y-100773300D02*
X105500000Y-100773300D01*
X105500000Y-99226700D02*
X105440600Y-99286100D01*
X105500000Y-98200000D02*
X105500000Y-99226700D01*
X105000000Y-101800000D02*
X105000000Y-102826700D01*
X106000000Y-101800000D02*
X106000000Y-100773300D01*
X105000000Y-101800000D02*
X105000000Y-100773300D01*
X105000000Y-100773300D02*
X105500000Y-100773300D01*
X105500000Y-101800000D02*
X105500000Y-100773300D01*
X105150700Y-102826700D02*
X105301200Y-102977200D01*
X105440600Y-99286100D02*
X105440600Y-99387500D01*
X105000000Y-102826700D02*
X105150700Y-102826700D01*
%TD*%
M02*
