%TF.GenerationSoftware,KiCad,Pcbnew,9.0.8*%
%TF.CreationDate,2026-09-30T21:29:14-04:00*%
%TF.ProjectId,pmgr_interposer_v2,706d6772-5f69-46e7-9465-72706f736572,rev?*%
%TF.SameCoordinates,Original*%
%TF.FileFunction,Soldermask,Bot*%
%TF.FilePolarity,Negative*%
%FSLAX46Y46*%
G04 Gerber Fmt 4.6, Leading zero omitted, Abs format (unit mm)*
G04 Created by KiCad (PCBNEW 9.0.8) date 2026-09-30 21:29:14*
%MOMM*%
%LPD*%
G01*
G04 APERTURE LIST*
%ADD10C,0.650000*%
G04 APERTURE END LIST*
D10*
%TO.C,U1*%
X91850000Y-94400000D03*
X91850000Y-95200000D03*
X91850000Y-96000000D03*
X91850000Y-96800000D03*
X91850000Y-97600000D03*
X91850000Y-98400000D03*
X91850000Y-99200000D03*
X91850000Y-100000000D03*
X91850000Y-100800000D03*
X91850000Y-101600000D03*
X91850000Y-102400000D03*
X91850000Y-103200000D03*
X91850000Y-104000000D03*
X91850000Y-104800000D03*
X91850000Y-105600000D03*
X94400000Y-108150000D03*
X95200000Y-108150000D03*
X96000000Y-108150000D03*
X96800000Y-108150000D03*
X97600000Y-108150000D03*
X98400000Y-108150000D03*
X99200000Y-108150000D03*
X100000000Y-108150000D03*
X100800000Y-108150000D03*
X101600000Y-108150000D03*
X102400000Y-108150000D03*
X103200000Y-108150000D03*
X104000000Y-108150000D03*
X104800000Y-108150000D03*
X105600000Y-108150000D03*
X108150000Y-105600000D03*
X108150000Y-104800000D03*
X108150000Y-104000000D03*
X108150000Y-103200000D03*
X108150000Y-102400000D03*
X108150000Y-101600000D03*
X108150000Y-100800000D03*
X108150000Y-100000000D03*
X108150000Y-99200000D03*
X108150000Y-98400000D03*
X108150000Y-97600000D03*
X108150000Y-96800000D03*
X108150000Y-96000000D03*
X108150000Y-95200000D03*
X108150000Y-94400000D03*
X105600000Y-91850000D03*
X104800000Y-91850000D03*
X104000000Y-91850000D03*
X103200000Y-91850000D03*
X102400000Y-91850000D03*
X101600000Y-91850000D03*
X100800000Y-91850000D03*
X100000000Y-91850000D03*
X99200000Y-91850000D03*
X98400000Y-91850000D03*
X97600000Y-91850000D03*
X96800000Y-91850000D03*
X96000000Y-91850000D03*
X95200000Y-91850000D03*
X94400000Y-91850000D03*
%TD*%
M02*
