M48
; DRILL file {KiCad 9.0.8} date 2026-09-30T21:19:30-0400
; FORMAT={-:-/ absolute / metric / decimal}
; #@! TF.CreationDate,2026-09-30T21:19:30-04:00
; #@! TF.GenerationSoftware,Kicad,Pcbnew,9.0.8
; #@! TF.FileFunction,Plated,1,4,PTH
FMAT,2
METRIC
; #@! TA.AperFunction,Plated,PTH,ViaDrill
T1C0.200
; #@! TA.AperFunction,Plated,PTH,ComponentDrill
T2C0.400
%
G90
G05
T1
X93.0Y-93.0
X93.54Y-97.173
X94.0Y-106.5
X101.307Y-100.616
X102.556Y-103.026
X103.5Y-103.03
X103.525Y-99.387
X104.223Y-103.502
X104.781Y-99.381
X105.301Y-102.977
X105.441Y-99.387
X106.464Y-100.766
X106.5Y-106.5
X107.0Y-93.0
T2
X91.85Y-94.4
X91.85Y-95.2
X91.85Y-96.0
X91.85Y-96.8
X91.85Y-97.6
X91.85Y-98.4
X91.85Y-99.2
X91.85Y-100.0
X91.85Y-100.8
X91.85Y-101.6
X91.85Y-102.4
X91.85Y-103.2
X91.85Y-104.0
X91.85Y-104.8
X91.85Y-105.6
X94.4Y-91.85
X94.4Y-108.15
X95.2Y-91.85
X95.2Y-108.15
X96.0Y-91.85
X96.0Y-108.15
X96.8Y-91.85
X96.8Y-108.15
X97.6Y-91.85
X97.6Y-108.15
X98.4Y-91.85
X98.4Y-108.15
X99.2Y-91.85
X99.2Y-108.15
X100.0Y-91.85
X100.0Y-108.15
X100.8Y-91.85
X100.8Y-108.15
X101.6Y-91.85
X101.6Y-108.15
X102.4Y-91.85
X102.4Y-108.15
X103.2Y-91.85
X103.2Y-108.15
X104.0Y-91.85
X104.0Y-108.15
X104.8Y-91.85
X104.8Y-108.15
X105.6Y-91.85
X105.6Y-108.15
X108.15Y-94.4
X108.15Y-95.2
X108.15Y-96.0
X108.15Y-96.8
X108.15Y-97.6
X108.15Y-98.4
X108.15Y-99.2
X108.15Y-100.0
X108.15Y-100.8
X108.15Y-101.6
X108.15Y-102.4
X108.15Y-103.2
X108.15Y-104.0
X108.15Y-104.8
X108.15Y-105.6
M30
