%TF.GenerationSoftware,KiCad,Pcbnew,9.0.8*%
%TF.CreationDate,2026-08-26T16:19:11-04:00*%
%TF.ProjectId,pmgr_mcu,706d6772-5f6d-4637-952e-6b696361645f,rev?*%
%TF.SameCoordinates,Original*%
%TF.FileFunction,Legend,Top*%
%TF.FilePolarity,Positive*%
%FSLAX46Y46*%
G04 Gerber Fmt 4.6, Leading zero omitted, Abs format (unit mm)*
G04 Created by KiCad (PCBNEW 9.0.8) date 2026-08-26 16:19:11*
%MOMM*%
%LPD*%
G01*
G04 APERTURE LIST*
%ADD10C,0.200000*%
%ADD11C,0.150000*%
%ADD12C,0.120000*%
G04 APERTURE END LIST*
D10*
X91350000Y-109300000D02*
G75*
G02*
X90250000Y-109300000I-550000J0D01*
G01*
X90250000Y-109300000D02*
G75*
G02*
X91350000Y-109300000I550000J0D01*
G01*
X91700000Y-92000000D02*
G75*
G02*
X90900000Y-92000000I-400000J0D01*
G01*
X90900000Y-92000000D02*
G75*
G02*
X91700000Y-92000000I400000J0D01*
G01*
X109100000Y-91500000D02*
G75*
G02*
X107900000Y-91500000I-600000J0D01*
G01*
X107900000Y-91500000D02*
G75*
G02*
X109100000Y-91500000I600000J0D01*
G01*
D11*
X92285713Y-109262295D02*
X91828570Y-109262295D01*
X92057142Y-109262295D02*
X92057142Y-108462295D01*
X92057142Y-108462295D02*
X91980951Y-108576580D01*
X91980951Y-108576580D02*
X91904761Y-108652771D01*
X91904761Y-108652771D02*
X91828570Y-108690866D01*
X92780952Y-108462295D02*
X92857142Y-108462295D01*
X92857142Y-108462295D02*
X92933333Y-108500390D01*
X92933333Y-108500390D02*
X92971428Y-108538485D01*
X92971428Y-108538485D02*
X93009523Y-108614676D01*
X93009523Y-108614676D02*
X93047618Y-108767057D01*
X93047618Y-108767057D02*
X93047618Y-108957533D01*
X93047618Y-108957533D02*
X93009523Y-109109914D01*
X93009523Y-109109914D02*
X92971428Y-109186104D01*
X92971428Y-109186104D02*
X92933333Y-109224200D01*
X92933333Y-109224200D02*
X92857142Y-109262295D01*
X92857142Y-109262295D02*
X92780952Y-109262295D01*
X92780952Y-109262295D02*
X92704761Y-109224200D01*
X92704761Y-109224200D02*
X92666666Y-109186104D01*
X92666666Y-109186104D02*
X92628571Y-109109914D01*
X92628571Y-109109914D02*
X92590475Y-108957533D01*
X92590475Y-108957533D02*
X92590475Y-108767057D01*
X92590475Y-108767057D02*
X92628571Y-108614676D01*
X92628571Y-108614676D02*
X92666666Y-108538485D01*
X92666666Y-108538485D02*
X92704761Y-108500390D01*
X92704761Y-108500390D02*
X92780952Y-108462295D01*
X93733333Y-108728961D02*
X93733333Y-109262295D01*
X93390476Y-108728961D02*
X93390476Y-109148009D01*
X93390476Y-109148009D02*
X93428571Y-109224200D01*
X93428571Y-109224200D02*
X93504761Y-109262295D01*
X93504761Y-109262295D02*
X93619047Y-109262295D01*
X93619047Y-109262295D02*
X93695238Y-109224200D01*
X93695238Y-109224200D02*
X93733333Y-109186104D01*
X94885713Y-109262295D02*
X94428570Y-109262295D01*
X94657142Y-109262295D02*
X94657142Y-108462295D01*
X94657142Y-108462295D02*
X94580951Y-108576580D01*
X94580951Y-108576580D02*
X94504761Y-108652771D01*
X94504761Y-108652771D02*
X94428570Y-108690866D01*
X95380952Y-108462295D02*
X95457142Y-108462295D01*
X95457142Y-108462295D02*
X95533333Y-108500390D01*
X95533333Y-108500390D02*
X95571428Y-108538485D01*
X95571428Y-108538485D02*
X95609523Y-108614676D01*
X95609523Y-108614676D02*
X95647618Y-108767057D01*
X95647618Y-108767057D02*
X95647618Y-108957533D01*
X95647618Y-108957533D02*
X95609523Y-109109914D01*
X95609523Y-109109914D02*
X95571428Y-109186104D01*
X95571428Y-109186104D02*
X95533333Y-109224200D01*
X95533333Y-109224200D02*
X95457142Y-109262295D01*
X95457142Y-109262295D02*
X95380952Y-109262295D01*
X95380952Y-109262295D02*
X95304761Y-109224200D01*
X95304761Y-109224200D02*
X95266666Y-109186104D01*
X95266666Y-109186104D02*
X95228571Y-109109914D01*
X95228571Y-109109914D02*
X95190475Y-108957533D01*
X95190475Y-108957533D02*
X95190475Y-108767057D01*
X95190475Y-108767057D02*
X95228571Y-108614676D01*
X95228571Y-108614676D02*
X95266666Y-108538485D01*
X95266666Y-108538485D02*
X95304761Y-108500390D01*
X95304761Y-108500390D02*
X95380952Y-108462295D01*
X95990476Y-108728961D02*
X95990476Y-109262295D01*
X95990476Y-108805152D02*
X96028571Y-108767057D01*
X96028571Y-108767057D02*
X96104761Y-108728961D01*
X96104761Y-108728961D02*
X96219047Y-108728961D01*
X96219047Y-108728961D02*
X96295238Y-108767057D01*
X96295238Y-108767057D02*
X96333333Y-108843247D01*
X96333333Y-108843247D02*
X96333333Y-109262295D01*
X97704761Y-109262295D02*
X97247618Y-109262295D01*
X97476190Y-109262295D02*
X97476190Y-108462295D01*
X97476190Y-108462295D02*
X97399999Y-108576580D01*
X97399999Y-108576580D02*
X97323809Y-108652771D01*
X97323809Y-108652771D02*
X97247618Y-108690866D01*
X98200000Y-108462295D02*
X98276190Y-108462295D01*
X98276190Y-108462295D02*
X98352381Y-108500390D01*
X98352381Y-108500390D02*
X98390476Y-108538485D01*
X98390476Y-108538485D02*
X98428571Y-108614676D01*
X98428571Y-108614676D02*
X98466666Y-108767057D01*
X98466666Y-108767057D02*
X98466666Y-108957533D01*
X98466666Y-108957533D02*
X98428571Y-109109914D01*
X98428571Y-109109914D02*
X98390476Y-109186104D01*
X98390476Y-109186104D02*
X98352381Y-109224200D01*
X98352381Y-109224200D02*
X98276190Y-109262295D01*
X98276190Y-109262295D02*
X98200000Y-109262295D01*
X98200000Y-109262295D02*
X98123809Y-109224200D01*
X98123809Y-109224200D02*
X98085714Y-109186104D01*
X98085714Y-109186104D02*
X98047619Y-109109914D01*
X98047619Y-109109914D02*
X98009523Y-108957533D01*
X98009523Y-108957533D02*
X98009523Y-108767057D01*
X98009523Y-108767057D02*
X98047619Y-108614676D01*
X98047619Y-108614676D02*
X98085714Y-108538485D01*
X98085714Y-108538485D02*
X98123809Y-108500390D01*
X98123809Y-108500390D02*
X98200000Y-108462295D01*
X98961905Y-108462295D02*
X99038095Y-108462295D01*
X99038095Y-108462295D02*
X99114286Y-108500390D01*
X99114286Y-108500390D02*
X99152381Y-108538485D01*
X99152381Y-108538485D02*
X99190476Y-108614676D01*
X99190476Y-108614676D02*
X99228571Y-108767057D01*
X99228571Y-108767057D02*
X99228571Y-108957533D01*
X99228571Y-108957533D02*
X99190476Y-109109914D01*
X99190476Y-109109914D02*
X99152381Y-109186104D01*
X99152381Y-109186104D02*
X99114286Y-109224200D01*
X99114286Y-109224200D02*
X99038095Y-109262295D01*
X99038095Y-109262295D02*
X98961905Y-109262295D01*
X98961905Y-109262295D02*
X98885714Y-109224200D01*
X98885714Y-109224200D02*
X98847619Y-109186104D01*
X98847619Y-109186104D02*
X98809524Y-109109914D01*
X98809524Y-109109914D02*
X98771428Y-108957533D01*
X98771428Y-108957533D02*
X98771428Y-108767057D01*
X98771428Y-108767057D02*
X98809524Y-108614676D01*
X98809524Y-108614676D02*
X98847619Y-108538485D01*
X98847619Y-108538485D02*
X98885714Y-108500390D01*
X98885714Y-108500390D02*
X98961905Y-108462295D01*
X99571429Y-108728961D02*
X99571429Y-109262295D01*
X99571429Y-108805152D02*
X99609524Y-108767057D01*
X99609524Y-108767057D02*
X99685714Y-108728961D01*
X99685714Y-108728961D02*
X99800000Y-108728961D01*
X99800000Y-108728961D02*
X99876191Y-108767057D01*
X99876191Y-108767057D02*
X99914286Y-108843247D01*
X99914286Y-108843247D02*
X99914286Y-109262295D01*
X91562295Y-95914286D02*
X91562295Y-96371429D01*
X91562295Y-96142857D02*
X90762295Y-96142857D01*
X90762295Y-96142857D02*
X90876580Y-96219048D01*
X90876580Y-96219048D02*
X90952771Y-96295238D01*
X90952771Y-96295238D02*
X90990866Y-96371429D01*
X90762295Y-95419047D02*
X90762295Y-95342857D01*
X90762295Y-95342857D02*
X90800390Y-95266666D01*
X90800390Y-95266666D02*
X90838485Y-95228571D01*
X90838485Y-95228571D02*
X90914676Y-95190476D01*
X90914676Y-95190476D02*
X91067057Y-95152381D01*
X91067057Y-95152381D02*
X91257533Y-95152381D01*
X91257533Y-95152381D02*
X91409914Y-95190476D01*
X91409914Y-95190476D02*
X91486104Y-95228571D01*
X91486104Y-95228571D02*
X91524200Y-95266666D01*
X91524200Y-95266666D02*
X91562295Y-95342857D01*
X91562295Y-95342857D02*
X91562295Y-95419047D01*
X91562295Y-95419047D02*
X91524200Y-95495238D01*
X91524200Y-95495238D02*
X91486104Y-95533333D01*
X91486104Y-95533333D02*
X91409914Y-95571428D01*
X91409914Y-95571428D02*
X91257533Y-95609524D01*
X91257533Y-95609524D02*
X91067057Y-95609524D01*
X91067057Y-95609524D02*
X90914676Y-95571428D01*
X90914676Y-95571428D02*
X90838485Y-95533333D01*
X90838485Y-95533333D02*
X90800390Y-95495238D01*
X90800390Y-95495238D02*
X90762295Y-95419047D01*
X91028961Y-94809523D02*
X91562295Y-94809523D01*
X91105152Y-94809523D02*
X91067057Y-94771428D01*
X91067057Y-94771428D02*
X91028961Y-94695238D01*
X91028961Y-94695238D02*
X91028961Y-94580952D01*
X91028961Y-94580952D02*
X91067057Y-94504761D01*
X91067057Y-94504761D02*
X91143247Y-94466666D01*
X91143247Y-94466666D02*
X91562295Y-94466666D01*
X91562295Y-99395238D02*
X91562295Y-99852381D01*
X91562295Y-99623809D02*
X90762295Y-99623809D01*
X90762295Y-99623809D02*
X90876580Y-99700000D01*
X90876580Y-99700000D02*
X90952771Y-99776190D01*
X90952771Y-99776190D02*
X90990866Y-99852381D01*
X90762295Y-98899999D02*
X90762295Y-98823809D01*
X90762295Y-98823809D02*
X90800390Y-98747618D01*
X90800390Y-98747618D02*
X90838485Y-98709523D01*
X90838485Y-98709523D02*
X90914676Y-98671428D01*
X90914676Y-98671428D02*
X91067057Y-98633333D01*
X91067057Y-98633333D02*
X91257533Y-98633333D01*
X91257533Y-98633333D02*
X91409914Y-98671428D01*
X91409914Y-98671428D02*
X91486104Y-98709523D01*
X91486104Y-98709523D02*
X91524200Y-98747618D01*
X91524200Y-98747618D02*
X91562295Y-98823809D01*
X91562295Y-98823809D02*
X91562295Y-98899999D01*
X91562295Y-98899999D02*
X91524200Y-98976190D01*
X91524200Y-98976190D02*
X91486104Y-99014285D01*
X91486104Y-99014285D02*
X91409914Y-99052380D01*
X91409914Y-99052380D02*
X91257533Y-99090476D01*
X91257533Y-99090476D02*
X91067057Y-99090476D01*
X91067057Y-99090476D02*
X90914676Y-99052380D01*
X90914676Y-99052380D02*
X90838485Y-99014285D01*
X90838485Y-99014285D02*
X90800390Y-98976190D01*
X90800390Y-98976190D02*
X90762295Y-98899999D01*
X90762295Y-98138094D02*
X90762295Y-98061904D01*
X90762295Y-98061904D02*
X90800390Y-97985713D01*
X90800390Y-97985713D02*
X90838485Y-97947618D01*
X90838485Y-97947618D02*
X90914676Y-97909523D01*
X90914676Y-97909523D02*
X91067057Y-97871428D01*
X91067057Y-97871428D02*
X91257533Y-97871428D01*
X91257533Y-97871428D02*
X91409914Y-97909523D01*
X91409914Y-97909523D02*
X91486104Y-97947618D01*
X91486104Y-97947618D02*
X91524200Y-97985713D01*
X91524200Y-97985713D02*
X91562295Y-98061904D01*
X91562295Y-98061904D02*
X91562295Y-98138094D01*
X91562295Y-98138094D02*
X91524200Y-98214285D01*
X91524200Y-98214285D02*
X91486104Y-98252380D01*
X91486104Y-98252380D02*
X91409914Y-98290475D01*
X91409914Y-98290475D02*
X91257533Y-98328571D01*
X91257533Y-98328571D02*
X91067057Y-98328571D01*
X91067057Y-98328571D02*
X90914676Y-98290475D01*
X90914676Y-98290475D02*
X90838485Y-98252380D01*
X90838485Y-98252380D02*
X90800390Y-98214285D01*
X90800390Y-98214285D02*
X90762295Y-98138094D01*
X91028961Y-97528570D02*
X91562295Y-97528570D01*
X91105152Y-97528570D02*
X91067057Y-97490475D01*
X91067057Y-97490475D02*
X91028961Y-97414285D01*
X91028961Y-97414285D02*
X91028961Y-97299999D01*
X91028961Y-97299999D02*
X91067057Y-97223808D01*
X91067057Y-97223808D02*
X91143247Y-97185713D01*
X91143247Y-97185713D02*
X91562295Y-97185713D01*
X91562295Y-102895238D02*
X91562295Y-103352381D01*
X91562295Y-103123809D02*
X90762295Y-103123809D01*
X90762295Y-103123809D02*
X90876580Y-103200000D01*
X90876580Y-103200000D02*
X90952771Y-103276190D01*
X90952771Y-103276190D02*
X90990866Y-103352381D01*
X90762295Y-102399999D02*
X90762295Y-102323809D01*
X90762295Y-102323809D02*
X90800390Y-102247618D01*
X90800390Y-102247618D02*
X90838485Y-102209523D01*
X90838485Y-102209523D02*
X90914676Y-102171428D01*
X90914676Y-102171428D02*
X91067057Y-102133333D01*
X91067057Y-102133333D02*
X91257533Y-102133333D01*
X91257533Y-102133333D02*
X91409914Y-102171428D01*
X91409914Y-102171428D02*
X91486104Y-102209523D01*
X91486104Y-102209523D02*
X91524200Y-102247618D01*
X91524200Y-102247618D02*
X91562295Y-102323809D01*
X91562295Y-102323809D02*
X91562295Y-102399999D01*
X91562295Y-102399999D02*
X91524200Y-102476190D01*
X91524200Y-102476190D02*
X91486104Y-102514285D01*
X91486104Y-102514285D02*
X91409914Y-102552380D01*
X91409914Y-102552380D02*
X91257533Y-102590476D01*
X91257533Y-102590476D02*
X91067057Y-102590476D01*
X91067057Y-102590476D02*
X90914676Y-102552380D01*
X90914676Y-102552380D02*
X90838485Y-102514285D01*
X90838485Y-102514285D02*
X90800390Y-102476190D01*
X90800390Y-102476190D02*
X90762295Y-102399999D01*
X90762295Y-101638094D02*
X90762295Y-101561904D01*
X90762295Y-101561904D02*
X90800390Y-101485713D01*
X90800390Y-101485713D02*
X90838485Y-101447618D01*
X90838485Y-101447618D02*
X90914676Y-101409523D01*
X90914676Y-101409523D02*
X91067057Y-101371428D01*
X91067057Y-101371428D02*
X91257533Y-101371428D01*
X91257533Y-101371428D02*
X91409914Y-101409523D01*
X91409914Y-101409523D02*
X91486104Y-101447618D01*
X91486104Y-101447618D02*
X91524200Y-101485713D01*
X91524200Y-101485713D02*
X91562295Y-101561904D01*
X91562295Y-101561904D02*
X91562295Y-101638094D01*
X91562295Y-101638094D02*
X91524200Y-101714285D01*
X91524200Y-101714285D02*
X91486104Y-101752380D01*
X91486104Y-101752380D02*
X91409914Y-101790475D01*
X91409914Y-101790475D02*
X91257533Y-101828571D01*
X91257533Y-101828571D02*
X91067057Y-101828571D01*
X91067057Y-101828571D02*
X90914676Y-101790475D01*
X90914676Y-101790475D02*
X90838485Y-101752380D01*
X90838485Y-101752380D02*
X90800390Y-101714285D01*
X90800390Y-101714285D02*
X90762295Y-101638094D01*
X91028961Y-101028570D02*
X91562295Y-101028570D01*
X91105152Y-101028570D02*
X91067057Y-100990475D01*
X91067057Y-100990475D02*
X91028961Y-100914285D01*
X91028961Y-100914285D02*
X91028961Y-100799999D01*
X91028961Y-100799999D02*
X91067057Y-100723808D01*
X91067057Y-100723808D02*
X91143247Y-100685713D01*
X91143247Y-100685713D02*
X91562295Y-100685713D01*
X109162295Y-100514286D02*
X109162295Y-100971429D01*
X109162295Y-100742857D02*
X108362295Y-100742857D01*
X108362295Y-100742857D02*
X108476580Y-100819048D01*
X108476580Y-100819048D02*
X108552771Y-100895238D01*
X108552771Y-100895238D02*
X108590866Y-100971429D01*
X108362295Y-100019047D02*
X108362295Y-99942857D01*
X108362295Y-99942857D02*
X108400390Y-99866666D01*
X108400390Y-99866666D02*
X108438485Y-99828571D01*
X108438485Y-99828571D02*
X108514676Y-99790476D01*
X108514676Y-99790476D02*
X108667057Y-99752381D01*
X108667057Y-99752381D02*
X108857533Y-99752381D01*
X108857533Y-99752381D02*
X109009914Y-99790476D01*
X109009914Y-99790476D02*
X109086104Y-99828571D01*
X109086104Y-99828571D02*
X109124200Y-99866666D01*
X109124200Y-99866666D02*
X109162295Y-99942857D01*
X109162295Y-99942857D02*
X109162295Y-100019047D01*
X109162295Y-100019047D02*
X109124200Y-100095238D01*
X109124200Y-100095238D02*
X109086104Y-100133333D01*
X109086104Y-100133333D02*
X109009914Y-100171428D01*
X109009914Y-100171428D02*
X108857533Y-100209524D01*
X108857533Y-100209524D02*
X108667057Y-100209524D01*
X108667057Y-100209524D02*
X108514676Y-100171428D01*
X108514676Y-100171428D02*
X108438485Y-100133333D01*
X108438485Y-100133333D02*
X108400390Y-100095238D01*
X108400390Y-100095238D02*
X108362295Y-100019047D01*
X108628961Y-99409523D02*
X109162295Y-99409523D01*
X108705152Y-99409523D02*
X108667057Y-99371428D01*
X108667057Y-99371428D02*
X108628961Y-99295238D01*
X108628961Y-99295238D02*
X108628961Y-99180952D01*
X108628961Y-99180952D02*
X108667057Y-99104761D01*
X108667057Y-99104761D02*
X108743247Y-99066666D01*
X108743247Y-99066666D02*
X109162295Y-99066666D01*
X109162295Y-104495238D02*
X109162295Y-104952381D01*
X109162295Y-104723809D02*
X108362295Y-104723809D01*
X108362295Y-104723809D02*
X108476580Y-104800000D01*
X108476580Y-104800000D02*
X108552771Y-104876190D01*
X108552771Y-104876190D02*
X108590866Y-104952381D01*
X108362295Y-103999999D02*
X108362295Y-103923809D01*
X108362295Y-103923809D02*
X108400390Y-103847618D01*
X108400390Y-103847618D02*
X108438485Y-103809523D01*
X108438485Y-103809523D02*
X108514676Y-103771428D01*
X108514676Y-103771428D02*
X108667057Y-103733333D01*
X108667057Y-103733333D02*
X108857533Y-103733333D01*
X108857533Y-103733333D02*
X109009914Y-103771428D01*
X109009914Y-103771428D02*
X109086104Y-103809523D01*
X109086104Y-103809523D02*
X109124200Y-103847618D01*
X109124200Y-103847618D02*
X109162295Y-103923809D01*
X109162295Y-103923809D02*
X109162295Y-103999999D01*
X109162295Y-103999999D02*
X109124200Y-104076190D01*
X109124200Y-104076190D02*
X109086104Y-104114285D01*
X109086104Y-104114285D02*
X109009914Y-104152380D01*
X109009914Y-104152380D02*
X108857533Y-104190476D01*
X108857533Y-104190476D02*
X108667057Y-104190476D01*
X108667057Y-104190476D02*
X108514676Y-104152380D01*
X108514676Y-104152380D02*
X108438485Y-104114285D01*
X108438485Y-104114285D02*
X108400390Y-104076190D01*
X108400390Y-104076190D02*
X108362295Y-103999999D01*
X108362295Y-103238094D02*
X108362295Y-103161904D01*
X108362295Y-103161904D02*
X108400390Y-103085713D01*
X108400390Y-103085713D02*
X108438485Y-103047618D01*
X108438485Y-103047618D02*
X108514676Y-103009523D01*
X108514676Y-103009523D02*
X108667057Y-102971428D01*
X108667057Y-102971428D02*
X108857533Y-102971428D01*
X108857533Y-102971428D02*
X109009914Y-103009523D01*
X109009914Y-103009523D02*
X109086104Y-103047618D01*
X109086104Y-103047618D02*
X109124200Y-103085713D01*
X109124200Y-103085713D02*
X109162295Y-103161904D01*
X109162295Y-103161904D02*
X109162295Y-103238094D01*
X109162295Y-103238094D02*
X109124200Y-103314285D01*
X109124200Y-103314285D02*
X109086104Y-103352380D01*
X109086104Y-103352380D02*
X109009914Y-103390475D01*
X109009914Y-103390475D02*
X108857533Y-103428571D01*
X108857533Y-103428571D02*
X108667057Y-103428571D01*
X108667057Y-103428571D02*
X108514676Y-103390475D01*
X108514676Y-103390475D02*
X108438485Y-103352380D01*
X108438485Y-103352380D02*
X108400390Y-103314285D01*
X108400390Y-103314285D02*
X108362295Y-103238094D01*
X108628961Y-102628570D02*
X109162295Y-102628570D01*
X108705152Y-102628570D02*
X108667057Y-102590475D01*
X108667057Y-102590475D02*
X108628961Y-102514285D01*
X108628961Y-102514285D02*
X108628961Y-102399999D01*
X108628961Y-102399999D02*
X108667057Y-102323808D01*
X108667057Y-102323808D02*
X108743247Y-102285713D01*
X108743247Y-102285713D02*
X109162295Y-102285713D01*
X94746666Y-88934819D02*
X94746666Y-89649104D01*
X94746666Y-89649104D02*
X94699047Y-89791961D01*
X94699047Y-89791961D02*
X94603809Y-89887200D01*
X94603809Y-89887200D02*
X94460952Y-89934819D01*
X94460952Y-89934819D02*
X94365714Y-89934819D01*
X95175238Y-89030057D02*
X95222857Y-88982438D01*
X95222857Y-88982438D02*
X95318095Y-88934819D01*
X95318095Y-88934819D02*
X95556190Y-88934819D01*
X95556190Y-88934819D02*
X95651428Y-88982438D01*
X95651428Y-88982438D02*
X95699047Y-89030057D01*
X95699047Y-89030057D02*
X95746666Y-89125295D01*
X95746666Y-89125295D02*
X95746666Y-89220533D01*
X95746666Y-89220533D02*
X95699047Y-89363390D01*
X95699047Y-89363390D02*
X95127619Y-89934819D01*
X95127619Y-89934819D02*
X95746666Y-89934819D01*
X92238095Y-88454819D02*
X92238095Y-89264342D01*
X92238095Y-89264342D02*
X92285714Y-89359580D01*
X92285714Y-89359580D02*
X92333333Y-89407200D01*
X92333333Y-89407200D02*
X92428571Y-89454819D01*
X92428571Y-89454819D02*
X92619047Y-89454819D01*
X92619047Y-89454819D02*
X92714285Y-89407200D01*
X92714285Y-89407200D02*
X92761904Y-89359580D01*
X92761904Y-89359580D02*
X92809523Y-89264342D01*
X92809523Y-89264342D02*
X92809523Y-88454819D01*
X93809523Y-89454819D02*
X93238095Y-89454819D01*
X93523809Y-89454819D02*
X93523809Y-88454819D01*
X93523809Y-88454819D02*
X93428571Y-88597676D01*
X93428571Y-88597676D02*
X93333333Y-88692914D01*
X93333333Y-88692914D02*
X93238095Y-88740533D01*
D12*
%TO.C,C1*%
X92040000Y-98807836D02*
X92040000Y-98592164D01*
X92760000Y-98807836D02*
X92760000Y-98592164D01*
%TO.C,C8*%
X91638748Y-106465000D02*
X92161252Y-106465000D01*
X91638748Y-107935000D02*
X92161252Y-107935000D01*
%TO.C,J2*%
X96080000Y-86830000D02*
X103920000Y-86830000D01*
X96080000Y-89480000D02*
X96080000Y-86830000D01*
X96080000Y-92130000D02*
X96080000Y-90750000D01*
X97460000Y-92130000D02*
X96080000Y-92130000D01*
X98730000Y-89480000D02*
X96080000Y-89480000D01*
X98730000Y-92130000D02*
X98730000Y-89480000D01*
X98730000Y-92130000D02*
X103920000Y-92130000D01*
X103920000Y-92130000D02*
X103920000Y-86830000D01*
%TO.C,C3*%
X97492164Y-107240000D02*
X97707836Y-107240000D01*
X97492164Y-107960000D02*
X97707836Y-107960000D01*
%TO.C,C5*%
X92040000Y-96607836D02*
X92040000Y-96392164D01*
X92760000Y-96607836D02*
X92760000Y-96392164D01*
%TO.C,C6*%
X107240000Y-100907836D02*
X107240000Y-100692164D01*
X107960000Y-100907836D02*
X107960000Y-100692164D01*
%TO.C,C2*%
X107240000Y-103107836D02*
X107240000Y-102892164D01*
X107960000Y-103107836D02*
X107960000Y-102892164D01*
%TO.C,C7*%
X95292164Y-107240000D02*
X95507836Y-107240000D01*
X95292164Y-107960000D02*
X95507836Y-107960000D01*
%TO.C,U1*%
X94890000Y-94890000D02*
X95840000Y-94890000D01*
X94890000Y-95840000D02*
X94890000Y-94890000D01*
X94890000Y-105110000D02*
X94890000Y-104160000D01*
X95840000Y-105110000D02*
X94890000Y-105110000D01*
X104160000Y-94890000D02*
X105110000Y-94890000D01*
X105110000Y-94890000D02*
X105110000Y-95840000D01*
X105110000Y-104160000D02*
X105110000Y-105110000D01*
X105110000Y-105110000D02*
X104160000Y-105110000D01*
X94250000Y-95840000D02*
X93910000Y-95370000D01*
X94590000Y-95370000D01*
X94250000Y-95840000D01*
G36*
X94250000Y-95840000D02*
G01*
X93910000Y-95370000D01*
X94590000Y-95370000D01*
X94250000Y-95840000D01*
G37*
%TD*%
M02*
