M48
; DRILL file {KiCad 9.0.8} date 2026-08-26T16:23:50-0400
; FORMAT={-:-/ absolute / metric / decimal}
; #@! TF.CreationDate,2026-08-26T16:23:50-04:00
; #@! TF.GenerationSoftware,Kicad,Pcbnew,9.0.8
; #@! TF.FileFunction,Plated,1,4,PTH
FMAT,2
METRIC
; #@! TA.AperFunction,Plated,PTH,ViaDrill
T1C0.200
; #@! TA.AperFunction,Plated,PTH,ComponentDrill
T2C1.000
%
G90
G05
T1
X93.208Y-102.25
X93.208Y-99.915
X93.216Y-101.016
X93.223Y-103.372
X94.742Y-104.288
X94.763Y-95.722
X95.064Y-94.633
X95.406Y-95.513
X95.415Y-94.113
X95.456Y-99.861
X95.46Y-103.115
X95.483Y-100.623
X96.1Y-102.978
X96.14Y-95.618
X96.511Y-104.547
X96.75Y-95.647
X97.135Y-104.535
X97.17Y-96.225
X97.349Y-97.015
X97.392Y-100.007
X97.49Y-99.393
X97.782Y-100.621
X98.25Y-96.72
X98.75Y-104.022
X98.849Y-99.83
X99.224Y-99.362
X99.242Y-100.313
X99.25Y-93.222
X99.715Y-95.495
X99.749Y-103.74
X99.981Y-96.709
X100.006Y-106.783
X100.355Y-100.617
X100.364Y-99.897
X100.75Y-92.612
X100.88Y-107.302
X101.249Y-93.222
X101.25Y-104.21
X101.275Y-96.394
X101.555Y-100.298
X101.829Y-104.538
X102.1Y-99.878
X102.207Y-102.994
X102.334Y-107.312
X102.75Y-104.523
X102.917Y-99.388
X103.036Y-97.008
X103.05Y-100.625
X103.112Y-103.358
X103.576Y-96.66
X103.612Y-104.537
X103.709Y-95.923
X104.0Y-100.5
X104.063Y-104.069
X104.316Y-103.294
X104.463Y-100.052
X105.416Y-104.284
X106.786Y-102.585
X106.798Y-100.34
T2
X97.46Y-88.21
X97.46Y-90.75
X100.0Y-88.21
X100.0Y-90.75
X102.54Y-88.21
X102.54Y-90.75
M30
