%TF.GenerationSoftware,KiCad,Pcbnew,9.0.8*%
%TF.CreationDate,2026-08-26T16:19:11-04:00*%
%TF.ProjectId,pmgr_mcu,706d6772-5f6d-4637-952e-6b696361645f,rev?*%
%TF.SameCoordinates,Original*%
%TF.FileFunction,Soldermask,Bot*%
%TF.FilePolarity,Negative*%
%FSLAX46Y46*%
G04 Gerber Fmt 4.6, Leading zero omitted, Abs format (unit mm)*
G04 Created by KiCad (PCBNEW 9.0.8) date 2026-08-26 16:19:11*
%MOMM*%
%LPD*%
G01*
G04 APERTURE LIST*
G04 Aperture macros list*
%AMRoundRect*
0 Rectangle with rounded corners*
0 $1 Rounding radius*
0 $2 $3 $4 $5 $6 $7 $8 $9 X,Y pos of 4 corners*
0 Add a 4 corners polygon primitive as box body*
4,1,4,$2,$3,$4,$5,$6,$7,$8,$9,$2,$3,0*
0 Add four circle primitives for the rounded corners*
1,1,$1+$1,$2,$3*
1,1,$1+$1,$4,$5*
1,1,$1+$1,$6,$7*
1,1,$1+$1,$8,$9*
0 Add four rect primitives between the rounded corners*
20,1,$1+$1,$2,$3,$4,$5,0*
20,1,$1+$1,$4,$5,$6,$7,0*
20,1,$1+$1,$6,$7,$8,$9,0*
20,1,$1+$1,$8,$9,$2,$3,0*%
G04 Aperture macros list end*
%ADD10R,1.700000X1.700000*%
%ADD11C,1.700000*%
%ADD12RoundRect,0.150000X-0.587500X-0.150000X0.587500X-0.150000X0.587500X0.150000X-0.587500X0.150000X0*%
%ADD13RoundRect,0.135000X-0.135000X-0.185000X0.135000X-0.185000X0.135000X0.185000X-0.135000X0.185000X0*%
%ADD14RoundRect,0.140000X-0.140000X-0.170000X0.140000X-0.170000X0.140000X0.170000X-0.140000X0.170000X0*%
%ADD15R,0.300000X1.600000*%
G04 APERTURE END LIST*
D10*
%TO.C,J2*%
X97460000Y-90750000D03*
D11*
X97460000Y-88210000D03*
X100000000Y-90750000D03*
X100000000Y-88210000D03*
X102540000Y-90750000D03*
X102540000Y-88210000D03*
%TD*%
D12*
%TO.C,D1*%
X104462500Y-107550000D03*
X104462500Y-105650000D03*
X106337500Y-106600000D03*
%TD*%
D13*
%TO.C,R1*%
X101090000Y-106600000D03*
X102110000Y-106600000D03*
%TD*%
D14*
%TO.C,C4*%
X97720000Y-95700000D03*
X98680000Y-95700000D03*
%TD*%
D15*
%TO.C,J1*%
X94000000Y-101800000D03*
X94500000Y-101800000D03*
X95000000Y-101800000D03*
X95500000Y-101800000D03*
X96000000Y-101800000D03*
X96500000Y-101800000D03*
X97000000Y-101800000D03*
X97500000Y-101800000D03*
X98000000Y-101800000D03*
X98500000Y-101800000D03*
X99000000Y-101800000D03*
X99500000Y-101800000D03*
X100000000Y-101800000D03*
X100500000Y-101800000D03*
X101000000Y-101800000D03*
X101500000Y-101800000D03*
X102000000Y-101800000D03*
X102500000Y-101800000D03*
X103000000Y-101800000D03*
X103500000Y-101800000D03*
X104000000Y-101800000D03*
X104500000Y-101800000D03*
X105000000Y-101800000D03*
X105500000Y-101800000D03*
X106000000Y-101800000D03*
X94000000Y-98200000D03*
X94500000Y-98200000D03*
X95000000Y-98200000D03*
X95500000Y-98200000D03*
X96000000Y-98200000D03*
X96500000Y-98200000D03*
X97000000Y-98200000D03*
X97500000Y-98200000D03*
X98000000Y-98200000D03*
X98500000Y-98200000D03*
X99000000Y-98200000D03*
X99500000Y-98200000D03*
X100000000Y-98200000D03*
X100500000Y-98200000D03*
X101000000Y-98200000D03*
X101500000Y-98200000D03*
X102000000Y-98200000D03*
X102500000Y-98200000D03*
X103000000Y-98200000D03*
X103500000Y-98200000D03*
X104000000Y-98200000D03*
X104500000Y-98200000D03*
X105000000Y-98200000D03*
X105500000Y-98200000D03*
X106000000Y-98200000D03*
%TD*%
D14*
%TO.C,C9*%
X101320000Y-95700000D03*
X102280000Y-95700000D03*
%TD*%
M02*
