%TF.GenerationSoftware,KiCad,Pcbnew,9.0.8*%
%TF.CreationDate,2026-08-26T16:19:11-04:00*%
%TF.ProjectId,pmgr_mcu,706d6772-5f6d-4637-952e-6b696361645f,rev?*%
%TF.SameCoordinates,Original*%
%TF.FileFunction,Legend,Bot*%
%TF.FilePolarity,Positive*%
%FSLAX46Y46*%
G04 Gerber Fmt 4.6, Leading zero omitted, Abs format (unit mm)*
G04 Created by KiCad (PCBNEW 9.0.8) date 2026-08-26 16:19:11*
%MOMM*%
%LPD*%
G01*
G04 APERTURE LIST*
%ADD10C,0.150000*%
%ADD11C,0.120000*%
G04 APERTURE END LIST*
D10*
X101695238Y-109062295D02*
X102152381Y-109062295D01*
X101923809Y-109062295D02*
X101923809Y-108262295D01*
X101923809Y-108262295D02*
X102000000Y-108376580D01*
X102000000Y-108376580D02*
X102076190Y-108452771D01*
X102076190Y-108452771D02*
X102152381Y-108490866D01*
X101352380Y-109062295D02*
X101352380Y-108262295D01*
X101276190Y-108757533D02*
X101047618Y-109062295D01*
X101047618Y-108528961D02*
X101352380Y-108833723D01*
X107133333Y-108843247D02*
X107019047Y-108881342D01*
X107019047Y-108881342D02*
X106980952Y-108919438D01*
X106980952Y-108919438D02*
X106942856Y-108995628D01*
X106942856Y-108995628D02*
X106942856Y-109109914D01*
X106942856Y-109109914D02*
X106980952Y-109186104D01*
X106980952Y-109186104D02*
X107019047Y-109224200D01*
X107019047Y-109224200D02*
X107095237Y-109262295D01*
X107095237Y-109262295D02*
X107399999Y-109262295D01*
X107399999Y-109262295D02*
X107399999Y-108462295D01*
X107399999Y-108462295D02*
X107133333Y-108462295D01*
X107133333Y-108462295D02*
X107057142Y-108500390D01*
X107057142Y-108500390D02*
X107019047Y-108538485D01*
X107019047Y-108538485D02*
X106980952Y-108614676D01*
X106980952Y-108614676D02*
X106980952Y-108690866D01*
X106980952Y-108690866D02*
X107019047Y-108767057D01*
X107019047Y-108767057D02*
X107057142Y-108805152D01*
X107057142Y-108805152D02*
X107133333Y-108843247D01*
X107133333Y-108843247D02*
X107399999Y-108843247D01*
X106638095Y-109033723D02*
X106257142Y-109033723D01*
X106714285Y-109262295D02*
X106447618Y-108462295D01*
X106447618Y-108462295D02*
X106180952Y-109262295D01*
X106028571Y-108462295D02*
X105571428Y-108462295D01*
X105800000Y-109262295D02*
X105800000Y-108462295D01*
X104923809Y-108462295D02*
X105304761Y-108462295D01*
X105304761Y-108462295D02*
X105342857Y-108843247D01*
X105342857Y-108843247D02*
X105304761Y-108805152D01*
X105304761Y-108805152D02*
X105228571Y-108767057D01*
X105228571Y-108767057D02*
X105038095Y-108767057D01*
X105038095Y-108767057D02*
X104961904Y-108805152D01*
X104961904Y-108805152D02*
X104923809Y-108843247D01*
X104923809Y-108843247D02*
X104885714Y-108919438D01*
X104885714Y-108919438D02*
X104885714Y-109109914D01*
X104885714Y-109109914D02*
X104923809Y-109186104D01*
X104923809Y-109186104D02*
X104961904Y-109224200D01*
X104961904Y-109224200D02*
X105038095Y-109262295D01*
X105038095Y-109262295D02*
X105228571Y-109262295D01*
X105228571Y-109262295D02*
X105304761Y-109224200D01*
X105304761Y-109224200D02*
X105342857Y-109186104D01*
X104199999Y-108728961D02*
X104199999Y-109262295D01*
X104390475Y-108424200D02*
X104580952Y-108995628D01*
X104580952Y-108995628D02*
X104085713Y-108995628D01*
X103819047Y-109224200D02*
X103704761Y-109262295D01*
X103704761Y-109262295D02*
X103514285Y-109262295D01*
X103514285Y-109262295D02*
X103438094Y-109224200D01*
X103438094Y-109224200D02*
X103399999Y-109186104D01*
X103399999Y-109186104D02*
X103361904Y-109109914D01*
X103361904Y-109109914D02*
X103361904Y-109033723D01*
X103361904Y-109033723D02*
X103399999Y-108957533D01*
X103399999Y-108957533D02*
X103438094Y-108919438D01*
X103438094Y-108919438D02*
X103514285Y-108881342D01*
X103514285Y-108881342D02*
X103666666Y-108843247D01*
X103666666Y-108843247D02*
X103742856Y-108805152D01*
X103742856Y-108805152D02*
X103780951Y-108767057D01*
X103780951Y-108767057D02*
X103819047Y-108690866D01*
X103819047Y-108690866D02*
X103819047Y-108614676D01*
X103819047Y-108614676D02*
X103780951Y-108538485D01*
X103780951Y-108538485D02*
X103742856Y-108500390D01*
X103742856Y-108500390D02*
X103666666Y-108462295D01*
X103666666Y-108462295D02*
X103476189Y-108462295D01*
X103476189Y-108462295D02*
X103361904Y-108500390D01*
X100333333Y-103454819D02*
X100333333Y-104169104D01*
X100333333Y-104169104D02*
X100380952Y-104311961D01*
X100380952Y-104311961D02*
X100476190Y-104407200D01*
X100476190Y-104407200D02*
X100619047Y-104454819D01*
X100619047Y-104454819D02*
X100714285Y-104454819D01*
X99333333Y-104454819D02*
X99904761Y-104454819D01*
X99619047Y-104454819D02*
X99619047Y-103454819D01*
X99619047Y-103454819D02*
X99714285Y-103597676D01*
X99714285Y-103597676D02*
X99809523Y-103692914D01*
X99809523Y-103692914D02*
X99904761Y-103740533D01*
D11*
%TO.C,D1*%
X104640000Y-105040000D02*
X104640000Y-105090000D01*
X104640000Y-106210000D02*
X104640000Y-106990000D01*
X104640000Y-108110000D02*
X104640000Y-108160000D01*
X104640000Y-108160000D02*
X106160000Y-108160000D01*
X106160000Y-105040000D02*
X104640000Y-105040000D01*
X106160000Y-106040000D02*
X106160000Y-105040000D01*
X106160000Y-108160000D02*
X106160000Y-107160000D01*
X104100000Y-106980000D02*
X103860000Y-106650000D01*
X104340000Y-106650000D01*
X104100000Y-106980000D01*
G36*
X104100000Y-106980000D02*
G01*
X103860000Y-106650000D01*
X104340000Y-106650000D01*
X104100000Y-106980000D01*
G37*
%TO.C,R1*%
X101446359Y-106220000D02*
X101753641Y-106220000D01*
X101446359Y-106980000D02*
X101753641Y-106980000D01*
%TO.C,C4*%
X98092164Y-95340000D02*
X98307836Y-95340000D01*
X98092164Y-96060000D02*
X98307836Y-96060000D01*
%TO.C,J1*%
X92590000Y-98090000D02*
X92590000Y-101910000D01*
X92590000Y-101910000D02*
X93590000Y-101910000D01*
X93590000Y-98090000D02*
X92590000Y-98090000D01*
X93590000Y-101910000D02*
X93590000Y-102333330D01*
X106410000Y-98090000D02*
X107410000Y-98090000D01*
X107410000Y-98090000D02*
X107410000Y-101910000D01*
X107410000Y-101910000D02*
X106410000Y-101910000D01*
%TO.C,C9*%
X101692164Y-95340000D02*
X101907836Y-95340000D01*
X101692164Y-96060000D02*
X101907836Y-96060000D01*
%TD*%
M02*
