%TF.GenerationSoftware,KiCad,Pcbnew,9.0.8*%
%TF.CreationDate,2026-08-26T16:23:50-04:00*%
%TF.ProjectId,pmgr_mcu,706d6772-5f6d-4637-952e-6b696361645f,rev?*%
%TF.SameCoordinates,Original*%
%TF.FileFunction,Drillmap*%
%TF.FilePolarity,Positive*%
%FSLAX45Y45*%
G04 Gerber Fmt 4.5, Leading zero omitted, Abs format (unit mm)*
G04 Created by KiCad (PCBNEW 9.0.8) date 2026-08-26 16:23:50*
%MOMM*%
%LPD*%
G01*
G04 APERTURE LIST*
%ADD10C,0.100000*%
%ADD11C,0.200000*%
G04 APERTURE END LIST*
D10*
X9000000Y-8650000D02*
X11000000Y-8650000D01*
X9000000Y-11000000D02*
X9000000Y-8650000D01*
X11000000Y-8650000D02*
X11000000Y-11000000D01*
X11000000Y-11000000D02*
X9000000Y-11000000D01*
D11*
X9255777Y-11316484D02*
X9255777Y-11116484D01*
X9255777Y-11116484D02*
X9303396Y-11116484D01*
X9303396Y-11116484D02*
X9331967Y-11126008D01*
X9331967Y-11126008D02*
X9351015Y-11145055D01*
X9351015Y-11145055D02*
X9360539Y-11164103D01*
X9360539Y-11164103D02*
X9370063Y-11202198D01*
X9370063Y-11202198D02*
X9370063Y-11230769D01*
X9370063Y-11230769D02*
X9360539Y-11268865D01*
X9360539Y-11268865D02*
X9351015Y-11287912D01*
X9351015Y-11287912D02*
X9331967Y-11306960D01*
X9331967Y-11306960D02*
X9303396Y-11316484D01*
X9303396Y-11316484D02*
X9255777Y-11316484D01*
X9455777Y-11316484D02*
X9455777Y-11183150D01*
X9455777Y-11221246D02*
X9465301Y-11202198D01*
X9465301Y-11202198D02*
X9474824Y-11192674D01*
X9474824Y-11192674D02*
X9493872Y-11183150D01*
X9493872Y-11183150D02*
X9512920Y-11183150D01*
X9579586Y-11316484D02*
X9579586Y-11183150D01*
X9579586Y-11116484D02*
X9570063Y-11126008D01*
X9570063Y-11126008D02*
X9579586Y-11135531D01*
X9579586Y-11135531D02*
X9589110Y-11126008D01*
X9589110Y-11126008D02*
X9579586Y-11116484D01*
X9579586Y-11116484D02*
X9579586Y-11135531D01*
X9703396Y-11316484D02*
X9684348Y-11306960D01*
X9684348Y-11306960D02*
X9674824Y-11287912D01*
X9674824Y-11287912D02*
X9674824Y-11116484D01*
X9808158Y-11316484D02*
X9789110Y-11306960D01*
X9789110Y-11306960D02*
X9779586Y-11287912D01*
X9779586Y-11287912D02*
X9779586Y-11116484D01*
X10036729Y-11316484D02*
X10036729Y-11116484D01*
X10036729Y-11116484D02*
X10103396Y-11259341D01*
X10103396Y-11259341D02*
X10170063Y-11116484D01*
X10170063Y-11116484D02*
X10170063Y-11316484D01*
X10351015Y-11316484D02*
X10351015Y-11211722D01*
X10351015Y-11211722D02*
X10341491Y-11192674D01*
X10341491Y-11192674D02*
X10322444Y-11183150D01*
X10322444Y-11183150D02*
X10284348Y-11183150D01*
X10284348Y-11183150D02*
X10265301Y-11192674D01*
X10351015Y-11306960D02*
X10331967Y-11316484D01*
X10331967Y-11316484D02*
X10284348Y-11316484D01*
X10284348Y-11316484D02*
X10265301Y-11306960D01*
X10265301Y-11306960D02*
X10255777Y-11287912D01*
X10255777Y-11287912D02*
X10255777Y-11268865D01*
X10255777Y-11268865D02*
X10265301Y-11249817D01*
X10265301Y-11249817D02*
X10284348Y-11240293D01*
X10284348Y-11240293D02*
X10331967Y-11240293D01*
X10331967Y-11240293D02*
X10351015Y-11230769D01*
X10446253Y-11183150D02*
X10446253Y-11383150D01*
X10446253Y-11192674D02*
X10465301Y-11183150D01*
X10465301Y-11183150D02*
X10503396Y-11183150D01*
X10503396Y-11183150D02*
X10522444Y-11192674D01*
X10522444Y-11192674D02*
X10531967Y-11202198D01*
X10531967Y-11202198D02*
X10541491Y-11221246D01*
X10541491Y-11221246D02*
X10541491Y-11278388D01*
X10541491Y-11278388D02*
X10531967Y-11297436D01*
X10531967Y-11297436D02*
X10522444Y-11306960D01*
X10522444Y-11306960D02*
X10503396Y-11316484D01*
X10503396Y-11316484D02*
X10465301Y-11316484D01*
X10465301Y-11316484D02*
X10446253Y-11306960D01*
X10627205Y-11297436D02*
X10636729Y-11306960D01*
X10636729Y-11306960D02*
X10627205Y-11316484D01*
X10627205Y-11316484D02*
X10617682Y-11306960D01*
X10617682Y-11306960D02*
X10627205Y-11297436D01*
X10627205Y-11297436D02*
X10627205Y-11316484D01*
X10627205Y-11192674D02*
X10636729Y-11202198D01*
X10636729Y-11202198D02*
X10627205Y-11211722D01*
X10627205Y-11211722D02*
X10617682Y-11202198D01*
X10617682Y-11202198D02*
X10627205Y-11192674D01*
X10627205Y-11192674D02*
X10627205Y-11211722D01*
M02*
