%TF.GenerationSoftware,KiCad,Pcbnew,9.0.8*%
%TF.CreationDate,2026-08-26T16:19:11-04:00*%
%TF.ProjectId,pmgr_mcu,706d6772-5f6d-4637-952e-6b696361645f,rev?*%
%TF.SameCoordinates,Original*%
%TF.FileFunction,Copper,L3,Inr*%
%TF.FilePolarity,Positive*%
%FSLAX46Y46*%
G04 Gerber Fmt 4.6, Leading zero omitted, Abs format (unit mm)*
G04 Created by KiCad (PCBNEW 9.0.8) date 2026-08-26 16:19:11*
%MOMM*%
%LPD*%
G01*
G04 APERTURE LIST*
%TA.AperFunction,ComponentPad*%
%ADD10R,1.700000X1.700000*%
%TD*%
%TA.AperFunction,ComponentPad*%
%ADD11C,1.700000*%
%TD*%
%TA.AperFunction,ViaPad*%
%ADD12C,0.450000*%
%TD*%
%TA.AperFunction,Conductor*%
%ADD13C,0.150000*%
%TD*%
G04 APERTURE END LIST*
D10*
%TO.N,UPDI*%
%TO.C,J2*%
X97460000Y-90750000D03*
D11*
%TO.N,+5V*%
X97460000Y-88210000D03*
%TO.N,DBG0*%
X100000000Y-90750000D03*
%TO.N,DBG1*%
X100000000Y-88210000D03*
%TO.N,DBG2*%
X102540000Y-90750000D03*
%TO.N,GND*%
X102540000Y-88210000D03*
%TD*%
D12*
%TO.N,+5V*%
X104316100Y-103294100D03*
%TO.N,ADC_IN*%
X100880400Y-107302500D03*
%TO.N,AD_FILTER*%
X98848800Y-99830100D03*
X100006100Y-106783100D03*
%TO.N,AKD*%
X103050000Y-100625272D03*
%TO.N,CHRG_ON_N*%
X104000000Y-100500000D03*
%TO.N,DISP_BLANK_N*%
X99748600Y-103740200D03*
%TO.N,FDB*%
X101829400Y-104538300D03*
%TO.N,GND*%
X106786500Y-102584900D03*
X99715300Y-95495000D03*
%TO.N,HD_PWR_N*%
X95415500Y-94113100D03*
X101275400Y-96394400D03*
%TO.N,HICHG*%
X104463241Y-100051503D03*
%TO.N,IWM_CNTRL*%
X98250000Y-96719700D03*
%TO.N,KBD_RST_N*%
X106798100Y-100340000D03*
X104062600Y-104068700D03*
%TO.N,MINUS5_EN*%
X101554846Y-100297824D03*
%TO.N,MODEM_AB*%
X100354933Y-100617377D03*
%TO.N,MODEM_INS_N*%
X102750000Y-104523300D03*
%TO.N,MODEM_PWR_N*%
X99250000Y-93222500D03*
X103035800Y-97008300D03*
%TO.N,OFF_HOOK*%
X96511500Y-104547500D03*
X100363947Y-99897117D03*
%TO.N,ONESEC_N*%
X93222800Y-103371800D03*
%TO.N,PMACK_N*%
X95456300Y-99861300D03*
%TO.N,PMGCLK_F*%
X98750000Y-104022200D03*
%TO.N,PMGR_ADB*%
X101250000Y-104210300D03*
%TO.N,PMGR_IN0*%
X99981300Y-96709300D03*
X105415600Y-104283800D03*
%TO.N,PMGR_PWM*%
X99224202Y-99361514D03*
X103611600Y-104537300D03*
%TO.N,PMGR_RESET_N*%
X93208000Y-102250000D03*
X97782100Y-100620700D03*
%TO.N,PMINT_N*%
X93216400Y-101016400D03*
%TO.N,PMREQ_N*%
X93208400Y-99915200D03*
%TO.N,RESET_N*%
X96100000Y-102978400D03*
%TO.N,RING_DETECT*%
X102206700Y-102993700D03*
%TO.N,SCC_CNTRL*%
X95064400Y-94633200D03*
X102917100Y-99388000D03*
%TO.N,SERIAL_PWR_N*%
X100750000Y-92611800D03*
X103575700Y-96660100D03*
%TO.N,SIXTYHZ*%
X97135400Y-104535300D03*
%TO.N,SOUND_LATCH*%
X94742500Y-104288400D03*
X99242100Y-100313500D03*
%TO.N,SOUND_OFF*%
X102334300Y-107312300D03*
%TO.N,SOUND_PWR_N*%
X103709300Y-95922900D03*
X101248800Y-93222100D03*
%TO.N,STOP_CLK*%
X103111800Y-103357600D03*
%TO.N,SYS_PWR_N*%
X102099962Y-99878252D03*
%TO.N,SYS_RST_N*%
X95482600Y-100622700D03*
%TO.N,VIAD0*%
X97170400Y-96224900D03*
%TO.N,VIAD1*%
X96750000Y-95647200D03*
%TO.N,VIAD2*%
X96140500Y-95617900D03*
%TO.N,VIAD3*%
X94762600Y-95722100D03*
%TO.N,VIAD4*%
X95406200Y-95513400D03*
%TO.N,VIAD5*%
X97349100Y-97014900D03*
%TO.N,VIAD6*%
X97490000Y-99393400D03*
%TO.N,VIAD7*%
X97391600Y-100006800D03*
%TO.N,VIA_TEST*%
X95460200Y-103114800D03*
%TD*%
D13*
%TO.N,+5V*%
X101207700Y-100008573D02*
X101104846Y-100111427D01*
X101523624Y-100747824D02*
X103274000Y-102498200D01*
X103520200Y-102498200D02*
X104316100Y-103294100D01*
X101207700Y-99040700D02*
X101207700Y-100008573D01*
X101368449Y-100747824D02*
X101523624Y-100747824D01*
X97460000Y-88210000D02*
X98730000Y-89480000D01*
X98730000Y-96563000D02*
X101207700Y-99040700D01*
X98730000Y-89480000D02*
X98730000Y-96563000D01*
X103274000Y-102498200D02*
X103520200Y-102498200D01*
X101104846Y-100484221D02*
X101368449Y-100747824D01*
X101104846Y-100111427D02*
X101104846Y-100484221D01*
%TO.N,OFF_HOOK*%
X99904933Y-100430980D02*
X100168536Y-100167377D01*
X96511500Y-104547500D02*
X96511500Y-103852700D01*
X96511500Y-103852700D02*
X99904933Y-100459267D01*
X100168536Y-100167377D02*
X100196823Y-100167377D01*
X99904933Y-100459267D02*
X99904933Y-100430980D01*
X100196823Y-100167377D02*
X100363947Y-100000253D01*
X100363947Y-100000253D02*
X100363947Y-99897117D01*
%TO.N,PMGR_IN0*%
X102600000Y-99711900D02*
X102600000Y-100914800D01*
X105415500Y-103730300D02*
X105415500Y-104283800D01*
X102600000Y-100914800D02*
X105415500Y-103730300D01*
X105415500Y-104283800D02*
X105415600Y-104283800D01*
X99981300Y-96709300D02*
X99981300Y-97093200D01*
X99981300Y-97093200D02*
X102600000Y-99711900D01*
%TO.N,PMGR_PWM*%
X100804846Y-99987163D02*
X100903100Y-99888909D01*
X99240188Y-99377500D02*
X99224202Y-99361514D01*
X101244185Y-101047824D02*
X100804846Y-100608485D01*
X103610900Y-104536600D02*
X103610900Y-103171600D01*
X103611600Y-104537300D02*
X103610900Y-104536600D01*
X103610900Y-103171600D02*
X103345100Y-102905800D01*
X100619400Y-99377500D02*
X99240188Y-99377500D01*
X100903100Y-99888909D02*
X100903100Y-99661200D01*
X100903100Y-99661200D02*
X100619400Y-99377500D01*
X100804846Y-100608485D02*
X100804846Y-99987163D01*
X103194300Y-102905800D02*
X101336324Y-101047824D01*
X103345100Y-102905800D02*
X103194300Y-102905800D01*
X101336324Y-101047824D02*
X101244185Y-101047824D01*
%TO.N,SOUND_LATCH*%
X94742500Y-104288400D02*
X94742600Y-104288400D01*
X97662500Y-101893100D02*
X99242100Y-100313500D01*
X95974800Y-101893100D02*
X97662500Y-101893100D01*
X94742600Y-103125300D02*
X95974800Y-101893100D01*
X94742600Y-104288400D02*
X94742600Y-103125300D01*
%TD*%
%TA.AperFunction,Conductor*%
%TO.N,GND*%
G36*
X109758691Y-86719407D02*
G01*
X109794655Y-86768907D01*
X109799500Y-86799500D01*
X109799500Y-109700500D01*
X109780593Y-109758691D01*
X109731093Y-109794655D01*
X109700500Y-109799500D01*
X90299500Y-109799500D01*
X90241309Y-109780593D01*
X90205345Y-109731093D01*
X90200500Y-109700500D01*
X90200500Y-106727082D01*
X99580600Y-106727082D01*
X99580600Y-106839118D01*
X99598520Y-106905997D01*
X99609598Y-106947341D01*
X99663810Y-107041237D01*
X99665615Y-107044363D01*
X99744837Y-107123585D01*
X99744839Y-107123586D01*
X99841859Y-107179601D01*
X99841857Y-107179601D01*
X99841861Y-107179602D01*
X99841863Y-107179603D01*
X99950082Y-107208600D01*
X99950084Y-107208600D01*
X100062116Y-107208600D01*
X100062118Y-107208600D01*
X100170337Y-107179603D01*
X100170339Y-107179601D01*
X100170341Y-107179601D01*
X100224966Y-107148063D01*
X100267363Y-107123585D01*
X100307271Y-107083676D01*
X100361785Y-107055900D01*
X100422217Y-107065471D01*
X100465482Y-107108735D01*
X100475054Y-107169167D01*
X100472900Y-107179303D01*
X100472820Y-107179603D01*
X100454900Y-107246482D01*
X100454900Y-107358518D01*
X100457526Y-107368318D01*
X100483898Y-107466741D01*
X100539913Y-107563760D01*
X100539915Y-107563763D01*
X100619137Y-107642985D01*
X100619139Y-107642986D01*
X100716159Y-107699001D01*
X100716157Y-107699001D01*
X100716161Y-107699002D01*
X100716163Y-107699003D01*
X100824382Y-107728000D01*
X100824384Y-107728000D01*
X100936416Y-107728000D01*
X100936418Y-107728000D01*
X101044637Y-107699003D01*
X101044639Y-107699001D01*
X101044641Y-107699001D01*
X101073464Y-107682359D01*
X101141663Y-107642985D01*
X101220885Y-107563763D01*
X101276903Y-107466737D01*
X101305900Y-107358518D01*
X101305900Y-107256282D01*
X101908800Y-107256282D01*
X101908800Y-107368318D01*
X101934372Y-107463755D01*
X101937798Y-107476541D01*
X101988155Y-107563760D01*
X101993815Y-107573563D01*
X102073037Y-107652785D01*
X102073039Y-107652786D01*
X102170059Y-107708801D01*
X102170057Y-107708801D01*
X102170061Y-107708802D01*
X102170063Y-107708803D01*
X102278282Y-107737800D01*
X102278284Y-107737800D01*
X102390316Y-107737800D01*
X102390318Y-107737800D01*
X102498537Y-107708803D01*
X102498539Y-107708801D01*
X102498541Y-107708801D01*
X102527364Y-107692159D01*
X102595563Y-107652785D01*
X102674785Y-107573563D01*
X102730803Y-107476537D01*
X102759800Y-107368318D01*
X102759800Y-107256282D01*
X102730803Y-107148063D01*
X102730801Y-107148060D01*
X102730801Y-107148058D01*
X102674786Y-107051039D01*
X102674785Y-107051037D01*
X102595563Y-106971815D01*
X102595560Y-106971813D01*
X102498540Y-106915798D01*
X102498542Y-106915798D01*
X102456551Y-106904547D01*
X102390318Y-106886800D01*
X102278282Y-106886800D01*
X102212048Y-106904547D01*
X102170058Y-106915798D01*
X102073039Y-106971813D01*
X101993813Y-107051039D01*
X101937798Y-107148058D01*
X101937797Y-107148063D01*
X101908800Y-107256282D01*
X101305900Y-107256282D01*
X101305900Y-107246482D01*
X101276903Y-107138263D01*
X101276901Y-107138260D01*
X101276901Y-107138258D01*
X101220886Y-107041239D01*
X101220885Y-107041237D01*
X101141663Y-106962015D01*
X101141660Y-106962013D01*
X101044640Y-106905998D01*
X101044642Y-106905998D01*
X101002651Y-106894747D01*
X100936418Y-106877000D01*
X100824382Y-106877000D01*
X100758148Y-106894747D01*
X100716158Y-106905998D01*
X100619137Y-106962014D01*
X100579229Y-107001922D01*
X100524712Y-107029699D01*
X100464280Y-107020127D01*
X100421016Y-106976862D01*
X100411445Y-106916430D01*
X100413593Y-106906318D01*
X100431600Y-106839118D01*
X100431600Y-106727082D01*
X100402603Y-106618863D01*
X100402601Y-106618860D01*
X100402601Y-106618858D01*
X100346586Y-106521839D01*
X100346585Y-106521837D01*
X100267363Y-106442615D01*
X100267360Y-106442613D01*
X100170340Y-106386598D01*
X100170342Y-106386598D01*
X100128351Y-106375347D01*
X100062118Y-106357600D01*
X99950082Y-106357600D01*
X99883848Y-106375347D01*
X99841858Y-106386598D01*
X99744839Y-106442613D01*
X99665613Y-106521839D01*
X99609598Y-106618858D01*
X99609597Y-106618863D01*
X99580600Y-106727082D01*
X90200500Y-106727082D01*
X90200500Y-104232382D01*
X94317000Y-104232382D01*
X94317000Y-104344418D01*
X94342572Y-104439855D01*
X94345998Y-104452641D01*
X94399357Y-104545060D01*
X94402015Y-104549663D01*
X94481237Y-104628885D01*
X94513579Y-104647557D01*
X94578259Y-104684901D01*
X94578257Y-104684901D01*
X94578261Y-104684902D01*
X94578263Y-104684903D01*
X94686482Y-104713900D01*
X94686484Y-104713900D01*
X94798516Y-104713900D01*
X94798518Y-104713900D01*
X94906737Y-104684903D01*
X94906739Y-104684901D01*
X94906741Y-104684901D01*
X94935564Y-104668259D01*
X95003763Y-104628885D01*
X95082985Y-104549663D01*
X95123619Y-104479283D01*
X95139001Y-104452641D01*
X95139001Y-104452639D01*
X95139003Y-104452637D01*
X95168000Y-104344418D01*
X95168000Y-104232382D01*
X95139003Y-104124163D01*
X95139001Y-104124160D01*
X95139001Y-104124158D01*
X95082985Y-104027137D01*
X95047096Y-103991247D01*
X95019319Y-103936730D01*
X95018100Y-103921244D01*
X95018100Y-103513455D01*
X95037007Y-103455264D01*
X95086507Y-103419300D01*
X95147693Y-103419300D01*
X95187101Y-103443449D01*
X95198937Y-103455285D01*
X95198939Y-103455286D01*
X95295959Y-103511301D01*
X95295957Y-103511301D01*
X95295961Y-103511302D01*
X95295963Y-103511303D01*
X95404182Y-103540300D01*
X95404184Y-103540300D01*
X95516216Y-103540300D01*
X95516218Y-103540300D01*
X95624437Y-103511303D01*
X95624439Y-103511301D01*
X95624441Y-103511301D01*
X95680493Y-103478939D01*
X95721463Y-103455285D01*
X95797148Y-103379599D01*
X95851662Y-103351823D01*
X95912095Y-103361394D01*
X95916628Y-103363855D01*
X95932770Y-103373175D01*
X95935759Y-103374901D01*
X95935763Y-103374903D01*
X96043982Y-103403900D01*
X96043984Y-103403900D01*
X96156016Y-103403900D01*
X96156018Y-103403900D01*
X96264237Y-103374903D01*
X96264239Y-103374901D01*
X96264241Y-103374901D01*
X96307166Y-103350118D01*
X96361263Y-103318885D01*
X96440485Y-103239663D01*
X96496503Y-103142637D01*
X96525500Y-103034418D01*
X96525500Y-102922382D01*
X96496503Y-102814163D01*
X96496501Y-102814160D01*
X96496501Y-102814158D01*
X96440486Y-102717139D01*
X96440485Y-102717137D01*
X96361263Y-102637915D01*
X96361260Y-102637913D01*
X96264240Y-102581898D01*
X96264242Y-102581898D01*
X96222251Y-102570647D01*
X96156018Y-102552900D01*
X96043982Y-102552900D01*
X95937282Y-102581490D01*
X95876180Y-102578287D01*
X95828630Y-102539782D01*
X95812795Y-102480681D01*
X95834722Y-102423560D01*
X95841656Y-102415859D01*
X96059920Y-102197596D01*
X96114436Y-102169819D01*
X96129923Y-102168600D01*
X97566977Y-102168600D01*
X97625168Y-102187507D01*
X97661132Y-102237007D01*
X97661132Y-102298193D01*
X97636981Y-102337604D01*
X96355442Y-103619143D01*
X96355441Y-103619142D01*
X96277946Y-103696638D01*
X96277944Y-103696640D01*
X96277943Y-103696642D01*
X96241426Y-103784800D01*
X96236000Y-103797900D01*
X96236000Y-104180244D01*
X96217093Y-104238435D01*
X96207004Y-104250247D01*
X96171014Y-104286237D01*
X96114998Y-104383258D01*
X96114997Y-104383263D01*
X96086000Y-104491482D01*
X96086000Y-104603518D01*
X96108513Y-104687537D01*
X96114998Y-104711741D01*
X96165703Y-104799563D01*
X96171015Y-104808763D01*
X96250237Y-104887985D01*
X96282579Y-104906657D01*
X96347259Y-104944001D01*
X96347257Y-104944001D01*
X96347261Y-104944002D01*
X96347263Y-104944003D01*
X96455482Y-104973000D01*
X96455484Y-104973000D01*
X96567516Y-104973000D01*
X96567518Y-104973000D01*
X96675737Y-104944003D01*
X96675739Y-104944001D01*
X96675741Y-104944001D01*
X96724250Y-104915994D01*
X96772763Y-104887985D01*
X96772767Y-104887980D01*
X96772877Y-104887897D01*
X96772977Y-104887861D01*
X96778382Y-104884741D01*
X96778960Y-104885742D01*
X96830552Y-104867469D01*
X96882646Y-104880698D01*
X96971163Y-104931803D01*
X97079382Y-104960800D01*
X97079384Y-104960800D01*
X97191416Y-104960800D01*
X97191418Y-104960800D01*
X97299637Y-104931803D01*
X97299639Y-104931801D01*
X97299641Y-104931801D01*
X97328464Y-104915159D01*
X97396663Y-104875785D01*
X97475885Y-104796563D01*
X97524857Y-104711741D01*
X97531901Y-104699541D01*
X97531901Y-104699539D01*
X97531903Y-104699537D01*
X97560900Y-104591318D01*
X97560900Y-104479282D01*
X97531903Y-104371063D01*
X97531901Y-104371060D01*
X97531901Y-104371058D01*
X97475886Y-104274039D01*
X97475885Y-104274037D01*
X97396663Y-104194815D01*
X97382152Y-104186437D01*
X97299640Y-104138798D01*
X97299642Y-104138798D01*
X97247093Y-104124718D01*
X97191418Y-104109800D01*
X97079382Y-104109800D01*
X97042946Y-104119563D01*
X96971161Y-104138797D01*
X96935500Y-104159387D01*
X96925152Y-104161586D01*
X96916593Y-104167805D01*
X96895895Y-104167805D01*
X96875651Y-104172108D01*
X96865987Y-104167805D01*
X96855407Y-104167805D01*
X96838661Y-104155638D01*
X96819756Y-104147221D01*
X96814466Y-104138060D01*
X96805907Y-104131841D01*
X96799511Y-104112156D01*
X96789163Y-104094233D01*
X96787000Y-104073650D01*
X96787000Y-104007822D01*
X96800529Y-103966182D01*
X98324500Y-103966182D01*
X98324500Y-104078218D01*
X98346249Y-104159387D01*
X98353498Y-104186441D01*
X98405805Y-104277037D01*
X98409515Y-104283463D01*
X98488737Y-104362685D01*
X98503248Y-104371063D01*
X98585759Y-104418701D01*
X98585757Y-104418701D01*
X98585761Y-104418702D01*
X98585763Y-104418703D01*
X98693982Y-104447700D01*
X98693984Y-104447700D01*
X98806016Y-104447700D01*
X98806018Y-104447700D01*
X98914237Y-104418703D01*
X98914239Y-104418701D01*
X98914241Y-104418701D01*
X98943064Y-104402059D01*
X99011263Y-104362685D01*
X99090485Y-104283463D01*
X99146503Y-104186437D01*
X99175500Y-104078218D01*
X99175500Y-103966182D01*
X99146503Y-103857963D01*
X99090485Y-103760937D01*
X99013730Y-103684182D01*
X99323100Y-103684182D01*
X99323100Y-103796218D01*
X99352097Y-103904437D01*
X99366233Y-103928921D01*
X99366234Y-103928924D01*
X99408113Y-104001460D01*
X99408115Y-104001463D01*
X99487337Y-104080685D01*
X99487339Y-104080686D01*
X99584359Y-104136701D01*
X99584357Y-104136701D01*
X99584361Y-104136702D01*
X99584363Y-104136703D01*
X99692582Y-104165700D01*
X99692584Y-104165700D01*
X99804616Y-104165700D01*
X99804618Y-104165700D01*
X99912837Y-104136703D01*
X99912839Y-104136701D01*
X99912841Y-104136701D01*
X99954238Y-104112800D01*
X100009863Y-104080685D01*
X100089085Y-104001463D01*
X100130965Y-103928924D01*
X100145101Y-103904441D01*
X100145101Y-103904439D01*
X100145103Y-103904437D01*
X100174100Y-103796218D01*
X100174100Y-103684182D01*
X100145103Y-103575963D01*
X100145101Y-103575960D01*
X100145101Y-103575958D01*
X100089086Y-103478939D01*
X100089085Y-103478937D01*
X100009863Y-103399715D01*
X99993388Y-103390203D01*
X99912840Y-103343698D01*
X99912842Y-103343698D01*
X99870851Y-103332447D01*
X99804618Y-103314700D01*
X99692582Y-103314700D01*
X99626348Y-103332447D01*
X99584358Y-103343698D01*
X99487339Y-103399713D01*
X99408113Y-103478939D01*
X99352098Y-103575958D01*
X99340603Y-103618860D01*
X99323100Y-103684182D01*
X99013730Y-103684182D01*
X99011263Y-103681715D01*
X99006739Y-103679103D01*
X98914240Y-103625698D01*
X98914242Y-103625698D01*
X98872251Y-103614447D01*
X98806018Y-103596700D01*
X98693982Y-103596700D01*
X98627748Y-103614447D01*
X98585758Y-103625698D01*
X98488739Y-103681713D01*
X98409513Y-103760939D01*
X98353498Y-103857958D01*
X98353497Y-103857963D01*
X98324500Y-103966182D01*
X96800529Y-103966182D01*
X96805907Y-103949631D01*
X96815990Y-103937824D01*
X99874809Y-100879004D01*
X99929324Y-100851229D01*
X99989756Y-100860800D01*
X100014811Y-100879003D01*
X100093670Y-100957862D01*
X100107343Y-100965756D01*
X100190692Y-101013878D01*
X100190690Y-101013878D01*
X100190694Y-101013879D01*
X100190696Y-101013880D01*
X100298915Y-101042877D01*
X100298917Y-101042877D01*
X100410949Y-101042877D01*
X100410951Y-101042877D01*
X100519170Y-101013880D01*
X100519172Y-101013878D01*
X100519174Y-101013878D01*
X100616193Y-100957864D01*
X100616193Y-100957863D01*
X100616196Y-100957862D01*
X100620394Y-100953663D01*
X100674908Y-100925884D01*
X100735341Y-100935452D01*
X100760404Y-100953660D01*
X100946281Y-101139536D01*
X101088126Y-101281381D01*
X101117784Y-101293665D01*
X101189385Y-101323324D01*
X101198803Y-101323324D01*
X101215324Y-101329390D01*
X101226216Y-101337950D01*
X101239392Y-101342231D01*
X101251205Y-101352320D01*
X102298081Y-102399196D01*
X102325858Y-102453713D01*
X102316287Y-102514145D01*
X102273022Y-102557410D01*
X102228077Y-102568200D01*
X102150682Y-102568200D01*
X102113037Y-102578287D01*
X102042458Y-102597198D01*
X101945439Y-102653213D01*
X101866213Y-102732439D01*
X101810198Y-102829458D01*
X101810197Y-102829463D01*
X101781200Y-102937682D01*
X101781200Y-103049718D01*
X101797496Y-103110537D01*
X101810198Y-103157941D01*
X101866213Y-103254960D01*
X101866215Y-103254963D01*
X101945437Y-103334185D01*
X101945439Y-103334186D01*
X102042459Y-103390201D01*
X102042457Y-103390201D01*
X102042461Y-103390202D01*
X102042463Y-103390203D01*
X102150682Y-103419200D01*
X102150684Y-103419200D01*
X102262716Y-103419200D01*
X102262718Y-103419200D01*
X102370937Y-103390203D01*
X102370939Y-103390201D01*
X102370941Y-103390201D01*
X102416549Y-103363869D01*
X102467963Y-103334185D01*
X102517298Y-103284849D01*
X102571813Y-103257074D01*
X102632245Y-103266645D01*
X102675510Y-103309910D01*
X102686300Y-103354855D01*
X102686300Y-103413618D01*
X102703802Y-103478937D01*
X102715298Y-103521841D01*
X102758519Y-103596700D01*
X102771315Y-103618863D01*
X102850537Y-103698085D01*
X102850539Y-103698086D01*
X102947559Y-103754101D01*
X102947557Y-103754101D01*
X102947561Y-103754102D01*
X102947563Y-103754103D01*
X103055782Y-103783100D01*
X103055784Y-103783100D01*
X103167817Y-103783100D01*
X103167818Y-103783100D01*
X103210777Y-103771589D01*
X103271877Y-103774790D01*
X103319428Y-103813295D01*
X103335400Y-103867215D01*
X103335400Y-104170744D01*
X103333669Y-104176071D01*
X103334808Y-104181556D01*
X103325762Y-104200406D01*
X103316493Y-104228935D01*
X103309659Y-104237333D01*
X103308061Y-104239090D01*
X103271115Y-104276037D01*
X103265258Y-104286180D01*
X103258100Y-104294056D01*
X103240317Y-104304211D01*
X103225098Y-104317912D01*
X103214351Y-104319040D01*
X103204968Y-104324399D01*
X103184611Y-104322162D01*
X103164247Y-104324301D01*
X103154891Y-104318898D01*
X103144149Y-104317718D01*
X103128994Y-104303942D01*
X103111263Y-104293703D01*
X103099105Y-104276967D01*
X103090486Y-104262039D01*
X103090485Y-104262037D01*
X103011263Y-104182815D01*
X103011260Y-104182813D01*
X102914240Y-104126798D01*
X102914242Y-104126798D01*
X102861999Y-104112800D01*
X102806018Y-104097800D01*
X102693982Y-104097800D01*
X102638001Y-104112800D01*
X102585758Y-104126798D01*
X102488739Y-104182813D01*
X102409514Y-104262038D01*
X102371105Y-104328563D01*
X102325634Y-104369504D01*
X102264784Y-104375898D01*
X102211797Y-104345305D01*
X102199636Y-104328568D01*
X102169885Y-104277037D01*
X102090663Y-104197815D01*
X102085467Y-104194815D01*
X101993640Y-104141798D01*
X101993642Y-104141798D01*
X101951651Y-104130547D01*
X101885418Y-104112800D01*
X101773382Y-104112800D01*
X101770543Y-104113560D01*
X101767305Y-104114428D01*
X101706204Y-104111221D01*
X101658657Y-104072712D01*
X101649388Y-104051889D01*
X101648985Y-104052056D01*
X101646504Y-104046068D01*
X101646503Y-104046063D01*
X101590485Y-103949037D01*
X101511263Y-103869815D01*
X101490735Y-103857963D01*
X101414240Y-103813798D01*
X101414242Y-103813798D01*
X101354908Y-103797900D01*
X101306018Y-103784800D01*
X101193982Y-103784800D01*
X101145092Y-103797900D01*
X101085758Y-103813798D01*
X100988739Y-103869813D01*
X100909513Y-103949039D01*
X100853498Y-104046058D01*
X100853497Y-104046063D01*
X100824500Y-104154282D01*
X100824500Y-104266318D01*
X100841553Y-104329960D01*
X100853498Y-104374541D01*
X100898588Y-104452637D01*
X100909515Y-104471563D01*
X100988737Y-104550785D01*
X100988739Y-104550786D01*
X101085759Y-104606801D01*
X101085757Y-104606801D01*
X101085761Y-104606802D01*
X101085763Y-104606803D01*
X101193982Y-104635800D01*
X101193984Y-104635800D01*
X101306016Y-104635800D01*
X101306018Y-104635800D01*
X101312085Y-104634174D01*
X101373184Y-104637374D01*
X101420736Y-104675877D01*
X101430012Y-104696711D01*
X101430415Y-104696545D01*
X101432898Y-104702540D01*
X101488913Y-104799560D01*
X101488915Y-104799563D01*
X101568137Y-104878785D01*
X101584072Y-104887985D01*
X101665159Y-104934801D01*
X101665157Y-104934801D01*
X101665161Y-104934802D01*
X101665163Y-104934803D01*
X101773382Y-104963800D01*
X101773384Y-104963800D01*
X101885416Y-104963800D01*
X101885418Y-104963800D01*
X101993637Y-104934803D01*
X101993639Y-104934801D01*
X101993641Y-104934801D01*
X102022464Y-104918159D01*
X102090663Y-104878785D01*
X102169885Y-104799563D01*
X102202718Y-104742694D01*
X102208294Y-104733037D01*
X102253763Y-104692096D01*
X102314613Y-104685700D01*
X102367601Y-104716293D01*
X102379766Y-104733037D01*
X102408682Y-104783121D01*
X102409515Y-104784563D01*
X102488737Y-104863785D01*
X102518033Y-104880699D01*
X102585759Y-104919801D01*
X102585757Y-104919801D01*
X102585761Y-104919802D01*
X102585763Y-104919803D01*
X102693982Y-104948800D01*
X102693984Y-104948800D01*
X102806016Y-104948800D01*
X102806018Y-104948800D01*
X102914237Y-104919803D01*
X102914239Y-104919801D01*
X102914241Y-104919801D01*
X102943064Y-104903159D01*
X103011263Y-104863785D01*
X103090485Y-104784563D01*
X103091020Y-104783636D01*
X103091591Y-104783121D01*
X103094434Y-104779417D01*
X103095120Y-104779943D01*
X103136484Y-104742694D01*
X103197334Y-104736294D01*
X103250324Y-104766883D01*
X103262494Y-104783631D01*
X103271115Y-104798563D01*
X103350337Y-104877785D01*
X103368004Y-104887985D01*
X103447359Y-104933801D01*
X103447357Y-104933801D01*
X103447361Y-104933802D01*
X103447363Y-104933803D01*
X103555582Y-104962800D01*
X103555584Y-104962800D01*
X103667616Y-104962800D01*
X103667618Y-104962800D01*
X103775837Y-104933803D01*
X103775839Y-104933801D01*
X103775841Y-104933801D01*
X103804664Y-104917159D01*
X103872863Y-104877785D01*
X103952085Y-104798563D01*
X104008103Y-104701537D01*
X104037100Y-104593318D01*
X104037100Y-104591752D01*
X104037446Y-104590685D01*
X104037947Y-104586884D01*
X104038651Y-104586976D01*
X104056007Y-104533561D01*
X104105507Y-104497597D01*
X104112393Y-104496040D01*
X104112350Y-104495879D01*
X104118616Y-104494200D01*
X104118618Y-104494200D01*
X104226837Y-104465203D01*
X104226839Y-104465201D01*
X104226841Y-104465201D01*
X104257153Y-104447700D01*
X104323863Y-104409185D01*
X104403085Y-104329963D01*
X104459103Y-104232937D01*
X104488100Y-104124718D01*
X104488100Y-104012682D01*
X104459103Y-103904463D01*
X104419526Y-103835914D01*
X104406805Y-103776069D01*
X104431691Y-103720173D01*
X104474658Y-103693842D01*
X104474345Y-103693085D01*
X104479126Y-103691104D01*
X104479640Y-103690789D01*
X104480337Y-103690603D01*
X104577363Y-103634585D01*
X104656585Y-103555363D01*
X104663216Y-103543876D01*
X104708683Y-103502935D01*
X104769533Y-103496538D01*
X104818953Y-103523368D01*
X105111005Y-103815420D01*
X105114630Y-103822535D01*
X105121093Y-103827231D01*
X105128256Y-103849279D01*
X105138781Y-103869935D01*
X105140000Y-103885422D01*
X105140000Y-103916644D01*
X105121093Y-103974835D01*
X105111004Y-103986647D01*
X105075114Y-104022537D01*
X105019098Y-104119558D01*
X105017158Y-104126798D01*
X104990100Y-104227782D01*
X104990100Y-104339818D01*
X105011237Y-104418703D01*
X105019098Y-104448041D01*
X105047710Y-104497597D01*
X105075115Y-104545063D01*
X105154337Y-104624285D01*
X105162306Y-104628886D01*
X105251359Y-104680301D01*
X105251357Y-104680301D01*
X105251361Y-104680302D01*
X105251363Y-104680303D01*
X105359582Y-104709300D01*
X105359584Y-104709300D01*
X105471616Y-104709300D01*
X105471618Y-104709300D01*
X105579837Y-104680303D01*
X105579839Y-104680301D01*
X105579841Y-104680301D01*
X105608664Y-104663659D01*
X105676863Y-104624285D01*
X105756085Y-104545063D01*
X105812103Y-104448037D01*
X105841100Y-104339818D01*
X105841100Y-104227782D01*
X105812103Y-104119563D01*
X105812101Y-104119560D01*
X105812101Y-104119558D01*
X105756085Y-104022537D01*
X105719996Y-103986447D01*
X105692219Y-103931930D01*
X105691000Y-103916444D01*
X105691000Y-103675500D01*
X105657490Y-103594599D01*
X105649058Y-103574243D01*
X105649057Y-103574242D01*
X105649057Y-103574241D01*
X103230881Y-101156066D01*
X103203105Y-101101550D01*
X103212676Y-101041118D01*
X103251383Y-101000328D01*
X103311263Y-100965757D01*
X103390485Y-100886535D01*
X103446503Y-100789509D01*
X103457335Y-100749081D01*
X103490657Y-100697769D01*
X103547779Y-100675842D01*
X103606879Y-100691677D01*
X103638696Y-100725204D01*
X103659515Y-100761263D01*
X103738737Y-100840485D01*
X103738739Y-100840486D01*
X103835759Y-100896501D01*
X103835757Y-100896501D01*
X103835761Y-100896502D01*
X103835763Y-100896503D01*
X103943982Y-100925500D01*
X103943984Y-100925500D01*
X104056016Y-100925500D01*
X104056018Y-100925500D01*
X104164237Y-100896503D01*
X104164239Y-100896501D01*
X104164241Y-100896501D01*
X104226076Y-100860800D01*
X104261263Y-100840485D01*
X104340485Y-100761263D01*
X104380661Y-100691677D01*
X104396501Y-100664241D01*
X104396501Y-100664239D01*
X104396503Y-100664237D01*
X104425500Y-100556018D01*
X104425500Y-100556015D01*
X104427010Y-100550380D01*
X104460334Y-100499066D01*
X104512958Y-100478865D01*
X104512825Y-100477850D01*
X104517052Y-100477293D01*
X104517455Y-100477139D01*
X104518416Y-100477113D01*
X104519256Y-100477003D01*
X104519259Y-100477003D01*
X104627478Y-100448006D01*
X104627481Y-100448004D01*
X104627482Y-100448004D01*
X104662990Y-100427503D01*
X104724504Y-100391988D01*
X104803726Y-100312766D01*
X104820344Y-100283982D01*
X106372600Y-100283982D01*
X106372600Y-100396018D01*
X106394527Y-100477850D01*
X106401598Y-100504241D01*
X106442160Y-100574495D01*
X106457615Y-100601263D01*
X106536837Y-100680485D01*
X106556222Y-100691677D01*
X106633859Y-100736501D01*
X106633857Y-100736501D01*
X106633861Y-100736502D01*
X106633863Y-100736503D01*
X106742082Y-100765500D01*
X106742084Y-100765500D01*
X106854116Y-100765500D01*
X106854118Y-100765500D01*
X106962337Y-100736503D01*
X106962339Y-100736501D01*
X106962341Y-100736501D01*
X107029426Y-100697769D01*
X107059363Y-100680485D01*
X107138585Y-100601263D01*
X107194603Y-100504237D01*
X107223600Y-100396018D01*
X107223600Y-100283982D01*
X107194603Y-100175763D01*
X107194601Y-100175760D01*
X107194601Y-100175758D01*
X107138586Y-100078739D01*
X107138585Y-100078737D01*
X107059363Y-99999515D01*
X107059360Y-99999513D01*
X106962340Y-99943498D01*
X106962342Y-99943498D01*
X106920351Y-99932247D01*
X106854118Y-99914500D01*
X106742082Y-99914500D01*
X106675848Y-99932247D01*
X106633858Y-99943498D01*
X106536839Y-99999513D01*
X106457613Y-100078739D01*
X106401598Y-100175758D01*
X106387603Y-100227991D01*
X106372600Y-100283982D01*
X104820344Y-100283982D01*
X104859744Y-100215740D01*
X104888741Y-100107521D01*
X104888741Y-99995485D01*
X104859744Y-99887266D01*
X104859742Y-99887263D01*
X104859742Y-99887261D01*
X104803727Y-99790242D01*
X104803726Y-99790240D01*
X104724504Y-99711018D01*
X104724501Y-99711016D01*
X104627481Y-99655001D01*
X104627483Y-99655001D01*
X104585492Y-99643750D01*
X104519259Y-99626003D01*
X104407223Y-99626003D01*
X104340989Y-99643750D01*
X104298999Y-99655001D01*
X104201980Y-99711016D01*
X104122754Y-99790242D01*
X104066739Y-99887261D01*
X104056648Y-99924920D01*
X104037741Y-99995485D01*
X104037741Y-99995486D01*
X104036231Y-100001123D01*
X104002907Y-100052437D01*
X103950282Y-100072637D01*
X103950416Y-100073653D01*
X103946188Y-100074209D01*
X103945786Y-100074364D01*
X103944824Y-100074389D01*
X103943984Y-100074499D01*
X103835758Y-100103498D01*
X103738739Y-100159513D01*
X103659513Y-100238739D01*
X103603498Y-100335759D01*
X103603496Y-100335763D01*
X103592664Y-100376189D01*
X103559340Y-100427503D01*
X103502218Y-100449429D01*
X103443118Y-100433593D01*
X103411303Y-100400067D01*
X103390485Y-100364009D01*
X103311263Y-100284787D01*
X103309964Y-100284037D01*
X103214240Y-100228770D01*
X103214242Y-100228770D01*
X103165612Y-100215740D01*
X103106018Y-100199772D01*
X102993982Y-100199772D01*
X102993981Y-100199772D01*
X102987550Y-100200619D01*
X102987132Y-100197449D01*
X102972032Y-100196655D01*
X102943907Y-100196655D01*
X102941711Y-100195059D01*
X102939002Y-100194917D01*
X102917163Y-100177224D01*
X102894407Y-100160691D01*
X102893568Y-100158108D01*
X102891460Y-100156401D01*
X102875500Y-100102500D01*
X102875500Y-99912500D01*
X102894407Y-99854309D01*
X102943907Y-99818345D01*
X102966734Y-99814729D01*
X102966684Y-99814347D01*
X102973115Y-99813500D01*
X102973118Y-99813500D01*
X103081337Y-99784503D01*
X103081340Y-99784501D01*
X103081341Y-99784501D01*
X103127212Y-99758017D01*
X103178363Y-99728485D01*
X103257585Y-99649263D01*
X103300625Y-99574715D01*
X103313601Y-99552241D01*
X103313601Y-99552239D01*
X103313603Y-99552237D01*
X103342600Y-99444018D01*
X103342600Y-99331982D01*
X103313603Y-99223763D01*
X103313601Y-99223760D01*
X103313601Y-99223758D01*
X103257586Y-99126739D01*
X103257585Y-99126737D01*
X103178363Y-99047515D01*
X103178360Y-99047513D01*
X103081340Y-98991498D01*
X103081342Y-98991498D01*
X103039351Y-98980247D01*
X102973118Y-98962500D01*
X102861082Y-98962500D01*
X102794848Y-98980247D01*
X102752858Y-98991498D01*
X102655839Y-99047513D01*
X102576609Y-99126743D01*
X102572666Y-99131883D01*
X102570971Y-99130582D01*
X102532615Y-99165100D01*
X102471764Y-99171480D01*
X102422368Y-99144653D01*
X100348595Y-97070880D01*
X100347367Y-97068470D01*
X100345027Y-97067119D01*
X100333588Y-97041427D01*
X100320818Y-97016363D01*
X100321240Y-97013693D01*
X100320141Y-97011223D01*
X100325989Y-96983710D01*
X100330389Y-96955931D01*
X100332370Y-96952282D01*
X102610300Y-96952282D01*
X102610300Y-97064318D01*
X102631972Y-97145200D01*
X102639298Y-97172541D01*
X102695313Y-97269560D01*
X102695315Y-97269563D01*
X102774537Y-97348785D01*
X102774539Y-97348786D01*
X102871559Y-97404801D01*
X102871557Y-97404801D01*
X102871561Y-97404802D01*
X102871563Y-97404803D01*
X102979782Y-97433800D01*
X102979784Y-97433800D01*
X103091816Y-97433800D01*
X103091818Y-97433800D01*
X103200037Y-97404803D01*
X103200039Y-97404801D01*
X103200041Y-97404801D01*
X103228864Y-97388159D01*
X103297063Y-97348785D01*
X103376285Y-97269563D01*
X103432303Y-97172537D01*
X103435937Y-97158975D01*
X103469262Y-97107661D01*
X103526383Y-97085736D01*
X103531563Y-97085600D01*
X103631716Y-97085600D01*
X103631718Y-97085600D01*
X103739937Y-97056603D01*
X103739939Y-97056601D01*
X103739941Y-97056601D01*
X103776405Y-97035548D01*
X103836963Y-97000585D01*
X103916185Y-96921363D01*
X103972203Y-96824337D01*
X104001200Y-96716118D01*
X104001200Y-96604082D01*
X103972203Y-96495863D01*
X103972201Y-96495860D01*
X103972201Y-96495858D01*
X103920627Y-96406530D01*
X103907905Y-96346682D01*
X103932791Y-96290786D01*
X103956861Y-96271295D01*
X103970563Y-96263385D01*
X104049785Y-96184163D01*
X104105803Y-96087137D01*
X104134800Y-95978918D01*
X104134800Y-95866882D01*
X104105803Y-95758663D01*
X104105801Y-95758660D01*
X104105801Y-95758658D01*
X104049786Y-95661639D01*
X104049785Y-95661637D01*
X103970563Y-95582415D01*
X103970560Y-95582413D01*
X103873540Y-95526398D01*
X103873542Y-95526398D01*
X103831551Y-95515147D01*
X103765318Y-95497400D01*
X103653282Y-95497400D01*
X103587048Y-95515147D01*
X103545058Y-95526398D01*
X103448039Y-95582413D01*
X103368813Y-95661639D01*
X103312798Y-95758658D01*
X103306507Y-95782137D01*
X103283800Y-95866882D01*
X103283800Y-95978918D01*
X103288886Y-95997898D01*
X103312797Y-96087138D01*
X103364373Y-96176469D01*
X103377094Y-96236317D01*
X103352207Y-96292213D01*
X103328138Y-96311704D01*
X103314439Y-96319613D01*
X103235213Y-96398839D01*
X103179199Y-96495857D01*
X103179197Y-96495861D01*
X103179197Y-96495863D01*
X103175562Y-96509425D01*
X103142239Y-96560738D01*
X103085118Y-96582664D01*
X103079937Y-96582800D01*
X102979782Y-96582800D01*
X102913548Y-96600547D01*
X102871558Y-96611798D01*
X102774539Y-96667813D01*
X102695313Y-96747039D01*
X102639298Y-96844058D01*
X102631399Y-96873540D01*
X102610300Y-96952282D01*
X100332370Y-96952282D01*
X100332863Y-96951375D01*
X100364666Y-96896292D01*
X100364666Y-96896291D01*
X100366028Y-96893930D01*
X100377803Y-96873537D01*
X100406800Y-96765318D01*
X100406800Y-96653282D01*
X100377803Y-96545063D01*
X100377801Y-96545060D01*
X100377801Y-96545058D01*
X100323160Y-96450418D01*
X100321785Y-96448037D01*
X100242563Y-96368815D01*
X100204228Y-96346682D01*
X100189852Y-96338382D01*
X100849900Y-96338382D01*
X100849900Y-96450418D01*
X100875259Y-96545058D01*
X100878898Y-96558641D01*
X100933540Y-96653282D01*
X100934915Y-96655663D01*
X101014137Y-96734885D01*
X101014139Y-96734886D01*
X101111159Y-96790901D01*
X101111157Y-96790901D01*
X101111161Y-96790902D01*
X101111163Y-96790903D01*
X101219382Y-96819900D01*
X101219384Y-96819900D01*
X101331416Y-96819900D01*
X101331418Y-96819900D01*
X101439637Y-96790903D01*
X101439639Y-96790901D01*
X101439641Y-96790901D01*
X101468464Y-96774259D01*
X101536663Y-96734885D01*
X101615885Y-96655663D01*
X101655259Y-96587464D01*
X101671901Y-96558641D01*
X101671901Y-96558639D01*
X101671903Y-96558637D01*
X101700900Y-96450418D01*
X101700900Y-96338382D01*
X101671903Y-96230163D01*
X101671901Y-96230160D01*
X101671901Y-96230158D01*
X101615886Y-96133139D01*
X101615885Y-96133137D01*
X101536663Y-96053915D01*
X101536660Y-96053913D01*
X101439640Y-95997898D01*
X101439642Y-95997898D01*
X101391221Y-95984924D01*
X101331418Y-95968900D01*
X101219382Y-95968900D01*
X101159579Y-95984924D01*
X101111158Y-95997898D01*
X101014139Y-96053913D01*
X100934913Y-96133139D01*
X100878898Y-96230158D01*
X100865298Y-96280916D01*
X100849900Y-96338382D01*
X100189852Y-96338382D01*
X100145540Y-96312798D01*
X100145542Y-96312798D01*
X100094497Y-96299121D01*
X100037318Y-96283800D01*
X99925282Y-96283800D01*
X99868103Y-96299121D01*
X99817058Y-96312798D01*
X99720039Y-96368813D01*
X99640813Y-96448039D01*
X99584798Y-96545058D01*
X99555800Y-96653283D01*
X99555800Y-96760177D01*
X99536893Y-96818368D01*
X99487393Y-96854332D01*
X99426207Y-96854332D01*
X99386796Y-96830181D01*
X99034496Y-96477881D01*
X99006719Y-96423364D01*
X99005500Y-96407877D01*
X99005500Y-93726515D01*
X99024407Y-93668324D01*
X99073907Y-93632360D01*
X99130122Y-93630889D01*
X99193982Y-93648000D01*
X99193983Y-93648000D01*
X99306016Y-93648000D01*
X99306018Y-93648000D01*
X99414237Y-93619003D01*
X99414239Y-93619001D01*
X99414241Y-93619001D01*
X99443064Y-93602359D01*
X99511263Y-93562985D01*
X99590485Y-93483763D01*
X99646503Y-93386737D01*
X99675500Y-93278518D01*
X99675500Y-93166482D01*
X99646503Y-93058263D01*
X99646501Y-93058260D01*
X99646501Y-93058258D01*
X99590486Y-92961239D01*
X99590485Y-92961237D01*
X99511263Y-92882015D01*
X99511260Y-92882013D01*
X99414240Y-92825998D01*
X99414242Y-92825998D01*
X99372251Y-92814747D01*
X99306018Y-92797000D01*
X99193982Y-92797000D01*
X99130122Y-92814111D01*
X99069021Y-92810908D01*
X99021471Y-92772403D01*
X99005500Y-92718484D01*
X99005500Y-92555782D01*
X100324500Y-92555782D01*
X100324500Y-92667818D01*
X100350072Y-92763255D01*
X100353498Y-92776041D01*
X100409095Y-92872336D01*
X100409515Y-92873063D01*
X100488737Y-92952285D01*
X100503553Y-92960839D01*
X100585759Y-93008301D01*
X100585757Y-93008301D01*
X100585761Y-93008302D01*
X100585763Y-93008303D01*
X100693982Y-93037300D01*
X100693984Y-93037300D01*
X100728788Y-93037300D01*
X100786979Y-93056207D01*
X100822943Y-93105707D01*
X100824414Y-93161924D01*
X100823300Y-93166079D01*
X100823300Y-93166082D01*
X100823300Y-93278118D01*
X100848872Y-93373555D01*
X100852298Y-93386341D01*
X100908313Y-93483360D01*
X100908315Y-93483363D01*
X100987537Y-93562585D01*
X100987539Y-93562586D01*
X101084559Y-93618601D01*
X101084557Y-93618601D01*
X101084561Y-93618602D01*
X101084563Y-93618603D01*
X101192782Y-93647600D01*
X101192784Y-93647600D01*
X101304816Y-93647600D01*
X101304818Y-93647600D01*
X101413037Y-93618603D01*
X101413039Y-93618601D01*
X101413041Y-93618601D01*
X101441864Y-93601959D01*
X101510063Y-93562585D01*
X101589285Y-93483363D01*
X101645303Y-93386337D01*
X101674300Y-93278118D01*
X101674300Y-93166082D01*
X101645303Y-93057863D01*
X101645301Y-93057860D01*
X101645301Y-93057858D01*
X101589286Y-92960839D01*
X101589285Y-92960837D01*
X101510063Y-92881615D01*
X101495251Y-92873063D01*
X101413040Y-92825598D01*
X101413042Y-92825598D01*
X101370170Y-92814111D01*
X101304818Y-92796600D01*
X101270012Y-92796600D01*
X101211821Y-92777693D01*
X101175857Y-92728193D01*
X101174386Y-92671976D01*
X101175499Y-92667820D01*
X101175500Y-92667817D01*
X101175500Y-92555783D01*
X101175500Y-92555782D01*
X101146503Y-92447563D01*
X101146501Y-92447560D01*
X101146501Y-92447558D01*
X101090486Y-92350539D01*
X101090485Y-92350537D01*
X101011263Y-92271315D01*
X101011260Y-92271313D01*
X100914240Y-92215298D01*
X100914242Y-92215298D01*
X100872251Y-92204047D01*
X100806018Y-92186300D01*
X100693982Y-92186300D01*
X100627748Y-92204047D01*
X100585758Y-92215298D01*
X100488739Y-92271313D01*
X100409513Y-92350539D01*
X100353498Y-92447558D01*
X100353497Y-92447563D01*
X100324500Y-92555782D01*
X99005500Y-92555782D01*
X99005500Y-91478810D01*
X99024407Y-91420619D01*
X99073907Y-91384655D01*
X99135093Y-91384655D01*
X99181030Y-91416008D01*
X99184017Y-91419648D01*
X99184020Y-91419651D01*
X99184023Y-91419655D01*
X99330345Y-91565977D01*
X99502402Y-91680941D01*
X99693580Y-91760130D01*
X99896535Y-91800500D01*
X99896536Y-91800500D01*
X100103464Y-91800500D01*
X100103465Y-91800500D01*
X100306420Y-91760130D01*
X100497598Y-91680941D01*
X100669655Y-91565977D01*
X100815977Y-91419655D01*
X100930941Y-91247598D01*
X101010130Y-91056420D01*
X101050500Y-90853465D01*
X101050500Y-90646535D01*
X101050499Y-90646532D01*
X101489500Y-90646532D01*
X101489500Y-90853467D01*
X101529869Y-91056418D01*
X101609058Y-91247597D01*
X101609059Y-91247598D01*
X101724023Y-91419655D01*
X101870345Y-91565977D01*
X102042402Y-91680941D01*
X102233580Y-91760130D01*
X102436535Y-91800500D01*
X102436536Y-91800500D01*
X102643464Y-91800500D01*
X102643465Y-91800500D01*
X102846420Y-91760130D01*
X103037598Y-91680941D01*
X103209655Y-91565977D01*
X103355977Y-91419655D01*
X103470941Y-91247598D01*
X103550130Y-91056420D01*
X103590500Y-90853465D01*
X103590500Y-90646535D01*
X103550130Y-90443580D01*
X103470941Y-90252402D01*
X103355977Y-90080345D01*
X103209655Y-89934023D01*
X103129182Y-89880253D01*
X103037597Y-89819058D01*
X102846418Y-89739869D01*
X102643467Y-89699500D01*
X102643465Y-89699500D01*
X102436535Y-89699500D01*
X102436532Y-89699500D01*
X102233581Y-89739869D01*
X102042402Y-89819058D01*
X101870348Y-89934020D01*
X101724020Y-90080348D01*
X101609058Y-90252402D01*
X101529869Y-90443581D01*
X101489500Y-90646532D01*
X101050499Y-90646532D01*
X101010130Y-90443580D01*
X100930941Y-90252402D01*
X100815977Y-90080345D01*
X100669655Y-89934023D01*
X100589182Y-89880253D01*
X100497597Y-89819058D01*
X100306418Y-89739869D01*
X100103467Y-89699500D01*
X100103465Y-89699500D01*
X99896535Y-89699500D01*
X99896532Y-89699500D01*
X99693581Y-89739869D01*
X99502402Y-89819058D01*
X99330348Y-89934020D01*
X99184015Y-90080353D01*
X99181026Y-90083996D01*
X99129493Y-90116982D01*
X99068414Y-90113378D01*
X99021119Y-90074561D01*
X99005500Y-90021189D01*
X99005500Y-89425200D01*
X98963557Y-89323942D01*
X98963557Y-89323941D01*
X98424908Y-88785292D01*
X98397131Y-88730775D01*
X98403447Y-88677404D01*
X98470130Y-88516420D01*
X98510500Y-88313465D01*
X98510500Y-88106535D01*
X98510499Y-88106532D01*
X98949500Y-88106532D01*
X98949500Y-88313467D01*
X98989869Y-88516418D01*
X99069058Y-88707597D01*
X99184020Y-88879651D01*
X99184023Y-88879655D01*
X99330345Y-89025977D01*
X99502402Y-89140941D01*
X99693580Y-89220130D01*
X99896535Y-89260500D01*
X99896536Y-89260500D01*
X100103464Y-89260500D01*
X100103465Y-89260500D01*
X100306420Y-89220130D01*
X100497598Y-89140941D01*
X100669655Y-89025977D01*
X100815977Y-88879655D01*
X100930941Y-88707598D01*
X101010130Y-88516420D01*
X101050500Y-88313465D01*
X101050500Y-88119489D01*
X101390000Y-88119489D01*
X101390000Y-88300510D01*
X101418316Y-88479289D01*
X101474250Y-88651440D01*
X101556430Y-88812728D01*
X101597667Y-88869488D01*
X102071980Y-88395174D01*
X102074075Y-88402993D01*
X102139901Y-88517007D01*
X102232993Y-88610099D01*
X102347007Y-88675925D01*
X102354821Y-88678019D01*
X101880511Y-89152330D01*
X101937275Y-89193571D01*
X102098559Y-89275749D01*
X102270710Y-89331683D01*
X102449490Y-89360000D01*
X102630510Y-89360000D01*
X102809289Y-89331683D01*
X102981440Y-89275749D01*
X103142728Y-89193569D01*
X103199487Y-89152330D01*
X102725176Y-88678019D01*
X102732993Y-88675925D01*
X102847007Y-88610099D01*
X102940099Y-88517007D01*
X103005925Y-88402993D01*
X103008019Y-88395176D01*
X103482330Y-88869487D01*
X103523569Y-88812728D01*
X103605749Y-88651440D01*
X103661683Y-88479289D01*
X103690000Y-88300510D01*
X103690000Y-88119489D01*
X103661683Y-87940710D01*
X103605749Y-87768559D01*
X103523571Y-87607275D01*
X103482330Y-87550511D01*
X103008019Y-88024821D01*
X103005925Y-88017007D01*
X102940099Y-87902993D01*
X102847007Y-87809901D01*
X102732993Y-87744075D01*
X102725174Y-87741980D01*
X103199488Y-87267667D01*
X103142728Y-87226430D01*
X102981440Y-87144250D01*
X102809289Y-87088316D01*
X102630510Y-87060000D01*
X102449490Y-87060000D01*
X102270710Y-87088316D01*
X102098559Y-87144250D01*
X101937267Y-87226432D01*
X101880510Y-87267667D01*
X102354823Y-87741980D01*
X102347007Y-87744075D01*
X102232993Y-87809901D01*
X102139901Y-87902993D01*
X102074075Y-88017007D01*
X102071980Y-88024823D01*
X101597667Y-87550510D01*
X101556432Y-87607267D01*
X101474250Y-87768559D01*
X101418316Y-87940710D01*
X101390000Y-88119489D01*
X101050500Y-88119489D01*
X101050500Y-88106535D01*
X101010130Y-87903580D01*
X100930941Y-87712402D01*
X100815977Y-87540345D01*
X100669655Y-87394023D01*
X100497598Y-87279059D01*
X100497599Y-87279059D01*
X100497597Y-87279058D01*
X100306418Y-87199869D01*
X100103467Y-87159500D01*
X100103465Y-87159500D01*
X99896535Y-87159500D01*
X99896532Y-87159500D01*
X99693581Y-87199869D01*
X99502402Y-87279058D01*
X99330348Y-87394020D01*
X99184020Y-87540348D01*
X99069058Y-87712402D01*
X98989869Y-87903581D01*
X98949500Y-88106532D01*
X98510499Y-88106532D01*
X98470130Y-87903580D01*
X98390941Y-87712402D01*
X98275977Y-87540345D01*
X98129655Y-87394023D01*
X98120216Y-87387716D01*
X97957597Y-87279058D01*
X97766418Y-87199869D01*
X97563467Y-87159500D01*
X97563465Y-87159500D01*
X97356535Y-87159500D01*
X97356532Y-87159500D01*
X97153581Y-87199869D01*
X96962402Y-87279058D01*
X96790348Y-87394020D01*
X96644020Y-87540348D01*
X96529058Y-87712402D01*
X96449869Y-87903581D01*
X96409500Y-88106532D01*
X96409500Y-88313467D01*
X96449869Y-88516418D01*
X96529058Y-88707597D01*
X96644020Y-88879651D01*
X96644023Y-88879655D01*
X96790345Y-89025977D01*
X96962402Y-89140941D01*
X97153580Y-89220130D01*
X97356535Y-89260500D01*
X97356536Y-89260500D01*
X97563464Y-89260500D01*
X97563465Y-89260500D01*
X97766420Y-89220130D01*
X97927403Y-89153447D01*
X97988400Y-89148647D01*
X98035292Y-89174908D01*
X98390881Y-89530496D01*
X98418659Y-89585013D01*
X98409088Y-89645445D01*
X98365823Y-89688710D01*
X98320878Y-89699500D01*
X96590252Y-89699500D01*
X96590251Y-89699500D01*
X96590241Y-89699501D01*
X96531772Y-89711132D01*
X96531766Y-89711134D01*
X96465451Y-89755445D01*
X96465445Y-89755451D01*
X96421134Y-89821766D01*
X96421132Y-89821772D01*
X96409501Y-89880241D01*
X96409500Y-89880253D01*
X96409500Y-91619746D01*
X96409501Y-91619758D01*
X96421132Y-91678227D01*
X96421134Y-91678233D01*
X96465445Y-91744548D01*
X96465448Y-91744552D01*
X96531769Y-91788867D01*
X96576231Y-91797711D01*
X96590241Y-91800498D01*
X96590246Y-91800498D01*
X96590252Y-91800500D01*
X96590253Y-91800500D01*
X98329747Y-91800500D01*
X98329748Y-91800500D01*
X98336182Y-91799220D01*
X98396943Y-91806409D01*
X98441875Y-91847939D01*
X98454500Y-91896317D01*
X98454500Y-96204966D01*
X98435593Y-96263157D01*
X98386093Y-96299121D01*
X98329878Y-96300593D01*
X98318986Y-96297674D01*
X98306018Y-96294200D01*
X98193982Y-96294200D01*
X98128656Y-96311704D01*
X98085758Y-96323198D01*
X97988739Y-96379213D01*
X97909513Y-96458439D01*
X97853498Y-96555458D01*
X97844404Y-96589400D01*
X97826650Y-96655660D01*
X97822821Y-96669950D01*
X97821562Y-96669612D01*
X97798190Y-96718593D01*
X97744415Y-96747779D01*
X97683754Y-96739783D01*
X97667153Y-96729757D01*
X97661434Y-96725486D01*
X97610363Y-96674415D01*
X97534026Y-96630342D01*
X97529349Y-96626849D01*
X97514895Y-96606396D01*
X97498144Y-96587792D01*
X97497514Y-96581801D01*
X97494037Y-96576881D01*
X97494365Y-96551845D01*
X97491748Y-96526942D01*
X97494778Y-96520368D01*
X97494840Y-96515701D01*
X97500305Y-96508381D01*
X97507892Y-96491927D01*
X97507641Y-96491782D01*
X97509221Y-96489044D01*
X97510048Y-96487252D01*
X97510875Y-96486172D01*
X97510885Y-96486163D01*
X97548230Y-96421479D01*
X97566901Y-96389141D01*
X97566901Y-96389139D01*
X97566903Y-96389137D01*
X97595900Y-96280918D01*
X97595900Y-96168882D01*
X97566903Y-96060663D01*
X97566901Y-96060660D01*
X97566901Y-96060658D01*
X97517594Y-95975257D01*
X97510885Y-95963637D01*
X97431663Y-95884415D01*
X97431660Y-95884413D01*
X97334640Y-95828398D01*
X97334641Y-95828398D01*
X97248866Y-95805415D01*
X97197551Y-95772091D01*
X97175625Y-95714969D01*
X97175842Y-95709707D01*
X97175500Y-95709707D01*
X97175500Y-95591183D01*
X97150371Y-95497400D01*
X97146503Y-95482963D01*
X97146501Y-95482960D01*
X97146501Y-95482958D01*
X97090486Y-95385939D01*
X97090485Y-95385937D01*
X97011263Y-95306715D01*
X97011260Y-95306713D01*
X96914240Y-95250698D01*
X96914242Y-95250698D01*
X96872251Y-95239447D01*
X96806018Y-95221700D01*
X96693982Y-95221700D01*
X96627748Y-95239447D01*
X96585758Y-95250698D01*
X96517961Y-95289842D01*
X96458113Y-95302564D01*
X96407826Y-95280175D01*
X96406913Y-95281366D01*
X96401764Y-95277415D01*
X96304740Y-95221398D01*
X96304742Y-95221398D01*
X96262751Y-95210147D01*
X96196518Y-95192400D01*
X96084482Y-95192400D01*
X96018248Y-95210147D01*
X95976258Y-95221398D01*
X95876009Y-95279278D01*
X95816161Y-95292000D01*
X95760265Y-95267113D01*
X95747961Y-95253801D01*
X95746687Y-95252141D01*
X95746685Y-95252137D01*
X95667463Y-95172915D01*
X95664867Y-95171416D01*
X95570440Y-95116898D01*
X95570442Y-95116898D01*
X95528451Y-95105647D01*
X95462218Y-95087900D01*
X95450455Y-95087900D01*
X95392264Y-95068993D01*
X95356300Y-95019493D01*
X95356300Y-94958307D01*
X95380449Y-94918898D01*
X95404885Y-94894463D01*
X95460903Y-94797437D01*
X95489900Y-94689218D01*
X95489900Y-94609640D01*
X95508807Y-94551449D01*
X95558307Y-94515485D01*
X95563280Y-94514013D01*
X95579730Y-94509605D01*
X95579730Y-94509604D01*
X95579737Y-94509603D01*
X95676763Y-94453585D01*
X95755985Y-94374363D01*
X95812003Y-94277337D01*
X95841000Y-94169118D01*
X95841000Y-94057082D01*
X95812003Y-93948863D01*
X95812001Y-93948860D01*
X95812001Y-93948858D01*
X95755986Y-93851839D01*
X95755985Y-93851837D01*
X95676763Y-93772615D01*
X95676760Y-93772613D01*
X95579740Y-93716598D01*
X95579742Y-93716598D01*
X95537751Y-93705347D01*
X95471518Y-93687600D01*
X95359482Y-93687600D01*
X95293248Y-93705347D01*
X95251258Y-93716598D01*
X95154239Y-93772613D01*
X95075013Y-93851839D01*
X95018998Y-93948858D01*
X94990000Y-94057083D01*
X94990000Y-94136659D01*
X94971093Y-94194850D01*
X94921593Y-94230814D01*
X94916627Y-94232285D01*
X94900159Y-94236698D01*
X94803139Y-94292713D01*
X94723913Y-94371939D01*
X94667898Y-94468958D01*
X94651686Y-94529463D01*
X94638900Y-94577182D01*
X94638900Y-94689218D01*
X94664472Y-94784655D01*
X94667898Y-94797441D01*
X94723913Y-94894460D01*
X94723915Y-94894463D01*
X94803137Y-94973685D01*
X94803139Y-94973686D01*
X94900159Y-95029701D01*
X94900157Y-95029701D01*
X94900161Y-95029702D01*
X94900163Y-95029703D01*
X95008382Y-95058700D01*
X95008384Y-95058700D01*
X95020145Y-95058700D01*
X95036215Y-95063921D01*
X95053105Y-95064348D01*
X95064583Y-95073138D01*
X95078336Y-95077607D01*
X95088268Y-95091278D01*
X95101681Y-95101550D01*
X95105799Y-95115407D01*
X95114300Y-95127107D01*
X95114300Y-95144005D01*
X95119113Y-95160199D01*
X95114300Y-95171416D01*
X95114300Y-95188293D01*
X95098743Y-95217894D01*
X95094769Y-95223082D01*
X95065715Y-95252137D01*
X95044877Y-95288229D01*
X95040957Y-95293348D01*
X95020808Y-95307223D01*
X95002624Y-95323596D01*
X94996027Y-95324289D01*
X94990565Y-95328051D01*
X94966106Y-95327433D01*
X94941774Y-95329990D01*
X94932609Y-95327144D01*
X94930313Y-95326529D01*
X94929399Y-95326506D01*
X94928953Y-95326164D01*
X94919369Y-95323596D01*
X94818618Y-95296600D01*
X94706582Y-95296600D01*
X94640348Y-95314347D01*
X94598358Y-95325598D01*
X94501339Y-95381613D01*
X94422113Y-95460839D01*
X94366098Y-95557858D01*
X94366097Y-95557863D01*
X94337100Y-95666082D01*
X94337100Y-95778118D01*
X94357402Y-95853885D01*
X94366098Y-95886341D01*
X94422113Y-95983360D01*
X94422115Y-95983363D01*
X94501337Y-96062585D01*
X94501339Y-96062586D01*
X94598359Y-96118601D01*
X94598357Y-96118601D01*
X94598361Y-96118602D01*
X94598363Y-96118603D01*
X94706582Y-96147600D01*
X94706584Y-96147600D01*
X94818616Y-96147600D01*
X94818618Y-96147600D01*
X94926837Y-96118603D01*
X94926839Y-96118601D01*
X94926841Y-96118601D01*
X94959044Y-96100008D01*
X95023863Y-96062585D01*
X95103085Y-95983363D01*
X95120705Y-95952844D01*
X95166172Y-95911905D01*
X95227022Y-95905508D01*
X95236195Y-95908357D01*
X95241961Y-95909902D01*
X95241963Y-95909903D01*
X95350182Y-95938900D01*
X95350184Y-95938900D01*
X95462216Y-95938900D01*
X95462218Y-95938900D01*
X95570437Y-95909903D01*
X95570439Y-95909901D01*
X95570441Y-95909901D01*
X95670690Y-95852022D01*
X95730538Y-95839300D01*
X95786434Y-95864186D01*
X95798733Y-95877492D01*
X95800012Y-95879159D01*
X95800013Y-95879160D01*
X95800015Y-95879163D01*
X95879237Y-95958385D01*
X95879239Y-95958386D01*
X95976259Y-96014401D01*
X95976257Y-96014401D01*
X95976261Y-96014402D01*
X95976263Y-96014403D01*
X96084482Y-96043400D01*
X96084484Y-96043400D01*
X96196516Y-96043400D01*
X96196518Y-96043400D01*
X96304737Y-96014403D01*
X96372542Y-95975255D01*
X96432384Y-95962535D01*
X96482673Y-95984924D01*
X96483587Y-95983734D01*
X96488735Y-95987684D01*
X96585759Y-96043701D01*
X96585757Y-96043701D01*
X96585761Y-96043702D01*
X96585763Y-96043703D01*
X96671535Y-96066685D01*
X96722847Y-96100008D01*
X96744774Y-96157129D01*
X96744592Y-96162393D01*
X96744900Y-96162393D01*
X96744900Y-96168882D01*
X96744900Y-96280918D01*
X96760298Y-96338383D01*
X96773898Y-96389141D01*
X96825133Y-96477881D01*
X96829915Y-96486163D01*
X96909137Y-96565385D01*
X96909139Y-96565386D01*
X96980414Y-96606537D01*
X97021355Y-96652006D01*
X97027751Y-96712856D01*
X97011609Y-96747873D01*
X97011859Y-96748018D01*
X97010292Y-96750731D01*
X97009462Y-96752533D01*
X97008614Y-96753638D01*
X96952598Y-96850658D01*
X96952597Y-96850663D01*
X96923600Y-96958882D01*
X96923600Y-97070918D01*
X96935734Y-97116203D01*
X96952598Y-97179141D01*
X97004804Y-97269563D01*
X97008615Y-97276163D01*
X97087837Y-97355385D01*
X97087839Y-97355386D01*
X97184859Y-97411401D01*
X97184857Y-97411401D01*
X97184861Y-97411402D01*
X97184863Y-97411403D01*
X97293082Y-97440400D01*
X97293084Y-97440400D01*
X97405116Y-97440400D01*
X97405118Y-97440400D01*
X97513337Y-97411403D01*
X97513339Y-97411401D01*
X97513341Y-97411401D01*
X97542164Y-97394759D01*
X97610363Y-97355385D01*
X97689585Y-97276163D01*
X97745603Y-97179137D01*
X97774600Y-97070918D01*
X97774600Y-97070916D01*
X97776279Y-97064650D01*
X97777541Y-97064988D01*
X97800896Y-97016019D01*
X97854667Y-96986823D01*
X97915329Y-96994808D01*
X97942710Y-97014158D01*
X97988737Y-97060185D01*
X97988739Y-97060186D01*
X98085759Y-97116201D01*
X98085757Y-97116201D01*
X98085761Y-97116202D01*
X98085763Y-97116203D01*
X98193982Y-97145200D01*
X98193984Y-97145200D01*
X98306016Y-97145200D01*
X98306018Y-97145200D01*
X98414237Y-97116203D01*
X98414239Y-97116201D01*
X98414241Y-97116201D01*
X98467007Y-97085736D01*
X98511263Y-97060185D01*
X98590485Y-96980963D01*
X98590487Y-96980958D01*
X98590490Y-96980956D01*
X98594434Y-96975817D01*
X98596940Y-96977739D01*
X98632738Y-96945401D01*
X98693577Y-96938906D01*
X98743157Y-96965772D01*
X100710381Y-98932996D01*
X100738158Y-98987513D01*
X100728587Y-99047945D01*
X100685322Y-99091210D01*
X100640377Y-99102000D01*
X99607443Y-99102000D01*
X99549252Y-99083093D01*
X99537445Y-99073009D01*
X99485465Y-99021029D01*
X99485462Y-99021027D01*
X99388442Y-98965012D01*
X99388444Y-98965012D01*
X99346453Y-98953761D01*
X99280220Y-98936014D01*
X99168184Y-98936014D01*
X99101950Y-98953761D01*
X99059960Y-98965012D01*
X98962941Y-99021027D01*
X98883715Y-99100253D01*
X98827700Y-99197272D01*
X98819155Y-99229163D01*
X98799992Y-99300684D01*
X98798702Y-99305497D01*
X98798702Y-99327048D01*
X98779795Y-99385239D01*
X98730295Y-99421203D01*
X98725326Y-99422674D01*
X98684563Y-99433596D01*
X98684559Y-99433598D01*
X98587539Y-99489613D01*
X98508313Y-99568839D01*
X98452298Y-99665858D01*
X98444063Y-99696592D01*
X98423300Y-99774082D01*
X98423300Y-99886118D01*
X98445040Y-99967253D01*
X98452298Y-99994341D01*
X98508313Y-100091360D01*
X98508315Y-100091363D01*
X98587537Y-100170585D01*
X98587539Y-100170586D01*
X98684559Y-100226601D01*
X98684557Y-100226601D01*
X98684561Y-100226602D01*
X98684563Y-100226603D01*
X98719901Y-100236071D01*
X98771214Y-100269395D01*
X98793141Y-100326517D01*
X98777305Y-100385617D01*
X98764281Y-100401702D01*
X98365760Y-100800223D01*
X98311243Y-100828000D01*
X98250811Y-100818429D01*
X98207546Y-100775164D01*
X98197975Y-100714732D01*
X98200127Y-100704606D01*
X98207600Y-100676718D01*
X98207600Y-100564682D01*
X98178603Y-100456463D01*
X98178601Y-100456460D01*
X98178601Y-100456458D01*
X98122586Y-100359439D01*
X98122585Y-100359437D01*
X98043363Y-100280215D01*
X98043360Y-100280213D01*
X97946340Y-100224198D01*
X97946342Y-100224198D01*
X97914775Y-100215740D01*
X97881037Y-100206700D01*
X97829725Y-100173377D01*
X97807798Y-100116255D01*
X97811034Y-100085454D01*
X97817100Y-100062818D01*
X97817100Y-99950782D01*
X97788103Y-99842563D01*
X97787258Y-99841100D01*
X97776366Y-99822234D01*
X97772822Y-99816096D01*
X97760100Y-99756250D01*
X97784985Y-99700354D01*
X97788536Y-99696611D01*
X97830485Y-99654663D01*
X97886503Y-99557637D01*
X97915500Y-99449418D01*
X97915500Y-99337382D01*
X97886503Y-99229163D01*
X97886501Y-99229160D01*
X97886501Y-99229158D01*
X97830486Y-99132139D01*
X97830485Y-99132137D01*
X97751263Y-99052915D01*
X97741910Y-99047515D01*
X97654240Y-98996898D01*
X97654242Y-98996898D01*
X97605649Y-98983878D01*
X97546018Y-98967900D01*
X97433982Y-98967900D01*
X97374351Y-98983878D01*
X97325758Y-98996898D01*
X97228739Y-99052913D01*
X97149513Y-99132139D01*
X97093498Y-99229158D01*
X97093497Y-99229163D01*
X97064500Y-99337382D01*
X97064500Y-99449418D01*
X97093497Y-99557637D01*
X97099964Y-99568839D01*
X97108777Y-99584102D01*
X97121499Y-99643950D01*
X97096613Y-99699846D01*
X97093045Y-99703606D01*
X97051114Y-99745537D01*
X96995098Y-99842558D01*
X96983120Y-99887261D01*
X96966100Y-99950782D01*
X96966100Y-100062818D01*
X96982108Y-100122560D01*
X96995098Y-100171041D01*
X97043969Y-100255686D01*
X97051115Y-100268063D01*
X97130337Y-100347285D01*
X97159304Y-100364009D01*
X97227359Y-100403301D01*
X97227363Y-100403303D01*
X97292661Y-100420799D01*
X97343974Y-100454121D01*
X97365901Y-100511243D01*
X97362665Y-100542044D01*
X97360432Y-100550380D01*
X97356600Y-100564682D01*
X97356600Y-100676718D01*
X97366725Y-100714504D01*
X97385598Y-100784941D01*
X97441613Y-100881960D01*
X97441615Y-100881963D01*
X97520837Y-100961185D01*
X97520839Y-100961186D01*
X97617859Y-101017201D01*
X97617857Y-101017201D01*
X97617861Y-101017202D01*
X97617863Y-101017203D01*
X97726082Y-101046200D01*
X97726084Y-101046200D01*
X97838117Y-101046200D01*
X97838118Y-101046200D01*
X97865996Y-101038730D01*
X97927098Y-101041931D01*
X97974648Y-101080436D01*
X97990484Y-101139536D01*
X97968558Y-101196658D01*
X97961624Y-101204359D01*
X97577381Y-101588603D01*
X97522864Y-101616381D01*
X97507377Y-101617600D01*
X95920000Y-101617600D01*
X95818742Y-101659543D01*
X94586542Y-102891743D01*
X94586541Y-102891742D01*
X94509046Y-102969238D01*
X94509044Y-102969240D01*
X94509043Y-102969242D01*
X94499139Y-102993153D01*
X94467100Y-103070500D01*
X94467100Y-103921044D01*
X94448193Y-103979235D01*
X94438104Y-103991047D01*
X94402014Y-104027137D01*
X94345998Y-104124158D01*
X94334867Y-104165700D01*
X94317000Y-104232382D01*
X90200500Y-104232382D01*
X90200500Y-103315782D01*
X92797300Y-103315782D01*
X92797300Y-103427818D01*
X92819669Y-103511301D01*
X92826298Y-103536041D01*
X92882313Y-103633060D01*
X92882315Y-103633063D01*
X92961537Y-103712285D01*
X92989129Y-103728215D01*
X93058559Y-103768301D01*
X93058557Y-103768301D01*
X93058561Y-103768302D01*
X93058563Y-103768303D01*
X93166782Y-103797300D01*
X93166784Y-103797300D01*
X93278816Y-103797300D01*
X93278818Y-103797300D01*
X93387037Y-103768303D01*
X93387039Y-103768301D01*
X93387041Y-103768301D01*
X93456471Y-103728215D01*
X93484063Y-103712285D01*
X93563285Y-103633063D01*
X93619303Y-103536037D01*
X93648300Y-103427818D01*
X93648300Y-103315782D01*
X93619303Y-103207563D01*
X93619301Y-103207560D01*
X93619301Y-103207558D01*
X93563286Y-103110539D01*
X93563285Y-103110537D01*
X93484063Y-103031315D01*
X93484060Y-103031313D01*
X93387040Y-102975298D01*
X93387042Y-102975298D01*
X93345051Y-102964047D01*
X93278818Y-102946300D01*
X93166782Y-102946300D01*
X93100548Y-102964047D01*
X93058558Y-102975298D01*
X92961539Y-103031313D01*
X92882313Y-103110539D01*
X92826298Y-103207558D01*
X92817762Y-103239415D01*
X92797300Y-103315782D01*
X90200500Y-103315782D01*
X90200500Y-102193982D01*
X92782500Y-102193982D01*
X92782500Y-102306018D01*
X92807467Y-102399196D01*
X92811498Y-102414241D01*
X92834288Y-102453713D01*
X92867515Y-102511263D01*
X92946737Y-102590485D01*
X92946739Y-102590486D01*
X93043759Y-102646501D01*
X93043757Y-102646501D01*
X93043761Y-102646502D01*
X93043763Y-102646503D01*
X93151982Y-102675500D01*
X93151984Y-102675500D01*
X93264016Y-102675500D01*
X93264018Y-102675500D01*
X93372237Y-102646503D01*
X93372239Y-102646501D01*
X93372241Y-102646501D01*
X93401064Y-102629859D01*
X93469263Y-102590485D01*
X93548485Y-102511263D01*
X93587859Y-102443064D01*
X93604501Y-102414241D01*
X93604501Y-102414239D01*
X93604503Y-102414237D01*
X93633500Y-102306018D01*
X93633500Y-102193982D01*
X93604503Y-102085763D01*
X93604501Y-102085760D01*
X93604501Y-102085758D01*
X93548486Y-101988739D01*
X93548485Y-101988737D01*
X93469263Y-101909515D01*
X93469260Y-101909513D01*
X93372240Y-101853498D01*
X93372242Y-101853498D01*
X93330251Y-101842247D01*
X93264018Y-101824500D01*
X93151982Y-101824500D01*
X93085748Y-101842247D01*
X93043758Y-101853498D01*
X92946739Y-101909513D01*
X92867513Y-101988739D01*
X92811498Y-102085758D01*
X92795286Y-102146263D01*
X92782500Y-102193982D01*
X90200500Y-102193982D01*
X90200500Y-100960382D01*
X92790900Y-100960382D01*
X92790900Y-101072418D01*
X92798706Y-101101550D01*
X92819898Y-101180641D01*
X92875913Y-101277660D01*
X92875915Y-101277663D01*
X92955137Y-101356885D01*
X92955139Y-101356886D01*
X93052159Y-101412901D01*
X93052157Y-101412901D01*
X93052161Y-101412902D01*
X93052163Y-101412903D01*
X93160382Y-101441900D01*
X93160384Y-101441900D01*
X93272416Y-101441900D01*
X93272418Y-101441900D01*
X93380637Y-101412903D01*
X93380639Y-101412901D01*
X93380641Y-101412901D01*
X93409464Y-101396259D01*
X93477663Y-101356885D01*
X93556885Y-101277663D01*
X93612903Y-101180637D01*
X93641900Y-101072418D01*
X93641900Y-100960382D01*
X93612903Y-100852163D01*
X93612901Y-100852160D01*
X93612901Y-100852158D01*
X93556886Y-100755139D01*
X93556885Y-100755137D01*
X93477663Y-100675915D01*
X93477537Y-100675842D01*
X93380640Y-100619898D01*
X93380642Y-100619898D01*
X93338651Y-100608647D01*
X93272418Y-100590900D01*
X93160382Y-100590900D01*
X93094148Y-100608647D01*
X93052158Y-100619898D01*
X92955139Y-100675913D01*
X92875913Y-100755139D01*
X92819898Y-100852158D01*
X92811377Y-100883960D01*
X92790900Y-100960382D01*
X90200500Y-100960382D01*
X90200500Y-99859182D01*
X92782900Y-99859182D01*
X92782900Y-99971218D01*
X92789697Y-99996584D01*
X92811898Y-100079441D01*
X92866133Y-100173377D01*
X92867915Y-100176463D01*
X92947137Y-100255685D01*
X92968571Y-100268060D01*
X93044159Y-100311701D01*
X93044157Y-100311701D01*
X93044161Y-100311702D01*
X93044163Y-100311703D01*
X93152382Y-100340700D01*
X93152384Y-100340700D01*
X93264416Y-100340700D01*
X93264418Y-100340700D01*
X93372637Y-100311703D01*
X93372639Y-100311701D01*
X93372641Y-100311701D01*
X93420651Y-100283982D01*
X93469663Y-100255685D01*
X93548885Y-100176463D01*
X93604903Y-100079437D01*
X93633900Y-99971218D01*
X93633900Y-99859182D01*
X93619458Y-99805282D01*
X95030800Y-99805282D01*
X95030800Y-99917318D01*
X95053255Y-100001123D01*
X95059798Y-100025541D01*
X95107129Y-100107519D01*
X95115815Y-100122563D01*
X95178400Y-100185148D01*
X95206176Y-100239663D01*
X95196605Y-100300095D01*
X95178401Y-100325150D01*
X95156267Y-100347285D01*
X95142113Y-100361439D01*
X95086098Y-100458458D01*
X95073832Y-100504237D01*
X95057100Y-100566682D01*
X95057100Y-100678718D01*
X95077576Y-100755137D01*
X95086098Y-100786941D01*
X95142113Y-100883960D01*
X95142115Y-100883963D01*
X95221337Y-100963185D01*
X95221339Y-100963186D01*
X95318359Y-101019201D01*
X95318357Y-101019201D01*
X95318361Y-101019202D01*
X95318363Y-101019203D01*
X95426582Y-101048200D01*
X95426584Y-101048200D01*
X95538616Y-101048200D01*
X95538618Y-101048200D01*
X95646837Y-101019203D01*
X95646839Y-101019201D01*
X95646841Y-101019201D01*
X95679533Y-101000326D01*
X95743863Y-100963185D01*
X95823085Y-100883963D01*
X95877136Y-100790344D01*
X95879101Y-100786941D01*
X95879101Y-100786939D01*
X95879103Y-100786937D01*
X95908100Y-100678718D01*
X95908100Y-100566682D01*
X95879103Y-100458463D01*
X95879101Y-100458460D01*
X95879101Y-100458458D01*
X95823086Y-100361439D01*
X95823085Y-100361437D01*
X95760499Y-100298851D01*
X95732724Y-100244337D01*
X95742295Y-100183905D01*
X95760498Y-100158849D01*
X95796785Y-100122563D01*
X95852803Y-100025537D01*
X95881800Y-99917318D01*
X95881800Y-99805282D01*
X95852803Y-99697063D01*
X95852801Y-99697060D01*
X95852801Y-99697058D01*
X95796786Y-99600039D01*
X95796785Y-99600037D01*
X95717563Y-99520815D01*
X95717560Y-99520813D01*
X95620540Y-99464798D01*
X95620542Y-99464798D01*
X95563141Y-99449418D01*
X95512318Y-99435800D01*
X95400282Y-99435800D01*
X95349459Y-99449418D01*
X95292058Y-99464798D01*
X95195039Y-99520813D01*
X95115813Y-99600039D01*
X95059798Y-99697058D01*
X95045463Y-99750558D01*
X95030800Y-99805282D01*
X93619458Y-99805282D01*
X93604903Y-99750963D01*
X93604901Y-99750960D01*
X93604901Y-99750958D01*
X93549304Y-99654663D01*
X93548885Y-99653937D01*
X93469663Y-99574715D01*
X93469660Y-99574713D01*
X93372640Y-99518698D01*
X93372642Y-99518698D01*
X93330651Y-99507447D01*
X93264418Y-99489700D01*
X93152382Y-99489700D01*
X93086148Y-99507447D01*
X93044158Y-99518698D01*
X92947139Y-99574713D01*
X92867913Y-99653939D01*
X92811898Y-99750958D01*
X92802910Y-99784503D01*
X92782900Y-99859182D01*
X90200500Y-99859182D01*
X90200500Y-86799500D01*
X90219407Y-86741309D01*
X90268907Y-86705345D01*
X90299500Y-86700500D01*
X109700500Y-86700500D01*
X109758691Y-86719407D01*
G37*
%TD.AperFunction*%
%TD*%
M02*
